<svg xmlns="http://www.w3.org/2000/svg" viewBox="0 0 129.71 231.84"><defs><style>.cls-1{fill:#bbbbc7;}.cls-2{fill:#f7f7fb;}.cls-3{fill:#bbbad0;}.cls-4{fill:#e8e9f4;}.cls-5{fill:#b6b2be;}.cls-6{fill:#f5f5fa;}.cls-7{fill:#bbb8c4;}.cls-8{fill:#edeef6;}.cls-9{fill:#e3e4f2;}.cls-10{fill:#f2f3f9;}.cls-11{fill:#eff0f8;}.cls-12{fill:#cdccd6;}.cls-13{fill:#aba2b4;}.cls-14{fill:#aea5b7;}.cls-15{fill:#b4b0bb;}.cls-16{fill:#dfe0ef;}.cls-17{fill:#afa8b9;}.cls-18{fill:#b6b1c5;}.cls-19{fill:#b2abbd;}.cls-20{fill:#b3acbf;}.cls-21{fill:#b4afc2;}.cls-22{fill:#b8b4c9;}.cls-23{fill:#bab8ce;}.cls-24{fill:#b9b6cc;}.cls-25{fill:#b1a9bc;}.cls-26{fill:#dedeea;}.cls-27{fill:#f5f5f9;}.cls-28{fill:#e0e0ec;}.cls-29{fill:#ecebf3;}.cls-30{fill:#cecdde;}.cls-31{fill:#d4d3e3;}.cls-32{fill:#dcdbe8;}.cls-33{fill:#d1d0e1;}.cls-34{fill:#e7e6f0;}.cls-35{fill:#c7c6d9;}.cls-36{fill:#f8f9fc;}.cls-37{fill:#c5c4d8;}.cls-38{fill:#d9d8e6;}.cls-39{fill:#c3c2d6;}.cls-40{fill:#c9c8da;}.cls-41{fill:#cbcadc;}.cls-42{fill:#d7d5e4;}.cls-43{fill:#b6b6c3;}.cls-44{fill:#c1bfd4;}.cls-45{fill:#cbcad3;}.cls-46{fill:#d7d7dc;}.cls-47{fill:#d1d0d8;}.cls-48{fill:#dadbe0;}.cls-49{fill:#c5c4cf;}.cls-50{fill:#c8c7d1;}.cls-51{fill:#b9b8c5;}.cls-52{fill:#c4c3d9;}.cls-53{fill:#bdbcc9;}.cls-54{fill:#bfbecb;}.cls-55{fill:#d0cfe0;}.cls-56{fill:#d6d5e4;}.cls-57{fill:#d8d7e5;}.cls-58{fill:#d1d2e6;}.cls-59{fill:#cfd0e5;}.cls-60{fill:#d3d4e8;}.cls-61{fill:#a79dad;}.cls-62{fill:#b2acb7;}.cls-63{fill:#d5d6ea;}.cls-64{fill:#b1aabc;}.cls-65{fill:#b8b4c8;}.cls-66{fill:#aaa0b1;}.cls-67{fill:#ada5b6;}.cls-68{fill:#c0bed3;}.cls-69{fill:#b3aeb9;}.cls-70{fill:#c9c9db;}.cls-71{fill:#c4c4d0;}.cls-72{fill:#c7c7d4;}.cls-73{fill:#c9c9d6;}.cls-74{fill:#c1c1ce;}.cls-75{fill:#a89eae;}.cls-76{fill:#a99faf;}.cls-77{fill:#d7d8ec;}.cls-78{fill:#aaa1b2;}.cls-79{fill:#b7b3c8;}.cls-80{fill:#e5e4ef;}.cls-81{fill:#f1f1f7;}.cls-82{fill:#efeff5;}.cls-83{fill:#bcbbd0;}.cls-84{fill:#dfdfeb;}.cls-85{fill:#dbdae8;}.cls-86{fill:#e1e1ed;}.cls-87{fill:#deddea;}.cls-88{fill:#c0bfd5;}.cls-89{fill:#c1bfcb;}.cls-90{fill:#e7e7f0;}.cls-91{fill:#c6c5d8;}.cls-92{fill:#d7d6e5;}.cls-93{fill:#f0f0f6;}.cls-94{fill:#f6f6fa;}.cls-95{fill:#f9fafc;}.cls-96{fill:#c2c0cc;}.cls-97{fill:#c2c1d7;}.cls-98{fill:#c8c8dd;}.cls-99{fill:#c5c5db;}.cls-100{fill:#bebdd3;}.cls-101{fill:#cfcee3;}.cls-102{fill:#fbfbfd;}.cls-103{fill:#f9f9fb;}.cls-104{fill:#f1f1f3;}.cls-105{fill:#cbcbe0;}.cls-106{fill:#cdcce1;}.cls-107{fill:#d0d0e5;}.cls-108{fill:#cecee2;}.cls-109{fill:#b2afc5;}.cls-110{fill:#b3b1c7;}.cls-111{fill:#b5b3c9;}.cls-112{fill:#b8b6cc;}.cls-113{fill:#b6b4ca;}.cls-114{fill:#b9b8ce;}.cls-115{fill:#c4c3da;}.cls-116{fill:#c7c7dd;}.cls-117{fill:#bdbcd2;}.cls-118{fill:#bfbed4;}.cls-119{fill:#cacadf;}.cls-120{fill:#b5b0c4;}.cls-121{fill:#cfcddf;}.cls-122{fill:#cdccdf;}.cls-123{fill:#d3d3e3;}.cls-124{fill:#c8c7db;}.cls-125{fill:#e4e4ef;}.cls-126{fill:#e6e6f0;}.cls-127{fill:#e8e8f1;}.cls-128{fill:#afa7b9;}.cls-129{fill:#b3adc0;}.cls-130{fill:#ada5b7;}.cls-131{fill:#bdbcd1;}.cls-132{fill:#cac9db;}.cls-133{fill:#e9e9f1;}.cls-134{fill:#d2d1e2;}.cls-135{fill:#cecddf;}.cls-136{fill:#eaeaef;}.cls-137{fill:#bbbacf;}.cls-138{fill:#b8b7cd;}.cls-139{fill:#bebdd2;}.cls-140{fill:#c1c0d5;}.cls-141{fill:#ececf3;}</style></defs><g id="Layer_2" data-name="Layer 2"><g id="Layer_1-2" data-name="Layer 1"><path class="cls-1" d="M41,231.84c-1.89-2.31-5.13.24-7-2,2.85-2.37,6.27-1.22,9.46-1.53a24.08,24.08,0,0,0,3.89-.28c4.63-.2,6.14-2.88,6.25-7.1.06-2.56-.52-5.31,1.45-7.53a4.39,4.39,0,0,1,5.11.34c2.36,4.7,1.23,9.64,1,14.51a4.44,4.44,0,0,1-.75,1.62c-2.56,1.85-5.65.32-8.35,1.29-2.64.58-5.43-.53-8,.66Z"/><path class="cls-2" d="M48.93,4c.54-1.69,1.84-2.79,3-4h2l2,2c.46,6,1.54,12-1,17.76a3,3,0,0,1-2.29.93,6.58,6.58,0,0,1-3.12-1.07,2.65,2.65,0,0,1-1.07-2.1C48.81,13,48.18,8.48,48.93,4Z"/><path class="cls-3" d="M123.84,144.82a68.47,68.47,0,0,1,5,28.42c-.19,5.57-.67,11.21.68,16.78a4.64,4.64,0,0,1-1.76,4.85c-2.37-2.88-1.17-6.33-1.47-9.53-.18-1.8.13-3.63-.26-5.41-1.06-4.74-.18-9.64-.7-14.51a4,4,0,0,0-2.18,1.71c-1.81,2.62-4.39,4.55-6.23,7.14a24.49,24.49,0,0,1-2.52,3c-1.06,1.05-2.14,2.08-3.14,3.19-1.21,1.25-2,2.82-3.15,4.13-4.08,3-5.78,8.47-10.73,10.62a1.76,1.76,0,0,1-1.18-.78c-1-2.83-.9-5.84-1.56-8.72a11.25,11.25,0,0,1-.07-1.42,14.3,14.3,0,0,0-.34-4.79,10.9,10.9,0,0,1-.36-1.36,21.19,21.19,0,0,1-.31-2.86c.22-2.18-1-4.36,0-6.54,8-4.23,16.58-7.16,24.89-10.71,3.26-1.4,6.06-3,4.45-7.31a10.78,10.78,0,0,1-.21-3.88A3.19,3.19,0,0,1,123.84,144.82Z"/><path class="cls-4" d="M73.9,10a22.53,22.53,0,0,1,7,3c-2.15,2.07-2.64,4.64-2.62,7.53s.65,5.88-1.13,8.54c-3.81,1.24-6.5-.11-8.3-3.57-.81-3.9-.54-7.83-.34-11.76C68.67,10.28,70.17,8.45,73.9,10Z"/><path class="cls-5" d="M118.87,205a76.85,76.85,0,0,1-12,14,2.28,2.28,0,0,1-.83-1.93,6.59,6.59,0,0,1,2.11-3.67c1.46-1.45,2.94-2.9,4.33-4.43a11.51,11.51,0,0,0,3.37-10.73c-.38-2.39.19-4.88.07-7.34a5.3,5.3,0,0,1,.43-1.47c1.75-2.16,2.53-5.74,6.59-4.51,2.11,5.51,2.25,10.89-1.08,16l0,0A23.5,23.5,0,0,0,118.87,205Z"/><path class="cls-6" d="M53.93,20c1.73-3.11.75-6.49,1-9.74.2-2.77-.56-5.65,1-8.25a22.63,22.63,0,0,1,7,3c-1.84,2-1.47,4.58-1.58,7-.17,3.44.51,6.94-.67,10.32-1,1.56-2.33.93-3.63.59C55.8,22.17,53.77,22.22,53.93,20Z"/><path class="cls-7" d="M121.88,200.94c1-5.36,1.93-10.72-.07-16.07-.55-1,0-1.67.49-2.41,1.38-1.35,2.45-3.09,4.5-3.58,2.12,5.22.46,10.67,1,16A26.69,26.69,0,0,1,121.88,200.94Z"/><path class="cls-8" d="M73.9,10c-2.87-.34-4.21.69-4.05,3.81.21,4.09,0,8.19,0,12.29a2.61,2.61,0,0,1-2.5.51,4,4,0,0,1-2.47-2.54c-.86-4.24-.54-8.52-.32-12.77.13-2.49,1-4.69,4.32-3.3C70.67,8.42,72.51,8.64,73.9,10Z"/><path class="cls-9" d="M76.88,28.89c0-4,.17-8,0-12-.17-3.11,1.06-4.3,4-3.92a5.7,5.7,0,0,1,4,2c-2.14,2.52-1.57,5.67-2,8.6a9.52,9.52,0,0,1-4.65,5.61A1.34,1.34,0,0,1,76.88,28.89Z"/><path class="cls-10" d="M59.91,22.92c0-4.72.05-9.44,0-14.16,0-2.17.14-4,3-3.76a3,3,0,0,1,3,2c-2.59,2.58-1.2,5.87-1.58,8.85-.33,2.64.78,5.66-2,7.64A2.26,2.26,0,0,1,59.91,22.92Z"/><path class="cls-11" d="M61.88,23c2.16-3.89.64-8.09,1-12.14C63,8.72,62.94,6.74,65.92,7c1.1,0,2.27-.17,3,1-2.39-.18-3.07,1.06-3,3.27.1,4.55,0,9.1,0,13.66-1.14.72-2.19.21-3.26-.24C62.05,24.28,61.58,23.81,61.88,23Z"/><path class="cls-12" d="M68.91,230.9h-14l-3-.1c2.48-1.9,5.35-.53,8-1,1.44-1.33,3.24-1.36,5-1.38,2.63,0,5.26,0,7.88,0H81.4c2.7-.07,5.42.32,8.08-.46a14.41,14.41,0,0,1,3.21-.42,7.11,7.11,0,0,1,3.92.79.93.93,0,0,1,.24,1.38l-1,1.11-11,0h-16Z"/><path class="cls-13" d="M89.79,17.13c1.74,8.29,4.94,16.21,6.16,24.63a1.29,1.29,0,0,1,.1,1.3c-2.41.47-2.6-1.37-3-2.94-2-7.28-4.17-14.48-5.87-21.84C87.62,17,88.22,15.93,89.79,17.13Z"/><path class="cls-14" d="M95.83,43,96,41.76a160.57,160.57,0,0,1,7,26,1.32,1.32,0,0,1,.11,1.29c-3.24.35-2.57-2.44-3.31-4.11-1.23-5.59-3.16-11-4.28-16.62C96.09,46.56,93.2,44.57,95.83,43Z"/><path class="cls-15" d="M96.85,229.75c0-.3,0-.61,0-.91-2.63-4.46-1.26-9.28-1.25-14a4.89,4.89,0,0,1,.55-1.48c2.57-1.47,2.5.75,2.78,2.13.51,2.53-.1,5.15.36,7.77,2.78-2,3.77-5.84,7.54-6.44,0,.71,0,1.43,0,2.14A32.61,32.61,0,0,1,96.85,229.75Z"/><path class="cls-16" d="M89.79,17.13c-1.36-.18-1.93.49-2,1.77-1.91,1.76-2.76,4.79-6,5,0-2.08.09-4.17,0-6.25s1.18-2.74,3-2.68S88.68,15.24,89.79,17.13Z"/><path class="cls-17" d="M102.82,69l.12-1.23a87.33,87.33,0,0,1,4.94,18.11,2,2,0,0,1,.18,2.12c-2.61.25-2.09-2.15-2.91-3.42a99.4,99.4,0,0,1-2.7-10.34C103,72.49,100.19,70.53,102.82,69Z"/><path class="cls-18" d="M115.92,115.72a29,29,0,0,1,3,11,2.28,2.28,0,0,1,.19,2.12,1.44,1.44,0,0,1-1.36.2c-1.48-1.95-1.6-4.38-2.3-6.61.4-2-1.66-3.76-.48-5.81A2.5,2.5,0,0,1,115.92,115.72Z"/><path class="cls-19" d="M108.94,89.72a30.49,30.49,0,0,1,3,11,2.35,2.35,0,0,1,.21,2.11,1.53,1.53,0,0,1-1.32.3c-2.37-3.79-2.45-8.1-2.72-12.37A2.33,2.33,0,0,1,108.94,89.72Z"/><path class="cls-20" d="M111.82,102.93c0-.72.06-1.45.08-2.18a12.53,12.53,0,0,1,1.95,7.12,1.92,1.92,0,0,1,.23,2,1.53,1.53,0,0,1-1.34.23C111,107.92,110.31,105.57,111.82,102.93Z"/><path class="cls-21" d="M113.81,109.93c0-.69,0-1.37,0-2.06a17.24,17.24,0,0,1,2.07,7.85c0,.4-.08.8-.11,1.2-2.47.12-1.83-2.24-2.72-3.39C112.5,112.17,112.1,110.83,113.81,109.93Z"/><path class="cls-22" d="M118.81,128.91c0-.72,0-1.44.08-2.16a12.15,12.15,0,0,1,2,7.08.91.91,0,0,1,.28.83c-.07.29-.14.44-.21.44a1.93,1.93,0,0,1-1.36,0C117.61,133.25,117.92,131.12,118.81,128.91Z"/><path class="cls-23" d="M123.84,144.82l0,2.08a1,1,0,0,1-1.31,0c-.91-1.24-1-2.77-1.51-4.17a7.09,7.09,0,0,1,0-3.77,2.48,2.48,0,0,1,.93-1.19A12.36,12.36,0,0,1,123.84,144.82Z"/><path class="cls-7" d="M118.87,205c0-2.12,1.29-3.26,3-4.06C121.7,202.86,120.35,204,118.87,205Z"/><path class="cls-24" d="M121.89,137.73l-.09,1.18a1,1,0,0,1-1.23.12c-1.1-1.44-1.78-2.84.21-4.11,0-.36,0-.73.07-1.09C122.12,134.88,121.76,136.37,121.89,137.73Z"/><path class="cls-25" d="M108.94,89.72,108.82,91a.92.92,0,0,1-1.34-.18,2.25,2.25,0,0,1,.35-2.83c0-.7,0-1.4,0-2.1C109.11,86.89,108.81,88.36,108.94,89.72Z"/><path class="cls-26" d="M2,151.87a15.47,15.47,0,0,1,2-7,4.53,4.53,0,0,1,.52,5.56c8-6.31,16.93-12,25.8-17.8,1.55-1,3.28-1.73,4.94,0a4.07,4.07,0,0,1,.65,1.4,5.27,5.27,0,0,1-.57,3.81,4.08,4.08,0,0,1-1.16,1C25.9,143.07,18.74,149,11,154.09c-1,.63-1.91,1.32-2.91,1.9-1.71,1-3.59,2.49-5.49,1.25S1.45,153.76,2,151.87Z"/><path class="cls-27" d="M25,65c2.81-10.82,5.77-21.59,10-32a3.6,3.6,0,0,1,1.14,3.17c-1.13,9.45-.26,18.94-.71,28.41A8.47,8.47,0,0,1,34.9,67c-2.85,3.77-5.62.63-8.43-.09A2.78,2.78,0,0,1,25,65Z"/><path class="cls-28" d="M2,151.87c.29,1.55-.81,3.68,1,4.57s3.35-.77,4.83-1.77C14.89,149.85,22,145,29.09,140.18c1.51-1,3-2.11,4.87-2.27,2.27,3.41-.16,5.14-2.51,6.78-6.92,4.82-13.77,9.74-20.87,14.29a52.89,52.89,0,0,0-5.11,3.93c-3.28.78-4-1.93-5.34-3.88.29-2.05.59-4.09.88-6.14Z"/><path class="cls-29" d="M34,68.09c.25-11.71-.67-23.45,1-35.11,1.47-2.5.88-5.76,3-8,1.25,1.09,1.36,2.6,1.36,4.09,0,12.72.16,25.44-.06,38.16a5.59,5.59,0,0,1-.44,1.92C36.63,71.44,35.07,70.77,34,68.09Z"/><path class="cls-30" d="M13,113.85a43.5,43.5,0,0,1,4-14A2.68,2.68,0,0,1,17.8,101a5.93,5.93,0,0,1,0,2.9c-.37,2.07-1.49,4-1,6.65,3.67-1.1,6.19-3.78,9.22-5.57,3.28-1.93,5.7-5.73,10.28-5A4.3,4.3,0,0,1,37.1,102a10.36,10.36,0,0,1-.23,3.92,3.9,3.9,0,0,1-.8,1.38c-5.68,3.42-11.1,7.26-16.68,10.84-1.83,1.18-3.84,2.52-6,1.09S12.6,115.71,13,113.85Z"/><path class="cls-31" d="M10,123.88c0-1.12-.14-2.29,1-3a3.69,3.69,0,0,1,.65,4.61c8.08-4.08,14.75-11.16,23.59-14.82a1.34,1.34,0,0,1,1.27.65A4.81,4.81,0,0,1,36.6,115a6.35,6.35,0,0,1-2.23,3.24c-7,4.82-13.76,9.93-21,14.42-1.71,1.07-3.69,2-5-.68a15.39,15.39,0,0,1,.28-3C9.66,127.41,9.19,125.48,10,123.88Z"/><path class="cls-32" d="M34.94,132.9c-2-1.13-3.37.29-4.86,1.3C21.65,139.91,13.19,145.58,4,151.77v-6.9c0-3.93,1.58-7.44,3-11a3,3,0,0,1,1,1.94,7.94,7.94,0,0,1-.21,2.91c-.28,1.43-1,2.78-.76,4.36,1.35.9,2.08-.39,2.9-.95,6.8-4.61,13.75-9,20.44-13.78,1.41-1,2.84-2.43,4.86-1.19a4.64,4.64,0,0,1,.84,2.88A3.52,3.52,0,0,1,34.94,132.9Z"/><path class="cls-33" d="M36,110.92c-8.42,4.62-15.48,11.44-24.32,15.55-1.07-2-.41-3.89-.67-5.63a11,11,0,0,1,2-7c.41,1.63-.91,3.85,1.34,4.83,1.83.81,3.07-.75,4.41-1.62,4.27-2.79,8.54-5.58,12.76-8.44,1.39-.94,2.68-2,4.48-1.7A2.73,2.73,0,0,1,36,110.92Z"/><path class="cls-34" d="M38,69.91V25a19.3,19.3,0,0,1,3-10,3.39,3.39,0,0,1,1,1.6c-1.31,17.11-.08,34.27-.78,51.4a4.49,4.49,0,0,1-.71,1.72A1.73,1.73,0,0,1,38,69.91Z"/><path class="cls-35" d="M18.94,92.83c.41-5.22,2.1-10.1,4-14.91a3,3,0,0,1,1.05,2c.2,2-.53,3.92-1.11,5.82A16.53,16.53,0,0,0,22,92.5c3.46-1.65,6.15-4,9.19-5.75,1.59-.91,2.93-2.88,5.23-1.62,1,2,1.08,4.12-.71,5.37C30.58,94.07,25.8,98.13,20.22,101a2.75,2.75,0,0,1-2.38.08,5.05,5.05,0,0,1-.2-3C18.63,96.42,18.21,94.48,18.94,92.83Z"/><path class="cls-36" d="M41,16c0-.33,0-.66,0-1,2-4.11,4.21-8.14,8-11a20.68,20.68,0,0,1,0,14,1.68,1.68,0,0,1-1.62.61c-.6-.09-1.17-.26-1.76-.4L43.77,18A4.25,4.25,0,0,1,42,17.45,17.46,17.46,0,0,1,41,16Z"/><path class="cls-37" d="M23,79.94c0-.67,0-1.35,0-2L24.17,68c1.95.11,1.73,1.72,2,3a16.55,16.55,0,0,1-.35,4.81C25.06,77.29,25.61,79.73,23,79.94Z"/><path class="cls-38" d="M7,135.91c0-.68,0-1.35,0-2a15.39,15.39,0,0,1,2-7,1.4,1.4,0,0,1,0,2v3C8.16,133.15,10.07,135.77,7,135.91Z"/><path class="cls-39" d="M25,71c0-1,.19-2.16-.83-2.93C24,66.88,23.83,65.75,25,65l1,1C27.05,67.93,28.21,69.88,25,71Z"/><path class="cls-40" d="M18.94,92.83c-.17,1.73.72,3.65-.94,5.1a1.46,1.46,0,0,1,0-2.05C18,94.77,17.85,93.6,18.94,92.83Z"/><path class="cls-41" d="M18,95.88l0,2.05c0,1,0,2,0,3a.6.6,0,0,1-1,0c0-.37,0-.74-.07-1.12C17.07,98.45,16.62,96.93,18,95.88Z"/><path class="cls-42" d="M9,128.91c0-.67,0-1.35,0-2,0-1.11-.13-2.27,1-3C9.77,125.58,10.67,127.49,9,128.91Z"/><path class="cls-43" d="M43.94,229.84l-10,0-1.84-.12c-2.44-5.29-2-10.66-.4-16.06,4.41-1.9,8.86-1.68,13.32-.21C46.91,219.07,48.27,224.63,43.94,229.84Z"/><path class="cls-44" d="M.13,159,5,163c1.76.54,2.37,2,3,3.57a7.63,7.63,0,0,1,.34,1.63c-.3,5,1.61,10.2-1.44,14.92-2.47.76-3.43-1.12-4.58-2.61-.17,3.94.78,8-.71,11.9L1,192.9l-1-1Q.06,175.45.13,159Z"/><path class="cls-45" d="M16.87,211.89c-2.05-1.67-4.3-3.18-5-6a1.66,1.66,0,0,1,1.32-.22c.94,0,2.48,2.29,2.59-.76.1-2.63-.5-5.32.72-7.85a1.69,1.69,0,0,1,1.27-.58c2.14.66,3,2.61,4.2,4.2a7.44,7.44,0,0,1,1,2.21,24.92,24.92,0,0,1,.34,6.45c-.09,2.1.48,4.85-1.94,5.71C19.16,215.87,18.26,213.19,16.87,211.89Z"/><path class="cls-46" d="M25.9,222.87c-2.1-1.64-4.38-3.13-5-6,3,.45,4.2-.76,3.89-3.88-.19-2-.4-4.21.93-6.08,1.92-.84,2.91.6,4.05,1.65a6.46,6.46,0,0,1,1.4,4c-.35,2.79-.1,5.58-.21,8.37-.07,1.59.38,3.6-1.62,4.23C27.61,225.69,26.85,223.94,25.9,222.87Z"/><path class="cls-47" d="M26,206.83c0,2.5.06,5,0,7.48-.06,1.62.82,3.82-.58,4.72-2,1.3-2.68-1.94-4.48-2.16-1.81-1.28-3.57-2.59-4-5,.8.57,1.64,1.1,2.4,1.72,1.81,1.49,2.67.94,2.69-1.26,0-3.48,0-7,0-10.45a1.16,1.16,0,0,1,1.17-.2,19.8,19.8,0,0,1,3.15,4A1.14,1.14,0,0,1,26,206.83Z"/><path class="cls-48" d="M25.9,222.87c3.23,2.57,4.36,1.62,4.11-2.3-.19-2.91,0-5.85,0-8.78a1,1,0,0,1,1.08-.28,2.81,2.81,0,0,1,1.26,1.29,1.05,1.05,0,0,1-.32,1.08q0,7.94,0,15.86C29.37,228,26.86,226.14,25.9,222.87Z"/><path class="cls-49" d="M7.86,200.93c-2.54-2.47-5.74-4.36-6.87-8l.07-.08c3.78.1,5,3.61,7.44,5.55A2.61,2.61,0,0,1,9.11,201,1,1,0,0,1,7.86,200.93Z"/><path class="cls-50" d="M7.86,200.93,9,200.86a3.15,3.15,0,0,1,1.71.79c1.07,1,2.28,2,2.53,3.61l-.25.6-1.11,0C10.09,204.61,8.38,203.25,7.86,200.93Z"/><path class="cls-51" d="M43.94,229.84c2.08-5.22.52-10.66,1-16a4.09,4.09,0,0,1,3-1.28,20.36,20.36,0,0,1,5.72.33,2.92,2.92,0,0,1,1.32,1v4.47C54.92,228.58,54.4,229.12,43.94,229.84Z"/><path class="cls-52" d="M54.93,213.86l-1,0a93.52,93.52,0,0,0,.66-12.3c-.11-2.43-.66-4.27-3.55-4.3a14.75,14.75,0,0,1-4-.44,3.08,3.08,0,0,1-1.34-1,1.38,1.38,0,0,1,.54-1.48c3-1.41,6.11-.77,9.2-.8a9,9,0,0,1,2.56.55,4.78,4.78,0,0,1,2.66,2.26,39.84,39.84,0,0,1-.14,16.84l-.63.65Z"/><path class="cls-53" d="M59.92,228.84v-15a4.09,4.09,0,0,1,5.14-.29c2.24,4.58,1.3,9.35.86,14.09a3.25,3.25,0,0,1-1,1.43C63.25,229.34,61.56,229.71,59.92,228.84Z"/><path class="cls-54" d="M59.92,228.84h5a.59.59,0,0,1,.24.67q-.12.33-.24.33h-5Z"/><path class="cls-55" d="M53.93,20l3,2c2.53,1.53,2.44,4.08,2.46,6.55.06,6.56-.11,13.12.6,19.66-.45,2.84-2.33,4.67-4.52,6.22-1.08.77-2.34,1.44-3.33-.25-1.43-6.23-.56-12.55-.62-18.82-.06-5.11-.64-10.26.41-15.34Z"/><path class="cls-56" d="M51.93,20c1.5,2.44,1,5.15,1,7.76C53,36.86,53,46,53,55.08a3.23,3.23,0,0,1-.91,3c-1.27,1.32-2.4,1.64-3.18-.48-.79-11.63-.23-23.27-.3-34.91A4.64,4.64,0,0,1,49.94,19,2,2,0,0,1,51.93,20Z"/><path class="cls-57" d="M49.94,19q0,19.92,0,39.86c0,2.14-.72,3-2.71,1.43-1.28-4-.66-8.18-.62-12.26.1-10-.56-20,.35-30h2Z"/><path class="cls-58" d="M55.93,194.86l-10,0c-2,1.61-4.21,1.56-6.48.61-1.66-3.67,1.71-4.1,3.58-5,6.76-3.11,13.86-5.41,20.82-8.06,8.34-3.18,16.75-6.21,25.08-9.44,3-1.15,5.56-1.53,5.9,2.83l0,3c-.81,2.23-3,2.42-4.76,3.11C78.74,186.33,67.33,190.59,55.93,194.86Z"/><path class="cls-59" d="M94.84,175.87c-1-1.57-1.63-3.19-4.42-2.1-15.66,6.14-31.43,12-47.14,18-1.65.63-3.5,1.2-4.32,3.09-1.85,1.74-4,1.38-6.12.81a3.12,3.12,0,0,1-1.19-1,3.05,3.05,0,0,1-.28-1.49c.36-1.68,1.22-3.2,1.61-4.89.39-1,.91-1.78,2.13-1.73,2.21.63,4.22,0,6.27-.82,15-5.72,30.1-11.21,45.14-16.85,2.27-.85,4.53-2.21,7.15-1.32a.89.89,0,0,1,.22,1.32C94.4,171.18,95.19,173.45,94.84,175.87Z"/><path class="cls-60" d="M55.93,194.86c5-4.79,11.8-5.39,17.74-8,6.92-3,14.12-5.37,21.2-8h0c1.15,1.5-.2,3.49,1,5v1c-3.73,3.89-9.1,4.28-13.69,6.31a49.63,49.63,0,0,0-8.74,4.39,16.28,16.28,0,0,1-5,.75c-3.57,0-7.14.06-10.49-1.46Z"/><path class="cls-61" d="M97.84,194.85c3.27-3.73,5.76-8.16,10-11,3,1.56,2.33,4.44,2.44,7a37.28,37.28,0,0,1-.24,7.39,9.45,9.45,0,0,1-1.32,3.26c-2.2,3.51-5.26,6.29-8.07,9.28-1.62,1.73-3.6,1.78-3.76-.92C96.58,204.83,95.31,199.69,97.84,194.85Z"/><path class="cls-62" d="M97.84,194.85v17.09l10-11.08c4.11,4,2.74,8.5,1,13-.67,1-1.34,2-2,3l-8.29,9.66c-1.88-4.67.74-9.5-1.61-13.66-2.94-5.31-1.32-10.92-1.11-16.43a3.32,3.32,0,0,1,1.09-1.52Z"/><path class="cls-23" d="M93.89,168.88c0-.33,0-.66,0-1a2.66,2.66,0,0,1-.19-3.51c6.31-4.37,13.82-6.1,20.65-9.35,3.11-1.49,6.35-2.74,9.51-4.14,1.42,2.32,2.12,4.94-.79,6.27C113.5,161.5,104.05,166.1,93.89,168.88Z"/><path class="cls-63" d="M96.92,194.9c-.06.32-.11.65-.16,1a3.37,3.37,0,0,1-3,.76c-2.06-.59-4.17-.36-6.27-.39-2.43-.05-4.86.1-7.3,0-1.93-.06-3.9.16-5.72-.78l-.59-.59c.19-2.36,2.27-2.73,3.85-3.34,6-2.32,12-4.45,18.08-6.64A40.72,40.72,0,0,1,96.92,194.9Z"/><path class="cls-24" d="M123.81,150.89c-.09,1.91-1.62,2.32-3,2.88l-27,11.11A4.18,4.18,0,0,1,92.55,160c10.45-3.53,20.84-7.2,30.26-13.12h1C123.8,148.23,123.81,149.56,123.81,150.89Z"/><path class="cls-64" d="M122.82,182.87c-.34.67-.67,1.34-1,2-2.52.82-2.7,4-5,5-3-5.16-1-10.64-1-16l6-7c1.52-.07,2,1.08,2.12,2.18C124.41,173.73,125.28,178.44,122.82,182.87Z"/><path class="cls-65" d="M122.82,182.87c-.55-5.31,1.11-10.77-1-16,1.36-1.52,2.73-3,5-5.52v17.51A10.25,10.25,0,0,1,122.82,182.87Z"/><path class="cls-66" d="M108.84,198.87c-.46-5,1-10.14-1-15,.84-1.45,1.25-3.22,3-4,2.67.36,2.24,2.56,2.3,4.23A79.89,79.89,0,0,1,113,195C112.43,197.19,111.61,199.1,108.84,198.87Z"/><path class="cls-67" d="M115.83,173.88c2.11,5.22.45,10.68,1,16,0,.33,0,.66,0,1-1,1.08-1.66,3.72-3.76,1,0-5-1.16-10.12.76-15.06Z"/><path class="cls-13" d="M113.82,176.85q0,8,0,16c.66,1.26,0,2.2-.76,3.12a1.06,1.06,0,0,1-1.24-.13c-.54-5.32,1.12-10.77-1-16A6.49,6.49,0,0,1,113.82,176.85Z"/><path class="cls-58" d="M95.83,183.86c-1.63-1.41-.73-3.31-1-5C96.49,180.28,95.63,182.17,95.83,183.86Z"/><path class="cls-68" d="M76.88,28.89a5,5,0,0,0,1,0,1.29,1.29,0,0,1,.26,1.22c-.62,1-1.39,1.82-2.07,2.74A37.14,37.14,0,0,1,70.83,38c-1.26,1-2.75,2.24-3.87-.26-.49-4-1.5-8,1-11.75l2,.06C71.87,27.89,74.38,28.38,76.88,28.89Z"/><path class="cls-15" d="M112.83,195.86c.33-1,.67-2,1-3l3-2c-.24,6.56,3.13,13.87-4,19C110.32,205.19,110.69,200.52,112.83,195.86Z"/><path class="cls-69" d="M112.83,195.86v14a10.3,10.3,0,0,1-4,4c-.41-4.32,1-8.78-1-13l1-2a6.33,6.33,0,0,0,3-3Z"/><path class="cls-70" d="M58.92,49c-1.64-6.84-.82-13.81-1-20.72,0-2.15.2-4.32-1-6.27l3,1,2,.08,1,1c2.76,4.29,1.06,9.07,1.48,13.62a31.43,31.43,0,0,1-.22,6,7.39,7.39,0,0,1-3.69,5.49A1.51,1.51,0,0,1,58.92,49Z"/><path class="cls-37" d="M62.9,44.92q0-10.44,0-20.88l3,.88,2,1.11q0,6.49,0,13A6.16,6.16,0,0,1,62.9,44.92Z"/><path class="cls-61" d="M77.82,29.94c0-.34,0-.67,0-1l4-5c2.1-1.53,2.87-4.67,6-5,3.25,6.81,4.36,14.26,6.25,21.46A3.6,3.6,0,0,0,95.83,43c-1.52,1.67,1.58,3.32,0,5a3.34,3.34,0,0,1,0,3.7c-1.84,3.38-11.52,6.92-15.55,5.7C78.08,48.35,75.53,39.36,77.82,29.94Z"/><path class="cls-71" d="M81.88,229.83h-9c-.08-.26-.17-.52-.25-.78a2.52,2.52,0,0,1,1.2-1.06c4.72-.17,6.09-2.79,5.73-7.2-.2-2.53-.66-5.36,1.54-7.51a5.71,5.71,0,0,1,6,.38c2,4.8,1.55,9.68.44,14.58C86.14,230.39,83.56,228.49,81.88,229.83Z"/><path class="cls-72" d="M86.87,228.84v-15c2.09-1.74,4.2-1.58,6.34-.1,1.73,5.07,2.15,10.11-.35,15.08h-3A2.46,2.46,0,0,1,86.87,228.84Z"/><path class="cls-73" d="M92.86,228.84v-15a2.52,2.52,0,0,1,2-.9,3.09,3.09,0,0,1,2,.86l.06,15Z"/><path class="cls-73" d="M86.87,228.84h3c-2.46,2-5.34.57-8,1C83.28,228.18,85.19,229.08,86.87,228.84Z"/><path class="cls-74" d="M72.9,228.84c0,.33,0,.66,0,1h-8v-1C67.57,227,70.23,226.81,72.9,228.84Z"/><path class="cls-75" d="M80.91,58c3.78-1.58,7.58-3.12,11.34-4.73,2.29-1,3.87-2.51,3.61-5.27,2.66,5.37,3.38,11.31,5,17-5.34,4.29-11.09,7.57-18.25,7.37-1.72-1.29-1.94-3.17-2-5.11.15-2.9-1.57-5.75-.23-8.68C80.52,58.34,80.71,58.15,80.91,58Z"/><path class="cls-76" d="M82.88,72c6.52-1,11.89-4.9,18-7,.8,1.27-.38,3.51,2,4-1.52,1.67,1.58,3.32,0,5,1.21,2.19-.21,3.66-1.76,4.47-5.5,2.9-11,5.94-17.33,6.68a3.62,3.62,0,0,1-.84-1.36c-.5-2.92-1.32-5.8-1.29-8.81A4,4,0,0,1,82.88,72Z"/><path class="cls-77" d="M96.8,213.82l-1.93,0A3.92,3.92,0,0,1,93,212.07c-.78-5.21-1.14-10.4.25-15.58l.61-.63h2.9q.09,8.49.17,17C96.89,213.17,96.84,213.49,96.8,213.82Z"/><path class="cls-78" d="M83.91,84.94c4.07-1.73,8.21-3.34,12.2-5.24,2.7-1.29,6.21-1.82,6.73-5.75,2.17,3,2,6.65,3,10,1,1.75,0,3-1.32,3.65a86.06,86.06,0,0,1-17.85,7.13,2.65,2.65,0,0,1-1.88-.48,4.45,4.45,0,0,1-1.21-2.15C83.12,89.68,81.81,87.23,83.91,84.94Z"/><path class="cls-13" d="M84.91,93.93c7-1.36,13.07-5.05,19.64-7.49,1-.37,1.23-1.47,1.29-2.5,1.61.86.39,3.13,2,4,0,1,0,2,0,3,1.06,2,.58,3.74-1.21,4.72a90.81,90.81,0,0,1-18.35,7.6,2.74,2.74,0,0,1-2.7-1,4.88,4.88,0,0,1-.78-1.41C84.48,98.56,82.86,96.21,84.91,93.93Z"/><path class="cls-20" d="M115.82,121.92a10,10,0,0,1,2,7,3.22,3.22,0,0,1-1.89,2.18c-7.05,3.31-14.32,6.09-21.51,9.07a4.14,4.14,0,0,1-3.84,0c-1.7-1.69-2-3.81-1.89-6.06a4.82,4.82,0,0,1,.81-2.26C97.19,128.2,105,125,113,122A3.19,3.19,0,0,1,115.82,121.92Z"/><path class="cls-21" d="M90.88,139.9c9.25-3,18-7.19,26.94-11h1c.81,1.92-.24,4.15,1,6a5,5,0,0,1-2.57,2.87c-7.77,3.13-15.31,6.83-23.22,9.64a3.55,3.55,0,0,1-1.94,0,3.73,3.73,0,0,1-2.06-2.3,7.59,7.59,0,0,1-.33-2.37A3.64,3.64,0,0,1,90.88,139.9Z"/><path class="cls-19" d="M115.82,121.92c-8.64,3.34-16.75,8.07-25.94,10a3.73,3.73,0,0,1-1.41-5c5.5-3,11.45-5,17.21-7.35,3.46-1.43,6.4-3.27,8.15-6.68,1.61.86.38,3.13,2,4C114.27,118.59,117.38,120.25,115.82,121.92Z"/><path class="cls-14" d="M85.9,101.93c3.28,1.23,5.64-1.13,8.33-2.17,3.39-1.33,6.76-2.7,10.13-4.08,2.12-.86,3.86-2,3.48-4.74h1l2,12a2.24,2.24,0,0,1-1.46,2.76,124.85,124.85,0,0,1-20,8,3.39,3.39,0,0,1-1.93-.21c-2.73-1.91-1.57-5.09-2.52-7.59C84.76,104.44,84.7,103,85.9,101.93Z"/><path class="cls-17" d="M87.84,112.93c7.9-2.8,16-5.07,23-10h1c.34,2.33.67,4.66,1,7a6.61,6.61,0,0,1-3.76,3.68c-5,2.08-9.91,4.34-14.94,6.32-2.31.91-4.75,1.66-6.73-.81a5.75,5.75,0,0,1-.71-2.33A4.6,4.6,0,0,1,87.84,112.93Z"/><path class="cls-25" d="M87.9,118.91a4.36,4.36,0,0,0,4.22.44c6.95-3,14.21-5.39,20.71-9.43h1a2.67,2.67,0,0,0,0,3c.29,3.23-.9,5.12-4.2,6.27-7,2.42-13.26,6.63-20.73,7.72a2.78,2.78,0,0,1-.92-1.24C87.78,123.42,86.46,121.18,87.9,118.91Z"/><path class="cls-18" d="M91.86,146.9a270.27,270.27,0,0,0,28-12h1c-.92,1.33,0,2.65,0,4,1.39,2.69-.32,4.08-2.35,5-7.16,3.37-14.49,6.37-21.9,9.18-1.76.67-3.56.81-5-.83a4.24,4.24,0,0,1-.68-1.5C90.67,149.35,90.7,148,91.86,146.9Z"/><path class="cls-79" d="M91.9,151.89c2.37,1.55,4.43,0,6.47-.8,6.39-2.61,12.72-5.33,19.07-8,1.84-.79,3.76-1.56,3.38-4.17h1c0,1.33,0,2.66,0,4a3.37,3.37,0,0,1-1.65,5c-8.24,3.88-16.61,7.45-25.18,10.53a2.64,2.64,0,0,1-2.37-.39C91.49,156.09,90.55,154.12,91.9,151.89Z"/><path class="cls-22" d="M92.88,157.89q13.19-5.37,26.38-10.73a3.76,3.76,0,0,0,2.55-4.26c1.46,1,.86,2.62,1,4-.16,2.09-1.44,3.19-3.27,3.95-7.49,3.11-15,6.21-22.43,9.45a4.43,4.43,0,0,1-4.22-.41,1.2,1.2,0,0,1,0-2Z"/><path class="cls-80" d="M7,165.84,5,163c-.07-2.29,1.87-2.9,3.31-3.89,7.57-5.21,15.07-10.51,22.76-15.52,2.27-1.47,3.21-3.09,2.9-5.63h1l.56.55a8.67,8.67,0,0,1,.47,5.3,8.09,8.09,0,0,1-1.58,3.38C25.29,153.39,16.31,159.85,7,165.84Z"/><path class="cls-81" d="M34.94,137.9l0-4c4.43-2.53,8.66-.47,12.93.6,1.58,2.05,1.23,3.89-.6,5.57A18,18,0,0,1,35,137.9Z"/><path class="cls-82" d="M48,134.94l-13.06-1c0-.34,0-.67,0-1,0-1,0-2,0-3,4.8-1.55,9.22.46,13.75,1.48a2.55,2.55,0,0,1,.7,3.07A1,1,0,0,1,48,134.94Z"/><path class="cls-83" d="M25,71c1.63-1.4.77-3.29,1-5,2.92-.32,5.1,2.21,8,2.09a6,6,0,0,0,4,1.82l2,0a2.28,2.28,0,0,1,.49,1.32c-.62,3.58.07,7,1,10.48a2.7,2.7,0,0,1-1.31,2.47c-1.51.44-2.88-.13-4.28-.57a34.59,34.59,0,0,0-4.77-1.79c-2.36-1.62-7.56-.32-6.1-5.89Z"/><path class="cls-41" d="M36,99.93c-5.63,2.75-10.23,7-15.5,10.34-1.56,1-3.41,2.64-4.81,1.72-1.64-1.06-.35-3.27.17-5,.32-1.07,0-2.36,1.18-3.1,4.85-1.42,8.38-5,12.51-7.59,2.1-1.32,4-3.64,7-2.11a5.73,5.73,0,0,1,.59,3.68A3.1,3.1,0,0,1,36,99.93Z"/><path class="cls-84" d="M36,110.92v-4c0-.33,0-.66,0-1,5.69-2.7,11,.28,16.41,1.17a6.63,6.63,0,0,1,3,4.92,3,3,0,0,1-1.87,2.63c-6.08-.11-12.21,0-17.52-3.73Z"/><path class="cls-40" d="M36,93.94c-5.64,2.49-10,6.9-15.38,9.86-1.07.6-2.31,3.12-3.59.13,0-1,0-2,0-3h1c5.46-3.58,10.87-7.23,16.4-10.7,2.24-1.41,1.33-3.45,1.57-5.29a1,1,0,0,1,1.36.16,4.53,4.53,0,0,1,.79,2.13,13,13,0,0,1-.42,5.3A2.43,2.43,0,0,1,36,93.94Z"/><path class="cls-38" d="M36,99.93l0-2c.59-2,1.9-2.7,4-2.43,3.35.45,6.7.92,10,1.59a4.22,4.22,0,0,1,2.35,3.32c.32,1.43.68,2.85-.63,4-5.58,1.32-10.77.21-15.71-2.5Z"/><path class="cls-85" d="M36,101.93c5.38.18,10.51,2.33,16,2,1.85.95,2.25,2.27,1,4-5.75.13-11.19-2.38-17-2Z"/><path class="cls-42" d="M7,135.91c1.61-.86.38-3.14,2-4a1.75,1.75,0,0,0,2.58.6c8.13-5.85,17-10.68,24.37-17.59.17.17.34.35.52.52a5.12,5.12,0,0,1,.33,3.61,6,6,0,0,1-1.49,2.53c-7.68,5.54-15.43,11-23.39,16.13-1.44.93-2.86,2.55-4.91,1.19Z"/><path class="cls-28" d="M36,110.92l17.94,3a2.63,2.63,0,0,1,.48,3.06,2.89,2.89,0,0,1-1.94,1.45c-5.59-.71-11.48-.05-16.48-3.51h0C36,113.59,36,112.25,36,110.92Z"/><path class="cls-38" d="M7,138.9c8.59-4.11,15.76-10.42,23.76-15.44,1.39-.87,2.8-1.7,4.19-2.54a3.39,3.39,0,0,1,1.1,2.63,5.24,5.24,0,0,1-.58,2.85l-.53.51L10.12,143.42c-1.31.87-2.31,3.15-4.11,2.08-2.24-1.32.33-3.24.1-4.94C6,140.06,6.69,139.46,7,138.9Z"/><path class="cls-29" d="M49,131.91c-4.77.12-9.37-1-14-2l0-3h0c5.34-2.24,10.29-.84,15.12,1.62C50.71,130,51.22,131.41,49,131.91Z"/><path class="cls-80" d="M41,16l1,1c1.36,1.48,1.39,3.32,1.39,5.16,0,14.45.17,28.91-.11,43.37a4.88,4.88,0,0,1-1.52,3.29,1.65,1.65,0,0,1-1.69.29C40.37,51.39,38.89,33.65,41,16Z"/><path class="cls-25" d="M40,69.09c.3-.06.61-.11.92-.15,6.7-2.26,13-5.48,19.55-8.1,2.67-1.07,5.32-2.88,8.4-1.12.75,1.4.08,2.52-.72,3.61C60.36,67.6,52,70.69,43.89,74.26c-1.39.61-2.85.9-4.18-.27A3.28,3.28,0,0,1,40,71c0-.34,0-.68,0-1S40,69.38,40,69.09Z"/><path class="cls-37" d="M37,84.94H36L23.13,93.43c-.79.52-1.56,1.63-2.57.85a2.13,2.13,0,0,1-.25-2.77c1.08-1.74-.1-4.09,1.67-5.57,3.9-.52,6.23-4.18,10-5a5.46,5.46,0,0,1,4,2C36.56,83.48,37.5,83.84,37,84.94Z"/><path class="cls-39" d="M32,81c-2.12,2.79-5.38,4-8.11,6-1,.75-1.8.38-1.88-1,.34-2,.67-4,1-6,1.61-.86.37-3.13,2-4C25.09,80.72,29.82,79,32,81Z"/><path class="cls-86" d="M42,67q0-25,0-50l2,0c1.51,1.62,1.39,3.66,1.38,5.64,0,13.6.14,27.2-.07,40.79a6.72,6.72,0,0,1-.39,1.83C44.29,66.48,43.45,67.28,42,67Z"/><path class="cls-87" d="M44,65q0-24,0-48l2,0c1.17,2.32,1,4.82,1,7.29C47,36.89,46.87,49.45,47,62,46.7,63.74,46.07,65.12,44,65Z"/><path class="cls-32" d="M45.94,62.94Q45.94,40,46,17l1,.95c1.1,1.78,1,3.77,1,5.76q0,18.57,0,37.16a1.08,1.08,0,0,1,.3,1.21C47.63,62.87,47,63.49,45.94,62.94Z"/><path class="cls-88" d="M32.08,194.92l6.88-.07,7,0v1c-1,1.16-2.44,1.3-3.85,1.37s-2.62.09-3.93.07c-2.72,0-3.86,1.35-3.78,4,0,.82,0,1.64,0,2.46,0,7.69,0,7.69,7.45,7.68,3.46-.32,3.44-2.95,3.69-5.46.35-3.38-.91-7,1.43-10.09h4c2.74,4.86,1.42,10,1.1,15.08-.15,2.49-2.57,2.14-4.08,2.9l-3,0-12.92,0-.12-1.11c-2-5.68-1.75-11.44-.5-17.22Z"/><path class="cls-89" d="M8,198.86l-6.95-6V178.64c3,.38,2.77,3.62,4.95,4.23,2.43,1,3.59,3,4.53,5.31a4.72,4.72,0,0,1,0,1.5C9.69,192.74,11.71,196.6,8,198.86Z"/><path class="cls-90" d="M7,165.84c1.8-3.84,5.86-5,8.91-7.26,5.73-4.29,11.47-8.64,18-11.68a2.74,2.74,0,0,1,.95,2,4.09,4.09,0,0,1-.55,2.14c-8.22,5.89-16.3,12-25,17.13-1.19.29-1.75-.47-2.27-1.34C7,166.5,7,166.17,7,165.84Z"/><path class="cls-91" d="M7,166.82l2,1.07a3.5,3.5,0,0,1,2.16,2.81c-.21,5.73,1.63,11.61-1.16,17.17-2-1.09-2.63-3.35-4-5C8.16,177.64,6.43,172.16,7,166.82Z"/><path class="cls-85" d="M21,200.88l-3-4c-2.42-5.75-1.62-11.61-.62-17.48,4-1.61,3.78,1.89,4.79,3.92C21.92,189.17,23.79,195.18,21,200.88Z"/><path class="cls-92" d="M18,178.89v18l-1,0c-1.63-.6-2-2-2.27-3.5,0-5.18-.61-10.39.41-15.56.73-1.34,1.66-1.38,2.75-.44A1.24,1.24,0,0,1,18,178.89Z"/><path class="cls-28" d="M21,200.88q0-9,0-18c1.39-.35,2.17.42,2.78,1.51a6.36,6.36,0,0,1,.47,1.72c-.22,5.28,1.52,10.73-1.28,15.8-.34,0-.67,0-1,0Z"/><path class="cls-50" d="M16,193.88l1,3V209.2a6.11,6.11,0,0,1-4-3.34h0c1.43-3.79-.35-8,1.57-11.76A1,1,0,0,1,16,193.88Z"/><path class="cls-93" d="M26,206.83c0-.32,0-.64,0-1-2.49-5.63-1.63-11.41-.79-17.19,3.3-1,3.92-.44,5.39,4.55-.38,3.56-.13,7.14-.24,10.71,0,1.76.16,3.62-1.39,5Z"/><path class="cls-94" d="M28.94,208.91c.6-5.33-1.11-10.81,1-16,1.15-.65,1.45.41,2,1,0,.35.09.7.13,1.06l-.14,0c-1.37,5.59.39,11.37-1,17-.32,0-.64,0-1,0C29.65,210.83,29.3,209.87,28.94,208.91Z"/><path class="cls-90" d="M26,187.87q0,9,0,18c-1.58-.89-2.88-2-3-4q0-8.5,0-17a1.19,1.19,0,0,1,1.24-.28C25.36,185.38,26.59,186.14,26,187.87Z"/><path class="cls-95" d="M31,211.83c.53-5.64-1.14-11.41,1-17q0,9,0,17.9Z"/><path class="cls-96" d="M8,198.86c2.25-3-.37-7,2-10,1.22-.49,1.92.21,2.55,1.08a4.52,4.52,0,0,1,.43,1.47c0,2.25-.48,4.46-.36,6.75.08,1.67,0,3.7-2.63,3.69l-1-1Z"/><path class="cls-49" d="M10,201.86c3.26-3.19.14-7.55,2-11,1-.6,1.61,0,2.26.61a3.68,3.68,0,0,1,.73,2.42q0,4.37,0,8.73c0,1.5,0,3-2,3.24Z"/><path class="cls-97" d="M48,213.84c2.11-1.14,3.27-2.58,3.07-5.31-.32-4.2-.09-8.44-.09-12.67,3.76-.54,5.69.8,5,4.85-.75,4.36,1.85,9.24-2,13.13Z"/><path class="cls-98" d="M57.92,194.87h11a4.16,4.16,0,0,1,3.33,4.3c0,4.94.39,9.87.48,14.82-2.17,1.58-4.43,1.46-6.74.36-3.47-2.88-2.45-6.89-2.44-10.53,0-3.32-.43-6.2-3.61-8A2.08,2.08,0,0,1,57.92,194.87Z"/><path class="cls-99" d="M59.92,195.86c3.74-.54,5.24.76,5.11,4.83-.13,4.37-1.09,8.89.88,13.15a.6.6,0,0,1-1,0l-5,0Z"/><path class="cls-100" d="M46.94,195.86c0,4,0,8,0,12,0,3.34-1.18,5.49-5,5a20.53,20.53,0,0,1,0-17h5Z"/><path class="cls-54" d="M64.91,213.86l1,0h7c.21.23.41.46.63.68,1.11,4.83,1.84,9.65-.63,14.32h-8Z"/><path class="cls-66" d="M58.92,49l1-.05a33.56,33.56,0,0,0,7.74-2.65c1.75-.76,3.52-1.82,5.44-.38a5.35,5.35,0,0,1-2,5.61c-4.58,2.28-9.34,4.15-14,6.12-1.58.66-3.78,2.48-5.1-.63l1-1.9A25.17,25.17,0,0,0,58.92,49Z"/><path class="cls-13" d="M52,57c5.27,1.11,8.84-3.15,13.42-4.31,1.85-.47,3.43-1.92,5.53-1.71,1.08,1.36.75,2.54-.41,3.64-5.73,2.91-11.79,5.09-17.65,7.71-1.67.75-3.48,1.18-5-.39l.12-1a3.42,3.42,0,0,0,2-2Z"/><path class="cls-101" d="M93.84,166.88v1C76.35,174.3,58.9,180.8,41.34,187c-1.82.65-4.48,4.13-6.42-.21a2.74,2.74,0,0,1,.36-4.24c16.25-5.75,32.3-12.06,48.47-18,1.24-.46,2.47-1,3.73-1.38C92.58,161.52,92.81,161.66,93.84,166.88Z"/><path class="cls-102" d="M35.92,182.82c-1.34,1.07-.87,2.6-1,4-.33.67-.66,1.35-1,2-2.63-.33-2.07-2.5-2.26-4.12s-.06-3.56-.09-5.35a19,19,0,0,1,.13-3.46,41.9,41.9,0,0,0,.86-7.57c.06-4.4,0-8.81,0-13.22A5.8,5.8,0,0,1,34,150.89l0-2c3.42-2.25,6.63-.64,9.87.53a4.19,4.19,0,0,1,1,3.88c-.67,2.48-1.54,4.91-2,7.44-.72,2.38-1.19,4.82-2,7.18s-1.23,4.8-1.85,7.2C38,177.7,37.9,180.64,35.92,182.82Z"/><path class="cls-103" d="M26,187.87l-2-3c1-2.92,3.55-4,6-5.06,1-.45,2.28-.65,2.46,1.12-.49,4,1,8-.44,12a7.3,7.3,0,0,1-.06.94l-2-1C28.61,191.22,28,189,26,187.87Z"/><path class="cls-104" d="M32,192.92l0-13c-.24-.9.09-1.24,1-1,.44,3.3-1,6.79,1,10A5.73,5.73,0,0,1,32,192.92Z"/><path class="cls-105" d="M72.9,213.84c-3.17-2.34-1.6-5.76-2-8.73-.48-3.45,1.5-7.38-2-10.24h5c3.72,2.62,2,6.56,2.33,10,.28,2.7-.56,5.75,2.9,7.11a2.69,2.69,0,0,1,1.09,1.2,1.51,1.51,0,0,1-.83,1.35c-2.27.89-4.46,1-6.49-.64Z"/><path class="cls-106" d="M35.92,182.82c-.1-2.85.92-5.41,2-7.94,6.67-3.31,13.8-5.45,20.7-8.14,9.39-3.67,18.88-7.08,28.29-10.69,3-1.14,5.56-1.52,5.89,2.83,0,.34,0,.67,0,1,.33,1.66.65,3.33,1,5l0,2c-1-3.14-2.55-3.94-5.94-2.61-14.78,5.81-29.68,11.34-44.58,16.83C41,182,38.73,183.78,35.92,182.82Z"/><path class="cls-107" d="M79.88,194.87h8c-1.13,6,.72,12.27-1.84,18.12a9.91,9.91,0,0,1-6.14-.14h0A23,23,0,0,1,79.88,194.87Z"/><path class="cls-60" d="M85.87,212.85c0-4.26.11-8.53,0-12.8-.07-2.11.35-3.85,2-5.18,2,.32,4.24-.82,6,1-2,1.6-1.34,3.9-1.55,6-.37,3.72.94,7.63-1.29,11.14A7.15,7.15,0,0,1,85.87,212.85Z"/><path class="cls-108" d="M79.88,194.87q0,9,0,18c-3.75.54-5.24-.76-5.12-4.83.13-4.36,1.1-8.89-.88-13.15Z"/><path class="cls-109" d="M69.91,54c1.16-.73,1-1.91,1-3l2-5c-1.68-5.26,1.26-9.52,3-14a1.82,1.82,0,0,1,1.93-2C78,39.37,80,48.61,80.91,58l0,0c-3.4-2.08-6.94,1-10.38-.27a2.66,2.66,0,0,1-1.07-1A2.39,2.39,0,0,1,69.91,54Z"/><path class="cls-75" d="M75.89,31.92c.2,4.94-2.54,9.25-3,14-2.8-.2-4.79,1.91-7.26,2.53-1.82.45-3.68,2.67-5.74.42l3-4,5-5.9Z"/><path class="cls-74" d="M72.89,213.86l7,0c.34-.42.67-.4,1,0,0,2.28,0,4.57,0,6.85-.11,9.24,1.16,8-8,8.13Q72.9,221.36,72.89,213.86Z"/><path class="cls-108" d="M80.88,213.86l-1,0v-1h11a2.14,2.14,0,0,1,3,0l1,1-2,0h-12Z"/><path class="cls-110" d="M69.91,57A11.57,11.57,0,0,0,76.09,56c2.44-1.31,3.74-.11,4.77,1.92.34,3,.67,6,1,9-3.32,3.28-7.76,3.91-12,4.87-2.2.5-3.75-.68-4.09-3.07a7.41,7.41,0,0,1,0-1.63A6.31,6.31,0,0,1,67.9,63l1-3C67.9,58.51,68.52,57.61,69.91,57Z"/><path class="cls-111" d="M66.91,68c-.14,2.86,1.3,3.41,3.73,2.61,3.73-1.23,7.48-2.41,11.22-3.6a8.35,8.35,0,0,0,1,5c0,1,0,2,0,3-4.54,1.79-9.21,3.18-13.73,5-1.64.66-3.36,1.35-5.16.37a2.52,2.52,0,0,1-.76-1.94c.34-2.87,1.46-5.72.39-8.66C64.13,68.05,65.17,67.34,66.91,68Z"/><path class="cls-112" d="M83.91,84.94c-.37,2.42.43,4.69.94,7-7.06,2.78-14.19,5.36-21.34,7.92-1.76.63-3.82,1.66-5.28-.74A5.51,5.51,0,0,1,58.07,96c.7-2.24.82-4.71,2.68-6.46,6-1.81,11.91-4,17.81-6.22,1.76-.65,3.79-1.81,5.3.6Z"/><path class="cls-113" d="M83.86,83.94c-5.23-.75-9.28,2.63-13.88,4-3,.92-5.82,2.26-9.06,2a2,2,0,0,1-.58-1.16A12.86,12.86,0,0,1,61.21,85c.36-1,.68-2,1.07-3a3.75,3.75,0,0,1,1.63-2c5.15-.49,9.55-3.28,14.37-4.78,1.59-.49,3-1.39,4.58-.22Q83.35,79.44,83.86,83.94Z"/><path class="cls-63" d="M93.86,212.85h-3c0-4.57.06-9.14,0-13.7,0-2.2.61-3.48,3-3.29Z"/><path class="cls-114" d="M58.92,98.93c6.38.73,11.25-3.67,17-5,3-.7,5.57-3,8.92-2l.06,2c.31,2.33.63,4.66.94,7-5-.55-9.29,2-13.78,3.59-3.45,1.2-6.84,2.56-10.29,3.78-2.08.73-4.25,1.25-5.64-1.32a10.55,10.55,0,0,1,1.33-7.83A1,1,0,0,1,58.92,98.93Z"/><path class="cls-3" d="M56.92,106.91c1.4,1.64,2.91.89,4.48.27q9.2-3.6,18.42-7.09c2.13-.81,4.37-1.92,6,.83,0,.34,0,.67.05,1,0,1.33,0,2.66,0,4-.8,2.18-2.9,2.58-4.69,3.26-7.53,2.87-15,5.82-22.68,8.42-1.4.48-3.58,2.67-4.6-.7v-3c.33-.66.66-1.33,1-2C55,110,53.77,107.59,56.92,106.91Z"/><path class="cls-115" d="M43.91,153.81l.12-3.9a4.64,4.64,0,0,1,.64-3.5A4.86,4.86,0,0,1,46.41,145c12.53-4.73,25.08-9.4,37.62-14.12,3.27-1.24,5.44-1,5.81,3.05.35,2,.69,4,1,6l0,3a11.86,11.86,0,0,0-7.62.71c-11.44,4.29-22.8,8.8-34.34,12.8C46.71,157.15,43.28,159,43.91,153.81Z"/><path class="cls-97" d="M89.84,133.9c-1.2-2.13-2.19-3.28-5.27-2-11.16,4.6-22.52,8.69-33.83,12.9a36,36,0,0,1-4.8,1.11c-1.61-2.32-.65-4.22,1-6a8.87,8.87,0,0,0,1.12-5,8.85,8.85,0,0,0,.89-.05c3.28.42,6.19-.89,9.15-2,8.74-3.2,17.44-6.47,26.15-9.73,3-1.13,4.19-.08,4.62,2.72,0,.33,0,.66.05,1,.33,1.67.65,3.33,1,5C89.87,132.57,89.86,133.24,89.84,133.9Z"/><path class="cls-116" d="M39.94,167.87a15.85,15.85,0,0,1,2-7c13.51-4.48,26.67-9.91,40.06-14.71,2.81-1,5.62-3.22,8.9-1.23l1,2,0,4c-4.06,3.07-9,4.08-13.64,5.85-10.84,4.16-21.64,8.43-32.66,12.08C43.74,169.43,41.23,171.36,39.94,167.87Z"/><path class="cls-99" d="M90.87,144.9c-9,1.68-17,6-25.57,8.87-6.38,2.17-12.61,4.8-18.95,7.09-1.38.5-3,1.95-4.44,0a11.57,11.57,0,0,1,2-7c.29,3.37,2.05,2.39,4.13,1.6,12.66-4.77,25.42-9.29,38-14.26,2.71-1.06,3.74-.33,4.8,1.74C90.86,143.56,90.86,144.23,90.87,144.9Z"/><path class="cls-117" d="M53.91,116.9c.57.8,1.23.81,2.13.47Q71,111.61,85.88,105.92c2.23,1.9-.24,5.11,2,7,0,1.33,0,2.66,0,4a18.59,18.59,0,0,0-9,1.47c-7,2.79-14.12,5.42-21.22,8-2.7,1-5.55,2-6.67-2.13a7.39,7.39,0,0,1,0-2.3,7,7,0,0,1,2-4Z"/><path class="cls-118" d="M51.93,123.9c.19,3.43,2.42,2.45,4.21,1.79,8.6-3.2,17.2-6.4,25.7-9.83,2.44-1,4.35-1.32,6,1,0,.67,0,1.34.05,2,.5,2.31,1.3,4.58.95,7-1-1.39-1.45-2.68-4-1.65-10.46,4.18-21.1,7.89-31.7,11.69-1.48.53-3.54,2.25-4.18-1,0-1,0-2,0-3,1.11-.75.94-1.9,1-3-.74-1.44-.17-2.79.29-4.15C50.6,124.12,51.06,123.6,51.93,123.9Z"/><path class="cls-119" d="M39.94,167.87c4.68,1.55,8.44-1.42,12.4-2.82,11.81-4.17,23.46-8.78,35.19-13.17a32.47,32.47,0,0,1,4.31-1q0,.49.06,1,.48,3,1,6c0,.33,0,.66,0,1-1.1-2.71-2.89-2.75-5.39-1.78q-21.54,8.39-43.19,16.53c-2,.75-4.06,1.56-6.3,1.25A15.13,15.13,0,0,1,39.94,167.87Z"/><path class="cls-6" d="M46.92,139.9q-.48,3-1,6l-1,1c-3.25-1.27-7-1.06-10-3,0-2,0-4,0-6A42.85,42.85,0,0,1,46.92,139.9Z"/><path class="cls-36" d="M35,143.9c3.61.08,7.42-.52,10,3,0,1.09.14,2.23-.92,3L34,148.9c0-.67,0-1.34,0-2C34.29,145.9,34.63,144.9,35,143.9Z"/><path class="cls-120" d="M66.91,68l-3,2c-2.88,3.1-6.86,4.47-10.32,6.66-1.69,1.09-3.49,2-5.26,2.93-.79.43-1.56.88-2.3,1.38-1.6.78-3,2.46-5.05,1-2.26-3.49-3-7.13-1-11,0,1,0,2,0,3,.86.83.81,2.56,3.15,1.37,5.91-3,12.12-5.4,18.23-8,1.79-.76,3.59-2,5.57-.39Z"/><path class="cls-33" d="M37,84.94l-1-2a6.7,6.7,0,0,1,4,1c2.07-1.49,4.13-.78,6.2,0a5.25,5.25,0,0,1,1.21.84c.88,1.26,1.58,2.56.87,4.16a2.57,2.57,0,0,1-1.29.75c-3.49-.29-7.19.13-10-2.77Z"/><path class="cls-121" d="M46.93,85l-7-1,1-2,5-2C47.37,81.41,48.15,83,46.93,85Z"/><path class="cls-56" d="M49.94,97.93c-3.63.57-7-1-10.61-1.18A4.06,4.06,0,0,0,36,97.93c0-1.33,0-2.66,0-4l1-1c4-2.37,8-.25,11.92.38C50.53,94.54,51.28,96,49.94,97.93Z"/><path class="cls-122" d="M56.92,106.91c-1.57,1.31-.74,3.59-2,5a5.65,5.65,0,0,1-2-4,6.69,6.69,0,0,0-1-4c-.33-1-.66-2-1-3,1.46-3.72,3.88-4.08,7-2Z"/><path class="cls-123" d="M48.94,93.94c-4.08.66-7.94-1.27-12-1,0-2,0-4,0-6l11,2a3.78,3.78,0,0,1,1.74,3.77A2.43,2.43,0,0,1,48.94,93.94Z"/><path class="cls-124" d="M48.94,93.94v-1c3-2.18,6-.82,9,.24a1.7,1.7,0,0,1,1,2.77v3h-1c-2.5,0-5.2-.6-7,2-.05-1.1.15-2.27-1-3A6.68,6.68,0,0,0,48.94,93.94Z"/><path class="cls-125" d="M52.92,117.92a6.59,6.59,0,0,1-1,4c-5.67.91-11.08.37-15.95-3,0-1.34,0-2.67,0-4C41.58,116.13,47.42,116.06,52.92,117.92Z"/><path class="cls-126" d="M36,118.92l15.95,3c0,.66,0,1.32,0,2l-1,1c-5.49,2.39-10.66-.46-16-1,0-1,0-2,0-3C35.29,120.25,35.63,119.58,36,118.92Z"/><path class="cls-127" d="M35,123.91c3.61-2.15,7.07.23,10.58.49,1.77.12,3.57.48,5.39.51a6.57,6.57,0,0,1-1,4c-5-.93-9.87-2-15-2Z"/><path class="cls-128" d="M69.91,57c-.34,1-.68,2-1,3-8.48.75-15.33,5.91-23.11,8.56-1.57.54-3,2.5-4.85.42L42,67l1.94-1.13c7-2.74,13.92-5.88,20.93-8.7,1.61-.65,3.3-1.85,5-.23Z"/><path class="cls-129" d="M66.91,67c-6.65,1.31-12.33,5.11-18.62,7.33a40.4,40.4,0,0,0-5.43,2.27C39.36,78.4,40,75.83,40,74c7-1.56,13.11-5.2,19.63-7.89C62.33,64.92,65,63.51,67.9,63Z"/><path class="cls-130" d="M69.89,57c-8,1.69-14.89,6.16-22.52,8.79-1.12.38-2.24,1.83-3.46.15,0-.3,0-.6.05-.9l2-2.06,1.86-1c7-.3,12.43-5,18.86-6.85,1.09-.33,2.17-.73,3.25-1.1C69.9,55,69.9,56,69.89,57Z"/><path class="cls-131" d="M42,195.87v17c-9,0-9,0-9-9.23a12.94,12.94,0,0,0,0-2c-.63-4.34.79-6.61,5.55-5.81A23.34,23.34,0,0,0,42,195.87Z"/><path class="cls-132" d="M12,189.87l-2-1c0-.34,0-.67,0-1v-18a1.37,1.37,0,0,1,1.6,0A4.61,4.61,0,0,1,13.22,173C12.9,178.62,14.76,184.42,12,189.87Z"/><path class="cls-133" d="M11,169.91l-1,0-1-2c8-6.2,16-12.28,25-17v4c-.33.33-.65.66-1,1-6,4.83-12.43,9-18.85,13.27C13.2,169.78,12.21,170.47,11,169.91Z"/><path class="cls-6" d="M34,168.87c.32,2.43-.42,4.71-1,7-2.91,3.19-6.9,5-10,8l-2-1c-.84-1.45-1.23-3.24-3-4,0-.33,0-.65,0-1a1.76,1.76,0,0,1,.63-2.21c4.47-3,8.3-7.14,13.87-8.35C33.26,167.56,33.5,168.32,34,168.87Z"/><path class="cls-81" d="M33,167.88a59.16,59.16,0,0,0-15,10l-2-1a2.18,2.18,0,0,1-1.55-2.37c4.19-6.06,10.7-8.89,16.9-12.12a1.55,1.55,0,0,1,2,.9C33.32,164.81,33.86,166.41,33,167.88Z"/><path class="cls-134" d="M15,174.88l1,2q0,8.52,0,17H15a2.11,2.11,0,0,1-1-2c-1.79-5.44-1-11-.54-16.49A1.08,1.08,0,0,1,15,174.88Z"/><path class="cls-36" d="M23,183.89c1.64-4.79,6.15-6,10-8v3l-1,1-8,5-1,0C23,184.53,23,184.21,23,183.89Z"/><path class="cls-135" d="M14,174.84l0,17-2-1v-1q0-9,0-18a1,1,0,0,1,1.21-.19A2.7,2.7,0,0,1,14,174.84Z"/><path class="cls-136" d="M33,167.88v-5a5.61,5.61,0,0,1-1.31-4,7.71,7.71,0,0,1,1.31-4h1q0,7,0,14Z"/><path class="cls-137" d="M47.94,78.94c1.3-1.6,3.33-2,5-3,2.63-1,5.31-1.82,8.12-1.28C62.69,75,65,75.1,63.91,78v2a2,2,0,0,1-1,2c-3.43-.43-6.88-.5-10.33-.64C50.81,81.23,48.45,81.74,47.94,78.94Z"/><path class="cls-138" d="M63.91,78c-.74-3.22-3.33-1.75-5.17-2a51.15,51.15,0,0,0-5.81,0c3.54-2.22,6.84-4.88,11-6C67.83,72.61,64.33,75.28,63.91,78Z"/><path class="cls-37" d="M58.92,95.94c-2.53-3.64-6.52-2.41-10-3l-1-4h0c4.32-.35,8.64-1.51,13,0,0,.33,0,.66,0,1C60.22,91.92,60.4,94.21,58.92,95.94Z"/><path class="cls-139" d="M47.94,78.94c3.37,2.14,7.1.49,10.63,1,1.65.24,3.86-.77,4.34,2,0,1.1.18,2.28-1,3-5,2.42-10,1.7-15,0l0,0-1-5A2.06,2.06,0,0,1,47.94,78.94Z"/><path class="cls-140" d="M47,84.93h15a6.7,6.7,0,0,1-1,4c-4.32.53-8.64,2.17-13,0C47.62,87.61,47.29,86.27,47,84.93Z"/><path class="cls-141" d="M33,154.89v4c-5,6.21-12,9.63-18.7,13.52-.37.22-.94-.17-1.33-.5H12c-.34-.67-.69-1.34-1-2Z"/><path class="cls-82" d="M12.93,171.91c7.39-3.25,13.33-8.72,20-13v4a58.15,58.15,0,0,0-18,12l-1,0C13.65,173.86,13.29,172.88,12.93,171.91Z"/></g></g></svg>