<svg xmlns="http://www.w3.org/2000/svg" viewBox="0 0 131.22 231.87"><defs><style>.cls-1{fill:#bbbad0;}.cls-2{fill:#fafafc;}.cls-3{fill:#acb1c7;}.cls-4{fill:#b5b0c4;}.cls-5{fill:#e0e0ec;}.cls-6{fill:#c1c0d4;}.cls-7{fill:#cacadc;}.cls-8{fill:#bfbed3;}.cls-9{fill:#e4e4ee;}.cls-10{fill:#b8b4c9;}.cls-11{fill:#d9d8e6;}.cls-12{fill:#cecedf;}.cls-13{fill:#f6f6fa;}.cls-14{fill:#f0f0f6;}.cls-15{fill:#c3c2d6;}.cls-16{fill:#d3d2e2;}.cls-17{fill:#deddea;}.cls-18{fill:#dcdbe8;}.cls-19{fill:#d6d5e4;}.cls-20{fill:#c0bfd4;}.cls-21{fill:#a0a5ba;}.cls-22{fill:#9698ac;}.cls-23{fill:#d1d0e1;}.cls-24{fill:#f5f5fa;}.cls-25{fill:#f1f1f7;}.cls-26{fill:#9799ae;}.cls-27{fill:#9a9eb3;}.cls-28{fill:#aea5b7;}.cls-29{fill:#c9c8db;}.cls-30{fill:#c5c4d7;}.cls-31{fill:#bbc1cf;}.cls-32{fill:#e7e7f0;}.cls-33{fill:#ececf3;}.cls-34{fill:#b5baca;}.cls-35{fill:#adb1c4;}.cls-36{fill:#a6abbf;}.cls-37{fill:#d9d8e2;}.cls-38{fill:#a3a8bd;}.cls-39{fill:#aea6b8;}.cls-40{fill:#b7bbca;}.cls-41{fill:#a2a7bd;}.cls-42{fill:#d1d1e1;}.cls-43{fill:#cfcedf;}.cls-44{fill:#b4aebe;}.cls-45{fill:#bebdd1;}.cls-46{fill:#fbfafd;}.cls-47{fill:#b1a9bc;}.cls-48{fill:#b3adc0;}.cls-49{fill:#bab6c7;}.cls-50{fill:#969db1;}.cls-51{fill:#afa7b9;}.cls-52{fill:#e9e9f0;}.cls-53{fill:#d6d5e2;}.cls-54{fill:#a79dad;}.cls-55{fill:#d1d2e6;}.cls-56{fill:#bab8cd;}.cls-57{fill:#d3d3e8;}.cls-58{fill:#aaa0b2;}.cls-59{fill:#b6b2c6;}.cls-60{fill:#d6d7ea;}.cls-61{fill:#a89dad;}.cls-62{fill:#b4b2c8;}.cls-63{fill:#c4c3d7;}.cls-64{fill:#e8e8f1;}.cls-65{fill:#cac9db;}.cls-66{fill:#e5e4ef;}.cls-67{fill:#ecebf3;}.cls-68{fill:#c6c5d9;}.cls-69{fill:#c1c0d5;}.cls-70{fill:#d0cfe0;}.cls-71{fill:#dcdce9;}.cls-72{fill:#9494a8;}.cls-73{fill:#a8adc3;}.cls-74{fill:#a4a9bf;}.cls-75{fill:#cbcbe0;}.cls-76{fill:#a1a5bc;}.cls-77{fill:#cdcce1;}.cls-78{fill:#cacadf;}.cls-79{fill:#bfbed4;}.cls-80{fill:#d8daec;}.cls-81{fill:#c2c1d5;}.cls-82{fill:#f2f2f6;}.cls-83{fill:#b6b4ca;}.cls-84{fill:#c8c7da;}.cls-85{fill:#c7c7da;}.cls-86{fill:#c2c1d7;}.cls-87{fill:#e7e7f1;}.cls-88{fill:#cfcfe4;}.cls-89{fill:#bab9cf;}.cls-90{fill:#c4c4da;}.cls-91{fill:#dad9e7;}.cls-92{fill:#d2d2e6;}.cls-93{fill:#aba2b2;}.cls-94{fill:#bebdd3;}.cls-95{fill:#bdbcd2;}.cls-96{fill:#b8b6cc;}.cls-97{fill:#a89eae;}.cls-98{fill:#a89eaf;}.cls-99{fill:#aca3b5;}.cls-100{fill:#bcbbd0;}.cls-101{fill:#d2d3e7;}.cls-102{fill:#9a9fb5;}.cls-103{fill:#bcbbd1;}.cls-104{fill:#f3f3f8;}.cls-105{fill:#b8bdcd;}.cls-106{fill:#e4e3ee;}.cls-107{fill:#b1b6c7;}.cls-108{fill:#a9aec1;}.cls-109{fill:#e2e5f3;}.cls-110{fill:#dfdfeb;}.cls-111{fill:#c5c4d8;}.cls-112{fill:#eeedf3;}.cls-113{fill:#9da2b8;}.cls-114{fill:#9ba0b6;}.cls-115{fill:#c4c3d9;}.cls-116{fill:#c5c5db;}.cls-117{fill:#c8c8de;}.cls-118{fill:#cfcee4;}.cls-119{fill:#d5d5e9;}.cls-120{fill:#b3b0c6;}.cls-121{fill:#a99faf;}.cls-122{fill:#c8c8dd;}.cls-123{fill:#cdcdde;}.cls-124{fill:#efeff5;}.cls-125{fill:#b7b5cb;}.cls-126{fill:#f7f8fb;}.cls-127{fill:#c1c0d6;}.cls-128{fill:#b7b3c8;}.cls-129{fill:#c8c7d9;}.cls-130{fill:#cecdde;}.cls-131{fill:#d2d1e2;}.cls-132{fill:#cfcee3;}.cls-133{fill:#e7eaf4;}.cls-134{fill:#b1aec5;}.cls-135{fill:#aba2b3;}.cls-136{fill:#d5d4e3;}.cls-137{fill:#fafafd;}.cls-138{fill:#f8f8fc;}.cls-139{fill:#b4aec1;}</style></defs><g id="Layer_2" data-name="Layer 2"><g id="Layer_1-2" data-name="Layer 1"><path class="cls-1" d="M123.13,150.75c3.43,1.33,5.3,4.15,6.93,7.21-.71.57-.22,1.52-.69,2.17s-1.12,1.14-1.61,1.77c-1,1.36-2.16,2.55-3.27,3.8-1.56,1.89-3,3.88-4.43,5.84-1.48,2.25-3.61,3.92-5.27,6-1.91,3.06-4.86,5.24-6.86,8.23-3.34,3.08-5.18,7.77-10,9.29a7.62,7.62,0,0,1-1.63-3.2,14.25,14.25,0,0,1-.48-2.13c-.45-2.86-1.13-5.67-1.73-8.5-.24-1.42-.7-2.83-.28-4.29q14.11-8.26,27.87-17.09c2-1.26,4.33-2.32,2.52-5.34C123.62,153.33,122.25,152.36,123.13,150.75Z"/><path class="cls-2" d="M22.09,68c-2.45-4.9.82-7.45,4.1-10,1.9.7,2.3,2.4,2.14,4-.45,4.73,1.82,8.09,5,11.08a32.79,32.79,0,0,0,5.25,6.26c1.13,1.33,2,2.9,3.21,4.13,1.49,1.51,2.8,3.3,5.26,3.23,1.19,0,2.38,0,3.57-.06,1.84,0,3.66,0,5.49,0,1.37-.06,2.73.08,4.09,0,1.67,0,3.35.13,5,0,2,.05,3.93.11,5.89,0,2.73,0,5.47.11,8.2.06,2.17-.11,4.37.37,6.52-.3a7.8,7.8,0,0,0,2.64-1.87C90,82.94,91,81,92.35,79.35c1.28-1.45,3-2.47,4-4.22,3.48-4.53,8.57-7.94,9.71-14.08,5.43,4.87,4.83,10.8,3,17-2.37-2,.11-5.43-2.16-7.44-5.6,5-10.1,10.93-15,16.5-1.8,2-3.55,3.93-6.43,4.26-13.28.43-26.54,0-39.8,0-2.33-.23-4-1.6-5.59-3.17-1.35-1.34-2.36-3-3.78-4.29-4.3-4.9-8.42-10-12.69-14.88a4.27,4.27,0,0,1-.52-2.25C22.73,67.15,22.66,67.78,22.09,68Z"/><path class="cls-3" d="M98.94,229.8c-1.58,1.77-3.74,2-5.88,2q-27.42.08-54.83.08c-1.15,0-2.35.11-3.26-.85,1.64-1.91,3.9-1.41,6-1.5,7.06-.27,14.14.47,21.18-.45a10.78,10.78,0,0,1,1.76-.36,42.48,42.48,0,0,1,4.37-.22c2.52.07,5-.07,7.56,0,1.32.1,2.64,0,4,.05,4.21.28,6.27-1.89,7.27-5.82.83-3.24.14-7.1,3.42-9.49,2.64-.86,5.25-1.07,7.77.38,2.34,4.13,1.07,8.6,1.17,12.94C99.31,227.62,98.74,228.66,98.94,229.8Z"/><path class="cls-4" d="M122.07,149a2.4,2.4,0,0,1,.14.8c.56,2.18-1.2,2.87-2.53,3.72-7.24,4.69-14.61,9.16-21.89,13.78-1.4.89-2.87,1.76-4.65,1a3.06,3.06,0,0,1-.92-1.19c-.52-1.92-1.41-3.81-.56-5.86,6.34-5.08,13.43-9,20.42-13,3.81-2.2,5.45-4.64,3.17-8.78a6.45,6.45,0,0,1-.13-1.46,2.8,2.8,0,0,1,1-1.95q2,4.42,4.06,8.83C120.68,146.25,121,147.8,122.07,149Z"/><path class="cls-5" d="M3.21,157l6-8a219.09,219.09,0,0,1,26.19-2.59c4.8-.28,5.43.42,6,5.63a3.85,3.85,0,0,1-1.22,2.41c-3.35,1.8-7.09,1-10.64,1.48-7.48,1-15,1.54-22.57,1.94C5.59,157.88,4.27,158,3.21,157Z"/><path class="cls-6" d="M96.11,13.06c2.93,2.82,6.43,5.08,8.49,8.76.77,1.37,2.41,2.57.5,4.23-2.72.84-3.92,3.13-5.13,5.41a5.36,5.36,0,0,1-.8,1.13c-2.21,1.16-3.55,4-6.67,3.41-2.58-2.68-1.33-6.25-2.16-9.34q0-2.61,0-5.22c1-3.39-.62-7.32,2.14-10.34C94.59,10.08,95.12,12,96.11,13.06Z"/><path class="cls-7" d="M23.16,103.91,23.24,73c3.14,1.07,2.06,3.83,2.41,6-.13,2.36,0,4.72,0,7.08,0,4.65.14,9.3-.06,13.94-.14,3.35,1.42,4.41,4.43,4.4a68.56,68.56,0,0,0,7.43-.66c2.46-.27,5-.64,7.15,1.12a6.88,6.88,0,0,1-.19,7.34c-5.87,2-12,2-18.06,2-2.65,0-4.4-1.4-3.7-4.52C23,107.85,22.25,105.8,23.16,103.91Z"/><path class="cls-8" d="M106,61.05c.8,2.07,1,3.81-.9,5.7C102.21,69.61,99.7,72.89,97,76c-2.51,1-3-1-3.1-2.52a96.52,96.52,0,0,1,0-18.85c.36-3.38,2-3.8,4.65-1.58a20.68,20.68,0,0,1,2.66,3C103.38,57.15,103.68,60.08,106,61.05Z"/><path class="cls-9" d="M3.21,157c12.29-1.28,24.55-2.79,36.93-3,1.25,1.28,1.13,2.68.37,4.14a4.57,4.57,0,0,1-1.43,1c-4.53,2.09-9.46,1.27-14.18,1.73-6.55.65-13.08,2.1-19.73,1.29-1.93-.25-3-1.53-3.89-3.13A3.18,3.18,0,0,1,3.21,157Z"/><path class="cls-10" d="M93.16,167.94c7.54-3,13.81-8.18,20.68-12.32,2.88-1.74,6.35-2.82,8.37-5.86l.92,1c.65,1.07,1.3,2.14,1.94,3.21.49,2-1.21,2.59-2.35,3.28-8,4.9-15.84,10.13-24,14.82-1.4.81-2.76,1.93-4.58,1.25A4.59,4.59,0,0,1,92.33,170,2.48,2.48,0,0,1,93.16,167.94Z"/><path class="cls-11" d="M14.15,141a12.33,12.33,0,0,1,3-6A6.39,6.39,0,0,1,21,132.89c5.75-.36,11.45-1.49,17.25-1.33,3.29.1,5.35,1.53,5.1,5.19a4.31,4.31,0,0,1-1.13,2.56c-8.12,2.69-16.65,2.1-25,3A3.64,3.64,0,0,1,14.15,141Z"/><path class="cls-12" d="M23.16,103.91c.14,10.47.15,10.36,10.65,8.44,3.37-.61,6.9-.27,10.36-.36,1.71,2,1.51,4,.33,6.11-6.72,2.81-13.93,2.06-20.93,2.85-2.05.24-2.8-1.33-3.36-3Z"/><path class="cls-13" d="M29.19,19.06c1.09-2.48,4.21-3.27,5-6,2.46,1.1,2.26,3.39,2.35,5.47.15,3.27.06,6.54.06,9.82,0,2.88.6,5.52,2.75,7.6a36.66,36.66,0,0,0,5,6c1.82,2.93,4.42,4,7.86,3.74s7.17-.05,10.77-.1c5.55,0,11.09,0,16.63,0,1.78,0,3.61-.15,5.22.92a1.27,1.27,0,0,1,.31,1.67c-4.1,2.38-8.58.65-12.84,1.21-3.93.18-7.86-.16-11.78,0-2.6,0-5.19,0-7.79,0A49.13,49.13,0,0,1,47,49.18a7.65,7.65,0,0,1-4-2.14c-.83-.79-1.6-1.64-2.38-2.48a18.64,18.64,0,0,0-2.58-2.89c-2.83-2.84-4.43-6.57-6.94-9.64v0a9.89,9.89,0,0,1-1-2.12C28.51,26.42,28.67,22.75,29.19,19.06Z"/><path class="cls-14" d="M38.17,80c-2.11-1.62-4.51-3-5-6-1.82-2.66-1.33-5.7-1.43-8.65-.14-4.11.43-8.26-.57-12.34,0-3.53,4.41-3.9,5-7,2.35-.94,2.74.77,3.22,2.37.51,9,.17,18.05.23,27.08C39.65,77.14,39.52,78.79,38.17,80Z"/><path class="cls-15" d="M101.22,56c-2.16-.54-3.27-4.24-5.09-3.28-2.37,1.26-.85,4.53-1,6.9-.21,4.14-.1,8.3,0,12.45,0,1.56-.58,3.51,1.89,3.93-.66,2-2.7,2.59-4,4-3.57-.34-3.28-3.2-3.37-5.54-.27-6.77.06-13.55-.21-20.31a6.63,6.63,0,0,1,.65-4.72c.91-1.43,1.74-2.94,3.42-3.66C95,45.73,95.34,47,96,47.92,97.59,50.7,100.19,52.84,101.22,56Z"/><path class="cls-16" d="M19.14,128.9c.53-3.32-.91-6.84,1-10,1.26,3.22,3.76,3.93,6.85,3.3,4.08-.82,8.24-.46,12.34-1,3.66-.45,5.29,1.17,5,4.82a4,4,0,0,1-1.18,2.38c-6.71,2.82-13.94,1.79-20.91,2.72C21,131.3,19.11,131.11,19.14,128.9Z"/><path class="cls-17" d="M40.19,152c.24-3.46-.46-4.79-4.74-4.28-7.5.89-15.09,1.11-22.6,2.2-1.27.19-2.69.33-3.65-1l2-3A7.87,7.87,0,0,1,17,143.51c6.47-.34,12.9-1.08,19.35-1.57,2-.16,4-.4,5.45,1.52a10,10,0,0,1,0,8.06A1.14,1.14,0,0,1,40.19,152Z"/><path class="cls-18" d="M41.2,144c-4-2.54-8,.13-11.92.2-6,.12-12.16.23-18.09,1.75.24-2.11,1.71-3.5,3-5l28-2c1.39,1.44,1.3,3,.5,4.69A1.07,1.07,0,0,1,41.2,144Z"/><path class="cls-8" d="M1.28,159,4.18,161c1.56.87,3,1.9,3.22,3.85.21,5.52.94,11.05-.48,16.51-2.24,2-3.39-.42-4.82-1.13.34,3.62,1.53,7.39-1,10.86-1.78-3.1-.93-6.51-.83-9.73C.52,173.9-.82,166.38,1.28,159Z"/><path class="cls-19" d="M19.14,128.9c5.76,2.19,11.47-.52,17.25-.33,2.13.07,4.49-.55,6.78-.59,1.69,3.22,3,6.4-1,9,.34-2.93-.75-4.36-3.89-4-7,.72-14.09,1.34-21.13,2A11.32,11.32,0,0,1,19.14,128.9Z"/><path class="cls-20" d="M24.21,79c-.32-2,.77-4.21-1-6,0-1-.07-2-.11-2.94-.46-1.08-.85-2.12,1-2l13,15.1C35,87.1,30.43,87.64,25.25,84.6,24.05,82.9,25.4,80.71,24.21,79Z"/><path class="cls-21" d="M1.12,191.06V178.75c2.67.13,3.25,2.63,5.09,3.23,2.33.59,3.1,2.55,3.91,4.48a7.34,7.34,0,0,1,.33,1.6c.37,3-.56,5.77-1.08,8.61-.28,1.51-.72,3.43-3.14,2.25C4.45,196.35,1.21,194.73,1.12,191.06Z"/><path class="cls-22" d="M98.94,229.8l-.8-1.91a42.88,42.88,0,0,1,8.61-10.71c5.23-4.92,7.28-10.75,7.08-17.67a20,20,0,0,1,.25-4.43,8.42,8.42,0,0,1,1.27-3c1-1.17,2.06-2.06,3.71-1.25,2.67,5.57,2,10.95-.94,16.2C113.16,215.83,105.68,222.51,98.94,229.8Z"/><path class="cls-23" d="M43.19,126c.07-2.56.09-4.38-3.75-3.42-4.54,1.13-9.4.21-14.07,1.34-4,1-5.79-1-5.21-5a6.6,6.6,0,0,1,.05-.9,4.87,4.87,0,0,0,4.73,1.73c6.36-.85,12.8-1.19,19.2-1.73,1.18,1,1.24,2.39,1.31,3.77a7,7,0,0,1-.83,4A1,1,0,0,1,43.19,126Z"/><path class="cls-24" d="M31.18,53c3-1,2,1.37,2,2.52.08,6.15,0,12.31,0,18.47-4.31-2.74-7-6.3-6-11.76a6.53,6.53,0,0,0-1-4.24C27.77,56.28,28.58,53.76,31.18,53Z"/><path class="cls-25" d="M39.18,37c-3.13-1.67-4-4.25-4.1-7.77-.09-5.4,1.19-10.92-.9-16.21a6.45,6.45,0,0,1,3-3c2.67-2.57,2.92.19,3.21,1.66.61,3.19.23,6.46.23,9.7.08,1.68.22,3.37.44,5C40.39,30,41.46,33.81,39.18,37Z"/><path class="cls-26" d="M118.12,207c1-5.38,2-10.75-.05-16.11-.47-2.92,2.4-4,3.41-6.05.94-1,2-1.77,3.44-1.15,3,4.7,1.32,9.52.41,14.32Z"/><path class="cls-27" d="M125.33,198.05c-1.53-3,.41-6-.23-9-.37-1.71.61-3.68-1-5.15-.59-1.8.81-2.71,1.7-3.86,1.41-.94,2.39-3.13,4.65-1.63,0,4.84.61,9.69-.34,14.51C129.34,195.44,127.52,196.91,125.33,198.05Z"/><path class="cls-28" d="M107.06,68.93c.81-1,1.89-2.75,2.07.23s0,5.9-.09,8.85a266.84,266.84,0,0,0,1.1,36.86,2.09,2.09,0,0,1,.14,2.19,1.32,1.32,0,0,1-1.44-.08c-1.14-1.48-1-3.34-1.53-5a32.85,32.85,0,0,0-.49-7.2,23.77,23.77,0,0,0-.64-5.38A121.08,121.08,0,0,1,106,77.85a15.85,15.85,0,0,0,.72-6A6.18,6.18,0,0,1,107.06,68.93Z"/><path class="cls-29" d="M85.19,1c.8.06,1.54.2,1.87,1.07C84.46,5.4,86.12,9.54,85,13.14c-1.09,2.24-3.13.47-4.62,1.08-1.52-4.64-5.48-7.92-7-12.57C75,.71,77,1.31,78.71.6,80.87.77,83.08.14,85.19,1Z"/><path class="cls-30" d="M84.12,14.07c0-2.91.08-5.82,0-8.72-.07-2.15.55-3.47,3-3.28l1,1.06A43.74,43.74,0,0,0,91.25,7l.91,1-.27.68c-2.72,3.31-.41,7.72-2.42,11.19C85.42,20,84.56,17.25,84.12,14.07Z"/><path class="cls-31" d="M32.93,230c-3.16-3.15-6.92-5.77-8.9-10a1.63,1.63,0,0,1,1.28-.4c1.7.94,2.64.72,2.69-1.5.05-2.6.18-5.24,2.12-7.32,1.91-.31,2.89.88,3.76,2.28a6.17,6.17,0,0,1,.49,1.58c.18,4.71.65,9.44-.31,14.13A2.38,2.38,0,0,1,32.93,230Z"/><path class="cls-32" d="M43.15,3c.07-2,1.73-2.28,3.07-2.93.89,1,2.71-.17,3.34,1.44A64.18,64.18,0,0,1,49.18,12a11.08,11.08,0,0,1-3.11,5c-1,.95-2.28,2.24-3.67.3A22.27,22.27,0,0,1,43.15,3Z"/><path class="cls-33" d="M43.15,3l0,15.07c.16,2.73-1.43,3.86-3.86,4.22,0-3.44-.13-6.88-.14-10.33,0-1.44.07-2.8-2-1.95C37.65,6.43,41.31,5.52,43.15,3Z"/><path class="cls-34" d="M25.2,219.91,24,220c-3-2.73-6.29-5.17-8-9,1.7-.85,2.64.51,3.77,1.31,1.8,1.85,3.16,2.62,3.26-1.06.06-2.36-.47-5,2.12-6.58a2.79,2.79,0,0,1,2.64,1.16,8,8,0,0,1,1.47,3.71c.25,2.87-1.12,5.48-1.3,8.3A2.15,2.15,0,0,1,25.2,219.91Z"/><path class="cls-35" d="M19.2,212.92,16,211c-2.36-2-4.89-3.9-6-7,1-.67,1.83-.15,2.67.34,2,2.27,3.17,2,3.92-1,.54-2.17-.1-4.64,1.61-6.52,3.17.28,4,2.55,4.42,5.19-.8,2,0,4.2-.39,6.25S22.1,212.56,19.2,212.92Z"/><path class="cls-36" d="M12.21,204.92,10,204A4.28,4.28,0,0,1,7.92,201c2.84-3.12,1.33-7.78,3.87-11a1.67,1.67,0,0,1,1.46-.4c1.88,1,2.58,2.69,3,4.62C15.52,198,16.33,202.41,12.21,204.92Z"/><path class="cls-37" d="M49.16,1.08c-1.07-.06-2.24.19-2.94-1,11.42,0,22.85,0,34.28,0,1.59,0,3.35-.52,4.69.92l-7.06.06C76.22,2.19,73.92,1,72,2.09a6.44,6.44,0,0,1-1.51.25c-1.73,0-3.45.28-5.18.32-2.17-.52-4.32.4-6.49.11-2.25-.54-4.54-.27-6.81-.43A4.26,4.26,0,0,1,49.16,1.08Z"/><path class="cls-38" d="M12.21,190c-.35,2.43-.66,4.87-1.06,7.29-.31,1.88-1,3.55-3.23,3.8l-1.69-2.12c3.66-3.35,2.41-7.94,3-12.06C11.39,186.79,12.56,187.64,12.21,190Z"/><path class="cls-39" d="M94.08,46.06l-2.94,3c-1.6-1.47-1.15-3.54-1.53-5.37-.17-1.49.58-2.67,1.28-3.87a9.48,9.48,0,0,1,.73-1.13,7,7,0,0,1,2.54-2.1,2.42,2.42,0,0,1,1.28-.08c2.27,1.17.7,3,.8,4.57l-.2,1C95.08,43.25,96.22,45.47,94.08,46.06Z"/><path class="cls-40" d="M130.08,193c-.61-5,1.15-10.13-1-15l-.43-.74a5.7,5.7,0,0,1,0-1.7c.72-5.58-1.27-11.41,1.55-16.79,1.69,2,.84,4.46.87,6.7.11,7.62.07,15.24,0,22.86C131.05,189.87,131.53,191.63,130.08,193Z"/><path class="cls-2" d="M29.19,19.06c2.07,3.41.21,7.54,2,11-1.33.62-1.93-.88-3-1C25,25.36,25.62,22.06,29.19,19.06Z"/><path class="cls-41" d="M63.15,229.91c-2.83,2-6,.82-9,.93-6.38.22-12.76.14-19.15.18a2.25,2.25,0,0,1-2-1.06l.41-.06c2.63-2.14,5.74-1.31,8.7-1.42,2.37,0,4.74-.12,7.11,0,2.66.07,5.33-.11,8,0C59.21,228.67,61.47,228.13,63.15,229.91Z"/><path class="cls-42" d="M38.19,48a1.83,1.83,0,0,0-2-2l-.12-5c1-.9,2,.77,3.07.06L41.21,44C42.4,46.13,42.56,48,40,49.3,39,49.45,38.63,48.64,38.19,48Z"/><path class="cls-43" d="M39.14,41.12c-1,1.51-2,.1-3.07-.06-2.16-2.73-4.25-5.49-4.9-9C35,34,35.93,38.57,39.14,41.12Z"/><path class="cls-44" d="M96.24,41.1c-2.17-.86.83-3.12-1.1-4.05-.36-2.39,1.53-2.93,3.08-3.76a2.36,2.36,0,0,1,2.1.79C99.29,36.62,99.19,39.68,96.24,41.1Z"/><path class="cls-45" d="M130.16,158.71c-.75,6,1.11,12.26-1.09,18.22a22.67,22.67,0,0,1,0-17,2.05,2.05,0,0,1,1-2A2.09,2.09,0,0,1,130.16,158.71Z"/><path class="cls-46" d="M99.11,31c.45-2.9,2.89-4.32,4.75-6.08,1-1,1.11.37,1.24,1.1l-1,2.05a31,31,0,0,1-3.85,3.3A1.07,1.07,0,0,1,99.11,31Z"/><path class="cls-47" d="M111.16,119.83a18.29,18.29,0,0,1,2,7.94,2.48,2.48,0,0,1,.18,2.14,1.43,1.43,0,0,1-1.35.24c-1.27-1.29-1-3.11-1.61-4.64s-1.08-3.11-.23-4.73A2.51,2.51,0,0,1,111.16,119.83Z"/><path class="cls-48" d="M113.08,130c0-.74.06-1.47.1-2.21a28.16,28.16,0,0,1,2.9,8.22v2c-3.25-.7-2.66-3.78-3.64-5.89A2.53,2.53,0,0,1,113.08,130Z"/><path class="cls-49" d="M99.11,31A2.37,2.37,0,0,1,100,31a1.81,1.81,0,0,1,2.43.13l-2.1,3L98,34c-.46-1.07.45-1.39,1-1.88Z"/><path class="cls-6" d="M102.42,31.11,100,31c1.11-1.32,2-2.91,4.09-2.88A3.54,3.54,0,0,1,102.42,31.11Z"/><path class="cls-50" d="M94.08,46.06c.65-1.33,1.31-2.66,2-4L96,47.92Z"/><path class="cls-30" d="M96.11,13.06l-3-2c-1.34-.64-2-1.52-1-3L92.16,8C93.93,9.34,95.83,10.56,96.11,13.06Z"/><path class="cls-51" d="M111.16,119.83l-.1,1.15c-2.62-.76-1.9-2.35-1-4,0-.71,0-1.41.07-2.12C111.56,116.3,111,118.15,111.16,119.83Z"/><path class="cls-29" d="M91.25,7a4.47,4.47,0,0,1-3.14-3.89A5.18,5.18,0,0,1,91.25,7Z"/><path class="cls-52" d="M28.18,29.05c1.52-1.19,1.89,1,3,1,0,.66,0,1.32,0,2A6.31,6.31,0,0,1,28.18,29.05Z"/><path class="cls-53" d="M24.16,68.07c-.84.42-.92,1.22-1,2l-1.05-2c.17-.53,0-1.46.89-1.28C23.45,66.85,23.77,67.61,24.16,68.07Z"/><path class="cls-10" d="M122.07,149c-1.87-.81-2.12-2.37-1.93-4.14A5.37,5.37,0,0,1,122.07,149Z"/><path class="cls-54" d="M98.13,195l9-10c3.22-1,3,1.62,3.23,3.31.35,3.23.3,6.5.8,9.72-1.4,6.6-6.61,10.36-11.1,14.62-1,.92-2.18.5-2.81-.84C96.84,206.12,95.44,200.43,98.13,195Z"/><path class="cls-55" d="M94.15,176.94a7.09,7.09,0,0,1,1,4c-.91,2.27-3.13,2.85-5,3.87-6.72,3.63-14,6.3-20.23,10.79a9.69,9.69,0,0,1-3.84.66,31.65,31.65,0,0,1-6.38-.26,3.58,3.58,0,0,1-1.39-.7c-1-2.35.8-3.46,2.28-4.26,10-5.38,20.25-10.37,30.5-15.32a3.28,3.28,0,0,1,2.87-.11A.92.92,0,0,1,94.15,176.94Z"/><path class="cls-56" d="M94.15,176.94c0-.33,0-.67,0-1a2.1,2.1,0,0,1,0-3c10.83-5.49,20.91-12.19,30.94-19,2.23,2,2.38,3.91-.27,5.55-8.93,5.54-17.91,11-26.87,16.5A6.28,6.28,0,0,1,94.15,176.94Z"/><path class="cls-57" d="M70.14,194.92c.18-2.35,2.3-2.58,3.81-3.36,7-3.59,14.1-7.09,21.16-10.62.66,3,1.31,6,2,9-6-.89-9.94,3.4-14.59,5.9a21,21,0,0,1-5.36.48,39.34,39.34,0,0,1-4.85-.2A3.29,3.29,0,0,1,70.14,194.92Z"/><path class="cls-55" d="M98.13,195l.08,18-.8.31a2.36,2.36,0,0,1-1.12-1.17c-1-3.24-.38-6.59-.64-9.88-.14-1.87.4-4.53-2.6-4.4s-2.27,2.73-2.5,4.61c-.44,3.69,1.06,7.67-1.59,11.06a7.13,7.13,0,0,1-7-.3c-2.34-4.89-1.42-10-.87-15,.36-3.43,3.84-3.05,6.16-4,3.28-.81,6.91-.14,9.92-2.22C98.27,192.66,98.05,193.86,98.13,195Z"/><path class="cls-58" d="M110.1,199c-1.21-3.32-1-6.76-1-10.2,0-1.56.47-3.46-2-3.81l7-8c2.63.34,2.23,2.54,2.37,4.18a56.73,56.73,0,0,1-.39,11.79l-1,2C113.73,196.65,113.23,199.43,110.1,199Z"/><path class="cls-51" d="M116.07,192.92c-2-2.81-.54-6-1-9-.36-2.33.9-4.89-1-7l5-6c2.79.53,2.2,2.88,2.35,4.67.31,3.42-.17,6.89.61,10.29l-4,5Z"/><path class="cls-48" d="M122.05,185.92c-2.77-.49-1.73-2.71-2-4.35-.53-3.52,1.12-7.24-1-10.61,1.67-2,2.77-4.47,5-6,2.38,2.9,1.19,6.36,1.44,9.57.16,2.15.33,4.3.57,6.44l-2,3Z"/><path class="cls-59" d="M126.08,181c-2.4-.34-2-2.2-2-3.77,0-4.08,0-8.16,0-12.24l3-4c2.44.26,1.33,2.17,1.44,3.36.39,4.51-.56,9.09.54,13.59l0,0A6.56,6.56,0,0,1,126.08,181Z"/><path class="cls-60" d="M97.12,191.91c.17,2.32-1,3.16-3.2,3-1.93-.11-3.87,0-5.8,0a5.81,5.81,0,0,1-5,0c2.32-3.91,6.78-4.48,10.26-6.58,1.85-1.11,2.58.76,3.69,1.57C97.09,190.59,97.1,191.25,97.12,191.91Z"/><path class="cls-56" d="M129.05,177.9c-2.1-3.31-.46-7-1-10.43-.34-2.17.84-4.58-1-6.52a2.07,2.07,0,0,1,2-1v17C129.07,177.26,129.06,177.58,129.05,177.9Z"/><path class="cls-61" d="M107.1,77q0,11.51,0,23c.76.9.46,1.92.34,2.92-6.21,5-12.11,10.56-20.55,11.65-1.49-.86-1.19-2.3-1.17-3.65.08-4.78,0-9.56,0-14.35a22.42,22.42,0,0,1,.1-3.38,4.44,4.44,0,0,1,1.34-3c5.29-5.89,10.56-11.78,15.88-17.63,1.21-1.33,2.22-2.92,4-3.61.34.7.69,1.39,1,2.09C106.8,72.86,108.34,75.17,107.1,77Z"/><path class="cls-62" d="M87.17,90.17,87.09,93c-1.88,2.33-4.81,2.82-7.29,4.09-9,4.6-18.07,9.06-27.11,13.58-7.31,3.65-8.06,3.18-8-4.82a4.77,4.77,0,0,1,.2-2c6.58-4.07,14-6.62,21.05-11.14-7.53-1.34-14.66.73-21.51-1.33a.91.91,0,0,1-.21-1.31Z"/><path class="cls-63" d="M44.21,90.13c0,.29,0,.58,0,.88a4.27,4.27,0,0,1,.33,5.24c-6.22,3.21-12.75,3.36-19.44,1.92-.69-3-.35-6-.19-9,2.63-2.48,5.93-1.37,9-1.6,2.15-.16,4.26-.58,6.4-.67Z"/><path class="cls-64" d="M46.18,88c-2.57-.2-3.75-2.13-5-4a13.82,13.82,0,0,1-1.48-7.7c.32-7.43-.74-14.9.61-22.3,1.3-2.13,2.36-.82,3.25.34a30.92,30.92,0,0,1,3.2,5.91C47.83,69.53,48.93,78.8,46.18,88Z"/><path class="cls-65" d="M87.18,87c-2.16,1.87-4.71.63-7.07.9-1-.89-2.76.09-3.59-1.34C75,82.41,76.18,78,75.58,73.77a4.17,4.17,0,0,1,.11-1.61c2.15-2.48,2.82-6.69,7.4-6.36,2.77,2.14,2.3,5.25,2.45,8.17C85.78,78.36,84.73,82.91,87.18,87Z"/><path class="cls-63" d="M90.05,53c2.33,4.16.62,8.66,1,13,.28,3.1.07,6.25,0,9.37,0,1.84-.1,3.69,2,4.63-1.15,1.81-2,3.84-4,5-3.57-.75-3.24-3.73-3.37-6.23-.3-5.94.2-11.9-.33-17.84a6.68,6.68,0,0,1,1.45-6.17C87.76,53.91,88.5,52.71,90.05,53Z"/><path class="cls-66" d="M46.18,88q0-11.11,0-22.23c0-2,.08-4-1-5.74.68-2.71-1.74-6,1.44-8.22,4.19,1.73,4.19,5.77,5.16,9.29-.32,2.16-.24,4.36-.75,6.5-.8,5-.23,10.07-.37,15.11,0,1.77.4,3.58-.49,5.28Z"/><path class="cls-5" d="M50.16,88a45.81,45.81,0,0,1,0-21c2.43.6,3.63,2.83,5.53,4.14a3.39,3.39,0,0,1,1.17,2.59,6.77,6.77,0,0,1-.2,1.49c-.66,4.22.46,8.52-.51,12.73Z"/><path class="cls-67" d="M41.18,53V84c-1.8-.73-2.17-2.53-3-4q0-16,0-32l1,1a4.28,4.28,0,0,1,2.39,2.88A1.21,1.21,0,0,1,41.18,53Z"/><path class="cls-68" d="M86.05,60c2.33,5.92.55,12.08,1,18.1.2,2.47-.21,5,2,6.89l-1.91,2c-2.39.16-3.15-1-3.08-3.31.1-4,0-7.91,0-11.87,0-2.2-.15-4.29-2-5.83C82.13,63.17,83,60.88,86.05,60Z"/><path class="cls-69" d="M40.24,86.89C39.09,89.49,36.76,89,34.65,89c-3.15,0-6.3,0-9.45,0-.77-.85-.39-1.9-.49-2.87A2.85,2.85,0,0,1,25.2,84c4.07,1.07,8.16,2.57,11.92-.84Z"/><path class="cls-70" d="M77.13,87c1.08,0,2.24-.18,3,.92h-9a3.5,3.5,0,0,1-1.88-1.79c-.65-3.82-1.26-7.64.64-11.32a3.7,3.7,0,0,1,4.16-.27c2,2,1.32,4.61,1.51,7C75.71,83.5,75.24,85.59,77.13,87Z"/><path class="cls-19" d="M70.14,87l1,.93-6,0c-3.88-2.36-4.59-6.34-2.33-13A3.61,3.61,0,0,1,67,74.54c2,2,1.36,4.6,1.56,7C68.73,83.48,68.24,85.58,70.14,87Z"/><path class="cls-71" d="M56.15,88a21.15,21.15,0,0,1,0-14c1.48-.16,2.83,0,3.7,1.42A28.34,28.34,0,0,1,60.15,88Z"/><path class="cls-11" d="M60.15,88c-2-4.18-.57-8.62-1-12.92a2.68,2.68,0,0,1,4,0c.75,4.3-1.84,9.1,2,12.93Z"/><path class="cls-72" d="M110.1,199l5-4c2.49,15.18-7.23,24.07-16.94,33q-.06-7-.13-14c-.28-.21-.38-.42-.29-.64s.19-.33.28-.33l.2.07A57.58,57.58,0,0,0,110.1,199Z"/><path class="cls-73" d="M90.11,214c-.53,2.72-1,5.46-1.59,8.15-1.79,7.46-2.26,7.8-9.92,7.8H76.13c.07-5.71.68-11.3,3.3-16.5C83,213.43,86.59,213.05,90.11,214Z"/><path class="cls-74" d="M79.13,213.94a37.52,37.52,0,0,1-3,16h-8c1.4-5.44.43-11.41,3.73-16.43a6.51,6.51,0,0,1,3.28-.83C76.61,212.66,78.07,212.7,79.13,213.94Z"/><path class="cls-75" d="M79.13,213.94l-4-.06c-1.13-.92-3.13.06-3.84-1.76-.79-5.78-1.85-11.57.83-17.19h5c1.13,3.24.49,6.58.32,9.83-.21,4,.91,6.7,4.68,8.15h7a6.31,6.31,0,0,1,8,0c.3,0,.6,0,.9,0a2.88,2.88,0,0,1,0,1l-7.91.11Z"/><path class="cls-76" d="M63.15,229.91h-6c1.72-5.51,3.11-11.12,5.19-16.51a4.61,4.61,0,0,1,5,.24c2.12,5.64.75,12.72-3.16,16.28h-1Z"/><path class="cls-41" d="M64.15,229.91c2.56-5,3-10.44,3-15.95,1.67-1.58,3.33-1.33,5,0-2.08,3.29-.31,7.14-1.62,10.63a22.21,22.21,0,0,1-2.37,5.31Z"/><path class="cls-77" d="M93.16,167.94l0,2c-6.41,4.13-13.5,6.93-20.21,10.49-9.78,5.18-20,9.45-29.41,15.42-3.32.53-6.64.84-9.91-.26a2.24,2.24,0,0,1-1-1.29,2.73,2.73,0,0,1,1-2.92c17-7.51,33.36-16.48,50.1-24.6,1.49-.72,3-1.51,4.49-2.14,2.49-1,4.15-.38,4.89,2.29Z"/><path class="cls-78" d="M93.08,166.94c-1.75-2.8-3.77-1.61-5.93-.53q-23.49,11.82-47,23.54c-1.9,1-3.71,2.24-6,2-1.31-1.38-1.13-2.95-.59-4.57,2.14-2.89,5.71-3.23,8.62-4.71q21.57-11,43.31-21.64c2-1,4-2.8,6.39-.74l.32.69C92.45,162.94,92.77,164.94,93.08,166.94Z"/><path class="cls-48" d="M116.08,139c3,6,3,6.74-2.63,9.71-7.26,3.83-13.5,9.42-21.31,12.26l-.06,0c-1-1.77-2.34-3.45-1.65-5.71,1-2.54,3.57-3.34,5.59-4.74,5.48-3.78,11.44-6.78,16.88-10.62C113.83,139.23,114.79,138.47,116.08,139Z"/><path class="cls-47" d="M116.08,139c-7.84,6.06-16.75,10.45-24.93,16a3,3,0,0,1-1-1.09c-.86-1.89-1.43-3.8-.48-5.84,3.89-3.32,8.54-5.46,12.84-8.15a71.9,71.9,0,0,0,10.62-7.9q1.48,3,3,6Z"/><path class="cls-79" d="M40.19,152c.32,0,.63,0,1,0a15.14,15.14,0,0,1,4.91-3.33q17.61-8.81,35.23-17.56c2.16-1.07,4.3-2.79,7-1.35a4.3,4.3,0,0,1,1,2.09c.17,2,.79,4,.87,6.09a3.43,3.43,0,0,1-.77,2.1c-2.64-1.2-4.95-.31-7.37.91-11.84,6-23.73,11.92-35.62,17.84a12.28,12.28,0,0,1-4.15,1.65c-1.76.18-3.15-.19-2.06-2.48,0-1.32,0-2.63,0-3.95C40.16,153.3,40.17,152.65,40.19,152Z"/><path class="cls-80" d="M84.12,14.07c1.69,2,2.77,4.46,5,6,1.18.16,1.51,1.16,2,2a3.17,3.17,0,0,1,0,4,9.71,9.71,0,0,1-2.67,3.78c-1.06.95-2.1,1.94-3.7,1.71a17.37,17.37,0,0,1-6.27-7.08c.45-3.56.85-7.14,2.65-10.36C82.11,10.94,83.11,14.4,84.12,14.07Z"/><path class="cls-81" d="M88.11,29a6.65,6.65,0,0,1,3-3c2.08,3.09,0,7,2.08,10.12.47.25,1,.41,1,1.11L92.25,39.1c-2.49,1.33-3.78.12-4.27-2.21A15.15,15.15,0,0,1,88.11,29Z"/><path class="cls-81" d="M91.11,22.06l-2-2c0-2.77,0-5.54,0-8.3,0-2.05.63-3.52,3-3.65.34,1,.69,2,1,3C91,14.46,93.28,18.67,91.11,22.06Z"/><path class="cls-82" d="M94.19,37.25l-1-1.11c1.74-1.66,3.12-3.87,5.89-4L98,34a7.18,7.18,0,0,0-2.88,3A3,3,0,0,0,94.19,37.25Z"/><path class="cls-83" d="M45.18,104c0,9-.08,8.88,8.22,4.93,11.22-5.33,21.81-12,33.69-15.91v3c-1.12,2.2-.06,4.6-.63,6.85-8.36,5.07-17.41,8.81-26,13.37q-5.28,2.77-10.69,5.33c-1.75.82-3.56,2-5.54.42,0-1.33,0-2.66,0-4l0-6v-7a5.38,5.38,0,0,1-1.24-4.09,3.56,3.56,0,0,1,1.5-3.1C47.18,99.56,46.65,101.72,45.18,104Z"/><path class="cls-84" d="M44.16,101c0,1.33,0,2.66,0,4-5.24.34-10.48.59-15.71,1-3.17.26-4.46-.84-4.32-4.17.22-5.27.07-10.56.07-15.84.33-.47.66-.44,1,0,0,1,0,2,0,3v9c2.41,3.15,5.72,2.58,9,2.21S41,98.64,44.16,101Z"/><path class="cls-85" d="M25.19,86h-1V79c1.64,1.41.75,3.32,1,5C25.2,84.67,25.2,85.34,25.19,86Z"/><path class="cls-86" d="M40.15,157.91c.9,3.68,2.87,1,4,.46,12.9-6.34,25.73-12.82,38.6-19.23,2.22-1.11,4.65-2.87,6.29.83a2.53,2.53,0,0,1,.86,1.29,4,4,0,0,1-.46,3c-2.1,2.32-5.16,2.89-7.79,4.23Q63.29,157.88,44.78,167c-2.23,1.1-4.6,3.12-7.21.55a12.34,12.34,0,0,1,1.62-9.6Z"/><path class="cls-87" d="M39.19,158q-.48,5-1,10c.67,1.3.45,2.11-1.18,2.15-2.27-1.69-4.77-1.58-7.47-1.34-5.84.53-11.65,1.57-17.55,1.36a6.59,6.59,0,0,1-2.84-1.21c-1.85-1.11-2-3.23-3-4.91-.68-1-1.35-2-2-3C15.91,160.64,27.56,159.42,39.19,158Z"/><path class="cls-88" d="M44.18,194.92c.82-1.78,2.37-2.69,4-3.53q20.33-10.14,40.62-20.32A7.7,7.7,0,0,1,93.12,170c.34,1,.68,2,1,3,0,1,0,2,0,3-11.6,4.72-22.46,10.95-33.68,16.46-.94.46-1.52,1.66-2.27,2.52-3,2.4-6.48,1-9.73,1.38C46.89,196.22,45.31,196.24,44.18,194.92Z"/><path class="cls-89" d="M87.09,112c0,.67-1.12,1.34,0,2a5.37,5.37,0,0,1,1.34,3.8,10,10,0,0,1-.6,4c-1.1,2-3.18,2.82-5.08,3.78-11.53,5.81-23.08,11.55-34.64,17.31-1.81.9-3.63,2.58-6,1.1v-5l0-2c1.93-2.83.58-6,1-9,0-.66,0-1.32,0-2l1,0c1.78,2.36,3.68,1.34,5.7.32q14.43-7.27,28.9-14.44c2.21-1.1,4.37-2.46,7-2.2C86.87,110.05,86.37,111.36,87.09,112Z"/><path class="cls-90" d="M60.14,48.16l12,0a5.36,5.36,0,0,1,1,1.61c.83,6.63.23,13.29.36,19.93.09,4.15-1.91,5.76-6,4.82-2.16-1.46-1.77-3.78-1.83-5.88-.13-4.32,0-8.64-.07-13,0-2.18,0-4.44-2.8-5.17a6.51,6.51,0,0,1-2.33-.87A1.06,1.06,0,0,1,60.14,48.16Z"/><path class="cls-32" d="M62.16,47c-3.66,0-7.34-.23-11,.1-4.14.37-6.69-1.24-8-5.06-1.85-3.68-2.33-7.33.33-10.88,3.85-.86,4.81,1.9,5.79,4.62.34,2.1.14,4.22.27,6.34.09,1.51.52,2.54,2.25,2.48s3.7,0,5.54.06C59.2,44.94,61.57,44.15,62.16,47Z"/><path class="cls-91" d="M62.16,47c-1.42-1.6-3.32-.73-5-1A5,5,0,0,1,56.78,40c1.78-1.47,3.75-1.39,5.78-.7,2.45,1.07,1.09,5.68,5,5.38,1.57,0,3.14,0,4.71,0,1.94-.07,3.87,0,5.81,0,2.54.07,5.14-.37,7.56.8.91.84.85,1.4-.46,1.6Z"/><path class="cls-33" d="M44.22,30.92c-1.89,3.56-.72,7.41-1,11.12-1.85-1.25-3.74-2.47-4-5,.06-3.61-.4-7.27,1-10.76C43.56,26,44,28.42,44.22,30.92Z"/><path class="cls-92" d="M72.14,49c0-.3,0-.6,0-.9l13-.13a1.93,1.93,0,0,1,.65,1.32c-.82,3.43-1.71,6.82-4.39,9.38-2.8,1.37-2.93-.76-3.36-2.55s.61-4-1.28-5.54c-.89-.22-1.8-.34-2.7-.52A4,4,0,0,1,72.14,49Z"/><path class="cls-91" d="M41.18,53c0-.33,0-.66,0-1,0-2.22-.37-4.59,2-6l3,2.09a4.63,4.63,0,0,1,1.5,2.14,1.83,1.83,0,0,1-.6,1.8c-2.33,2.25.43,5.74-2,8C43.79,57.72,43.18,55,41.18,53Z"/><path class="cls-93" d="M85.22,49.05c0-.35-.11-.7-.17-1a7.93,7.93,0,0,0,.14-1l1.09-1a4.19,4.19,0,0,1,.59-1.2c.9-.91,1.47-2.41,3.22-1.83,1.86,1.76.67,4,1,6-.36,1.31-.72,2.62-1.09,3.93l-1.94,2C86,53.57,86.2,51,85.22,49.05Z"/><path class="cls-19" d="M43.19,46c-1.56,1.71-.21,4.39-2,6l-2-3c2.35-1,1.92-3.13,2-5Z"/><path class="cls-94" d="M60.14,48.16c0,.29,0,.58,0,.87a3.15,3.15,0,0,1-1.94,1.07,16.7,16.7,0,0,1-3.74.08,4.69,4.69,0,0,1-2.11-.71,1,1,0,0,1-.37-.83c0-.32.08-.47.15-.47Z"/><path class="cls-89" d="M52.15,48.17c0,.28,0,.57,0,.86-1.45,1.51-3.26,1.34-5.08,1.08a2,2,0,0,1-.86-2Z"/><path class="cls-95" d="M42.16,144c10.2-3.92,19.57-9.56,29.42-14.22,5.23-2.47,10.36-5.16,15.53-7.76,2.16,2.45,3.1,5,1,8-2.12-.22-3.8.94-5.56,1.82Q64.33,140.88,46.15,150c-1.6.79-3.34,1.34-5,2q0-4,0-7.94C41.52,144,41.84,144,42.16,144Z"/><path class="cls-15" d="M6.21,164l3,4a22.9,22.9,0,0,1,0,18l-3-3.93Z"/><path class="cls-29" d="M9.23,185.91q0-9,0-18l1.93,1a6.07,6.07,0,0,1,3.3,4.95C14.27,179.3,16,184.83,13.18,190l-1-.05a6.89,6.89,0,0,0-3-3.08C9.25,186.55,9.24,186.23,9.23,185.91Z"/><path class="cls-96" d="M86.12,110c-13,5.42-25.22,12.28-37.8,18.48-3.21,1.58-4.56,1.31-4.16-2.51l0-4c2.13.22,3.82-.94,5.59-1.82l30.75-15.35c1.77-.88,3.46-2,5.59-1.81A11,11,0,0,1,86.12,110Z"/><path class="cls-97" d="M44.22,30.92c-1.33-1.57-2-3.72-4.06-4.64-1.34-1.09-1-2.53-.83-4q1.94-2.1,3.86-4.22c2.32-1.43,3.43-3.88,5-5.92.55-.93,1.05-2,2.35-.9,1.72,3.73.16,8.15,2.48,11.75a9.3,9.3,0,0,1,.81,2.82c-1.71,6.16,3.31,7.65,7,10.08.81,1.11,1.32,2.24.14,3.43-2.68-.22-5.18,1.13-7.86.87a6.27,6.27,0,0,1-1.54-.36c-1.87-.73-2.61-2.39-3.33-4.07C47.62,33.6,46,32.22,44.22,30.92Z"/><path class="cls-98" d="M87.15,118l-.06-4c6.35-1.17,10.61-6.21,16.2-8.79a42.74,42.74,0,0,0,3.8-2.22c.7.49.32,1.5,1,2,0,2.34,0,4.67,0,7,.34,2.16-1.45,2.81-2.75,3.6-4.06,2.48-8,5.21-12.13,7.53-4.61,2.56-5.34,2.13-5.57-3.29A2.71,2.71,0,0,0,87.15,118Z"/><path class="cls-58" d="M87.15,118c2.07,5.82,2.13,5.93,8.14,2.34,4.37-2.61,8.54-5.55,12.8-8.35,1.67,1.4.76,3.31,1,5,1.35,3.13.23,5.37-2.5,7.06-4.47,2.79-8.9,5.63-13.41,8.36-1.71,1-3.55,2.17-5-.42l-.09-2c.54-2.77-.88-5.3-1-8C87.12,120.65,87.14,119.32,87.15,118Z"/><path class="cls-99" d="M88.16,132c3.68.64,20.1-9.57,20.89-13a10,10,0,0,0,0-2h1c.16,1.37-.43,2.94,1,4-.93,1.34,0,2.67,0,4,.18.48.25,1.06-.15,1.35a142,142,0,0,1-19.07,11.94,2.28,2.28,0,0,1-2.74-.3C88.78,136,87.77,134.09,88.16,132Z"/><path class="cls-58" d="M107.1,77c.32-2-.82-4.24,1-6C107.76,73,108.89,75.26,107.1,77Z"/><path class="cls-58" d="M108.07,105a2.09,2.09,0,0,1-1-2v-3C108.75,101.41,107.85,103.31,108.07,105Z"/><path class="cls-100" d="M53.17,26.05l-1-2c2-1.39,4.06-.1,6.09-.33,1.3,0,2.6-.1,3.91-.2,4.11-.8,5.7-3.41,5.59-7.46-.1-3.29-.09-6.6,0-9.89.07-2,.22-4,2.36-5.07q.48,0,1,0c.51.66,1.53.29,2,1,4.71,2.63,6.37,7.29,8,12,.65,3.86-1.15,7.3-1.89,10.92a3.45,3.45,0,0,1-.89,1.92C76,29.55,73,31.06,69.86,32.29,62.3,34.21,56.48,32,53.17,26.05Z"/><path class="cls-101" d="M73.12,2.08a2.13,2.13,0,0,1-2-1h7C76.73,2.73,74.81,1.82,73.12,2.08Z"/><path class="cls-102" d="M42.17,229.9H33.34l-.15-16c4.34-2.59,8.88-1.47,13.41-.77C49.18,217.47,47,225.59,42.17,229.9Z"/><path class="cls-103" d="M47.17,214l-14,0c0-.38,0-.75,0-1.13-2.38-5.55-2.06-11.16-.32-16.78,2.66-1.09,5.41-.45,8.13-.45,2.66,2.76,1.52,6.23,1.64,9.42.24,6.12.19,6.19,6.49,6.5,2.3-.05,4.59-.09,6.88,0,2,0,4-.08,6,0,1.73,0,3.46-.07,5.19,0a6.68,6.68,0,0,1,5,1.39c1.09,0,2.26-.16,3,1l-3,.08h-10c-2.7,2.06-5.84,1.31-8.85,1.38C51.13,215.38,49,215.49,47.17,214Z"/><path class="cls-104" d="M33.21,195.93q0,8.43-.07,16.87l-2.93-1.93c-1.2-.15-1.39-1.28-2-2L27.12,206c-2.14-5.17-1.95-10.4-.39-15.66,3.69-1.68,4.8,1.35,6.39,3.52l.09,1c.35.22.47.44.35.66S33.33,195.93,33.21,195.93Z"/><path class="cls-105" d="M28.22,208.85c.66.67,1.33,1.34,2,2-.12,2.79-1.45,5.41-1.05,8.29.17,1.15.11,2.69-1.12,3-1.5.39-2.18-1.12-2.84-2.26C28.34,216.81,28,212.74,28.22,208.85Z"/><path class="cls-106" d="M50.16,11.06l-1.94,1.13c.23-3.71-.88-7.54.94-11.11h3A33.27,33.27,0,0,1,53,8.18C52.48,9.56,52.31,11.29,50.16,11.06Z"/><path class="cls-87" d="M28.19,189.93c-2.22,5.25-.35,10.76-1.07,16.11l-2-1c-2.43-.22-2.38-2.09-2.56-3.82-1.39-5.42-1.13-10.86-.26-16.31,1.44-2.36,2.74-.74,4.08.13C27.61,186.45,28.89,187.83,28.19,189.93Z"/><path class="cls-107" d="M23.2,201.92,25.15,205c-1.23,1.92-.86,4.08-1,6.18-.1,1.72.81,4.23-1.16,4.86-1.81.58-2.83-1.7-3.82-3.16,1.8-2.54,2.62-5.22,1.39-8.29-.63-1.58-.07-2.54,1.67-2.73C22.58,201.45,22.9,201.43,23.2,201.92Z"/><path class="cls-91" d="M23.2,201.92l-.94,0c-1.41-1.61-2.06-3.84-4.05-5a3.41,3.41,0,0,1-1-1.43,70.66,70.66,0,0,1,0-16.38c3.3-3.43,3.47,1.41,5.26,2,.59.86,1.2,1.71.69,2.84Z"/><path class="cls-108" d="M18.18,196l0,.94a17.36,17.36,0,0,1-2.58,11.32,6.65,6.65,0,0,1-3.42-3.31c1.79-3.47,2.34-7.29,3-11.06a1.12,1.12,0,0,1,1.11-.24C17.33,194.11,17.54,195.22,18.18,196Z"/><path class="cls-43" d="M16.21,193.91l-1,0c-.69-1.29-1.37-2.58-2.06-3.86q0-8.55.05-17.09c1.24-.4,2.09.25,2.88,1.07a5,5,0,0,1,1.17,3.17C16.57,182.71,18.38,188.44,16.21,193.91Z"/><path class="cls-101" d="M70.16,1.08c-2,4.8-1.14,9.87-.86,14.74.32,5.63-1.92,8.35-7.17,9.19C61,18.33,61.59,11.63,62,4.94c.09-1.62.33-3.94,3.2-2.88A8.17,8.17,0,0,1,70.16,1.08Z"/><path class="cls-109" d="M65.15,2.06c-3,.63-1.8,3.07-2,4.83-.58,6,1.08,12.18-1,18.12h-4c-2.49-3.39-1-7.26-1.32-10.92.11-2.28,1.09-4.51.48-6.86a7,7,0,0,1,.14-3.78,2.29,2.29,0,0,1,1.7-1.39C61.15,2.11,63.15-.21,65.15,2.06Z"/><path class="cls-110" d="M59.15,2.07l-1,1c-1.67,2.05-2.64,4.95-6,5-.49-2.33-1.76-4.66,0-7C54.48,1.45,57.05.15,59.15,2.07Z"/><path class="cls-111" d="M88.11,29c1.34,2.11,1.08,4.48,1,6.77s.85,3.4,3.16,3.29c-.07.34-.14.67-.2,1-2.71,1.11-3.59,4.63-6.75,5.16-4-2.4-1.85-6.49-2.74-9.74a5.27,5.27,0,0,1,2.55-4.46Z"/><path class="cls-112" d="M86.08,45c1.71-2,2.88-4.62,6-4.93-.65,1-1.3,2-2,2.93L87.2,45.86A1.92,1.92,0,0,1,86.08,45Z"/><path class="cls-113" d="M53.16,214h9a23.07,23.07,0,0,1-5,15.94h-8C49.27,224.28,51.31,219.14,53.16,214Z"/><path class="cls-114" d="M53.16,214c.22,5.71-1.76,10.86-4,16h-7a44.87,44.87,0,0,0,5-16Z"/><path class="cls-28" d="M89.13,138c8.08-3,14.74-8.49,22-13,1.66,1.4.76,3.31,1,5,.46,1.25-.46,1.83-1.25,2.36-5.22,3.48-10.56,6.79-15.94,10-2.2,1.31-4.63,2.41-5.75-1.36,0-.34,0-.67-.07-1C89.1,139.31,89.11,138.64,89.13,138Z"/><path class="cls-51" d="M89.15,141c1.71,2.75,3.69,1.29,5.45.19,5.86-3.67,11.66-7.45,17.49-11.19h1c0,.66,0,1.33,0,2-.4,3.29-3.16,4.48-5.47,5.93-5.7,3.58-11.09,7.69-17.47,10.06a3.29,3.29,0,0,1-1-4Z"/><path class="cls-115" d="M62.15,212.92h-6c-2.33-3.09-1.33-6.69-1.33-10.06,0-3.57-1-5.75-4.93-5.77a4.21,4.21,0,0,1-1.49-.68,1.05,1.05,0,0,1-.24-1.46l10,0,1,0c3.05.77,4.32,3,4.31,5.88C63.47,204.89,64.67,209.12,62.15,212.92Z"/><path class="cls-116" d="M62.15,212.92c0-3.58-.14-7.16,0-10.72a8.08,8.08,0,0,0-3-7.26h7c4.07,5.78,3.17,11.84,1,18Z"/><path class="cls-117" d="M67.14,212.92c-.33-6,.86-12.08-1-18l4,0h2v18Z"/><path class="cls-118" d="M82.13,212.91c-4.66.81-6.71-.93-6-5.82.56-4-.88-8.23,1-12.16h11c-6.21.53-6.61,4.61-6.05,9.54A76.59,76.59,0,0,1,82.13,212.91Z"/><path class="cls-119" d="M97.1,212.91h-8c0-4.45.16-8.9-.05-13.34-.16-3.36,1.63-3.67,4.29-3.7s3.89.86,3.79,3.7C97,204,97.1,208.46,97.1,212.91Z"/><path class="cls-62" d="M86.12,110v-7c.38-2.32-.9-4.88,1-7v16A2.1,2.1,0,0,1,86.12,110Z"/><path class="cls-120" d="M45.18,104c-.33-2,.79-4.24-1-6a1.37,1.37,0,0,1,0-2l0-5h24.2l.47,1.39C61.42,97.13,53.8,101.49,45.18,104Z"/><path class="cls-85" d="M44.15,96c0,.66,0,1.32,0,2l0,3c-5.11-.67-10.06,1-15.14,1.07-3.11,0-4.18-1.18-3.82-4.07Z"/><path class="cls-121" d="M85.22,49.05c3.1.93,1.73,4,2.89,5.92a6.71,6.71,0,0,0-2.06,5c-1.31,2-2.61,4-3.92,6-2.47,1.53-3.19,4.81-6,6l-.48-.54c-.86-2.34.75-4.1,1.43-6.08a22.61,22.61,0,0,1,4-7.37Q83.16,53.55,85.22,49.05Z"/><path class="cls-122" d="M72.14,49h2C77,55,75.05,61.28,75.5,67.4c.12,1.57-.87,3.25.62,4.62h0v1c.32,1.66-.37,2.31-2,2h-4a2.16,2.16,0,0,1-3,0h-8c-1.11-.05-2.29.13-3-1h.14a4.36,4.36,0,0,1,2.13-1.12,23.16,23.16,0,0,1,4.08-.21A6.26,6.26,0,0,1,67.14,74c3.71.53,5.29-.71,5.09-4.8C71.89,62.5,72.14,55.76,72.14,49Z"/><path class="cls-123" d="M74.13,75a3.5,3.5,0,0,0,2-2c2.1,4.54.49,9.34,1,14-2.37.19-3.1-1-3-3.25C74.22,80.85,74.14,77.93,74.13,75Z"/><path class="cls-62" d="M47.09,50.11c1.39-1.75,3.36-.84,5.08-1.08h2c2.61,5.64,2.07,11.14-1.41,14.37-1.61,0-2.34-.63-1.72-2.29L47.13,52C47.12,51.4,47.1,50.76,47.09,50.11Z"/><path class="cls-124" d="M51,61.12l1,2c2.16,2.59,4.48,5.12,3.2,8.94a14,14,0,0,1-5.12-5C50.47,65.06,49.42,62.89,51,61.12Z"/><path class="cls-125" d="M55.28,72l-3.2-8.94c3.35-1.8,1.79-5,2-7.58.2-2.13,0-4.3,0-6.45h4a6.46,6.46,0,0,1,1.53,5.07c-.52,6.63,1.62,13.47-1.53,19.9H56.26C55.94,73.34,55.61,72.68,55.28,72Z"/><path class="cls-16" d="M67.14,75h3V87c-2.37.19-3.1-1-3-3.24C67.23,80.85,67.14,77.94,67.14,75Z"/><path class="cls-126" d="M28.19,189.93l-2-4c2.41-1.95,5-1.6,7.61-.55a1.17,1.17,0,0,1,.46,1.54c0,1.66-.11,3.32-.16,5-.33.66-.66,1.33-1,2C31.51,192.53,29.25,192,28.19,189.93Z"/><path class="cls-127" d="M48.17,194.94v1c-2.33,1.84-4.66,1.7-7,0h-8a4.1,4.1,0,0,1,0-1l11,0Z"/><path class="cls-122" d="M34.26,186.93a6.59,6.59,0,0,1-.07-1,9.75,9.75,0,0,1,.3-5,6.52,6.52,0,0,1,1.56-2.5C52.61,170.52,68.9,162,85.4,154c1.75-.84,3.77-2.71,5.67-.05,0,.34.05.67.08,1l.93,6c-2.08-1.55-3.75-.1-5.47.77Q64.37,172.83,42.13,184A31.85,31.85,0,0,1,34.26,186.93Z"/><path class="cls-90" d="M91.07,154c-2-1.2-3.49.31-5,1.08Q65,165.46,44.11,176a31.24,31.24,0,0,1-7.88,3c-1.14-.95-1.08-2.21-.92-3.5.38-1.42.59-2.88,1-4.3A2.84,2.84,0,0,1,37.2,170l1-2.05c2.31.24,4.09-1.1,6-2,15-7.22,29.58-15.38,44.91-22l1,4C89.75,150.07,90.83,152,91.07,154Z"/><path class="cls-128" d="M85.11,31.06c.15,1.74-1.43,2.6-2,4-.88,2-.94,5.13-4.6,3.54-1.16-2.55-.57-5.26-.74-7.9A10.84,10.84,0,0,1,78.13,26L79.21,25C81.68,26.53,83.2,29,85.11,31.06Z"/><path class="cls-67" d="M37.2,170a7.7,7.7,0,0,1,0,1c-1.66,1.65-3.94,1.6-6,1.85a115.84,115.84,0,0,1-16,1.17l-2-1.06c-.69-1.32-1.39-2.63-2.08-3.94,6.4-.63,12.8-1.47,19.22-1.76C32.78,167.1,36.75,164.71,37.2,170Z"/><path class="cls-94" d="M67.14,74h-5a6.49,6.49,0,0,1-1.53-5.07C61.14,62.31,59,55.46,62.15,49c3.7-.53,5.29.71,5.09,4.79C66.9,60.55,67.14,67.29,67.14,74Z"/><path class="cls-89" d="M62.15,49V74h-4V49h4Z"/><path class="cls-110" d="M51.21,38.92l.94.17c1.52,1.13,3.5-.21,5,.95v6h-6C49.44,43.65,49.28,41.28,51.21,38.92Z"/><path class="cls-106" d="M51.21,38.92q0,3.55,0,7.11c-2,.13-3.11-.63-3-2.82.1-2.46.08-4.93.11-7.4Z"/><path class="cls-129" d="M57.15,40c-1.67-.24-3.57.62-5-.95l9-.13c1.75-1.45,3.85-1.34,5.93-1.31,2.34,0,4.68-.12,7,0a6.89,6.89,0,0,1,5,1.37c2-.6,2-3.33,4-4,1.72,1.57.87,3.63,1,5.48s0,3.59,2,4.52c.37.28.74.56,1.12.83a2.45,2.45,0,0,1-.92.2l-8.15,0c-1.29-2.63-2.34-5.59-6.28-4.63-1.59.06-3.18.06-4.77,0a5.61,5.61,0,0,1-3.93-1.34Z"/><path class="cls-130" d="M72.13,40.05c4.88-.89,6.89,1.09,6,6h-6A4.41,4.41,0,0,1,72.13,40.05Z"/><path class="cls-131" d="M72.13,40.05c0,2,0,4,0,6h-5a4.4,4.4,0,0,1,0-6Z"/><path class="cls-19" d="M67.14,40.05c0,2,0,4,0,6-5.28.65-3.78-3.25-4-6Z"/><path class="cls-75" d="M76.12,72c-3,1-1.93-1.4-1.94-2.54-.09-6.81,0-13.63,0-20.45h3C79,54.59,78.13,60.29,78,66,77.41,68,75.85,69.72,76.12,72Z"/><path class="cls-132" d="M78,66c-1.9-5.55-.39-11.29-.88-16.91,3.63,1.06,1.25,4.1,2,6.09.42,1.08-1.44,3.78,1.94,2.9Q79.55,62,78,66Z"/><path class="cls-133" d="M52.16,8.07l6-5c0,1.33,0,2.66,0,4-1.71,2.62-5,4.48-4.15,8.4,2.5.88,1.9-3.13,4.14-2.4V25c-2.11.4-4-.63-6-1-2.91-4-1.9-8.56-2-13Z"/><path class="cls-134" d="M53.17,26.05c4.83,4.48,10.13,7.36,17,5-.06,3.76-3.53,3.64-5.7,5-1.43.4-2.86,1.08-4.29,0C52.56,33.57,51.28,31.73,53.17,26.05Z"/><path class="cls-135" d="M60.15,36.05l4-1c1.26.67,2.88-.47,4,.78.7,1.4-.2,2.28-1.07,3.16l-6,0Z"/><path class="cls-61" d="M68.15,36.05c-1.38-.15-2.94.46-4-1,2-1.31,4.71-1.58,6-4a31.89,31.89,0,0,0,8-5,6.85,6.85,0,0,1,1,4C78.25,32.76,77,35.15,74,36.19,72.06,36.81,70.07,37.75,68.15,36.05Z"/><path class="cls-94" d="M41.18,195.93h8a20.61,20.61,0,0,1,0,17c-9.18-.1-7.88,1.09-8-8.16C41.15,201.81,41.18,198.87,41.18,195.93Z"/><path class="cls-127" d="M49.17,212.91v-17c7,0,7,0,7,7.18v9.8Z"/><path class="cls-24" d="M35.21,181c-.22,1.67.59,3.56-1,4.95h-8l-3-2-1-2c-.28-1.94,1-2.71,2.52-3a30.73,30.73,0,0,1,9.33-.35C35.45,178.69,36,179.59,35.21,181Z"/><path class="cls-25" d="M35.21,181c-3-1.93-10.23-1.38-13,1-1.93-.73-2.5-2.82-4-4a2.09,2.09,0,0,1-.31-1.7,4.5,4.5,0,0,1,3.51-2.38c4-.62,8.11-.39,12.15-1,1.15-.16,2.74.08,2.64,2,0,1.33,0,2.66,0,4Z"/><path class="cls-136" d="M18.17,177l0,1q0,9,0,18c-.65-.69-1.31-1.37-2-2.06V176C17.33,175.4,17.74,176.21,18.17,177Z"/><path class="cls-124" d="M18.17,177l-2-1-1-2c7-3,14.68-1.79,22-3-.11,1.38.44,2.93-1,4C30.06,174.56,23.89,173.74,18.17,177Z"/><path class="cls-137" d="M58.15,13.05c-1.75,1.18-.27,4.57-3.3,4.85a2.09,2.09,0,0,1-2.31-1.43c-.82-2.58.34-4.81,1.68-6.84.88-1.33,2.07-2.58,3.94-2.58C60.44,9.06,58.14,11.05,58.15,13.05Z"/><path class="cls-138" d="M61.05,3.79c.22.43.57.81.59,1.21,0,.87-.67,1-1.28.82-.32-.09-.51-.61-.76-.93Z"/><path class="cls-139" d="M74.14,35.05c2.28-1,3.32-3.34,5-5v9h-5A2.86,2.86,0,0,1,74.14,35.05Z"/><path class="cls-51" d="M74.14,35.05c0,1.32,0,2.64,0,4l-7,0,1-2.94C70.26,36.4,72.14,35.37,74.14,35.05Z"/></g></g></svg>