<svg xmlns="http://www.w3.org/2000/svg" viewBox="0 0 130.12 232.05"><defs><style>.cls-1{fill:#f6f6fa;}.cls-2{fill:#b9b7cd;}.cls-3{fill:#b3acbf;}.cls-4{fill:#c1c0d4;}.cls-5{fill:#cac9db;}.cls-6{fill:#e0e0ec;}.cls-7{fill:#d9d8e6;}.cls-8{fill:#c3c2d6;}.cls-9{fill:#f0f0f6;}.cls-10{fill:#d5d4e4;}.cls-11{fill:#e4e4ef;}.cls-12{fill:#b5b0c3;}.cls-13{fill:#dedeea;}.cls-14{fill:#b3aeb9;}.cls-15{fill:#c5c4d8;}.cls-16{fill:#dcdbe8;}.cls-17{fill:#d2d1e2;}.cls-18{fill:#f7f7fa;}.cls-19{fill:#c8c8d5;}.cls-20{fill:#d0cfe0;}.cls-21{fill:#b6b1bd;}.cls-22{fill:#c0bed3;}.cls-23{fill:#e9e9f1;}.cls-24{fill:#bbb8c5;}.cls-25{fill:#bfbdd2;}.cls-26{fill:#d6d6dc;}.cls-27{fill:#c9c8da;}.cls-28{fill:#f5f5f8;}.cls-29{fill:#f5f5f9;}.cls-30{fill:#cbcad3;}.cls-31{fill:#f5f5fa;}.cls-32{fill:#cfcedf;}.cls-33{fill:#aea5b7;}.cls-34{fill:#dadbe0;}.cls-35{fill:#d3d2e2;}.cls-36{fill:#f9f9fc;}.cls-37{fill:#cecdd5;}.cls-38{fill:#c6c6d3;}.cls-39{fill:#d1d0e0;}.cls-40{fill:#bbbbc7;}.cls-41{fill:#aca3b5;}.cls-42{fill:#b0a9bb;}.cls-43{fill:#fbfbfd;}.cls-44{fill:#c6c5d0;}.cls-45{fill:#f0f0f5;}.cls-46{fill:#aca3b4;}.cls-47{fill:#b8b1c1;}.cls-48{fill:#b8b4c9;}.cls-49{fill:#cfcfe4;}.cls-50{fill:#bbbad0;}.cls-51{fill:#b6b2c6;}.cls-52{fill:#b5b0c4;}.cls-53{fill:#c4c4da;}.cls-54{fill:#c7c7dd;}.cls-55{fill:#c4c3d7;}.cls-56{fill:#ecebf3;}.cls-57{fill:#cdccde;}.cls-58{fill:#c6c5d9;}.cls-59{fill:#c1bfd4;}.cls-60{fill:#bfbed4;}.cls-61{fill:#bdbcd2;}.cls-62{fill:#bbb9d0;}.cls-63{fill:#c6c5d8;}.cls-64{fill:#c0bfd4;}.cls-65{fill:#a89eaf;}.cls-66{fill:#aba1b2;}.cls-67{fill:#e8e8f1;}.cls-68{fill:#c2c1d7;}.cls-69{fill:#cacadf;}.cls-70{fill:#b2acb7;}.cls-71{fill:#a99fb0;}.cls-72{fill:#aba2b3;}.cls-73{fill:#ada5b7;}.cls-74{fill:#b6b1c5;}.cls-75{fill:#d9d8e7;}.cls-76{fill:#d5d6ea;}.cls-77{fill:#b9b6cb;}.cls-78{fill:#e9e8f1;}.cls-79{fill:#aaa0b1;}.cls-80{fill:#b8b6cc;}.cls-81{fill:#e3e3ee;}.cls-82{fill:#c7c6d9;}.cls-83{fill:#cccbdd;}.cls-84{fill:#dad9e7;}.cls-85{fill:#dfdfeb;}.cls-86{fill:#d1d0e1;}.cls-87{fill:#d6d4e4;}.cls-88{fill:#e4e3ee;}.cls-89{fill:#f1f0f5;}.cls-90{fill:#c1bfcb;}.cls-91{fill:#a79dad;}.cls-92{fill:#d9d9e7;}.cls-93{fill:#cbcbdc;}.cls-94{fill:#cecdde;}.cls-95{fill:#d6d7ea;}.cls-96{fill:#c3c3d0;}.cls-97{fill:#c1c1cd;}.cls-98{fill:#bfbecb;}.cls-99{fill:#b3adc0;}.cls-100{fill:#afa6b8;}.cls-101{fill:#dfdeeb;}.cls-102{fill:#dddde9;}.cls-103{fill:#f7f7fb;}.cls-104{fill:#d2d1d9;}.cls-105{fill:#efeff5;}.cls-106{fill:#aba2b2;}.cls-107{fill:#d1d1e6;}.cls-108{fill:#d5d4e3;}.cls-109{fill:#dbdae8;}.cls-110{fill:#a99faf;}.cls-111{fill:#cdcce1;}.cls-112{fill:#d8d7e5;}.cls-113{fill:#e7e7f0;}.cls-114{fill:#b8b8c5;}.cls-115{fill:#b7b6c3;}.cls-116{fill:#c2c1cc;}.cls-117{fill:#d1d2e6;}.cls-118{fill:#c5c4da;}.cls-119{fill:#d3d4e8;}.cls-120{fill:#a89dad;}.cls-121{fill:#b3b1c7;}.cls-122{fill:#b2afc6;}.cls-123{fill:#b6b4ca;}.cls-124{fill:#cecee3;}.cls-125{fill:#cccbe0;}.cls-126{fill:#c9c8db;}.cls-127{fill:#b1a9bc;}.cls-128{fill:#aba1b1;}.cls-129{fill:#b4aebf;}.cls-130{fill:#aea5b6;}.cls-131{fill:#f5f6f9;}.cls-132{fill:#f3f3f8;}.cls-133{fill:#c0bfd5;}.cls-134{fill:#b7b5cb;}.cls-135{fill:#bab9cf;}.cls-136{fill:#c5c5db;}.cls-137{fill:#c9c9de;}.cls-138{fill:#b7b6cc;}.cls-139{fill:#eeedf4;}.cls-140{fill:#d0d1e6;}.cls-141{fill:#cbcbe0;}.cls-142{fill:#bdbcc9;}.cls-143{fill:#b5b2c8;}.cls-144{fill:#faf9fc;}.cls-145{fill:#cecddf;}.cls-146{fill:#bcbbd1;}.cls-147{fill:#bebdd3;}.cls-148{fill:#c3c2d8;}.cls-149{fill:#aa9fb0;}</style></defs><g id="Layer_2" data-name="Layer 2"><g id="Layer_1-2" data-name="Layer 1"><path class="cls-1" d="M30,71l-5-7L24,63.31S21,64,23,69s6,4,6,4l1-1,1,.16Z"/><path class="cls-2" d="M122,147.91c5.27,5.6,8.86,11.67,8,20-.66,6.43-.1,13-.15,19.47,0,1.61.49,3.37-.86,4.76-2-2-1.22-4.54-1.43-6.89s.59-4.88-1-7.06c-1.57-3.3-.65-6.84-1-10.27-.13-1.5.75-3.48-1.64-4.09-8,2.62-14.59,7.81-22,11.54-1.18.6-2.28,1.36-3.5,1.91-1.86.83-3.55.77-4.84-1.06a2.77,2.77,0,0,1-.21-2.11c3.85-4.56,9.56-6.29,14.42-9.28,4.07-2.51,8.37-4.63,12.41-7.2,1.77-1.13,3.88-2.4,1.93-5.07a4.94,4.94,0,0,1-1-3.39A2.33,2.33,0,0,1,122,147.91Z"/><path class="cls-3" d="M111,122.91l5,14c3.4,9.75,3.43,9.79-5.68,15.09-4.6,2.68-9.25,5.28-14,7.73-2.27,1.17-4.47,1.58-5.95-1.25a11.58,11.58,0,0,1-1.25-5.16A3.52,3.52,0,0,1,89.7,152c8-2.21,14.41-7.35,21.56-11.13,2.06-1.09,2.42-3,1.78-5.16-.57-1.91-1.25-3.78-1.92-5.66a21.91,21.91,0,0,1-1.15-4.29A3.09,3.09,0,0,1,111,122.91Z"/><path class="cls-4" d="M96.12,14.07a30.86,30.86,0,0,1,7.82,9c-.53,4.1-4.71,5.54-6.41,8.79C95.82,34,94.22,36.39,91,36.31c-3.77-2.87-2.11-6.82-2.06-10.45a9.08,9.08,0,0,0-.12-5.36A19.06,19.06,0,0,1,88.64,17c.12-2.32.08-5,2.5-6C93.77,9.85,94.56,12.84,96.12,14.07Z"/><path class="cls-5" d="M23,91c.53-7.37-1-14.65-1-22,0-1.8.09-1.8,1.84-.86.19,3.48,1.56,6.78,1.5,10.3,0,2,0,3.94,0,5.91-.13,4.32.23,8.64,0,13,.28,5.15.68,5.6,5.71,5.28,3.88-.25,7.79-1.3,11.52.76a3,3,0,0,1,1.12,1.31c.64,2.44,1,4.85-1,6.91-4.69,2-9.65,2.1-14.61,1.94-5.44-.17-6-.9-6.05-6.53C23.27,101.72,21.72,96.3,23,91Z"/><path class="cls-6" d="M3,154c1-2,1.88-4,4-5,6.81.4,13.55-.46,20.31-1,4.27-.35,8.57-1.21,12.73.68a4.29,4.29,0,0,1,.77,4.39,3.41,3.41,0,0,1-2,1.91c-10.23,1-20.52,1.5-30.77,2.36C5.85,157.51,3.12,157.42,3,154Z"/><path class="cls-7" d="M14,136c.79-2.74,1.33-5.58,3-8,2.35,5.76,2.33,5.36,8.86,5,5.5-.25,11.06-2.4,16.57,0,1.13,2.68,1.66,5.26-1,7.38a171.28,171.28,0,0,1-22.26,1.91C14.13,142.55,13.08,140.84,14,136Z"/><path class="cls-8" d="M93.15,42c.7,5.21,3.82,8.92,7.48,12.36,1.42,1.34,3.13,2.55,3.47,4.72-2.62,1.47-3.75-.66-5.15-2.12-1.06-1.23-1.8-2.79-4.29-3.6-.46,8.17-1.26,16.06.72,24-.63,2.85-2.54,4.12-5.3,4.37-3.12-1.16-2.38-4-2.53-6.26-.39-6,.71-12.12-1-18.06a5.78,5.78,0,0,1-.23-1.6,25.72,25.72,0,0,1,2.78-7.11C90.94,46.68,90.1,43.13,93.15,42Z"/><path class="cls-9" d="M32,51.09c2.2-1.43,4.24-3,4-6,3.69.34,3.49,3.32,4,5.85-.93,7-.3,14.09-.5,21.14-.07,2.45.27,4.94-.73,7.3-1.61,2-2.95.55-4-.51C32.84,77,31.24,75,31,72.2,30.58,65.13,29.29,58,32,51.09Z"/><path class="cls-10" d="M42,133c-5.59.48-11.24.57-16.76,1.52-8.07,1.38-8.72,1.08-8.22-6.53A10.37,10.37,0,0,1,19,122c1.73,4.24,5.14,4.91,9.23,4.64,3.28-.21,6.49-1.08,9.81-.93s5.42,1.34,5.15,5A3.35,3.35,0,0,1,42,133Z"/><path class="cls-11" d="M3,154c1.68,3.13,4.68,2.18,7.08,1.9A217.4,217.4,0,0,1,39,154c1.61,1.82,1.41,3.76.41,5.75a1.84,1.84,0,0,1-1.54.61c-5.41-1.63-10.81,0-16.16.35-5.56.35-11.16.58-16.71,1.33-2.54-.15-3.84-1.86-4.88-3.89C.72,156.52,1.2,154.81,3,154Z"/><path class="cls-12" d="M91,158c1.29,1.82,2.7,1.84,4.62.74,6.47-3.71,13.06-7.23,19.57-10.88,2.53-1.42,3.51-3.45,2-6.25a7.48,7.48,0,0,1-1.21-4.74,24.52,24.52,0,0,1,4,8,13.77,13.77,0,0,1,1.37,4.24c-.27,2.07-1.82,3.14-3.41,4-6.84,3.75-13.55,7.74-20.42,11.43-1.92,1-4,2-5.87-.2a9.15,9.15,0,0,1-1.54-4.28A2.53,2.53,0,0,1,91,158Z"/><path class="cls-13" d="M40,149a190.56,190.56,0,0,0-27.42,1.88c-2.08.29-4.38.63-5.57-1.92.39-2,1.06-3.9,3-5,7.17.18,14.27-.61,21.4-1.18,3.57-.28,8-1.53,9.52,3.79A3,3,0,0,1,40,149Z"/><path class="cls-14" d="M111,214.09c-3.32,5.53-7.9,10-12,14.87-3.26,1-3.15-1.69-3.3-3.41-.33-3.78-.65-7.61.42-11.34,2.1-2.47,2.54-.44,2.94,1.17.64,2.54-.14,5.21.47,7.53,8.72-5.55,10-14.13,9.26-23.45.19-2.41,1.63-4.1,3.22-5.72,1.05-1,1.82-2.23,2.8-3.29.83-.56,1.65-1.19,2.58-.16C119.15,199.26,118.09,207.48,111,214.09Z"/><path class="cls-15" d="M85.06,2.06c3.09,1.6,5.87,3.51,7,7-2.6.22-4.1,1.35-3.92,4.24.08,1.4,0,2.94-1.25,4-.86.05-1.85-.42-1.75,1.32A42.05,42.05,0,0,1,84.9,29a3.46,3.46,0,0,1-.79,1.24c-2.22.2-2.81-1.8-4-3-1.87-2.28-.82-5.36-2.15-7.8a11.51,11.51,0,0,1-1.08-2.9c-.23-2.62-.55-5.23.39-7.78,3.16-.36,5-1.85,5.25-5.31A1.77,1.77,0,0,1,85.06,2.06Z"/><path class="cls-16" d="M40,147.06c-2-5.73-6.89-3.16-10.08-2.6-5.55,1-11.23-.4-16.66,1.48-1.38.48-3,.15-3.28-1.95a20.54,20.54,0,0,1,4-8c-.48,4,1.45,5.41,5.24,5,6.05-.61,12.1-1.1,18.15-1.72,1.33-.14,2.62-.59,3.61.73,1.57,1.68,1.38,3.64.9,5.65C41.53,146.51,41.09,147.23,40,147.06Z"/><path class="cls-9" d="M34,12.11c2.17-3.44,4.51-6.73,8-9,.66,5-1.58,10-.38,15.06a10.81,10.81,0,0,0,0,9.9c-.61,3.61.55,7.41-1.26,10.87-4.43.08-5-3.64-6.5-6.52C33.48,25.65,33.11,18.88,34,12.11Z"/><path class="cls-17" d="M42,131.06c.32-2.84-.64-4.18-3.8-4.09-4.41.12-8.69,1.17-13.14,1.21-4.76,0-6.75-1.5-6.09-6.22.35-3.38.6-6.79,2-9.95,1.56,1.4,1.52,3.32,1.26,5.07-.57,3.91,1.21,4.13,4.56,4,5.49-.2,11-2.3,16.55-.13a11.7,11.7,0,0,1,.2,9.64A1.15,1.15,0,0,1,42,131.06Z"/><path class="cls-18" d="M35,33.1c1.69,2,2.76,4.47,5,6,3.56.56,4,5.41,7.73,5.69,1,0,1.93,0,2.9,0,1.85-.06,3.7-.06,5.55,0,2.22-.08,4.44-.07,6.66,0,1.69,0,3.37-.08,5,0s3.37-.06,5,0c2.25,0,4.49-.05,6.74,0a11.78,11.78,0,0,1,4.33.54,2.24,2.24,0,0,1,1.22,1.25,1.88,1.88,0,0,1-1.07,1.39c-13.41.81-26.82,1.23-40.23-.2-2-1-3.12-2.87-4.59-4.41C35.92,39.44,33,35.16,30,31a10.28,10.28,0,0,0-1.19-1.57C23,24.13,23.27,21.68,30,17.11c3.91.8,3.19,4.07,3.14,6.58C33.06,27,33.25,30.18,35,33.1Z"/><path class="cls-4" d="M.14,158.17,4,161c2.44,1.27,3.39,3.55,4.14,6,0,5.06,1.61,10.25-1.11,15.11-1.83.94-3.08-.38-4.57-1.39-.48,4.38.72,8.69-.88,12.79-.18.17-.36.34-.55.5-1.37-1.35-.9-3.09-.9-4.69C.06,179,.11,168.56.14,158.17Z"/><path class="cls-1" d="M32,73.07c1.79,2.51,3.07,5.46,6,7,3.42,1,4,6.14,8.39,5.73l2.86,0c1,0,2,0,3,0,1.33-.07,2.65,0,4,0,2.19-.07,4.38-.07,6.57,0,1.64,0,3.29-.06,4.93,0,1.36,0,2.72,0,4.07,0s2.67,0,4,0,2.59,0,3.88,0,2.46,0,3.69,0c3,.54,4.16-2.85,6.78-3.1a1.77,1.77,0,0,1,1.28,1.75c-.87,2.91-2.56,5-5.61,5.86-13.31.42-26.63.14-39.94.16A9,9,0,0,1,42,89.71c-2.5-1.19-3.61-3.81-5.64-5.49-3.46-3-6.7-6.25-7.48-11.1L30,72.07C31.14,71.47,31.44,72.52,32,73.07Z"/><path class="cls-19" d="M97.07,213c0,4.06-.1,8.12-.09,12.19,0,1.55-.43,3.42,2,3.75-2,1.83-4.39,2-6.86,2L63,231a1,1,0,0,1,.26-1.46,4.86,4.86,0,0,1,2.38-.8c3.34-.16,6.68-.07,10-.17,2.43.08,4.87.28,7.24-.51a17.79,17.79,0,0,1,3.17-.44c3.23-.16,3.41-2.43,3.53-4.91.17-3.26-.73-6.66,1.15-9.72a5.13,5.13,0,0,1,5.71-.55Z"/><path class="cls-20" d="M43,121c-6.07.62-12.14,1.26-18.21,1.86-2.85.28-5.59.71-4-4,.71-2.1.2-4.62.25-6.94,1.21-6.94.26-14.09,2-21q0,8,0,16c-1.28,7.79.49,9.86,8,9.55,3.91-.16,7.83-1.94,11.77-.1a3.09,3.09,0,0,1,1.07,3.07A2.72,2.72,0,0,1,43,121Z"/><path class="cls-21" d="M111,214.09c.24-.77.25-1.79.76-2.27,5.47-5,5.36-11.39,4.67-18a16.54,16.54,0,0,1,.51-3.84,1.26,1.26,0,0,1-.28-1.27c1.07-1.88,2.79-3.21,4.12-4.88,1.14-1.08,2.24-1.65,3.09.3.71,5,1.47,10.07-.9,14.91C119.75,204.68,116.06,209.93,111,214.09Z"/><path class="cls-22" d="M28.9,73.12c2.74,3.32,4.37,7.52,8,10.1-1.88,3.45-5.87,4.58-11.71,3.34a2.73,2.73,0,0,1-.7-2.27c-.27-2.06.57-4.22-.52-6.22.61-3.31-2.58-6.57-.13-9.9Z"/><path class="cls-23" d="M41,19C38.84,13.52,40,8.29,42,3.11c1.56-2.59,4.06-3,6.78-3,5.06,0,10.13,0,15.19,0,.2,2.17-1.45,2.21-2.89,2.51-1,0-2-.19-3-.19-2,0-4,0-5.92,0-2.6-.36-4,.47-3.89,3.4a30.37,30.37,0,0,1-.13,5.39,6.68,6.68,0,0,1-.35,1.4c-.68,1.56-2,2.69-2.88,4.1C43.83,17.91,43.16,19.83,41,19Z"/><path class="cls-24" d="M123,199.05l0-16.05a1.29,1.29,0,0,1-.34-.86c0-.31,0-.47.09-.47,1-1.68,2.21-3.17,4.25-3.67,2.13-.88,2,.54,2,1.93,0,4,0,8.11,0,12.16C128.09,195.38,125.25,197,123,199.05Z"/><path class="cls-25" d="M100,56.09c.92,1.63,2,3,4.15,2.94l2.82,2.06c.82,4.51-3.85,10-9.14,10.83-2.25-4.32-1.34-8.87-.82-13.34A2.52,2.52,0,0,1,100,56.09Z"/><path class="cls-26" d="M23.91,221c-2.08-1.66-4.36-3.15-5-6,1.69-.72,2.62.6,3.75,1.36,2.86,1.55,1.93-1,2.08-2.05.37-2.61-.69-5.59,2.1-7.53,1.58-.24,2.23,1,3,1.93a7.66,7.66,0,0,1,1.27,3,65.77,65.77,0,0,1,.14,9.31c-.05,1.6,0,3.49-1.86,4.17-1.74.62-2.53-1.08-3.6-2A16.46,16.46,0,0,1,23.91,221Z"/><path class="cls-27" d="M85.06,2.06c-1.53.71-2,1.95-2.14,3.57S84,9.71,82,10.54c-1.58.65-2.41-1.95-4-2.42a3.37,3.37,0,0,1-1.65,1,8.44,8.44,0,0,0-2.37.61c-1.26,1.09-.61,2.86-1.45,4.1a1.45,1.45,0,0,1-1.23.6,2,2,0,0,1-1-1,16.18,16.18,0,0,1,0-8.43,2.37,2.37,0,0,1,1-1c1.15-.13,2.42,1.73,3.44,0,2.57-4.27,6.61-2.8,10.28-2.79C85,1.44,85,1.75,85.06,2.06Z"/><path class="cls-28" d="M98.85,72c2-2.1,4-4.23,6-6.3,1.27-1.3,2.46-2.59,2.08-4.62,3.12,2.29,2.41,5.1,1.08,8-1.17-.69-1.9,0-2.54.87-3.14,4.49-7.47,7.93-10.7,12.34-.84,1.15-2,2.28-3.75,1.94l-1-1.16c-.65-1.11.39-1.44.92-2,1.23-1.43,3.31-2,3.94-4C94.68,74.15,96.87,73.17,98.85,72Z"/><path class="cls-29" d="M35,33.1c-2.52-2-4.07-4.14-3.18-7.83.66-2.7.84-5.91-1.82-8.16a10.53,10.53,0,0,1,4-5c2.24,4.89.5,10,1,15.05A58.81,58.81,0,0,1,35,33.1Z"/><path class="cls-30" d="M14.87,210c-2-1.68-4.29-3.19-5-6a1.7,1.7,0,0,1,1.33-.26c1.47.33,2.21,2,4,2.17,1.5-3.13-.39-6.83,1.48-9.89a1.61,1.61,0,0,1,1.41-.4,6.08,6.08,0,0,1,3.48,5.09c-.16,2.29-.15,4.6-.25,6.89-.08,2.06.56,4.79-1.95,5.59C17.1,213.94,16.29,211.25,14.87,210Z"/><path class="cls-31" d="M32,73.07l-2-1-2-3c-.42-5.92-2.41-12.11,3-17l1-1Z"/><path class="cls-1" d="M31,52.09c-4.27,5.09-.5,11.59-3,17C21,62,22.9,58.59,31,52.09Z"/><path class="cls-32" d="M84.89,1.13C81.68,2.68,77,.16,75.16,6.2,74.22,9.33,72.32,5,70.87,4.05,68.93,3.4,66.72,3,67,.15,73,.78,79.05-1.11,84.89,1.13Z"/><path class="cls-33" d="M107.16,71.14c-.43,12.93-.59,25.86.86,38.75a2.07,2.07,0,0,1,0,2.31c-2.84-.35-3.09-2.58-3.13-4.67,0-2.28-.07-4.55-.28-6.82-.05-2,0-4-.06-5.94,0-4.92.14-9.85-.13-14.77-.53-3.11-1.82-6.31,1.1-9A1.51,1.51,0,0,1,107.16,71.14Z"/><path class="cls-34" d="M23.91,221c2.14.56,3.16,4.19,5.09,3.28,2.26-1.07.74-4.19.95-6.39s.06-4.64.07-7c1.38-.32,2.17.44,2.78,1.53a6.37,6.37,0,0,1,.46,1.71c-.36,5.57,1.41,11.29-1.19,16.7C29.18,227.72,25.66,225.09,23.91,221Z"/><path class="cls-35" d="M40,42.19,43,46.07c1,3.2,3.69,6.44-.24,9.53-3.23-.49-2.85-3.46-3.79-5.52-1.15-1.58-.73-4.09-3-5l-.09-3C37.29,41.13,38.59,43.11,40,42.19Z"/><path class="cls-8" d="M87,17.13c0-1.82,0-3.65,0-5.48.17-3.84,1.58-5.32,5.09-2.54,1.81,1.28,3.55,2.61,4.05,5-1.84-.2-2.59-3.38-4.52-2.3S90,15.53,90,17.67c0,1.16,0,2.32,0,3.48-.73.32-1.25-.06-1.74-.53C87.51,19.56,86.31,18.68,87,17.13Z"/><path class="cls-36" d="M67,.15c.54,2,3.28,1.89,3.84,3.9l.1.1c-1.1,1.93-2.49,3.47-4.91,3.63A11.22,11.22,0,0,1,61.4,6a4.1,4.1,0,0,1-1.92-2.16c0-1-.1-2.1,1.5-1.74l3-2Z"/><path class="cls-37" d="M14.87,210c.43.22.87.43,1.29.67,1,.6,1.65,2.49,3.16,1.6,1.29-.76.56-2.39.67-3.64.26-2.88-.63-5.9,1-8.62l.7-.19a3.47,3.47,0,0,1,1.91,3,5.76,5.76,0,0,1-.1,1.55C22.78,208.55,24.67,213,22,217l-3.09-2C17.1,213.72,15.34,212.39,14.87,210Z"/><path class="cls-38" d="M63,230v1c-8.45.42-16.88,1.39-25.36,1-1.6-.07-3.37.49-4.7-1,2.32-2.21,5.22-1.18,7.89-1.4,1.93-.16,3.91.13,5.79-.56a12.15,12.15,0,0,1,2.61-.42c3.52.06,7-.29,10.55,0A4.24,4.24,0,0,1,63,230Z"/><path class="cls-39" d="M40,42.19c-1.41,3-2.69.17-4-.09C33.9,38.43,30.62,35.43,30,31,34.48,33.69,36.42,38.66,40,42.19Z"/><path class="cls-40" d="M47,230c-4.56,2.09-9.4.47-14.07,1a3,3,0,0,1-.85-.13L32,213a1.38,1.38,0,0,1,1.46.54c1.48,2.79.88,5.81.94,8.75.13,6.15.13,6.19,6.52,6.26,1,0,2,0,3,.07A4.39,4.39,0,0,1,47,230Z"/><path class="cls-41" d="M93.15,42c-1.74,2.1-.74,5.41-3.17,7.2-1.4-1.29-1.56-3.2-2.35-4.79-.28-1.54.68-2.62,1.36-3.81a12.12,12.12,0,0,1,2.81-3.16c.86-.4,1.72-1.07,2.57,0a4.37,4.37,0,0,1-.31,2.87Z"/><path class="cls-42" d="M107.92,112.05c0-.72.06-1.44.1-2.16a65.36,65.36,0,0,1,3,13l-.06,3.13a1,1,0,0,1-1.24.06c-1.82-2.25-1.23-5.18-2.15-7.69a17.09,17.09,0,0,0-1-4.33A2,2,0,0,1,107.92,112.05Z"/><path class="cls-43" d="M97.24,31.17l6.7-8.09c.89,4.41-2.56,6.41-5,9C97.92,32.64,97.53,32,97.24,31.17Z"/><path class="cls-44" d="M11,204,9.85,204C6.79,200.8,2.34,198.78,1,194l.08-.08c3.77.06,5,3.67,7.5,5.44,1.07,1.2,2.42,2.21,2.69,4Z"/><path class="cls-45" d="M97.24,31.17l1.71.88a3.13,3.13,0,0,1-1.94,2c-1,1-1.43,2.6-3.06,2.95L92,38.32c-2.4-.64-.94-1.46-.11-2.24Z"/><path class="cls-46" d="M107.16,71.14,106,71.08a2,2,0,0,1-.9-2c.41-1,1.07-2.22,2.12-2.22,1.3,0,.43,1.47.83,2.18Z"/><path class="cls-47" d="M94,37A6.4,6.4,0,0,1,97,34.09a13.35,13.35,0,0,1-3,6.19C94,39.2,94,38.12,94,37Z"/><path class="cls-48" d="M120.94,149a6.24,6.24,0,0,1-.92-4.17,3.84,3.84,0,0,1,2,3.06l-.06,1.11C121.6,149.5,121.27,149.48,120.94,149Z"/><path class="cls-49" d="M94,174l0,2-.36.6c-9.68,5.77-20.14,10-30,15.54,1.41,1.76,5.57-1,5,3.38a9,9,0,0,1-4.55.8,25.3,25.3,0,0,1-5.56-.38c-3.06-1.07-6.27-.51-9.4-.78-1.17-.1-2.55-.15-3-1.35-.59-1.44.56-2.48,1.49-3.42A13.93,13.93,0,0,1,51.27,188Q69.09,179,87,170.08c1.61-.8,3.22-1.83,5.19-1.22a3.43,3.43,0,0,1,1.18.93A4.68,4.68,0,0,1,94,174Z"/><path class="cls-50" d="M94,176c1.74,1.08,3.13.8,5-.31,7.52-4.5,15.24-8.7,22.87-13,.86-.49,1.52-.5,2.1.34s0,1.74-.42,2.55a27.08,27.08,0,0,1-3.7,4.77c-.84,1-1.48,2.1-2.31,3.08-1.26,1.39-2.69,2.62-3.88,4.09-.79,1-1.4,2.1-2.24,3.06-1.61,1.76-3.44,3.31-4.88,5.23-2.76,3.39-5.28,7-9,9.56a1.7,1.7,0,0,1-1.2-.76,33.58,33.58,0,0,1-1.7-7.39c-.15-2-.78-4-1.05-6-.22-1.76-1.07-3.56.33-5.22Z"/><path class="cls-51" d="M120.94,149h1c.34,1,.68,2,1,3,.54,2.06-1,3.1-2.3,3.93-8.15,5-16.55,9.54-24.91,14.18A2.12,2.12,0,0,1,93,170l-.07,0c-.9-1.71-2.36-3.27-1.45-5.46L92,164c.9.32,1.74,1.14,2.78.54C103.53,159.44,113.06,155.61,120.94,149Z"/><path class="cls-48" d="M93,170c9.22-5.13,18.46-10.23,27.65-15.43.94-.53,1.54-1.68,2.29-2.54,3.84,2.62,1.49,4.47-.94,5.91-6.83,4.07-13.78,8-20.68,11.91-2.45,1.4-4.9,2.77-7.35,4.16A6.38,6.38,0,0,1,93,170Z"/><path class="cls-52" d="M122.94,165c.33-.66.67-1.32,1-2,1.49-.84,3.19-2.62,3,1.19-.18,4.59,0,9.2,0,13.8a10.26,10.26,0,0,1-4,4C120.42,176.33,121.15,170.67,122.94,165Z"/><path class="cls-53" d="M90,152,90,153a11.59,11.59,0,0,1-3.53,2.68Q63.79,167,41.11,178.29c-2.27,1.12-5,3-6.24-1.39a13,13,0,0,1,.19-4.65c.74-1.91.4-4.08,1.39-5.92a1.58,1.58,0,0,1,1.26-.7c2.29.77,4.14-.36,6.08-1.34,12.74-6.41,25.47-12.84,38.25-19.16,2-1,4-2.45,6.56-1.69a2.54,2.54,0,0,1,1.1,1.05C90.46,147,91.93,149.43,90,152Z"/><path class="cls-54" d="M36,177c.93,3.7,2.89,1,4.05.43,14.7-7.23,29.34-14.61,44-21.9C86,154.55,88,153.84,90,153c.35,1.66.69,3.32,1,5l0,2c-4.2,3-9,4.8-13.57,7.12C64.87,173.52,52.28,179.78,39.68,186c-2,1-4,2.55-6.51,1.34-1.15-1.43-.29-2.87-.05-4.31.56-1.64.54-3.41,1.11-5C34.6,177.28,35.07,176.75,36,177Z"/><path class="cls-42" d="M90,152q-.51-4-1-8a87.6,87.6,0,0,1,11.77-6.88A99.5,99.5,0,0,0,112,130c1.66,1.79,1.7,4.24,2.6,6.34a3.77,3.77,0,0,1-1.79,5.12c-6.31,3.62-12.72,7.07-19.05,10.66A3.3,3.3,0,0,1,90,152Z"/><path class="cls-33" d="M112,130c-.92,3.79-4.47,4.55-7.24,6.08C99.57,138.93,95,142.85,89,144l-.07,0A9.44,9.44,0,0,1,87,137.5a3.51,3.51,0,0,1,.57-1.37c5.38-1.57,10-4.79,14.81-7.42,2.35-1.28,4.47-3.45,7.57-2.67.33,0,.66,0,1,0A6.68,6.68,0,0,1,112,130Z"/><path class="cls-55" d="M91.91,36.08c-.08.75-1,1.54.11,2.24l-2.13,2.85c-1.13.56-2.17,1.39-3.56,1.18-2.81-2.81-1.12-7-3-10.06a2.46,2.46,0,0,1,.6-2.18l0-.05c1.39-1.48,2.77-2.95,4.14-4.45A1.54,1.54,0,0,1,90,25.13C90.76,28.75,88.11,33,91.91,36.08Z"/><path class="cls-56" d="M90,25.13l-1,.91q-4.65-2.91,0-5.85l1,1C90.59,22.47,91.78,23.8,90,25.13Z"/><path class="cls-55" d="M25,84.07v2c1.57,2.7,3.69,3.56,6.9,3,3-.55,6.12-.46,9.14-1,1.73,1.3,3.73,1.15,5.72,1.15q20.12,0,40.24,0a1.17,1.17,0,0,1-.55,1.56c-6.92,1.85-14,.51-21,.9-5.09-.21-10.19.14-15.27-.12-4.14-.21-5.78,1.33-4.92,5.48a15,15,0,0,1,0,4.43,4.74,4.74,0,0,1-.8,2.39,1.06,1.06,0,0,1-1.49.29c-3.06-6-3.36-6.1-10.35-5.28-2.92.35-5.93,1.5-8.64-.72v-14C24.34,83.6,24.67,83.62,25,84.07Z"/><path class="cls-57" d="M43,117.05c-4.8-.68-9.4,1.17-14.18,1-6.81-.19-6.94-.16-6.78-6.91,0-1.43-.41-3,1-4.13-.53,3.73.77,5.1,4.82,5.14,5.13.06,10.08-1.32,15.17-1.14A4.23,4.23,0,0,1,43,117.05Z"/><path class="cls-58" d="M24,98.05c4,.63,7.77-1,11.72-1,7.26,0,7.26,0,7.27,7-4.38-1.28-8.78-.43-13.12.07C25,104.67,23.2,102.75,24,98.05Z"/><path class="cls-58" d="M43,117.05c0-2,0-4,0-6v-7h1c2.06,2.29,1.34,5.08,1.43,7.73-.07,2.65.41,5.36-.87,7.87a1.1,1.1,0,0,1-1.52.41Z"/><path class="cls-59" d="M25,84.07H24c0-2,0-4,0-6C25.81,79.82,24.68,82.07,25,84.07Z"/><path class="cls-60" d="M88,136l-.06,1a7.29,7.29,0,0,1-3.23,3C71,146.92,57.35,153.78,43.59,160.5c-1.31.64-3.48,2.92-4.62-.52,0-2,0-4,.05-6,.33-.33.65-.67,1-1a5.92,5.92,0,0,1,2.52-2.33c13.1-6.19,25.9-13,38.94-19.27,4.59-2.22,5.52-1.69,7,3.2A1.87,1.87,0,0,1,88,136Z"/><path class="cls-61" d="M87.93,135c-1-4.19-3-4.1-6.61-2.29C67.6,139.62,54.14,147,40,153c0-1.34,0-2.67,0-4l0-2,1-1a8.4,8.4,0,0,1,4.12-3.45C57,136.7,68.86,130.65,80.77,124.76c1.77-.87,3.53-2,5.67-1.36a2.28,2.28,0,0,1,1.15,1c.83,2.23.89,4.61,1.44,6.9C89.12,132.67,89.1,134,87.93,135Z"/><path class="cls-62" d="M86.93,124.05c-2.13-.24-3.8.92-5.57,1.81L41,146v-6c1.85-2.13.63-4.68,1-7,0-.66,0-1.32,0-2l1-.05c2.72-.14,5.06-1.39,7.42-2.57,9.89-4.93,19.74-9.91,29.67-14.77,2.11-1,4.43-2.71,6.69-.08C87.9,117.06,89.51,120.52,86.93,124.05Z"/><path class="cls-63" d="M90.91,81.06l-.92,2c-1.85,1.56-2.73,4.6-6,4-1.72-1.93-1.47-4.31-1.5-6.61-.07-5.47,0-10.93-.08-16.4.47-3.24.21-6.9,4.54-7.94,1.88,1.52,2.06,3.61,2,5.81q0,7.65,0,15.32C89,78.76,88.47,80.68,90.91,81.06Z"/><path class="cls-64" d="M98.85,72l-4,5A3,3,0,0,1,93,74.32c0-7.09-.05-14.17,0-21.26A2.85,2.85,0,0,1,94,51c1.08-.72,1.76.42,2.39,1.08,1.25,1.3,2.4,2.69,3.58,4.05C96.25,61.16,98,66.61,98.85,72Z"/><path class="cls-65" d="M86.93,56.07c-2.62,1.62-2.3,4.87-3.92,7,.13,3.38-3.05,4.56-4.56,6.85a2.11,2.11,0,0,1-2.75.18c-1-1.46-.49-2.9.08-4.34a67.41,67.41,0,0,0,3.12-7.38c1.77-3.2,1.8-7.35,5.23-9.65,3.59.92,3,3.69,2.83,6.32C87,55.42,87,55.75,86.93,56.07Z"/><path class="cls-66" d="M87,55.09c-1.45-1.76-.26-4.77-2.85-6a.93.93,0,0,1-.44-.93c.28-.51.87-.68,1.24-1.1a2.72,2.72,0,0,0,.37-.9c.22-1.53.94-2.42,2.63-2.09,2.41,1,2,3.12,2.07,5.07C88.75,51,89,53.61,87,55.09Z"/><path class="cls-67" d="M39,50.08l3,5a10.31,10.31,0,0,1,5.16,8.07,154.2,154.2,0,0,1,.08,21.28A4.47,4.47,0,0,1,46,87.05c-4.82.14-5.69-4.24-8-7,0-7.58.08-15.15,0-22.72A26.46,26.46,0,0,1,39,50.08Z"/><path class="cls-68" d="M39,160c2,1.91,3.38-.25,4.78-.93,14.76-7.27,29.47-14.66,44.19-22l1,7c-1.76-.21-3.23.6-4.72,1.35C70,152.59,55.74,159.75,41.54,167c-1.73.89-3,1.68-3.56-1-1.48-2-1.69-4,0-5.93Q38.49,160,39,160Z"/><path class="cls-67" d="M38,160,38,166c-.32,0-.63,0-.95.05a7.8,7.8,0,0,1-4.54,1.69A179.33,179.33,0,0,1,11.4,169.3,6.73,6.73,0,0,1,9.75,169C8.28,168.51,7.83,167.1,7,166c-1-1.67-2-3.33-3-5,9.92-1,19.84-2.05,29.77-3C35.36,157.92,37.57,157.28,38,160Z"/><path class="cls-69" d="M33.07,187c2.14.21,3.81-1,5.58-1.84l46.72-23.33c1.77-.88,3.46-2,5.59-1.81a7.34,7.34,0,0,1,1,4l-.08,0a12.37,12.37,0,0,1-4.42,3.14c-16.34,8.09-32.58,16.36-48.94,24.41-1.86.91-3.82,3.1-6.24.86C31.63,190.47,31.42,188.6,33.07,187Z"/><path class="cls-70" d="M97,195l.91-.06c2.6,4,.52,8.42,1.51,12.94,3.63-2.68,5.16-7.33,9.18-9.4a1.79,1.79,0,0,1,1.31.46c0,3-.14,6,0,8.94a12.88,12.88,0,0,1-4.57,11c-2.52,2.17-3.66,5.53-6.86,7.49-1.75-4.44.8-9.24-1.48-13.4L97,213A22.39,22.39,0,0,1,97,195Z"/><path class="cls-71" d="M109.94,199h-1c-2.69-1.95-2.21-4.89-2.38-7.63A30,30,0,0,0,106,185a15.81,15.81,0,0,1,5-5.05c4.27,4.17,2.11,9.25,2,14C112.24,195.83,109.86,196.66,109.94,199Z"/><path class="cls-72" d="M113,194c-1.64-2.77-.88-5.82-1-8.76-.06-1.84-.07-3.64-1-5.28.67-1,1.35-2,2-2.95,2.4-1,3,.79,3.15,2.42.31,3.9.91,7.89-1.15,11.57A3,3,0,0,1,113,194Z"/><path class="cls-73" d="M115,191c0-3.41,0-6.82,0-10.24,0-1.56.42-3.42-2-3.75a10.48,10.48,0,0,1,4-4c2.6,5.34,2.21,10.68,0,16,0,.33,0,.67,0,1Z"/><path class="cls-74" d="M79.05,19.14c2,2.32,0,5.62,1.92,8a10.87,10.87,0,0,1,1.12,7.46,7.79,7.79,0,0,1-2.7,4.25c-1.86,1.48-4.07,1.61-6.31,1.62a41.53,41.53,0,0,1-4.86-.14A4.3,4.3,0,0,1,66,39.36a1.32,1.32,0,0,1,0-1.52,4.94,4.94,0,0,1,3-1c1.49-.11,3,0,4.47-.13,3.9-1.08,1.47-4.54,2.49-6.7a24.16,24.16,0,0,0,.53-8.64A2.32,2.32,0,0,1,79.05,19.14Z"/><path class="cls-75" d="M88.91,20.19a4.46,4.46,0,0,0,0,5.86c-1.16,1.93-2.38,3.78-4.93,4,0-3.92.11-7.86-.07-11.77s1.58-1.95,3-1.16Z"/><path class="cls-36" d="M79.05,19.14,76.82,21a2.74,2.74,0,0,1-2.42,1.17A7.15,7.15,0,0,1,73,22a11.83,11.83,0,0,1-2.56-1c-1.38-.75-2.91-1.29-3.78-2.75a2.48,2.48,0,0,1,0-1.35c1-1.69,2.31-2.88,4.44-2.72a4.29,4.29,0,0,0,.88,0c1.57-.16,2.81.7,4.13,1.31a5.17,5.17,0,0,1,1.77,1.74Z"/><path class="cls-76" d="M77.86,17.23,76,16.16a6.38,6.38,0,0,1,0-8h2Z"/><path class="cls-77" d="M81,35.11v-8l3,3c0,.67,0,1.33,0,2C84.17,34.31,83.21,35.35,81,35.11Z"/><path class="cls-78" d="M47,46.08c-3.71-.95-4.54-4.78-7-7,.41-3.9-1-8,1-11.74,3.63-.54,3.84,3.27,6,4.66a7.21,7.21,0,0,1,1.26,3C48.21,38.76,49.42,42.62,47,46.08Z"/><path class="cls-79" d="M46,32.18l-5-4.83c-3-2.8-3.05-5.59,0-8.39,1.5-.4,2.17-1.75,3.14-2.76,2.59.43,2.06,2.61,2.23,4.24.33,3.09-.16,6.23.39,9.32A2.88,2.88,0,0,1,46,32.18Z"/><path class="cls-80" d="M86,113.05c-2.13-.22-3.82.93-5.6,1.81-10.71,5.35-21.39,10.75-32.15,16-1.58.78-3.43,2.86-5.23.14V121c0-.33,0-.65,0-1l1,0c2.32,1.65,4.36.43,6.45-.61,9.59-4.8,19.12-9.73,28.83-14.29,2.28-1.08,4.92-3.4,7.54-.28C87.38,107.67,88,110.5,86,113.05Z"/><path class="cls-81" d="M46,87.05c0-4.92-.27-9.87.07-14.77.43-6.23-.42-12-4.06-17.22,2.61-.3,1.23-1.89,1.12-3.2C43,49.94,43.05,48,43,46.07c1.61,1,3.42,1,5.25,1q18.31,0,36.63,0c-.27.37-.55.73-.83,1.09a6.67,6.67,0,0,1-4.61,1.26c-1.06,0-2.11,0-3.17,0-.77,0-1.55,0-2.33,0s-1.55,0-2.33,0c-1.3,0-2.61,0-3.91,0-1.85,0-3.7,0-5.55,0-1.33,0-2.65,0-4,0-.79,0-1.58,0-2.37,0-3.26-.1-6.55.26-9.45-.48a21.57,21.57,0,0,1,4.38,10.89c-.78,2.67,0,5.36-.14,8.05-.26,4.38-.11,8.77-.17,13.15,0,2.11.09,4.26-1.46,6Z"/><path class="cls-82" d="M81,35.11a6.58,6.58,0,0,0,3-3c3.54,2.58.65,7,2.89,10,.57,2.46-1.79,2.78-2.93,4L80,46c-2-2.43-1.38-5.18-1-7.91Z"/><path class="cls-83" d="M79,38.1c2,2.42.55,5.29,1,7.91H73a5.19,5.19,0,0,1,0-6.9C75,39.08,77.11,39.3,79,38.1Z"/><path class="cls-84" d="M63,46.06H56a5.87,5.87,0,0,1-.24-7.2,6.86,6.86,0,0,1,7.39-.06A5.81,5.81,0,0,1,63,46.06Z"/><path class="cls-85" d="M56,39.18c0,2.3,0,4.59,0,6.88H50c-1.81-2.32-1.57-4.83-.72-7.4a2,2,0,0,1,1.27-1C52.49,37.67,54.48,37.53,56,39.18Z"/><path class="cls-86" d="M73,39.12c0,2.3,0,4.6,0,6.9l-5,0a5.21,5.21,0,0,1,0-6.91Z"/><path class="cls-87" d="M68,39.14c0,2.3,0,4.61,0,6.91H63c0-2.3,0-4.6,0-6.9A2.15,2.15,0,0,1,66,39Z"/><path class="cls-88" d="M50.06,37.9Q50,42,50,46.07H47c0-4,0-8,0-11.95C49.73,34,50.2,35.69,50.06,37.9Z"/><path class="cls-89" d="M83.94,46.08l2.93-4c.74-1.18,1.89-1,3-.92l-2,2.91-2.63,2.09Z"/><path class="cls-90" d="M8,200l-6.95-6v-15c2.51-.1,3.06,2.57,4.95,3.09s3,2.39,4,4a7.92,7.92,0,0,1,1.14,2.92,24.78,24.78,0,0,1,0,6.88C10.91,197.7,10.7,199.83,8,200Z"/><path class="cls-55" d="M9,186l-3-4c2.12-5.22.47-10.66,1-16a3.3,3.3,0,0,1,2,2A23.83,23.83,0,0,1,9,186Z"/><path class="cls-91" d="M86.92,90c0-.3.06-.61.08-.91l4-4.89,14-15.11a2.07,2.07,0,0,1,.9,2,8.11,8.11,0,0,0,0,8c-1.07,5.22-.21,10.5-.49,15.74v6.12c.43,3.18-1,5.4-3.53,7.15a83.42,83.42,0,0,1-10.35,6c-3.52,1.75-5.15.8-5-3,.2-6-1.6-11.85-.89-17.84A5.07,5.07,0,0,1,86.92,90Z"/><path class="cls-27" d="M78,69.09l5-6c2,4.73.56,9.69.91,14.53.23,3.11,0,6.25,0,9.38H80c-2.42-3.25-1.13-7-1.47-10.56C78.27,74,78.77,71.51,78,69.09Z"/><path class="cls-92" d="M63,87H56c-2.24-4.51-2.44-9,.52-13.26a6.4,6.4,0,0,1,5.52-.6,3.32,3.32,0,0,1,1.5,1.14C64.79,78.62,65.37,82.89,63,87Z"/><path class="cls-59" d="M41,88c-.89,2.07-2.69,2.1-4.56,2.11s-4.07-.24-5.87.36c-4.35,1.44-5.89-.16-5.61-4.38,4.1-.44,8.46.21,11.93-2.84C39.07,84.15,39.65,86.41,41,88Z"/><path class="cls-93" d="M78,69.09c2.4.38,1.9,2.27,1.91,3.81,0,4.71,0,9.42,0,14.13H76c-2.61-3.7-.76-8-1.72-12a6.11,6.11,0,0,1,.58-3.87A3,3,0,0,1,76,70.13Z"/><path class="cls-87" d="M63,87q0-6.47,0-12.94c1.76-1.51,3.52-1.38,5.27,0C70,78.46,70.32,82.78,68,87Z"/><path class="cls-6" d="M49,87.05c.61-6.65-1.27-13.41,1-20,2.44.82,4.11,2.32,4.47,5a37.41,37.41,0,0,0-1.11,9.83c.06,1.82,0,3.67-1.35,5.14Z"/><path class="cls-13" d="M52,87.05c.43-5.36-1.33-11,2-16a1.26,1.26,0,0,1,1.07-.28,3.58,3.58,0,0,1,1.57,1.67A3.31,3.31,0,0,1,57,74.13C55,78.31,56.38,82.74,56,87Z"/><path class="cls-86" d="M68,87v-13l.62-.55a3.62,3.62,0,0,1,3.27.12,3.3,3.3,0,0,1,1,1.39c.54,4.06,1.46,8.15-.92,12Z"/><path class="cls-94" d="M72,87q0-6.48,0-13a2.11,2.11,0,0,1,3,0c2.19,4.18.43,8.66,1,13Z"/><path class="cls-95" d="M97,195Q97,204,97,213l-6,0c-.18-.2-.37-.39-.57-.59-1.42-3.52-.61-7.22-.77-10.84-.12-2.73-.17-5.28-3.26-6.62-2.37-1-2.38-2.86-.34-4.12,3-1.88,5.91-4.4,9.92-3.82C96.3,189.68,96.67,192.35,97,195Z"/><path class="cls-96" d="M86,229H83a4.33,4.33,0,0,1-4.36-.08c-1.88-5.09-1.44-10.23-.39-15.39a3.15,3.15,0,0,1,2.19-1.56,7.93,7.93,0,0,1,5.36.54,3.45,3.45,0,0,1,1.11,1.43C87.4,219,88.57,224.08,86,229Z"/><path class="cls-97" d="M79,213v16c-.8.94-2.21,0-3,1H65a1.34,1.34,0,0,1,.49-1.44c6-2,6-2,6.12-8.89,0-2.26-.28-4.61,1-6.69a4.55,4.55,0,0,1,3.16-1.18A3.91,3.91,0,0,1,79,213Z"/><path class="cls-38" d="M86,229V213c1.66-1.53,3.33-1.27,5,0l0,0c0,3.74-.26,7.52.08,11.23C91.42,228.33,89.59,229.46,86,229Z"/><path class="cls-38" d="M76,230c.73-1.16,1.91-1,3-1h4C80.86,230.88,78.29,229.58,76,230Z"/><path class="cls-98" d="M65,229c0,.33,0,.66,0,1H60a.92.92,0,0,1,.08-1.33,4.32,4.32,0,0,1,4.38-.2Z"/><path class="cls-42" d="M117,189q0-8,0-16l2-3c2-.91,2.81.34,2.84,2,.06,4.35.86,8.76-.85,13A10.3,10.3,0,0,1,117,189Z"/><path class="cls-99" d="M120.94,185c0-3.74,0-7.48,0-11.22,0-1.57.42-3.43-2-3.76l4-5v18Z"/><path class="cls-100" d="M46,30.1c-2-2.52-.57-5.46-1-8.17-.29-1.91.7-4-.88-5.73a6.5,6.5,0,0,1,2.81-3.14c2.71.28,2.27,2.5,2.37,4.16a55.85,55.85,0,0,1-.09,9C48.8,28,48,29.55,46,30.1Z"/><path class="cls-101" d="M52,1.13h7c.06,1.73-2.49,3-.82,5a20.68,20.68,0,0,1-6.23,3.58,3.39,3.39,0,0,1-1.55-.08,2.19,2.19,0,0,1-1.13-1.11C48.42,5.42,48,2.46,52,1.13Z"/><path class="cls-99" d="M48,27.11c-.55-4.67,1.18-9.51-1.07-14q.06-.45.09-.9c1-1,1.34-3.53,3.62-1.55,1.4,4.25.33,8.69.95,13C51.32,25.74,50.55,27.35,48,27.11Z"/><path class="cls-88" d="M50,10,47,12.16a49.47,49.47,0,0,0-.07-6.33C46.39,1.71,48.39.64,52,1.13c-2.94,2.06-1.76,5.18-2,7.93.3.21.39.42.29.63S50.05,10,50,10Z"/><path class="cls-102" d="M58,6.11c-.53-1.31-3.12-.67-2.76-2.71s3-.65,3.76-2.28a2.06,2.06,0,0,1,2,1,2,2,0,0,0-1,2,2.82,2.82,0,0,1-.89,2.21A1.17,1.17,0,0,1,58,6.11Z"/><path class="cls-103" d="M33.07,187,33,193c.19,6.33,1.8,12.74-1,18.91l-1.92-1-1-2c-2.12-4.35-1.27-9-1.28-13.55,0-2.56-.12-4.93-2.31-6.67-1-1.61-2.64-3.08-1.11-5.22,3.2-.95,6.36-2.59,9.72-.51Z"/><path class="cls-104" d="M22,217c.53-4.65-1.16-9.47,1.05-14,1.64-.61,2.38.63,3.28,1.57A3.69,3.69,0,0,1,27,207c-1.64,2.76-.73,5.8-1,8.71-.11,1.25.69,3-.76,3.59C23.49,220,22.81,218.16,22,217Z"/><path class="cls-105" d="M27,207a2.17,2.17,0,0,1-1-2c-2.1-5.67-2.47-11.35,0-17,2.52,1.36,3.45,3.15,3.13,6.28-.51,4.85-.13,9.79-.13,14.68Z"/><path class="cls-106" d="M71.08,14.22,67,17.11c-3.08-2.63-3.33-5.22-1-9.94l5-3Q71,9.18,71.08,14.22Z"/><path class="cls-107" d="M76,8.12c0,2.68,0,5.36,0,8a6.27,6.27,0,0,1-4-2V14.1c1.31-1.83-.25-4.14,1-6Z"/><path class="cls-32" d="M73,8.12c-.33,2,.83,4.24-1,6C72.31,12.11,71.17,9.87,73,8.12Z"/><path class="cls-44" d="M17,196c0,3.08,0,6.17,0,9.26,0,1.07.53,2.53-.72,3.1-1.54.7-2.2-1-3.09-1.76A21.75,21.75,0,0,1,11,204h0c-.11-4.25-.81-8.57,1.3-12.59.91-1.09,1.84-.65,2.78,0C16.17,192.71,17.62,193.91,17,196Z"/><path class="cls-108" d="M17,196c-.57-1.38-2.13-2.26-2-4-2.45-5.45-1.81-11-.55-16.56,3.86-1.48,4.05,1.58,4.83,3.9C19,184.9,20.94,190.63,18,196Z"/><path class="cls-109" d="M18,196l0-17c1.25-.42,2.09.25,2.88,1.07a6.26,6.26,0,0,1,1.33,3.14c-.34,5.6,1.51,11.37-1.24,16.8V200Q19.51,198,18,196Z"/><path class="cls-110" d="M87,93c0,5.95,0,11.89,0,17.84,0,1.74.29,4,2.62,2.67,4.85-2.75,10.16-4.8,14.2-8.85a4.52,4.52,0,0,0,1.16-3.65c.33-.45.66-.45,1,0,1.13,3.58-1.62,7.86,2,11-.32.67-.65,1.33-1,2-5.14,4.29-11.24,6.93-17.08,10A2.86,2.86,0,0,1,87,124l-.07,0c.63-3.75-1-7.31-1-11,0-3,0-6,0-9-2.16-3.41-1.76-7-.56-10.56A1.13,1.13,0,0,1,87,93Z"/><path class="cls-46" d="M105,95.06c.53-5.32-1.09-10.77,1-16v16C105.6,95.51,105.28,95.51,105,95.06Z"/><path class="cls-79" d="M105,95.06h1c0,2,0,4,0,6h-1Z"/><path class="cls-111" d="M31.94,211.9c.63-6.29-1.11-12.7,1-18.91q27-13.47,53.93-26.93c1.62-.8,3.35-1.38,5-2.06.34,2,.67,4,1,6-1.77-1.11-3.14.1-4.57.82Q69.94,180,51.55,189.2c-1.91,1-3.85,1.88-4.91,4.32C50.35,195,54.53,192.67,58,195l-.58.57c-1.5.79-3.14.7-4.77.76s-3.26,0-4.9.05c-1.93.1-3.86.06-5.78,0-7.5.12-7.46.12-7.54,7.73,0,2.77.46,5.61-.84,8.27L33,213c-.32,0-.65,0-1,0C32,212.62,32,212.26,31.94,211.9Z"/><path class="cls-112" d="M66,7.17C66.4,10.48,65,14,67,17.11c0,.34,0,.67,0,1,1.64,2.38,1.53,5,1,7.67-1.27,3.28.13,7-1.61,10.19a2.73,2.73,0,0,1-1.58.86c-2.29,0-3.41-1.32-4-3.32-.63-8.09-.43-16.18-.31-24.28A5.14,5.14,0,0,1,62,5.15Z"/><path class="cls-94" d="M62,5.15q0,14.48,0,28.93a2.88,2.88,0,0,1-3.63-1.26c-1.2-2.91-.59-6-.83-9a12.51,12.51,0,0,0-.15-1.62,19.57,19.57,0,0,1-.38-9c.83-2.29.15-5,1.91-7A2.3,2.3,0,0,1,60,4.08Z"/><path class="cls-113" d="M26,188q0,8.5,0,17l-2.94-2c0-.33,0-.66,0-1-1.75-5.77-1.08-11.61-.57-17.46A1.1,1.1,0,0,1,24,184Z"/><path class="cls-6" d="M23,184q0,9,0,18l-2-2q0-9,0-18C22.6,181.73,23.31,182.36,23,184Z"/><path class="cls-114" d="M47,230H44c-.79-5.63-1.06-11.25.49-16.82a4.47,4.47,0,0,1,3.25-1.45,13.08,13.08,0,0,1,5.42.42,3.21,3.21,0,0,1,1.41,1.14c1.53,3.95.82,8,.72,12.1-.1,4.23-3.67,3.79-6.29,4.61Z"/><path class="cls-40" d="M49,230c4.46-1,5.53-4,5.06-8.19A78.06,78.06,0,0,1,54,213c1.21-1.27,2.72-1.3,4.3-1.1a3.37,3.37,0,0,1,2.33,1.46c1.16,5.26,2,10.51-.63,15.62v1Z"/><path class="cls-115" d="M45,213c-.47,5.65,1,11.42-1,17-11,0-11,0-11-11.11,0-2,0-3.93,0-5.89h0c2.67-2,5.74-1.36,8.73-1.32A4.36,4.36,0,0,1,45,213Z"/><path class="cls-79" d="M87,124c7-2.53,12.8-7.63,20-10a2.83,2.83,0,0,1,1,4c1.06,1.74.52,3.2-.94,4.33-4.84,3.79-10.43,6.33-15.83,9.17A2.76,2.76,0,0,1,88,131C86.61,128.83,87,126.39,87,124Z"/><path class="cls-46" d="M88,131c7.3-2.11,13.55-6.16,19.53-10.68.47-.35.33-1.52.47-2.31,2.53,2.2.94,5.43,2,8-5.19,2.92-10.34,5.93-15.6,8.72-1.92,1-3.81,3-6.35,1.27,0-.33,0-.66-.07-1C87.94,133.7,87.94,132.37,88,131Z"/><path class="cls-116" d="M13,191c-1.72,4.16.07,8.87-2,13l-3-4c3.51-3.52,1.43-8,2-12,1-.58,1.61,0,2.27.6A3.33,3.33,0,0,1,13,191Z"/><path class="cls-117" d="M93.93,176l1,5c-5.88,4.7-12.83,7.55-19.55,11.25.4,1.39,3.51.71,2.52,3.06a4.29,4.29,0,0,1-2.08.85,15.87,15.87,0,0,1-5.54-.24A2.81,2.81,0,0,1,69,195c-2.43-2.3-5.81.12-9.37-2.28C71.43,186.94,82.33,180.8,93.93,176Z"/><path class="cls-118" d="M60,213l-2,0a23,23,0,0,1,0-18h6c2.62,5.89,2,11.86.44,17.86A3.16,3.16,0,0,1,60,213Z"/><path class="cls-54" d="M64,213V195h6c2.73,5.75,1.72,11.65.69,17.55-1.34,1.82-3.2,1.75-5.13,1.43A3.16,3.16,0,0,1,64,213Z"/><path class="cls-119" d="M78,195c-1.33-1.8-3.48-.44-6.24-1.92,8.07-4.39,15.2-9,23.19-12.06.34,2,.67,4,1,6L85.2,192.53c6.16.81,5.87,4.94,5.78,9-.09,3.8,0,7.59,0,11.39l-5,0v0c-2.48-3.46-1.12-7.42-1.41-11.16-.2-2.57-.07-5.17-3.6-5.46A4.23,4.23,0,0,1,78,195Z"/><path class="cls-120" d="M106,185c2.43.35,1.94,2.25,2,3.8,0,3.43-.18,6.86,1,10.17-3.53,3.6-5.93,8.21-11,12V195C99.62,190.84,103.48,188.47,106,185Z"/><path class="cls-9" d="M20,180l-2-1c-.15-2-1.43-3.09-3-4a2,2,0,0,1-1.12-2.93c2.22-2.08,5.11-2.14,7.86-2.39,3.6-.32,7.23-.29,10.85-.59,1.75-.15,4.39-.46,3.41,2.94L36,177l-1,1C30.41,181.71,25.14,180.34,20,180Z"/><path class="cls-56" d="M36,172c-.14-.83-.48-2-1.31-1.81-6.8,1.69-14.13-.57-20.7,2.79-1,.54-1.76-.06-2.51-.63A4.76,4.76,0,0,1,10,168L37,166C36.7,168,37.73,170.26,36,172Z"/><path class="cls-31" d="M20,180c4.8-2.12,10.14-.18,15-2-.2,1.69.57,3.57-1,5-3.39-.17-6.6,1.59-10,1H23l-2-2C20.67,181.33,20.34,180.66,20,180Z"/><path class="cls-121" d="M87,93l-1,0C73.66,100,60.81,105.89,48.2,112.22c-1.36.69-2.85,1-4.19-.18q0-4,0-8l0-2c4.57-4.19,10.71-5.7,15.69-9.18,1.63-1.13,3.57-1.72,5.26-2.75l22-.09Z"/><path class="cls-122" d="M65,90.12c-6,5.71-13.5,8.75-21,11.93,0-2,.11-4-.08-5.93-.6-6.05-.64-6.05,5.71-6Q57.3,90.08,65,90.12Z"/><path class="cls-123" d="M44,112c2.13.22,3.82-.93,5.59-1.82L80.38,94.87c1.77-.89,3.46-2,5.59-1.81,0,3.67,0,7.33,0,11-12.23,4-23.06,11-34.68,16.35-1.36.62-2.69,1.32-4,2-2.57,1.27-3.31,0-3.25-2.36Q44,116,44,112Z"/><path class="cls-124" d="M76,48.11h3c2.76,3.44.55,7.28.9,10.91q-1.48,3.51-3,7a1.54,1.54,0,0,1-1.78-1.37C74.65,59.12,73.38,53.51,76,48.11Z"/><path class="cls-125" d="M76,48.11c.56,6-1.18,12,.94,17.93l-1,4.09c0,.31,0,.63,0,.94a1.8,1.8,0,0,1-2.9-1.49c-.32-7.17-1.86-14.43.91-21.47Z"/><path class="cls-117" d="M79.86,59c-1.93-3.5-.41-7.29-.9-10.91l5.12,0a3,3,0,0,0,0,.94Q82,54.07,79.86,59Z"/><path class="cls-126" d="M10,168,12,172c2.06,5.69,2.46,11.37,0,17.05-.66-.34-1.32-.68-2-1-.33-.67-.66-1.33-1-2q0-9,0-18Z"/><path class="cls-127" d="M74,38.09H69a3.55,3.55,0,0,1-1-2.81,27.94,27.94,0,0,1,1.4-5.91,2,2,0,0,1,1.26-.86,3.15,3.15,0,0,1,1.58.2,5.45,5.45,0,0,1,2.61,3.05C75.39,34,75.6,36.17,74,38.09Z"/><path class="cls-128" d="M74.15,21.18,76.82,21C78.9,24,78.19,27,77,30.1A2.36,2.36,0,0,1,73.62,30C72.34,26.94,71.83,24,74.15,21.18Z"/><path class="cls-99" d="M74.07,30.09H77c-1.21,2.58,2.84,7.14-3,8l-.09-7.24c-.23-.24-.27-.43-.14-.58A.46.46,0,0,1,74.07,30.09Z"/><path class="cls-129" d="M66,39l-3,.12-7,0c-1.66-.39-3.62.63-5-1.08,2-1.84,4.38-1.34,6.69-1.4a27.8,27.8,0,0,1,6.87.53,2.66,2.66,0,0,1,1.44.88C66,38.42,66,38.73,66,39Z"/><path class="cls-130" d="M66,38.11l-1,0a1.21,1.21,0,0,1,0-1.86l1-.13c.84-.8,1.64-1.73,3-1v3Z"/><path class="cls-78" d="M71,28.94l-1,.26c-2,.06-2.87-1.05-3-2.9,0-2.73,0-5.46.08-8.19l4,2C72.61,23.05,73.07,26,71,28.94Z"/><path class="cls-131" d="M74.07,30.09a1.56,1.56,0,0,0-.19.76l-2-1.58c-.33-2.81-1.54-5.73,1.07-8.16l1.18.07Q74.11,25.64,74.07,30.09Z"/><path class="cls-132" d="M73,21.11c-1.58,2.56-.77,5.43-1.06,8.16a4.7,4.7,0,0,1-.91-.33c0-2.94,0-5.88,0-8.82Z"/><path class="cls-91" d="M58,38.09H51c-.31-.06-.61-.12-.92-.2-.87-1.38-1.44-3-3.08-3.77l-1-2,0-2.08c.66-1,1.33-2,2-3a6.29,6.29,0,0,0,3-3c2.3-3.19,5-2.82,8-1L59.05,33C59.86,34.94,59.25,36.58,58,38.09Z"/><path class="cls-133" d="M68,74.08l-5,0L62,74A6,6,0,0,1,60.48,70q-.25-8.88,0-17.77A6.11,6.11,0,0,1,62,48.09h6a6.12,6.12,0,0,1,1.5,4.09q.27,8.89,0,17.78A6.1,6.1,0,0,1,68,74.06Z"/><path class="cls-134" d="M50,60.11c-1-2.61-1.61-5.41-3-7.78-2.38-4.14-.55-4.66,3.08-4.32,2,.18,4,.06,5.93.08,2,7.08,2.93,14.11-.82,21C50.15,68,50,64.09,50,60.11Z"/><path class="cls-135" d="M62,48.09q0,13,0,26l-5,.09-1-1.06c1.34-6.36.91-12.82,1-19.25,0-1.94-.44-4,1-5.73Z"/><path class="cls-136" d="M68,74.06v-26h4c2.14,6.83.49,13.84,1,20.75.14,2,.26,4.08-2,5.21Z"/><path class="cls-137" d="M71,74.07c2.09-5.42.6-11.06,1-16.59.21-3.11,0-6.25,0-9.37h2c0,6.22,0,12.45,0,18.68,0,1.64-.78,3.82,2,4.28l-1,3H71Z"/><path class="cls-138" d="M58,48.09c0,6.9,0,13.79,0,20.68,0,1.65.78,3.83-2,4.3-.38-.68-.77-1.36-1.15-2-.53-.54-1.48-.92-.74-2,2.62-2.49,1.8-5.74,1.86-8.76.08-4.07,0-8.14,0-12.22Z"/><path class="cls-139" d="M54.1,69.07c.25.65.5,1.3.74,2l-.86,0a10.3,10.3,0,0,1-4-4c-1-2.32-1.85-4.64,0-7C50.82,63.34,52.56,66.16,54.1,69.07Z"/><path class="cls-140" d="M81,195c3.65-.51,5.4.65,5.07,4.75-.35,4.38-.07,8.81-.07,13.22H81A22.93,22.93,0,0,1,81,195Z"/><path class="cls-124" d="M81,195v18l-2,0-3,0a23,23,0,0,1,0-18h5Z"/><path class="cls-98" d="M65,213l5,0a2.11,2.11,0,0,1,3,0c0,2.61,0,5.22,0,7.83-.11,9.26,1.16,8-8,8.14h0A18.77,18.77,0,0,1,65,213Z"/><path class="cls-141" d="M73,213l-3,0q0-9,0-18h6v18Z"/><path class="cls-142" d="M65,213v16H60V213l4,0Z"/><path class="cls-64" d="M58,13.17c.23,3-.63,6.11,1,9-6.2-.24-8.47-2.39-8.43-8.14,0-1.62-.47-3.31.45-4.86.32,0,.64,0,1,0C54.66,9.43,57,10.28,58,13.17Z"/><path class="cls-143" d="M51,9.13c-1.09,6.64,1.3,11.14,8,13l0,1c-2.68.1-5.45-.56-8,1-2.09-4.57-.47-9.41-1-14.09,0-.32,0-.64,0-.95Z"/><path class="cls-144" d="M58,13.17l-6-4c1.74-1.54,3.38-3.3,6-3l.93.09C58.66,8.53,59.92,11.07,58,13.17Z"/><path class="cls-145" d="M12,189q0-8.52,0-17l2,1,1,2q0,8.49,0,17l-2-1A2.09,2.09,0,0,1,12,189Z"/><path class="cls-146" d="M42,213l-9,0c0-4.09.28-8.21-.07-12.27-.38-4.43,1-6.47,5.65-5.72A23,23,0,0,0,42,195,23,23,0,0,1,42,213Z"/><path class="cls-147" d="M42,213V195h6a23,23,0,0,1,0,18H42Z"/><path class="cls-133" d="M48,213V195h5a23,23,0,0,1,0,18Z"/><path class="cls-148" d="M53,213q0-9,0-18h5v18l-4,0Z"/><path class="cls-110" d="M66.9,26.3l3,2.9c.06,2,.19,4.07-1,5.9l-3,1C66.41,32.85,65,29.42,66.9,26.3Z"/><path class="cls-149" d="M58,38.09A8.15,8.15,0,0,1,59.05,33L62,34.08a3.43,3.43,0,0,0,3,2.15c0,.62,0,1.24,0,1.86Z"/></g></g></svg>