<svg xmlns="http://www.w3.org/2000/svg" viewBox="0 0 129.06 228.39"><defs><style>.cls-1{fill:#262f56;}.cls-2{fill:#e6e7eb;}.cls-3{fill:#2b345a;}.cls-4{fill:#3d4568;}.cls-5{fill:#707690;}.cls-6{fill:#dbdde3;}.cls-7{fill:#adb1bf;}.cls-8{fill:#1a234c;}.cls-9{fill:#b5b8c5;}.cls-10{fill:#ebebef;}.cls-11{fill:#0a0c12;}.cls-12{fill:#c4c7d1;}.cls-13{fill:#f0f0f3;}.cls-14{fill:#a8acbb;}.cls-15{fill:#787d96;}.cls-16{fill:#4f5676;}.cls-17{fill:#141e48;}.cls-18{fill:#80859c;}.cls-19{fill:#d1d3db;}.cls-20{fill:#9ea2b3;}.cls-21{fill:#4a5172;}.cls-22{fill:#15161b;}.cls-23{fill:#878ca2;}.cls-24{fill:#6e748e;}.cls-25{fill:#999daf;}.cls-26{fill:#8c91a5;}.cls-27{fill:#757b94;}.cls-28{fill:#424a6c;}.cls-29{fill:#9196a9;}.cls-30{fill:#3b4366;}.cls-31{fill:#b3b6c3;}.cls-32{fill:#333b60;}.cls-33{fill:#0f1944;}.cls-34{fill:#17204a;}.cls-35{fill:#474f70;}.cls-36{fill:#0a1440;}.cls-37{fill:#293158;}.cls-38{fill:#0d1742;}.cls-39{fill:#242d54;}.cls-40{fill:#616784;}.cls-41{fill:#384064;}.cls-42{fill:#000208;}.cls-43{fill:#121b46;}.cls-44{fill:#525978;}.cls-45{fill:#969bad;}.cls-46{fill:#8f93a7;}.cls-47{fill:#545b7a;}.cls-48{fill:#363e62;}.cls-49{fill:#696f8a;}.cls-50{fill:#40476a;}.cls-51{fill:#59607e;}.cls-52{fill:#c2c4cf;}.cls-53{fill:#050f3c;}.cls-54{fill:#5e6582;}.cls-55{fill:#666c88;}.cls-56{fill:#4d5474;}.cls-57{fill:#b0b3c1;}.cls-58{fill:#1c1e23;}.cls-59{fill:#d4d5dd;}.cls-60{fill:#bdbfcb;}.cls-61{fill:#1f2025;}.cls-62{fill:#212a52;}.cls-63{fill:#737892;}.cls-64{fill:#7a8098;}.cls-65{fill:#1a1b20;}.cls-66{fill:#000a38;}.cls-67{fill:#2e365c;}.cls-68{fill:#8a8ea4;}.cls-69{fill:#d6d8df;}.cls-70{fill:#cfd1d9;}</style></defs><g id="Layer_2" data-name="Layer 2"><g id="Layer_1-2" data-name="Layer 1"><path class="cls-1" d="M97.8,226.34c-1.4,1.72-3.41,2-5.37,2q-26.16.1-52.32,0a7.71,7.71,0,0,1-2.29-.76c1.63-2,3.9-1.43,6-1.53,5.92-.27,11.86.47,17.76-.48a17,17,0,0,1,5.36-.53c2.29,0,4.59-.08,6.88-.06.82.05,1.65.05,2.47,0,6.94-.05,7.58-.64,8.41-7.39.34-2.76.33-5.66,2.6-7.79a13,13,0,0,1,9.71.18c2.59,4.11,1.17,8.63,1.31,13C98.2,224.15,97.66,225.19,97.8,226.34Z"/><path class="cls-2" d="M37.08,38.61l5-7c2.06,2.21,1.51,5,1.55,7.57.17,13.09-.19,26.19.16,39.27a8.53,8.53,0,0,1,.47,2.64c0,1.47-.15,2.9-1.55,3.81a3.19,3.19,0,0,1-3.1-.81C37.84,82,35.73,80,35.55,77c0-10.06,0-20.12,0-30.18A19.66,19.66,0,0,1,37.08,38.61Z"/><path class="cls-3" d="M115.07,133.33a40.24,40.24,0,0,1,5,10.06c.9,1.36,1.31,3,2.31,4.29a2.24,2.24,0,0,1-.25,1.39c-7.64,6.33-16.38,11-24.83,16.08-1.92,1.15-4,1.7-5.73-.57-1-1.78-1.77-3.59-1-5.68,6.89-4.46,14-8.53,21-12.91,5.43-3.42,5.5-3.39,2.88-9.29a5.05,5.05,0,0,1-.23-1.45A2.39,2.39,0,0,1,115.07,133.33Z"/><path class="cls-4" d="M122,148.52v-1c-.29-.26-.38-.51-.27-.76s.22-.36.33-.36c4.92,4.67,7.49,10.07,7,17.17s0,14.23-.07,21.36c0,1.59.5,3.34-.84,4.72-2.91-3.88-1.14-8.36-1.63-12.54-.92-4.83-.78-9.72-.81-14.61,0-.91.53-2.67-1.62-1.69a12.51,12.51,0,0,0-6,2c-6.13,3.84-12.28,7.66-18.47,11.41-1.81,1.1-3.56,2.47-5.92,1.82-1.35-.64-1.67-1.84-1.75-3.18a4.4,4.4,0,0,1,.57-2.15C101.56,166,110,160.2,118.85,155,121.57,153.37,122.6,151.48,122,148.52Z"/><path class="cls-5" d="M22,95.45V68.56c-.73-1.36-.36-2.83-.38-4.25,0-.72-.06-1.74,1.1-1.61.91.11,1.13,1,1.43,1.76a31.91,31.91,0,0,1,.38,7.24c-.17,4.47,0,9-.07,13.42,0,1.75,0,3.5,0,5.24.08,1.41,0,2.83,0,4.23-.39,4.51,2.05,5.79,6.08,5.54,2.66-.17,5.24-.85,7.9-.88,1.82,0,3.67-.07,5.09,1.42a7.29,7.29,0,0,1-.15,7.06c-6.2,3.71-13.16,2.37-19.82,2.77-2.24.14-3.54-2-2.93-4.28C21.64,102.67,21.29,99,22,95.45Z"/><path class="cls-6" d="M43.1,79.58c-1.67-1.45-1-3.41-1-5.15-.05-14.27,0-28.55,0-42.82,1.36-1.65,2-3.9,4-5,1.89,1.87,1.47,4.29,1.47,6.57,0,11.09.12,22.19-.06,33.28A16.57,16.57,0,0,1,47.28,70c-.37,1.86-.89,3.68-1.32,5.53C45.19,77,45.64,79.35,43.1,79.58Z"/><path class="cls-7" d="M3.08,153.51c.22-3,2.63-4.7,4.05-7a181.52,181.52,0,0,1,28.22-2.36c2,0,4,.5,4.75,2.86.42,2.13.6,4.24-.58,6.22a1.52,1.52,0,0,1-1.59.49c-5.9-3-12-.47-17.9-.24a113.76,113.76,0,0,0-13.78,1A3.38,3.38,0,0,1,3.08,153.51Z"/><path class="cls-8" d="M115,135.53v1c.49,2.06-.92,3.13-2.35,3.88-6.13,3.25-11.56,7.67-17.8,10.73-1.65.81-3.24,1.77-5,.4-1.34-1.75-2-3.63-1.28-5.84,3.49-3.39,7.91-5.4,12-7.87,5.13-3.13,10.16-6.08,11.6-12.51,1,.77,1,1.91,1,3C114.12,130.62,114.24,133.16,115,135.53Z"/><path class="cls-9" d="M3.08,153.51c9.91-1,19.82-2,29.74-2.87,2.16-.19,5.36-1.35,5.27,2.92,1.49,2.25,1.94,4.38-.67,6.17-2.67-2.36-5.64-2.58-9.19-2.26-7.74.71-15.49,1.73-23.3,1.6-2.14.23-3.49-1-4.75-2.5A5.82,5.82,0,0,1,3.08,153.51Z"/><path class="cls-10" d="M37.08,38.61q0,17,0,34.07c0,2,.29,4-1,5.7l-.7.29c-2.92-2.51-5.64-5.15-5.66-9.42,1.28-4.91.93-9.92.91-14.9a20.41,20.41,0,0,1,1.49-8.75Z"/><path class="cls-11" d="M97.8,226.34,97,224.46c3-5.24,7.12-9.57,11-14.05,2.67-3.07,4.33-6.09,3.82-10.26-.33-2.78,1.15-5.52.62-8.38a4.22,4.22,0,0,1,.91-2.65c2.08-2.25,4.23-4.43,6.34-6.65a2.08,2.08,0,0,1,2.2-.11c3,6.77.88,12.77-2.88,18.46-.89,1.35-2.4,2.27-3,3.89C110.48,212.35,104,219.26,97.8,226.34Z"/><path class="cls-12" d="M50.05,20.61c1.42-2.51,2.54-5.23,5-7,2.48,3,1.28,6.54,1.41,9.86.09,2.44,0,4.88,0,7.32a15.45,15.45,0,0,1-.37,4.29c-.83,2.82-1.45,5.69-2.14,8.55-1.16,2.72-.65,6.08-3.18,8.27a2.11,2.11,0,0,1-1.62-.59c-1.59-1.75-1.54-3.92-1.55-6.05,0-5.26.1-10.52-.06-15.78A17.1,17.1,0,0,1,50.05,20.61Z"/><path class="cls-13" d="M32.08,45.6c0,5.89,0,11.78,0,17.67,0,2.64-.23,5.2-2,7.32-3.77-.38-4.52-4.19-6.93-6.12-.18-.43-.51-1.6-.85-.64-.52,1.42-.2,3.14-.24,4.73-2-6-.76-10.06,3.64-14.43C28.17,51.65,30,48.47,32.08,45.6Z"/><path class="cls-14" d="M39.08,147.55c-3.72-4.24-8.38-1.61-12.61-1.59-6.45,0-12.84,2.16-19.34.56l3-4c.26-.2.5-.5.8-.57,9.56-2.42,19.19-3.84,29-1.92,2,2.16,1.75,4.55.74,7A1.16,1.16,0,0,1,39.08,147.55Z"/><path class="cls-15" d="M22,95.45c-.11,3.12.46,6.24-.51,9.33-1.28,4.1,1.18,5.43,4.44,4.63,5.65-1.38,11.52-.17,17.08-1.85,1.27,1.14,1.29,2.63,1.14,4.16a3.68,3.68,0,0,1-1.28,2.33c-6.45,2.35-13.28,1.68-19.92,2.49-3.9.48-3.07-2.9-3.82-5A101.51,101.51,0,0,1,22,95.45Z"/><path class="cls-16" d="M86.08,30.46c2,1.95,4,3.9,4,7,.58.76,1.52,1.26,1.68,2.32-3.18,7-7,13.54-12.39,19.08A2.37,2.37,0,0,1,78.25,58a16.67,16.67,0,0,1-1.5-4.77,9.05,9.05,0,0,1-.22-2.84c.38-2.37,1.74-4.27,3-6.22C82.34,39.87,85.46,35.76,86.08,30.46Z"/><path class="cls-17" d="M112.08,125.32c.72,5-1.52,8.24-5.83,10.4-5.9,3-10.81,7.69-17.2,9.8C87.4,144,87.27,141.86,87,139.8a3.73,3.73,0,0,1,.63-2.1,10.38,10.38,0,0,0,8.12-2c2.53-1.84,5.32-3.32,8-5,6.34-4.14,6.36-4.11,4.4-11.46a9.77,9.77,0,0,1-.21-3.77,3.08,3.08,0,0,1,1.16-2C110.21,117.34,111.74,121.17,112.08,125.32Z"/><path class="cls-18" d="M19.17,111.58c1.06,3.14,2.52,4.11,6.33,3.29,5.68-1.22,11.68-1,17.54-1.32,2,2.38,1.64,4.92.51,7.51a1.76,1.76,0,0,1-1.48.7c-5.09-2.21-10.29-.55-15.44-.34-2.57.11-5.19,1.16-7.49-.88Z"/><path class="cls-19" d="M50.05,20.61c-1.87,9-.69,18.16-.93,27.24,0,1.25.62,2.52,1,3.79,1.94,2.54.36,5.06,0,7.59-.78,2.43-1.15,5-2.13,7.36-.41.69-.91,1.24-1.84,1q0-20.49,0-41A10.29,10.29,0,0,1,50.05,20.61Z"/><path class="cls-20" d="M40.07,140.53c-10.06-.32-20,1.25-30,2,.37-2,1.06-3.88,3-5,3-2.33,6.65-1.28,10-1.77a86.9,86.9,0,0,1,17.06-1.06c2.16,1.09,1.35,2.85,1,4.51A3.11,3.11,0,0,1,40.07,140.53Z"/><path class="cls-21" d="M62.92,2.59c.73-1,.83-2.72,2.42-2.58,1.22.1,1.61,1.38,1.82,2.53.56,4.35,2.75,8.43,2.21,13a95.62,95.62,0,0,1-8.08,7.9c-1.3,1.17-3,2.6-4.16-.34A50.35,50.35,0,0,1,62.92,2.59Z"/><path class="cls-22" d="M116.07,204.71c2-4.51,5.49-8.39,5.59-13.7,0-2.88,1.19-5.81-.7-8.52-.63-2.27,1.5-3.28,2.24-4.93,1.28-1.38,2.28-3.42,4.74-2l.15,14.12C125.44,195.76,120.36,199.92,116.07,204.71Z"/><path class="cls-23" d="M101,52.49c2.52,2.71,4.9,5.51,5.85,9.22-.88,1-.84,2.51-1.67,3.57-5.06,6-10.62,11.63-15.77,17.59-.87,1-1.74,2-3.21,2a2.33,2.33,0,0,1-1.58-1.38,2.57,2.57,0,0,1,.18-1.42C90.42,75.19,94.5,67.26,99.58,60,101.26,57.6,99.47,54.77,101,52.49Z"/><path class="cls-24" d="M93.05,40.5c2.32,1.9,3.57,4.54,5,7.1a5.83,5.83,0,0,1-.3,6C93.3,60.4,89.14,67.3,84.66,74a1.7,1.7,0,0,1-1.69.76,7.65,7.65,0,0,1-2-5.62,5.8,5.8,0,0,1,.31-1.43C84.48,61.89,88.37,56.53,92,51c1.67-2.58,2.28-5.1.59-7.86a3.92,3.92,0,0,1-.19-1.4A2.15,2.15,0,0,1,93.05,40.5Z"/><path class="cls-3" d="M69,15.63c-.72-4.35-3.36-8.42-1.85-13.09a51.71,51.71,0,0,1,7.94,11.9c2.09,3.5,4.26,7,.31,10.67-1.41,1.33-2.75,2.57-4.68.87a6,6,0,0,1-1.1-2.1C68.93,21.17,66.9,18.55,69,15.63Z"/><path class="cls-18" d="M101,52.49c1.61,3.92.59,7.17-1.88,10.55-3.71,5.07-7,10.48-10.23,15.85a8,8,0,0,1-3.83,3.68,3.26,3.26,0,0,1-1.17-2.74c1.57-6.67,6.23-11.64,9.66-17.28,2.49-4.1,5.18-8,5.45-13A3.41,3.41,0,0,1,101,52.49Z"/><path class="cls-25" d="M41,135.54c-9.34.64-18.6,2.19-28,2a6.25,6.25,0,0,1,2-4,7.72,7.72,0,0,1,4.55-1.69c7-.56,13.91-2.22,21-1a2.64,2.64,0,0,1,1.21,1.34A3.14,3.14,0,0,1,41,135.54Z"/><path class="cls-16" d="M.18,156.57c1.77-.26,2.56,1.41,3.91,2A3.31,3.31,0,0,1,6.22,161c1.12,5.67.49,11.29-.39,16.91-4.75-.3-3.17,3.19-3.34,5.64s.66,5.06-1.44,7.08c-1.55-1.7-.92-3.8-.93-5.74C.08,175.43.15,166,.18,156.57Z"/><path class="cls-26" d="M41.08,132.55l0-1c-1.86-2.39-4.4-2.68-7.1-2.16-4.53.85-9.17.29-13.69,1.17a4.23,4.23,0,0,1-4.12-1,9.85,9.85,0,0,1,1.87-5c7.77-2.13,15.62-3.11,23.64-1.64A4,4,0,0,1,43.32,126a15.39,15.39,0,0,1-.1,4.39C42.88,131.46,42.66,132.68,41.08,132.55Z"/><path class="cls-27" d="M99,49.5c2.29,4.74-.92,8-3.07,11.6-3.72,6.15-8.38,11.74-11,18.55-1.73.16-1.73-1.26-2.13-2.32a3.41,3.41,0,0,1,.21-2.76c4.21-6.7,8.34-13.45,12.68-20.07,1.42-2.16,2.51-4.27,2.26-6.9A2.08,2.08,0,0,1,99,49.5Z"/><path class="cls-28" d="M86.08,30.46c2,4-.78,6.83-2.5,9.82-2,3.52-4.35,6.88-6.54,10.31a2.45,2.45,0,0,1-.81-.91,22.1,22.1,0,0,1-.92-2.33,21,21,0,0,1-.56-2.5,6.45,6.45,0,0,1-.11-2.66,21.18,21.18,0,0,1,2.45-4.87c2.44-4,5.45-7.73,5-12.84A13,13,0,0,1,86.08,30.46Z"/><path class="cls-23" d="M42.06,123.54c-8.05-.53-16,1.76-24,1a6.82,6.82,0,0,1,1.12-4c6.54-.58,13.09-1.05,19.61-1.81,2.45-.28,3.45.44,3.33,2.83A1.36,1.36,0,0,1,42.06,123.54Z"/><path class="cls-29" d="M16.15,129.53c6.06-.62,12.11-1.35,18.19-1.81,2.92-.22,6.8-1.51,6.72,3.82l-26,2A6.85,6.85,0,0,1,16.15,129.53Z"/><path class="cls-30" d="M82.07,24.48c1.53,3.5,1.44,6.44-1.52,9.5-2.33,2.4-3.71,5.71-5.51,8.62A3.31,3.31,0,0,1,73.83,41a21.65,21.65,0,0,1-1.07-4,6.23,6.23,0,0,1-.1-2.75c3.06-4.19,5.89-8.5,6.45-13.86A6.22,6.22,0,0,1,82.07,24.48Z"/><path class="cls-31" d="M62.92,2.59c-1,7.14-4.36,13.75-4.88,21-.54,2.84,1,6.44-3,8l0-18C57.41,9.75,59.32,5.57,62.92,2.59Z"/><path class="cls-16" d="M31.9,226.5a34.6,34.6,0,0,1-7.92-9c2.37-.85,1.83-3.05,2.3-4.83.53-2,.23-4.22,1.48-6.06,2.73-.88,3.75,1.19,5,2.88a6.39,6.39,0,0,1,.5,1.59c.21,4.73.62,9.45-.28,14.16A2.56,2.56,0,0,1,31.9,226.5Z"/><path class="cls-32" d="M18.89,211.58c-2.31-2.08-4.81-4-6-7a1.59,1.59,0,0,1,1.31-.33,16.36,16.36,0,0,1,2.52,1.38c.41-3.35.47-6.78,3.13-9.2,1.54-.53,2.16.72,3,1.54a6.48,6.48,0,0,1,1.95,4c-.9,3.6.74,8.32-4.42,10A2.59,2.59,0,0,1,18.89,211.58Z"/><path class="cls-32" d="M79.11,20.41c2,6.48-2.37,10.19-6.07,14.2A3.35,3.35,0,0,1,71.81,33a23.82,23.82,0,0,1-1.12-4c-.21-1.14-.61-2.31.36-3.33,3.61-.21,6.45-3.82,5.42-7C76,17.21,75,16,75.1,14.44A12.84,12.84,0,0,1,79.11,20.41Z"/><path class="cls-33" d="M104.87,64.51a3.25,3.25,0,0,1,2-2.8c0,8.32.17,16.65-.08,25-.27,9,1.31,17.85,2.23,26.74,0,.72-.05,1.43-.07,2.14a1,1,0,0,1-1.29,0c-1-1.44-1.09-3.17-1.46-4.81-1.87-4.39-.9-9.09-1.55-13.62,0-1.55,0-3.11,0-4.66-.06-2.67.27-5.37-.63-8a16.74,16.74,0,0,1,0-6.54,21.14,21.14,0,0,0,.68-6.9c0-1.47,0-2.94.08-4.4A12.7,12.7,0,0,0,104.87,64.51Z"/><path class="cls-34" d="M6.85,197.57a19.87,19.87,0,0,1-4.79-5.06A1.93,1.93,0,0,1,3.25,192c1.44.09,2.38,1.14,3.51,1.8,1.78.66,1.89-.66,2.07-1.79.3-1.94.39-3.94,1.87-5.47a2,2,0,0,1,1.34-.34,5.14,5.14,0,0,1,2.64,3.28,5.33,5.33,0,0,1,.17,1.43c-1.15,3.52.08,7.61-2.55,10.78C9.36,201.78,8.77,198.78,6.85,197.57Z"/><path class="cls-35" d="M18.89,211.58l1.21-.11c2.1,1.09,4,2,3.93-1.85,0-2.11-.14-4.38,1.6-6.1a1.81,1.81,0,0,1,1.33-.33,2.61,2.61,0,0,1,1.19,3.13c.46,3.33-1.06,6.45-1,9.72,0,2.86-2,1.2-3.12,1.46C21.85,215.9,19.83,214.2,18.89,211.58Z"/><path class="cls-36" d="M62.05,226.46c-3.85,2-8,.67-12,.94s-8.17.16-12.25.21c-2-.19-4.21.65-5.93-1.11l.37-.05c2.29-2,5.08-1.29,7.71-1.44,2.32.1,4.65-.09,7,0,2.57.15,5.14-.06,7.72,0,2.25.23,4.6-.26,6.75.84Z"/><path class="cls-37" d="M6.85,197.57c2.32.54,3.16,3.07,5.26,3.91a2.73,2.73,0,0,1,2.23,2.35c-.08.22-.16.43-.23.65l-1.23.09C10.56,202.5,8.08,200.58,6.85,197.57Z"/><path class="cls-38" d="M3.12,192.49l-1.06,0c-.84-.38-.95-1.14-1-1.92,0-2.69.05-5.39.07-8.09C5.26,185.13,3.38,189,3.12,192.49Z"/><path class="cls-39" d="M115,135.53a13.89,13.89,0,0,1-1.91-7.2,7.26,7.26,0,0,1,2,5C115,134.07,115,134.8,115,135.53Z"/><path class="cls-40" d="M93.05,40.5l0,1.1c-1.89.57-1.14-1.52-2-2l-.93-2.17A3.18,3.18,0,0,1,93.05,40.5Z"/><path class="cls-41" d="M122,146.4l-.06,1.12a5.16,5.16,0,0,1-1.94-4.13A3.88,3.88,0,0,1,122,146.4Z"/><path class="cls-42" d="M113,191.49c.11,6.58,2.11,13.45-3.52,19-4.42,4.39-7.31,10.18-12.46,13.94q-.06-7-.11-14a1.44,1.44,0,0,1-.15-1.32c2.76-4.21,6.45-7.65,9.48-11.64a42.22,42.22,0,0,1,4-4.31A5,5,0,0,1,113,191.49Z"/><path class="cls-8" d="M87,210.49c.08,3.47-1,6.79-1.2,10.26s-1.83,6.38-6.33,5.75a39.47,39.47,0,0,0-5.44,0c.24-5.54.79-11,2.81-16.26a5.58,5.58,0,0,1,3.32-1C82.5,209.28,85,208.54,87,210.49Z"/><path class="cls-43" d="M77,210.49c-.41,5.43-.32,11-3,16H67c-1-5.88-.35-11.47,3.08-16.55C72.52,209,74.86,208.61,77,210.49Z"/><path class="cls-36" d="M70,210.49q-1.5,8-3,16H62c.28-5.75.2-11.59,3.93-16.53A3.39,3.39,0,0,1,70,210.49Z"/><path class="cls-44" d="M87,210.49l-7,0a1,1,0,0,1,.14-1.37,3.93,3.93,0,0,1,1.43-.64,21.07,21.07,0,0,1,4-.3c1.88-.1,3.76,0,5.64-.11,2.9-.25,3.28-2.3,3.34-4.62.07-2.81-.23-5.66.22-8.44.22-1.4-.35-4.06,2.77-3.06,1.56,5.91,1.89,11.77-.46,17.57,0,.32-.1.63-.16,1Z"/><path class="cls-45" d="M77,49.62c0,.33,0,.65.07,1l.92,2a20,20,0,0,1-4.22,5.45c-8.67,8.63-17.31,17.3-26.22,26.22-.24.08.42.11.45.08,1.4-1.6,3.36-.79,5.09-1.13,2.38-.06,4.75-.11,7.12-.07s4.45-.1,6.68,0c2.56,0,5.14-.21,7.69.33a3.84,3.84,0,0,1,1.53.87A1.3,1.3,0,0,1,75.76,86a7.36,7.36,0,0,1-4.4,1c-7.65.25-15.31.12-23,.12-2,0-4,.1-5.84-.93a1.16,1.16,0,0,1-.48-1.6c1.16-.72,1-1.91,1-3,9.49-9.91,19.33-19.48,29-29.18C73.44,51.08,74.51,49.05,77,49.62Z"/><path class="cls-40" d="M42.07,84.57v1c3.16,2.44,2.89,5.3,1,8.36-6.63,1.19-13.23,3.65-20,.61v-4c1.13-1.32-.1-3.23,1.11-4.53,4.93-3.26,10.72-1.2,15.95-2.6Z"/><path class="cls-46" d="M77,49.62Q62.42,63.95,47.86,78.25c-1.39,1.35-2.44,3.26-4.76,3.32v-2c1.59-.87.35-3.14,2-4,9.22-7.65,17.12-16.66,25.76-24.9,1.47-1.4,2.57-3.61,5.22-3.09A2,2,0,0,1,77,49.62Z"/><path class="cls-47" d="M40.16,83.44c-1.62,2.12-3.92,2.19-6.28,2.13-3.3-.07-6.61-.15-9.79,1a2,2,0,0,1-.47-1.48c.09-1.85-.26-3.72.24-5.55,4-1.32,8.2.22,12.22-.9l0-.26C38.07,79.53,39,81.57,40.16,83.44Z"/><path class="cls-27" d="M91,158.52l1,6c-.13.21-.26.42-.38.63-9,6.24-19.27,10.2-28.89,15.33-7.28,3.9-15.06,6.86-21.87,11.66a5.77,5.77,0,0,1-1.52.5c-2.49.22-5,.58-7.33-.79-1.63-2.15-1-4.2.27-6.22,7.06-5,15.14-8.15,22.67-12.34,9.55-5.33,19.51-9.94,29.33-14.81,2-1,4-2.54,6.53-1.32A1,1,0,0,1,91,158.52Z"/><path class="cls-39" d="M91,158.52c0-.33-.06-.66-.08-1-1.35-1.59-2.18-3.31-1.43-5.45l.52-.54c3.1.27,5.25-1.95,7.45-3.4,5.84-3.83,12.47-6.51,17.47-11.6,4.12,6,4,6.38-1.74,9.87-6.09,3.68-12.15,7.42-18.24,11.09C93.8,158.21,92.75,159.71,91,158.52Z"/><path class="cls-41" d="M122,148.52c2.07,2.25,3.07,4.18-.45,6.27-8.21,4.87-16.27,10-24.38,15-1.29.79-2.53,1.65-4.09.67-1.81-1.74-2.51-3.68-1.08-6l.08,0c3,1.78,5-.57,7.17-1.86C106.85,158.05,114.39,153.25,122,148.52Z"/><path class="cls-18" d="M92,164.5l1.08,6c0,.67,0,1.34,0,2-5,3.34-10.5,5.59-15.81,8.26-7.25,3.64-14.45,7.35-21.42,11.52a12.58,12.58,0,0,1-4,.56c-1.67.1-3.34,0-5,0-2,0-4.11.25-5.73-1.4,0-1.67,1.34-2.14,2.5-2.74,15.61-8,31.63-15.28,46.93-23.93A5.19,5.19,0,0,1,92,164.5Z"/><path class="cls-35" d="M94,175.51c8.75-3.57,16.08-9.56,24.21-14.18,1.94-1.1,3.56-2.45,5.76-.81a1.68,1.68,0,0,1-.47,1.85c-1.91,2.17-3.64,4.5-5.68,6.57a39.15,39.15,0,0,1-4.17,5,17.52,17.52,0,0,0-3.22,4c-1.5,1.95-3.41,3.53-5,5.42-2.82,2.6-3.86,7.41-8.94,7.18-2.36-2.07-1.57-5.16-2.49-7.69-.25-1.75-.67-3.46-.84-5.22A2.87,2.87,0,0,1,94,175.51Z"/><path class="cls-23" d="M94,175.51l0,2c-5.08,3.39-10.76,5.65-16.16,8.43a57.43,57.43,0,0,0-10,6.22,9.82,9.82,0,0,1-3.87.68,37.67,37.67,0,0,1-5.72-.16,3.31,3.31,0,0,1-2.15-1.19c1.83-2.76,5-3.74,7.62-5.17,8.25-4.45,16.72-8.49,25.1-12.71A7.7,7.7,0,0,1,93,172.5C93.05,173.59,92.81,174.78,94,175.51Z"/><path class="cls-48" d="M123,161.51l1-1a3.71,3.71,0,0,1,2.6-3.44c1.35,6.27-.92,12.56,1.39,18.45-2,0-3.08,1.4-4,2.94-1.86,0-2.15-1.52-2.24-2.76C121.34,170.93,120.65,166.08,123,161.51Z"/><path class="cls-49" d="M23.1,94.56l19.95-1a3.46,3.46,0,0,1,1.18,2.21c.13,1.72.27,3.45-1.17,4.78-4.33-.66-8.48,1-12.76,1C23.13,101.57,23.13,101.61,23.1,94.56Z"/><path class="cls-44" d="M36.08,78.64c-3.76,3.33-7.9,1.83-12,.93-1.33-2.54.36-5.45-1-8,0-2.37,0-4.74,0-7.11,3.71.46,4.21,4.55,6.93,6.12Z"/><path class="cls-50" d="M43.06,100.56l0-5c3,.63,2,3.1,2.37,5a57.86,57.86,0,0,1-.18,8.73c-.35,1.11-.54,2.39-2.18,2.28,0-1.33,0-2.66,0-4C43.05,105.23,43.05,102.89,43.06,100.56Z"/><path class="cls-40" d="M23.11,71.58c2,2.46.55,5.34,1,8q0,3,0,6c-.33.47-.66.44-1,0Z"/><path class="cls-49" d="M23.1,85.56h1v1c-.14,1.38.46,2.94-1,4Z"/><path class="cls-23" d="M76,47.59q-12.21,12-24.4,23.92c-1.89,1.87-3.71,3.8-6.58,4.07a8.08,8.08,0,0,1,1-5C53.71,62.49,61.69,54.76,69.59,47,71.26,45.31,73,43.1,76,44.61Z"/><path class="cls-18" d="M76,44.61c-2.66.27-4.44,2-6.21,3.74Q60.16,58,50.48,67.64c-1.26,1.25-2.27,2.93-4.38,2.94l0-3,1-1c7.7-8.17,15.8-15.94,23.72-23.89C71.94,41.58,73,40.05,75,40.62c0,.66,0,1.32.05,2Z"/><path class="cls-44" d="M39.08,147.55q.48,0,1-.06c6.68-2.09,12.69-5.58,18.74-9,7.22-4,14.66-7.61,22.1-11.19,2-1,4.26-2.16,6.44-.12a4.27,4.27,0,0,1,.67,1.35,46.24,46.24,0,0,1,1,6,3.36,3.36,0,0,1-.8,2.08c-2.81-.93-5.29-.25-7.9,1.08C68.2,143.86,56.08,150,43.88,156c-4.25,2.07-5,1.6-4.82-2.46Z"/><path class="cls-51" d="M39.06,153.49c-.05,4.47,2.38,2.31,4.11,1.45,13.22-6.57,26.47-13.09,39.58-19.87,2.65-1.37,4.06-1.13,5.22,1.47a.62.62,0,0,1,.27.65c-.06.23-.12.35-.2.35l-.05,2a5.71,5.71,0,0,1-2.5,2.31c-14.21,7.23-28.31,14.69-42.66,21.64-1.94.94-4,2.86-6.34.66-.71-1.65-.77-3.21.61-4.58,1.71-1.78.7-4,1-6Z"/><path class="cls-40" d="M37.09,164.51c12.43-5.18,24.26-11.58,36.14-17.85A141,141,0,0,1,88,139.54c.36,2,.71,4,1.06,6s.66,4,1,6l-.08,0c-3.07-.27-5.76.76-8.49,2.1-13.56,6.66-26.65,14.23-40.3,20.71-2,.95-3.94,2.77-6.45,1.21a4.8,4.8,0,0,1-.55-3.68c.67-1.92.48-4,1.18-5.94A2.34,2.34,0,0,1,37.09,164.51Z"/><path class="cls-52" d="M37.09,164.51l-1,1.05c-8.41-.46-16.71,1.73-25.12,1.13a6.21,6.21,0,0,1-2.85-1.22c-1.78-1.18-1.85-3.4-3-4.95l-1-2c5.12-2.29,10.69-.55,16-1.86,3.59-.89,7.52-.2,11.3-1.05,2.82-.63,5.93-.45,5.7,3.93C37.1,161.21,37.09,162.86,37.09,164.51Z"/><path class="cls-43" d="M113,173.49l4-5c3.13,0,3.11,2.46,3.34,4.55a50.35,50.35,0,0,1-.37,10.41,20.88,20.88,0,0,1-6,6C111.27,184.32,112.63,178.87,113,173.49Z"/><path class="cls-39" d="M119.94,183.47c-2-3.15-.62-6.62-.94-9.93-.19-1.92.26-4-2-5l6-7c.55,5.64-1.15,11.41,1,17l-3,4Z"/><path class="cls-53" d="M113,173.49c2.15,5.22.47,10.69,1,16l-1,2-2,2c-4-5.12-3-10.55-1-16.05C110.08,175.46,111.41,174.39,113,173.49Z"/><path class="cls-5" d="M73,32.62c0,.66,0,1.32,0,2l1,2c-6.18,8.62-14.38,15.31-21.83,22.71a2.18,2.18,0,0,1-3.12.26q.51-4,1-8l1,0c5.49-5.88,11.29-11.45,17-17.1C69.33,33.22,70.58,31.15,73,32.62Z"/><path class="cls-44" d="M55.07,31.65c2-2.31,1-5.73,3-8,2.93.5,3.35-2.53,5.13-3.68,2-1.31,3-4.07,5.84-4.3-.19,2.88.95,5.43,2,8-4.07,3.33-7.83,7-11.56,10.69-1.17,1.15-2.22,3-4.47,2.09-.08,0-.12-.25-.11-.37a1.61,1.61,0,0,1,.15-.47Z"/><path class="cls-54" d="M55,35.57c4-.71,5.52-4.56,8.3-6.81,2.42-2,4.2-4.8,7.69-5.13,0,.66,0,1.32,0,2l1,3c-4.57,5.05-9.48,9.79-14.41,14.47-1.09,1-2.69,4-4.57.49A16.11,16.11,0,0,1,55,35.57Z"/><path class="cls-55" d="M53,43.58c2.12,2,2.86-.45,3.81-1.35,3.8-3.6,7.44-7.38,11.16-11.07,1.14-1.13,2.12-2.57,4-2.54l1,4C67.34,35,64.48,40.56,59.94,44.2c-3,2.41-4.78,6.32-8.9,7.39A15.9,15.9,0,0,1,53,43.58Z"/><path class="cls-56" d="M87,127.54c-2.66-1.14-4.79.43-6.93,1.52C68.44,135,56.9,141,45.28,146.85c-1.56.79-3.21,2.85-5.24.64l0-7c0-.33.06-.65.07-1a19.68,19.68,0,0,0,6.56-2.18c11.51-5.63,22.82-11.64,34.18-17.57,1.74-.91,3.63-2.72,5.85-.72C87.55,121.88,89.3,124.66,87,127.54Z"/><path class="cls-48" d="M43.09,111.55a2.09,2.09,0,0,0,1-2c12.08-7.06,24.84-12.77,37.34-19,2.73-1.37,4.57-.33,4.78,2.82.17,2.64.45,5.32-.46,7.92a5.65,5.65,0,0,1-3,2.46C71,109.34,59.38,115.21,47.82,121.2c-1.33.68-2.61,1.47-4.19.84l-.57-.5c0-2.66,0-5.33,0-8C43.05,112.88,43.07,112.21,43.09,111.55Z"/><path class="cls-57" d="M60.05,84.57h-8c-.86-2.56,1-4,2.42-5.53q9.34-9.6,18.95-19c1.48-1.44,3-3.27,5.52-2.44,0,.32.05.64.08,1,1.64.72,2,2.09,1.93,3.71a5.29,5.29,0,0,1-.38,1.4C74.18,71.07,67,77.7,60.05,84.57Z"/><path class="cls-20" d="M79,57.62c-6.72,3.65-11.06,9.94-16.41,15.09-3.79,3.64-8.26,6.79-10.49,11.85H47.44L78,52.62C78.3,54.29,78.63,56,79,57.62Z"/><path class="cls-51" d="M80.05,62.57c-.33-1.33-.67-2.66-1-4l12-19,2,2v1C90.24,50.27,86.68,57.42,80.05,62.57Z"/><path class="cls-33" d="M88,137.54c0-.33-.05-.67-.07-1,0-.67,0-1.34,0-2,4-3.16,8.62-5.29,12.87-8,3-2,6-3.92,8.1-6.95,3,7.27,3,7.32-3.37,11.21-4.36,2.65-8.89,5.08-13,8.11C90,140.83,89.12,139.53,88,137.54Z"/><path class="cls-38" d="M109,119.54c0,1.15.16,2.49-.86,3.22-6.32,4.56-12.5,9.4-20.11,11.77-.35-2-1.34-3.88-1-6a62.91,62.91,0,0,0,20.93-13h1C109,116.88,109,118.21,109,119.54Z"/><path class="cls-28" d="M42.06,123.54c0-.66,0-1.32,0-2l1,0h0c1,1.93,2.24,3.89-1,5Z"/><path class="cls-15" d="M49.05,59.59c2.3,0,3.36-1.92,4.74-3.26C60.56,49.78,67.27,43.19,74,36.62l1,4Q63.43,51.95,51.86,63.26c-1.39,1.35-2.44,3.26-4.76,3.32A14.56,14.56,0,0,1,49.05,59.59Z"/><path class="cls-28" d="M86,118.55Q65.62,129,45.24,139.42c-1.61.82-3.34,2.6-5.1.13a6.2,6.2,0,0,1,.9-4c0-1,0-2,0-3a2.19,2.19,0,0,0,1-2,11.81,11.81,0,0,1,3.56-2.67q17-8.41,33.86-16.93a9.62,9.62,0,0,1,4.73-1.37,4.61,4.61,0,0,1,1.41.38,2.11,2.11,0,0,1,.87,1.1,25.58,25.58,0,0,1,.62,4.93A3.23,3.23,0,0,1,86,118.55Z"/><path class="cls-58" d="M86,111.55q0-.49,0-1a4.91,4.91,0,0,1-1.28-4.16c1.23-6.72.86-13.45.29-20.19a3.39,3.39,0,0,1,1.09-1.57c5-5.47,9.87-11,14.85-16.41,1.22-1.33,2.62-2.48,3.94-3.72l1.1,1.07c-1,1.76-.26,3.67-.5,5.5-.24,2.16.52,4.39-.48,6.5v7c1,2.47.23,5.06.48,7.57v4.94c.41,3.29-1,5.64-3.66,7.47q-5.28,3.61-10.84,6.76C89.4,112.2,87.71,113,86,111.55Z"/><path class="cls-2" d="M76,84.58H75c1.06-5.69,4-8.36,8.91-8,.12,1.1-.09,2.31,1,3.05l.12,2.92a7.71,7.71,0,0,0,0,1C82.48,87.67,79.23,86.05,76,84.58Z"/><path class="cls-59" d="M76,84.58c3-.48,6.24,1,9.06-1l1,1.11c0,.28-.1.55-.13.83a8.07,8.07,0,0,1-9.88,0C76.05,85.18,76,84.88,76,84.58Z"/><path class="cls-52" d="M60.05,84.57c.29-3,2.9-4.31,4.69-6.12,5-5,10.14-9.91,15.23-14.85,2,.68,2.11,2.29,2,4l0,1C78,74.92,72.05,79.3,67,84.56Z"/><path class="cls-40" d="M82,67.62q-1-2-2-4c0-.34.06-.69.08-1,5-6.23,8.54-13.38,13-20,2.55,2.33,2.79,4.7.75,7.67C89.78,56,86.45,62.21,82,67.62Z"/><path class="cls-59" d="M67,84.56C70.62,78,76.7,73.69,81.93,68.63q.55,3,1.13,5.94l.87,2c-4.77.65-6.61,4.58-8.91,8Z"/><path class="cls-36" d="M3.12,192.49c-2.24-3,.35-7-2-10v-6.2c2.11-.05,2.59,1.84,4,2.22,2.08.43,2.75,2.29,3.8,3.77a3.18,3.18,0,0,1,.4,2.73c-.77,1.76-.51,3.56-.35,5.4.16,2,.13,4.14-2.84,4.07Z"/><path class="cls-54" d="M8.13,182.45l-3-3.93q0-9,0-18c1.77.74,2.17,2.52,3,4A25.23,25.23,0,0,1,8.13,182.45Z"/><path class="cls-4" d="M85,110.55c-2.3-.24-4.09,1.1-6,2-12.36,5.88-24.25,12.75-36.93,18l0-4c1.62-1.41.72-3.31,1-5,1.58.15,2.74-.72,4.09-1.39C59.72,113.82,72,107,85,101.56A17.78,17.78,0,0,1,85,110.55Z"/><path class="cls-21" d="M32.08,191.49l8,0c2.47,3.41,1.38,7.34,1.36,11,0,4,1.47,5.86,5.49,5.53,1.69,0,3.38-.09,5.07,0,2,0,4-.07,6,0s4-.07,6,0c2.28,0,4.55-.07,6.83,0,1.43,0,2.87-.06,4.3,0,1.76,0,3.55,0,4.9,1.4v1l-3,0H66c-2.1,1.43-4.48,1.55-6.9,1.4-2.38,0-4.75.11-7.12,0-2.41.13-4.82.06-7.23,0-4.26-.25-8.73,1.23-12.71-1.47l-.09-1.2C29.91,203.31,29.48,197.39,32.08,191.49Z"/><path class="cls-2" d="M32.08,191.49q0,8.88-.1,17.75l-3.83-2.92c-.38-.9-.75-1.81-1.12-2.71-2.19-3.92-1.34-8.07-.66-12.11.44-2.65.27-4.91-1.6-6.9-.81-1-1.7-1.87-2.56-2.8-1-1.29-2.17-2.53-1.17-4.36,4.28-2,8.62-3.25,13.27-1.19,1.82,3.36.81,6.36-1.17,9.23C32.7,187.47,31.77,189.37,32.08,191.49Z"/><path class="cls-22" d="M32.07,210.44l13,0a16.78,16.78,0,0,1-5,16h-7.8Q32.17,218.44,32.07,210.44Z"/><path class="cls-14" d="M21.1,178.5l2,3c.27,5.68,1.77,11.43-1,16.93l-2-1.79c-1.6-.07-1.87-1.3-2.19-2.49-.19-5.63-.85-11.28.43-16.87C20.38,175.12,20.49,177.37,21.1,178.5Z"/><path class="cls-60" d="M22.11,198.43c.52-5.63-1.2-11.4,1-16.93a3.47,3.47,0,0,1,2,2c2.72,5.75.62,11.64.55,17.47a1.08,1.08,0,0,1-1.55.51Z"/><path class="cls-4" d="M24.1,201.47l1,.07c.86.4,1.71.8,1,2-.41,2.07-1.11,4.05-1.06,6.24.05,1.7,1,4.29-.72,4.95-2.05.78-3.08-1.73-4.2-3.25C24.89,209.52,21.89,204.45,24.1,201.47Z"/><path class="cls-37" d="M19.07,194.55c.33.7.67,1.39,1,2.09-1.32,3.48-2.58,7-1.89,11.12-2.27-.37-3.17-1.83-4.08-3.28h0a9.89,9.89,0,0,0,1.26-6.09,5.3,5.3,0,0,1,1.44-4.94C18,192.85,18.54,193.71,19.07,194.55Z"/><path class="cls-61" d="M86,111.55c7.06-1.85,12.69-6.14,18.13-10.72,1-.83.87-2.1.88-3.27.33-.46.66-.44,1,0q.49,6.5,1,13c-4.54,5.24-10.94,7.76-16.64,11.28-2,1.27-3.85.52-3.84-2.44,0-1.28.43-2.65-.46-3.83C86.48,114.21,85,112.9,86,111.55Z"/><path class="cls-53" d="M86,115.56c2.16,6.1,2.14,6.07,8.48,2.26,4.12-2.47,8.3-4.85,12.46-7.27a8.21,8.21,0,0,1,1,5c0,1.13,0,2.22-1.13,3a177.44,177.44,0,0,1-16.14,10.13,3.36,3.36,0,0,1-3.66-.17c0-.33,0-.66-.08-1,.57-3.09-1.2-5.93-1-9C86,117.55,86,116.56,86,115.56Z"/><path class="cls-38" d="M105,92.56v-8c2,2.46.56,5.34,1,8C105.65,93,105.32,93,105,92.56Z"/><path class="cls-38" d="M105,77.58v-7c.32-.44.64-.46,1,0C105.61,72.9,106.89,75.46,105,77.58Z"/><path class="cls-53" d="M106,70.57h-1c.23-1.68-.66-3.59,1-5C106,67.25,106,68.91,106,70.57Z"/><path class="cls-53" d="M105,92.56h1v5h-1Z"/><path class="cls-62" d="M17.1,193.53a12.62,12.62,0,0,0-.34,6.07c.41,1.7.07,4.26-2.65,4.88l-2-3c1.18-3.6.17-7.61,2.05-11.09,1-.42,1.62.13,2.25.75A3.36,3.36,0,0,1,17.1,193.53Z"/><path class="cls-63" d="M12.09,186.54l-1-.06c-1.36-.49-1.5-1.69-1.64-2.88-.38-5.66-.93-11.32.33-16.95,2.72-.69,3.08,1.28,3.56,3.13C13,175.37,14.89,181.13,12.09,186.54Z"/><path class="cls-23" d="M16.12,191.46l-2-1.06c0-.31,0-.61-.05-.91-1.69-5.83-1.2-11.71-.44-17.6,2.21-1.4,2.66.52,3.45,1.82C17.38,179.66,18.88,185.68,16.12,191.46Z"/><path class="cls-64" d="M14.12,171.47v18l-2-3q0-8.55.05-17.09c1-.46,1.64.12,2.21.84A1.07,1.07,0,0,1,14.12,171.47Z"/><path class="cls-38" d="M10.11,184.5c.34.66.67,1.32,1,2a66.08,66.08,0,0,1-1.28,7.2c-.61,2.15-1.72,4-3.71.81,2.49-1.29,2.05-3.22,1.4-5.42-.53-1.76-1.35-4,1.65-4.6C9.49,184,9.81,184,10.11,184.5Z"/><path class="cls-19" d="M26.08,203.53c-.34-.66-.68-1.32-1-2l0-18c3,2.15,3.55,4.66,2.55,8.41s-.48,7.79-.62,11.71A7.77,7.77,0,0,0,26.08,203.53Z"/><path class="cls-65" d="M40.07,226.46a52.24,52.24,0,0,0,5-16h7c1.72,5.12-.69,12.85-5,16Z"/><path class="cls-53" d="M59.05,210.48h7c-2.31,5.08-1.12,11-4,16h-7C54.16,220.58,56.13,215.41,59.05,210.48Z"/><path class="cls-61" d="M59.05,210.48q-2,8-4,16h-8c3.54-4.74,4-10.45,5-16Z"/><path class="cls-58" d="M97.08,190.55c3.32-2,5-5.59,7.9-8.06,1.58-.1,2,1.13,2.11,2.23.26,4.26,1.28,8.54-.1,12.78-2.46,4.7-6.15,8.37-9.93,12q0-9-.1-18A.58.58,0,0,1,97.08,190.55Z"/><path class="cls-66" d="M107,197.5c-1.15-3.2-1-6.52-1-9.84,0-1.75.67-3.7-1-5.17a16.51,16.51,0,0,1,5-5c.31,5.35-.75,10.79,1,16.05A10.5,10.5,0,0,1,107,197.5Z"/><path class="cls-29" d="M97.08,190.55l-.12.93c-2.08,4.25-.87,8.78-.81,13.14,0,4.06-1.34,5.44-5.14,4.84-2.5-3.55-1.18-7.59-1.39-11.41-.15-3-.67-5.2-4.24-5.15a34.11,34.11,0,0,1-4-.17,4.41,4.41,0,0,1-2.22-.91,1.44,1.44,0,0,1,0-1.84c4.54-4.1,9.38-7.62,15.92-7.48C96.7,184.92,95.27,188.15,97.08,190.55Z"/><path class="cls-64" d="M79,191.49h2a23,23,0,0,1,0,18l-1,0-5,0c-2.62-5.89-2-11.86-.44-17.86A3.08,3.08,0,0,1,79,191.49Z"/><path class="cls-46" d="M85,191.49c4.53-.75,6.6.77,6.08,5.73-.42,4-.08,8.16-.08,12.24H85A23,23,0,0,1,85,191.49Z"/><path class="cls-23" d="M85,191.49q0,9,0,18H81v-18Z"/><path class="cls-67" d="M85,110.55v-9c0-11.49,0-11.48-10.42-6.27L49.66,107.74c-1.78.88-3.46,2-5.59,1.81v-9C53.24,95.34,62.61,90.48,72,85.66l4.07-.18H86l0,25.09Z"/><path class="cls-3" d="M72,85.66c-3.06,4.55-8.58,5.22-12.78,8a45.1,45.1,0,0,1-15.15,6.89c-.24-1.68.66-3.59-1-5l0-2c-.12-2.69.54-5.47-1-8Z"/><path class="cls-24" d="M33.14,185.48q.49-4.48,1-9a1.72,1.72,0,0,1,1-1c8.86-3.37,17.2-7.88,25.46-12.42,8-4.41,16.33-8.14,24.32-12.55,2.15-1.18,3.7-1,5.09,1l1,6c-2.13-.22-3.81.93-5.56,1.82q-23.62,12.06-47.25,24.1C36.55,184.25,34.81,184.81,33.14,185.48Z"/><path class="cls-16" d="M47.07,209.46c-7,0-7,0-7-7.17V191.51l1,0,6,0A23,23,0,0,1,47.07,209.46Z"/><path class="cls-51" d="M58.05,209.46h-6a23,23,0,0,1,0-18l4,0,2,0A23,23,0,0,1,58.05,209.46Z"/><path class="cls-47" d="M52.05,191.5q0,9,0,18h-5q0-9,0-18Z"/><path class="cls-68" d="M79,191.49H75a5.25,5.25,0,0,1-3.93,1.25,4,4,0,0,1-3-1.26c.14-.46.13-1.16.44-1.37,8-5.17,16.33-9.8,25.52-12.61a8.2,8.2,0,0,1,1,5C89.36,185,83.24,186.54,79,191.49Z"/><path class="cls-49" d="M68,191.48l3,0a23,23,0,0,1,0,18h-7a23,23,0,0,1,0-18Z"/><path class="cls-40" d="M64,191.5q0,9,0,18h-6v-18Z"/><path class="cls-69" d="M35.1,175.5l-1,1a32.38,32.38,0,0,0-13,2l-2-2c-1.78-.23-2.06-1.94-3-3-.66-.68-1.33-1.35-2-2,0-.33,0-.65,0-1s-.08-1.12.49-1.31a39.14,39.14,0,0,1,18.55-1.76c2.22.34,3,1.89,1.93,4.07Z"/><path class="cls-70" d="M35.08,171.51c0-1.6-.23-2.95-2.31-3a67.39,67.39,0,0,0-18.66,2l-2-1.06a3.1,3.1,0,0,0-2-2.92.68.68,0,0,1-.25-.66c.06-.23.12-.35.19-.35a177.83,177.83,0,0,0,22.82-1.81c1.65-.22,3-.2,3.24,1.85C35.8,167.55,36.83,169.77,35.08,171.51Z"/><path class="cls-55" d="M10.05,165.52l.06,1v18l-.94,0c-.35-.67-.7-1.34-1-2q0-9,0-17.95Z"/><path class="cls-27" d="M71,209.46q0-9,0-18h4q0,9,0,18Z"/><path class="cls-45" d="M16.11,173.5a6.33,6.33,0,0,1,3,3q0,9,0,18l-2-1a2.22,2.22,0,0,1-1-2.07Q16.1,182.48,16.11,173.5Z"/></g></g></svg>