<svg xmlns="http://www.w3.org/2000/svg" viewBox="0 0 131.45 232.11"><defs><style>.cls-1{fill:#2e365c;}.cls-2{fill:#474f70;}.cls-3{fill:#bdbfcb;}.cls-4{fill:#adb1bf;}.cls-5{fill:#a1a4b5;}.cls-6{fill:#c7c9d3;}.cls-7{fill:#293158;}.cls-8{fill:#1c1e23;}.cls-9{fill:#f0f0f3;}.cls-10{fill:#858aa0;}.cls-11{fill:#15161b;}.cls-12{fill:#4f5676;}.cls-13{fill:#8c91a5;}.cls-14{fill:#b5b8c5;}.cls-15{fill:#969bad;}.cls-16{fill:#7a8098;}.cls-17{fill:#545b7a;}.cls-18{fill:#8f93a7;}.cls-19{fill:#363e62;}.cls-20{fill:#e6e7eb;}.cls-21{fill:#525978;}.cls-22{fill:#1a1b20;}.cls-23{fill:#c4c7d1;}.cls-24{fill:#424a6c;}.cls-25{fill:#e8e9ed;}.cls-26{fill:#121b46;}.cls-27{fill:#101116;}.cls-28{fill:#1a234c;}.cls-29{fill:#707690;}.cls-30{fill:#0d1742;}.cls-31{fill:#242d54;}.cls-32{fill:#878ca2;}.cls-33{fill:#d6d8df;}.cls-34{fill:#9196a9;}.cls-35{fill:#787d96;}.cls-36{fill:#737892;}.cls-37{fill:#262f56;}.cls-38{fill:#999daf;}.cls-39{fill:#c2c4cf;}.cls-40{fill:#6e748e;}.cls-41{fill:#f2f3f5;}.cls-42{fill:#bfc2cd;}.cls-43{fill:#616784;}.cls-44{fill:#59607e;}.cls-45{fill:#9ca0b1;}.cls-46{fill:#a8acbb;}.cls-47{fill:#000208;}.cls-48{fill:#000a38;}.cls-49{fill:#5e6582;}.cls-50{fill:#696f8a;}.cls-51{fill:#757b94;}.cls-52{fill:#d4d5dd;}.cls-53{fill:#80859c;}.cls-54{fill:#3b4366;}.cls-55{fill:#4a5172;}.cls-56{fill:#4d5474;}.cls-57{fill:#212a52;}.cls-58{fill:#0a1440;}.cls-59{fill:#1c254e;}.cls-60{fill:#141e48;}.cls-61{fill:#080a0f;}.cls-62{fill:#e3e4e9;}.cls-63{fill:#d1d3db;}.cls-64{fill:#1f2025;}.cls-65{fill:#030d3a;}.cls-66{fill:#05070d;}.cls-67{fill:#3d4568;}.cls-68{fill:#0f1944;}.cls-69{fill:#8a8ea4;}.cls-70{fill:#c9ccd5;}.cls-71{fill:#636a86;}</style></defs><g id="Layer_2" data-name="Layer 2"><g id="Layer_1-2" data-name="Layer 1"><path class="cls-1" d="M130.92,189c-.23,1.37.42,2.93-.9,4.05-2.29-2.44-1.18-5.56-1.68-8.36-.33-1.81.55-3.82-.92-5.38-1.5.83-2.52,3.63-4.76,1.13-1.36-4.63-.55-9.53-1.82-14.16-.25-2.2.84-4,2.29-6.51-8.52,3-16.11,6.05-23.78,8.91-2,.74-3.87,1.94-6.15,1.27a3.16,3.16,0,0,1-1.06-1.06c-.78-1.65-1.54-3.29-.67-5.15,7.54-3.29,15.29-6.1,23-8.83,4-1.41,7-3.23,7.63-7.74l8.29,8.83.08,2c-1,1.76-.12,3.62-.28,5.42l.3,7.27c.35,2.08-.39,4.3.78,6.27l.13,3C130.22,182.92,132,186.05,130.92,189Z"/><path class="cls-2" d="M77.25,6.14c9.6,3.09,17,14.35,18,26.05.58,6.16-1.14,12.09-1.12,18.17-.28,3.52-2.75,5.93-4.41,8.75-5.51,5.69-11.13,11.23-19,13.57Q48.17,78.89,31.62,62.3c-1.17-1.87-3.08-3.3-3.47-5.66l.36-.66a3.58,3.58,0,0,1,1.36-.55c2.71.09,5.14,1.48,7.83,1.67a20,20,0,0,0,5.83.23L48,57.14a13.78,13.78,0,0,0,4.18-.61A29.21,29.21,0,0,0,56,55.35c2.11-.81,3.8-2.32,5.78-3.35a19.92,19.92,0,0,0,6.8-5.32A30.62,30.62,0,0,0,77.8,25.87c.14-2.88,1.22-5.76,0-8.64-.48-1.71-.58-3.51-1.34-5.14C76.39,10.06,73.6,7.65,77.25,6.14Z"/><path class="cls-3" d="M37.43,58c-2.93.61-5.3-1.35-8-1.77,1.27-4.74,4.76-8.52,5.81-13.36,2.68-2.95,3-6.95,4.56-10.37,5.73-8.53,8.92-18.35,13.88-27.27.72-1.29,1-2.79,2.4-3.65C58,.76,60,1.1,62,.86a9.67,9.67,0,0,1,6.07,1.75c-3.25,1.64-5,4.37-6.55,7.65-7,15-14.35,29.88-21.22,45C39.76,56.46,39.57,58.31,37.43,58Z"/><path class="cls-4" d="M37.43,58q7.26-15.1,14.51-30.19c3.48-7.3,7.05-14.57,10.23-22,1.28-3,3.38-3.19,5.92-3.16,2.34.26,5-.18,6.15,2.73-3.85.38-5.9,2.58-7.51,6.11-6.6,14.48-13.51,28.81-20.49,43.1a13.28,13.28,0,0,1-2.76,4.1C41.46,58.49,39.29,59.57,37.43,58Z"/><path class="cls-5" d="M43.48,58.65c3.19-7.06,6.31-14.15,9.57-21.17C57.42,28.06,62,18.73,66.3,9.29c1.65-3.6,3.6-6,7.94-3.95l.93,0a1,1,0,0,1,.31.85c0,.3-.11.46-.19.46C69.61,11.75,68,19.16,65,25.68,60.18,35.9,55.16,46,50.47,56.27a5.45,5.45,0,0,1-2,2.15Z"/><path class="cls-6" d="M32.53,12.11c3.29-2.38,5.64-6,9.67-7.41,2.24.77,2.2,2.86,2.71,4.64a6.07,6.07,0,0,1-.71,3.32c-1.35,1.42-1.62,3.55-3.15,4.86C33.8,20.35,29.48,27.87,30.1,36.69a11.06,11.06,0,0,1,.19,3.44c-1.75,2.64-3.11,5.29-2.21,8.69a4.85,4.85,0,0,1-1.42,4.53,1.29,1.29,0,0,1-1.36.08c.94-8.47-2.79-16.74-1.07-25.24,1-4.89,2.47-9.55,6.4-13A13.74,13.74,0,0,0,32.53,12.11Z"/><path class="cls-7" d="M101.55,228.24c-1.4,1.69-3.42,2-5.36,2.09q-21.63,1-43.26,1.78a8.24,8.24,0,0,1-2.34-.63c1.56-1.95,3.83-1.53,5.89-1.73,5.19-.5,10.47.09,15.6-1.19a20.92,20.92,0,0,1,5.15-.73h1c8.47-.28,8.47-.28,9.51-8.61.28-2.27.38-4.59,1.79-6.55a4.38,4.38,0,0,1,2.21-1.18,23.85,23.85,0,0,1,4.31-.31,4.79,4.79,0,0,1,3.23,1.14c1.86,3.17,1,6.73,1.39,10.11A23.85,23.85,0,0,0,101.55,228.24Z"/><path class="cls-4" d="M1.79,159.4C4,155,4.87,150,8.21,146.14l.57.61a3.91,3.91,0,0,1,0,3.23c-1.72,3.45.61,3.63,3,3.57,7.12-.19,14.24-.65,21.36-.82,2.6-.06,5.5-.47,6.63,3,.38,2.08.66,4.15-.55,6.08a2.18,2.18,0,0,1-1.7.51c-9.71-1.3-19.38.5-29.07.34C5.84,162.57,2.48,163.58,1.79,159.4Z"/><path class="cls-8" d="M101.55,228.24c-2.43-.23-2.06-2.12-2.14-3.69-.22-4.08-.38-8.16-.56-12.24-3-5.3-1.7-11.06-1.81-16.67a22.09,22.09,0,0,1,10.3-12.31c2.6.5,2.64,2.66,2.83,4.6.29,3,.33,5.94.81,8.88.27,3.51-2,5.83-4.08,8.1-4.4,4.7-6.65,10-5.47,16.57.27,1.53.66,2.43,2.18,2.68a1.26,1.26,0,0,1-.1,1.26A3.8,3.8,0,0,1,101.55,228.24Z"/><path class="cls-9" d="M18.18,73.73c-1.34-3.74-2.88-7.5.52-11,1.54-.31,1.89-2.7,3.89-2.22C24,61.68,24,63.38,24,65a11.36,11.36,0,0,0,4.38,9.32C29.92,76,31.13,78,32.9,79.45a39.58,39.58,0,0,1,4.46,5c1.62,1.86,3.42,3.34,6.13,3,1-.09,2-.14,2.95-.22,3-.18,6-.34,9-.4,1.39-.08,2.78-.17,4.18-.17,1.68-.12,3.36-.18,5-.21q2.91-.21,5.82-.25c2.12-.13,4.25-.2,6.38-.25,1.89-.11,3.85.17,5.61-.85s2.6-3.57,5.1-3.68A1.78,1.78,0,0,1,88.93,83c-1,3.33-2.9,5.94-6.31,7.2-13.14,1-26.31,1.22-39.47,1.84a8.74,8.74,0,0,1-6.82-2.25C31.24,83.63,25.51,78,19.89,72.38,18.57,71.86,19,73.55,18.18,73.73Z"/><path class="cls-10" d="M12.75,134q1.77-5.57,3.53-11.14c4.33,2.47,9,2.22,13.77,2,3.74-.17,7.56-1.13,11.24.53a4.07,4.07,0,0,1,1.31,2.37c.3,2.27.42,4.47-1.89,5.89-8.43,1.79-17,1.07-25.56,1.76A2.38,2.38,0,0,1,12.75,134Z"/><path class="cls-11" d="M36.73,231l-1.84-.14c-2.65-5.39-3.29-10.83-.37-16.35,2.61-1.39,5.46-1.14,8.26-1.21,1.84-.07,3.7-.22,5.36.85,2.6,5.37.44,10.37-2,14.84C44.23,232.43,40.14,231.45,36.73,231Z"/><path class="cls-12" d="M89.38,58.78a20.59,20.59,0,0,1,4.79-8.42c3,4.1,7.25,7.36,8.31,12.72C99.57,68.57,96,73.54,90.92,77.25a3.88,3.88,0,0,1-4-1.41,4,4,0,0,1,.95-3.19c2.33-3.48,3.3-7.08,1.35-11.09A2.42,2.42,0,0,1,89.38,58.78Z"/><path class="cls-13" d="M12.75,134l27.89-1.18c2.15,2.68,1.92,5.59.88,8.59a1.52,1.52,0,0,1-1.46.72,12.9,12.9,0,0,0-7.6-1.56c-4.44.29-8.9.41-13.35.58-2.83.12-5.61.14-7.29,3.13-.76,1.35-1.87,1.06-2.72-.15Q10.93,139,12.75,134Z"/><path class="cls-14" d="M1.79,159.4c1.15,2.26,3.2,1.9,5.17,1.82,8.85-.38,17.7-.78,26.56-1.1,1.66-.06,3.79-.89,4.36,1.83,1.57,2.25,2.21,4.41-.64,6.22a16.84,16.84,0,0,0-8.19-1.43c-7.11.3-14.22.85-21.33.75-2.55,0-4.7-3.19-7.54-1C-.09,164-.36,161.41,1.79,159.4Z"/><path class="cls-15" d="M9.1,144.1l1.43.23c.75-5.49,5-4.44,8.6-4.62,5.63-.28,11.27-.45,16.9-.74,2.18-.12,4.1-.09,4,2.87a2.43,2.43,0,0,1,0,3.41c-2.51,1.64-5.38,1.27-8.14,1.42-6.23.36-12.47.5-18.71.87-1.77.1-3.67.55-4.89-1.38l-.06,0A2.18,2.18,0,0,1,9.1,144.1Z"/><path class="cls-8" d="M36.73,231c10.13.3,9.57-2.36,11.33-16.45a3.31,3.31,0,0,1,2.09-1.3,30.83,30.83,0,0,1,5.84-.38,5,5,0,0,1,3.18.93c.41,6.12.19,12.07-4.56,16.78-3.23.64-6.61-.15-9.8,1C42.11,231.4,39.32,232.73,36.73,231Z"/><path class="cls-7" d="M122.15,147.18c1.88,4.78-.63,6.59-4.8,8-7,2.37-13.85,5.25-20.78,7.85-1.49.55-3,1.55-4.71.6a2.93,2.93,0,0,1-1.06-1c-.76-1.58-1.47-3.18-.44-4.93,4.28.64,7.93-1.39,11.72-2.81s7.37-2.8,11-4.2c6.54-2.5,6.53-2.51,3.17-8.47-.46-.82-.89-1.64-1.34-2.46-.88-1.94-2.36-3.65-2.16-6a2.36,2.36,0,0,1,.76-1.2Z"/><path class="cls-12" d="M20,70.7c5.23,5.76,11.32,10.73,15.85,17.14,0,2.3-1.87,2.46-3.38,2.64-3.36.39-6.76.93-10.1-.19-2.81-2.13-1.12-5.41-2-8-.75-1.43.09-3.22-1-4.58l-.21-2.91C18.83,73.29,17.4,71.56,20,70.7Z"/><path class="cls-16" d="M41.3,125.77c-6,.25-12.11.27-18.12.85-3.45.33-5.53-.83-6.9-3.79,0-.34,0-.67,0-1,1.91-.74-.08-4.79,3.49-4.13,2.87,1.7,6,1.16,9.09,1.19,4,0,8.13-1.17,12.12.46a4.27,4.27,0,0,1,1.41,3.14A3.93,3.93,0,0,1,41.3,125.77Z"/><path class="cls-17" d="M.18,166.54c1.19-.85.54-2.38,1.28-3.68,1.61,1.19,3.09,2.3,4.58,3.42a5.9,5.9,0,0,1,2.38,3.49c.49,5.09,1.16,10.17.39,15.28-3,3.53-4.15-.82-6.19-1.41,1.19,4,.72,8.13,1,12.19A6.21,6.21,0,0,1,3,198.89l-.59.55c-1.83-2.31-1.06-5.08-1.2-7.64C.76,183.38.51,175,.18,166.54Z"/><path class="cls-18" d="M75.2,6.31l0-1a2,2,0,0,1,2.08.82c-2.25,2.11.83,4,.22,6.08a2.41,2.41,0,0,1-.23,2.36C69.3,27.94,64.7,43,56.36,56.13c-1,1.47-2.57,1-3.94,1.19-1-3.52,1.49-6,2.75-8.74Q65,27.37,75.2,6.31Z"/><path class="cls-19" d="M23.24,219.57c-7.31-6.33-14.94-12.32-20.83-20.13l.27-.06c3.15-.19,4.33,2.72,6.46,4.13q2.13,2,4.35,4c1.46,1.37,2.94,2.72,4.47,4,1.7,1.53,2.8,1.78,2.78-1.12,0-2.57-.44-5.31,2.13-7.14,2.85.3,4.25,2.13,5,4.69a41.93,41.93,0,0,1-.55,8.31C27,218.38,26.37,220.66,23.24,219.57Z"/><path class="cls-20" d="M28.22,75.31c-3.84-2.08-5.54-5.29-5.45-9.67,0-1.7.53-3.67-1.15-5-.3-.21-.41-.43-.32-.66s.18-.34.27-.35q1.88-3.07,3.73-6.15l1,0c1.5.41,2.57,1.14,2.17,3l0,0c.26,5,1.56,9.9,1,14.94C29.33,72.7,29.4,74.19,28.22,75.31Z"/><path class="cls-21" d="M35.11,215c-1.83,5.26-.11,10.56-.22,15.84-3.62-1.35-4.95-5-7.52-7.44a22.25,22.25,0,0,0,1.53-7.62c0-1.6,0-3.35,2-4,2.21.46,1.64-1,1.67-2.28.11-4.17-1.59-8.47.83-12.49a1.67,1.67,0,0,1,1.54.66C36.51,203.42,37.46,209.2,35.11,215Z"/><path class="cls-22" d="M127.37,177.16c1.06-1.75,1.85-2.17,2,.43.24,5.15.45,10.31.68,15.47-3.05,5.78-8.08,9.9-12.3,14.7a2.23,2.23,0,0,1-.73-1.23c.11-3.53,2.9-5.47,4.72-8,2.84-3.47,5.36-6.9,3.93-12C124.73,183.36,127.91,180.54,127.37,177.16Z"/><path class="cls-23" d="M44.42,9.62c-1.65-1.23-.9-3.54-2.22-4.92C45.76,2.17,50,1.52,54,.24A7.92,7.92,0,0,0,59.92,0,2,2,0,0,1,62,.86c-1.67,1.91-4,.86-5.94,1.27C53.63,4.24,51.86,7,49.31,9,47.73,9.65,46.16,10.39,44.42,9.62Z"/><path class="cls-24" d="M31.16,212.16c-1.94,1.71-.77,3.92-.89,5.91-.14,2.27,0,4.61-2.9,5.33a12.71,12.71,0,0,1-4.13-3.83c2-.25,3.14-1.35,2.88-3.32-.41-3,.57-5.91.68-8.88a1.06,1.06,0,0,1,1.08-.37,5.87,5.87,0,0,1,2.36,1.91A9.52,9.52,0,0,1,31.35,211,1.41,1.41,0,0,1,31.16,212.16Z"/><path class="cls-25" d="M91.07,76.65c4-4.34,7-9.57,11.41-13.57-.14.94,2.27.64,1,2.12-.74,1.12-.69,2.6-1.62,3.64-3,4-6.7,7.38-9.5,11.53-.9,1.33-1.89,2.84-3.93,2.5l-1.07-1.05C86.71,78.73,89.48,78.11,91.07,76.65Z"/><path class="cls-26" d="M103.13,72.2c.16,12,.57,23.89,2.37,35.73a2.07,2.07,0,0,1,.19,2.25,1.53,1.53,0,0,1-1.51-.07c-3.29-3.46-1.22-8-2.45-11.92a43.64,43.64,0,0,0-.68-7.73A6.28,6.28,0,0,1,101,88.9,53.77,53.77,0,0,0,100.72,78c-.47-2.09-1.17-4.22.9-5.92A1.45,1.45,0,0,1,103.13,72.2Z"/><path class="cls-27" d="M117.59,206.55c0,.4.09.81.13,1.21a115.47,115.47,0,0,1-14.21,17.66l-.15-1.28c-1.45-1.86,0-3.19,1-4.3,2.75-2.91,4.82-6.34,7.47-9.31,1.48-1.4,2.67-3.13,4.45-4.21A1.26,1.26,0,0,1,117.59,206.55Z"/><path class="cls-28" d="M105.52,110.07c0-.71,0-1.42,0-2.13q2.94,9.82,5.87,19.66a2.35,2.35,0,0,1,.21,2.18c-3.92-.33-2.76-4.1-4.17-6.13-.9-2.4-1.26-5-2.08-7.38C105.73,114.22,102.86,112.05,105.52,110.07Z"/><path class="cls-28" d="M44.81,231.52c3.11-1.93,6.62-.77,9.9-1.31,2.87-2.1,6.24-1.66,9.48-1.88,2,.13,4.09-.26,6.13,0a3.53,3.53,0,0,1,2.33,1.14c-4.33,2.29-9.08.94-13.6,1.52-2.8.36-5.64.34-8.46.5Z"/><path class="cls-29" d="M19.35,77.69c1.48,1,1,2.57,1.16,3.94C20.81,87.41,23.37,93,22,98.91a1.56,1.56,0,0,1-1.42,1c-1.23-1-1-2.1-.45-3.28Z"/><path class="cls-16" d="M20.11,96.61l.16,3c1.73,1.85,1.53,4.09,1.29,6.33-.67,2-.33,4.3-1.21,6.31A1.35,1.35,0,0,1,19,113a.74.74,0,0,1-.23-1.29A63.48,63.48,0,0,1,20.11,96.61Z"/><path class="cls-10" d="M18.75,111.67l.08,1c1.33,1.61,1.65,3.26.2,5-1.64.89,0,4-2.74,4.12C17.1,118.43,17.14,114.86,18.75,111.67Z"/><path class="cls-30" d="M103.13,72.2H102c-1.29-1.28-1.11-2.63-.17-4a3.12,3.12,0,0,1,1.73-3C103.6,67.55,104.4,69.93,103.13,72.2Z"/><path class="cls-31" d="M111.36,129.81V127.6a7.75,7.75,0,0,1,2.2,5c0,.39,0,.78,0,1.17-2.07.31-2-1.45-2.55-2.63A1.55,1.55,0,0,1,111.36,129.81Z"/><path class="cls-32" d="M20,70.7c-1.44,1.11-.63,2.71-.87,4.08l-1-1c-.05-.94-.12-1.88-.13-2.82,0-.59-.15-1.46.69-1.41C19.18,69.52,19.59,70.27,20,70.7Z"/><path class="cls-33" d="M21.57,59.58c0,.34,0,.68.05,1-.86.86-.77,3-2.92,2.12A6.3,6.3,0,0,1,21.57,59.58Z"/><path class="cls-34" d="M59.92,0A4.47,4.47,0,0,1,54,.24Z"/><path class="cls-3" d="M32.53,12.11c1.1,2.1-1.06,2.18-1.9,3.08A3.16,3.16,0,0,1,32.53,12.11Z"/><path class="cls-35" d="M34.36,197.08l-.9.06a2.22,2.22,0,0,1-.8-1.34c.11-2.66-.06-5.41,2.32-7.36,16.92-6.89,33.94-13.53,50.89-20.36,2.33-.94,5-2.63,7.13.5l.12,1a2.62,2.62,0,0,1,.48,3c-2.19,2.17-5.11,3-7.85,4.05Q65,184.74,44.36,193.11A16.55,16.55,0,0,0,39.22,196a7,7,0,0,1-4.15,1.12Z"/><path class="cls-36" d="M93,168.58c-5.14-1.54-9.09,1.79-13.36,3.46-14,5.42-27.78,11.14-41.68,16.69A10.8,10.8,0,0,1,35,189c-1.21-1.05-1.2-2.38-.86-3.79a5.58,5.58,0,0,1,1.34-2c4.87-3.3,10.56-4.79,15.91-7q17.07-6.94,34.22-13.66c2-.8,4.09-1.56,6.11.08,0,.33.07.65.11,1Z"/><path class="cls-19" d="M93.23,172.57c0-1-.07-2-.11-3l31.77-11.8c-.4,3.44-3,5-3,7.59a3.8,3.8,0,0,1-2.23,2.09c-6.8,1.36-13,4.5-19.63,6.48-1.71.52-3.33,1.47-5.23,1.12A2.35,2.35,0,0,1,93.23,172.57Z"/><path class="cls-28" d="M119.91,166.46l1.94-1.09c2,5.17,1.17,10.63,1.67,15.95.66,2-.77,3.29-1.58,4.81-1.15,1.22-2.33,2.39-4.22,1.46-2.76-4.78-1.27-10.08-1.87-15.12C115.82,169.53,117.54,167.77,119.91,166.46Z"/><path class="cls-27" d="M121.68,185.35c-.21-1.72,1.34-2.63,1.84-4a11.39,11.39,0,0,0,3.85-4.16,3.38,3.38,0,0,1,.68,4.48c-1.82,3-1.18,5.79-.58,8.94.78,4.08-3.4,5.86-5.18,8.78C120,194.78,120.59,190.08,121.68,185.35Z"/><path class="cls-37" d="M31.68,61.18C38.24,66.57,45,71.51,53.8,72.67A48,48,0,0,0,71,71.51c.36,3.7-2.62,5-4.94,6.62C61.41,81.38,56,83,50.81,85c-1.73.46-3.39,0-5.06-.33a17.85,17.85,0,0,1-3.34-1.16,59.38,59.38,0,0,1-6.79-3.57,15.57,15.57,0,0,1-3.48-2.84C28.59,73.69,29.28,69.18,29,65A3.72,3.72,0,0,1,31.68,61.18Z"/><path class="cls-8" d="M50.59,84.27c3.95-3,9.16-3.3,13.28-6.15,2.74-1.89,5.44-3.64,7.11-6.61,6.12-2.65,11.72-6,15.83-11.45a3.17,3.17,0,0,1,2.57-1.28c4,6.31,2.15,11.85-2.25,17-.74,3-3.59,3.51-5.63,5-1.48.79-2.92,1.64-4.43,2.38-2.73,1.4-5.83,1.37-8.68,2.34a18.1,18.1,0,0,1-3.88.58c-1.6.12-3.2.18-4.8.22-1.37.08-2.73.15-4.1.15C53.65,86.41,51.57,86.59,50.59,84.27Z"/><path class="cls-38" d="M75.2,6.31a9.16,9.16,0,0,1-.87,4.77C66.94,26.45,59.7,41.89,52.42,57.31c-1,1.44-2.57,1-4,1.11,3.07-7.71,6.86-15.07,10.45-22.54,4-8.37,7.7-16.91,11.49-25.4C71.37,8.32,72.15,6,75.2,6.31Z"/><path class="cls-32" d="M56.36,56.13c.18-1.13.06-2.45.6-3.36,7.79-13,12-27.88,20.51-40.55,1.68,1.34.9,3.27,1.2,5a2.45,2.45,0,0,1-.27,2.36C72.36,30.32,68.14,42,62.2,52.87,60.32,54.07,58.8,55.92,56.36,56.13Z"/><path class="cls-35" d="M62.2,52.87c-.81-3.12,1.26-5.4,2.53-7.76,4.94-9.17,7.77-19.4,13.94-27.94,2.66,2.89,0,6,.37,9-2.6,7.5-7.26,14-10.06,21.43A11.73,11.73,0,0,1,62.2,52.87Z"/><path class="cls-39" d="M28.46,56.34c-.72-1-1.44-2-2.17-3,.35-2.4,1.3-4.68.17-7.26-1.34-3.05,1.45-4.31,3.26-5.88,2,1,4.32,1.29,6.12,2.75-.47,5.21-3,9.4-6.41,13.19C29.11,56.25,28.79,56.3,28.46,56.34Z"/><path class="cls-40" d="M69,47.59c.79-8.35,5.83-14.7,10.06-21.43C78.45,34.61,75.6,42,69,47.59Z"/><path class="cls-33" d="M31.68,61.18C28.18,66.88,29.8,72,33.34,77a2.39,2.39,0,0,1-.93,3.14c-2.21-.89-3.16-2.89-4.19-4.82,1.06-6.32-2-12.7.22-19C29.26,58.1,31.55,58.92,31.68,61.18Z"/><path class="cls-41" d="M35.84,43c-2.43,0-5.15.55-6.12-2.75-2.11-8.41.28-15.52,6-21.77,1.73-1.87,3.86-1.58,6-1.76,4.07.52,4.58,3.29,3.54,6.39a46.88,46.88,0,0,1-4.85,9.68C39.42,36.43,39.82,40.7,35.84,43Z"/><path class="cls-42" d="M40.41,32.79c.32-2.69,1.85-4.84,3-7.17,1.64-3.29,2.28-6.59-1.7-8.9-1.34-2.22.37-3.08,1.81-4.06C47.34,13.83,49,12,49.35,8.43a11,11,0,0,1,6.73-6.3c-4.32,9.28-8.6,18.57-13,27.81C42.54,31.06,41.32,31.85,40.41,32.79Z"/><path class="cls-41" d="M49.35,8.43c1.5,2.1,1.3,4-.88,5.41-1.93,1.24-3.71.94-4.94-1.18.3-1,.59-2,.89-3A8,8,0,0,1,49.35,8.43Z"/><path class="cls-28" d="M89.9,212.79c-.49,4.24-1.08,8.48-1.43,12.74-.19,2.26-1.22,3.3-3.4,3.38l-7.44.33a40.77,40.77,0,0,1,2.27-16.31c1.45-1.24,3.23-1.24,5-1.4S88.49,211.32,89.9,212.79Z"/><path class="cls-26" d="M79.92,213.21a39.41,39.41,0,0,1-2.29,16l-5,.22-2,.07c.47-5.17-.48-10.47,1.35-15.52a3.84,3.84,0,0,1,1.11-1.16,7.69,7.69,0,0,1,6.25-.21Z"/><path class="cls-13" d="M95.86,212.41l-4,.17c-4.24.17-5.86-2.12-5.74-6.08s-1.18-7.92.68-11.75a5.52,5.52,0,0,1,6.24-.62c1.5,1.34,1.65,3.21,1.69,5C94.84,203.59,95.47,208,95.86,212.41Z"/><path class="cls-15" d="M95.86,212.41c-2.15-1.29-2.17-3.39-2.23-5.56-.1-4.09-.32-8.18-.49-12.26,1.29-1.41,2.82-1.39,4.46-.78l.62.52.63,18Z"/><path class="cls-32" d="M87.16,194.84c.16,3.81.58,7.62.4,11.41-.16,3.43,1,5.53,4.32,6.33l-2,.2-5,.09a4.25,4.25,0,0,1-2.49-4c-.25-4.44-1.13-8.9,0-13.34A2.94,2.94,0,0,1,85.56,194,2.89,2.89,0,0,1,87.16,194.84Z"/><path class="cls-43" d="M37.14,168c1.65-1.84.52-4,.74-6l1-.1c2.9.58,5.58-.18,8.23-1.28,11.51-4.77,23.13-9.27,34.69-13.91,2-.78,3.92-1.94,6.22-1.26a5.91,5.91,0,0,1,2.37,4,20.38,20.38,0,0,1,.32,2.33c-.12,1.74,1.2,3.54-.16,5.25-11.42,2.87-21.9,8.26-32.84,12.42-4.94,1.87-9.82,3.91-14.79,5.68-2.32.83-4.85,1.74-6.47-1.34C35.87,171.7,35.58,169.72,37.14,168Z"/><path class="cls-44" d="M88.08,145.79c-14.52,5.69-29,11.41-43.57,17.05-2,.76-4.33,2.46-5.67-1-.07-2-.15-4-.23-5.95a2.63,2.63,0,0,1,1.33-.69c12.2-3.18,23.4-9,35.17-13.3,3.81-1.39,7.27-4.07,11.68-3.37a4.1,4.1,0,0,1,1.28,2C88.48,142.26,89.53,144,88.08,145.79Z"/><path class="cls-45" d="M8.27,146.16l31.84-1.34c1.31,1.26,1.25,2.72.61,4.27a4.33,4.33,0,0,1-2.16,1.8c-8.82,1.47-17.75,1.31-26.64,1.45-1.7,0-4.41.14-3.55-3.19Z"/><path class="cls-46" d="M8.37,149.15c.59,2.73,2.74,1.85,4.38,1.79,8.87-.31,17.74-.72,26.6-1.09a4.22,4.22,0,0,1,.23,6l-1,.09c-.58-2.74-2.74-1.86-4.4-1.81-7.77.27-15.53.69-23.29.91-1.68.05-4.09,1.22-4.92-.9C5.24,152.19,6.54,150.32,8.37,149.15Z"/><path class="cls-47" d="M112.78,210.76c-2.33,5-7.45,8.09-9.42,13.38l-2.23,3.09c-2.42-9.8-1.51-17.93,6-24.38a12.3,12.3,0,0,0,3.16-5,1.74,1.74,0,0,1,1.57-.45C116.41,201.56,113.92,206.21,112.78,210.76Z"/><path class="cls-2" d="M106.68,184l-8.46,10.31-.17.08a7.84,7.84,0,0,1-.87-1.26c-.66-2.43-1.18-4.9-1.74-7.35-.32-1.77-1.11-3.46-.74-5.32a3.33,3.33,0,0,1,.7-1.39c4.45-2.6,9.43-3.91,14.19-5.76a3.48,3.48,0,0,1,3.74.39,2.48,2.48,0,0,1,.51,1.38c-.14,1.49-1.08,2.62-1.77,3.87A16.28,16.28,0,0,1,106.68,184Z"/><path class="cls-48" d="M106.68,184a16.11,16.11,0,0,1,4.73-5.26c2.35.87,2.27,3,2.51,4.94.33,2.61,0,5.3,1,7.82a4,4,0,0,1,.53,1.42c-.36,2.51-2,3.91-4.18,4.88l-1,.06c-1.86-3-1-6.42-1.42-9.63C108.6,186.61,109.45,184.38,106.68,184Z"/><path class="cls-8" d="M101.78,68.19c0,1.34.11,2.68.17,4a4.13,4.13,0,0,0,.2,5c-1.21,4,.69,8.06-.48,12l0,1c1.14,2.49.45,5.18.81,7.75a3.78,3.78,0,0,1-2.1,4.1,60.51,60.51,0,0,1-13.25,5.26c-2.84.8-3.86-1.09-4.11-3.51-.37-3.61-.4-7.23-.53-10.85a7,7,0,0,1,.29-2.53A6.54,6.54,0,0,1,83.73,89l4.73-6.16c3.58-4.22,7.18-8.42,10.73-12.65C99.92,69.34,100.46,68.29,101.78,68.19Z"/><path class="cls-44" d="M83.73,89c0,.31,0,.61,0,.92-2,1.94-4.55,1.74-7,1.86Q62.36,92.49,48,93c-2.86.11-5.59.48-7.87,2.42-4.61,1.78-9.46,1.5-14.22,1.26-4-.2-4.68-1.67-4.08-7.12,4.65-.77,9.6.86,14-1.74,2.46,2.55,5.38,3.11,8.91,2.91C57.75,90,70.74,89.58,83.73,89Z"/><path class="cls-49" d="M81.32,80.07l5.81-4.24,3.94.82-3.68,5.17c-1.3,1.37-2.61,2.73-3.92,4.1C80.17,84.92,81.31,82.29,81.32,80.07Z"/><path class="cls-42" d="M36.34,79.11l6.19,3.54a4.51,4.51,0,0,1,.23,6c-3.06.42-4.62-1.63-6.15-3.74C35.88,83,34.65,81.14,36.34,79.11Z"/><path class="cls-46" d="M50.59,84.27c1.51,1.17,3.27.91,5,.9a2.13,2.13,0,0,1,.13,3l-10,.41c-1.3-1.6-1.66-3.24-.22-5Z"/><path class="cls-50" d="M81.32,80.07c2.15,1.42.12,4.38,2.15,5.85-1.58,2.1-3.88.9-5.84,1.28a3.76,3.76,0,0,1-.25-5.07A6.22,6.22,0,0,1,81.32,80.07Z"/><path class="cls-51" d="M77.38,82.13c.08,1.69.17,3.38.25,5.07l-7,.3a6.83,6.83,0,0,1-2.2-2.92C71.22,83,74.45,83.1,77.38,82.13Z"/><path class="cls-52" d="M36.34,79.11,36.61,85l-4.2-4.82L33.34,77Z"/><path class="cls-53" d="M68.46,84.58c2,0,2.18,1.41,2.2,2.92l-6,.26a2.06,2.06,0,0,1-.13-2.92Z"/><path class="cls-14" d="M45.53,83.6c.08,1.65.15,3.31.22,5l-3,.13c-.08-2-.16-4-.23-6Z"/><path class="cls-13" d="M64.55,84.84c0,1,.08,2,.13,2.92l-5,.21A2.1,2.1,0,0,1,59.57,85Z"/><path class="cls-34" d="M59.57,85c0,1,.08,2,.13,2.93l-4,.18c0-1-.08-2-.13-3Z"/><path class="cls-24" d="M41,141.78c-.12-3-.23-6-.35-9,1.56-1.47.58-3.35.79-5,2.76-2.27,6.24-3.09,9.43-4.36,9-3.57,17.84-7.26,26.83-10.7,2-.75,3.93-2,6.19-.9,1.46,1.79,1.8,4,2.28,6.14a11,11,0,0,1-.39,5.73c-1.12,1.82-3,2.65-4.82,3.35-12.26,4.65-24.3,9.87-36.6,14.44C43.26,141.85,42.17,142.33,41,141.78Z"/><path class="cls-54" d="M83.66,112q-17.55,6.92-35.1,13.84c-2.31.92-4.54,2.09-7.13,1.94,0-.67-.08-1.33-.13-2l-.09-3c.92-1,0-2.59.95-3.62a12.08,12.08,0,0,1,4.8-2.53c10.3-3.69,20.27-8.22,30.55-12,2-.71,4.14-2.65,6.29-.17C83.65,107,86,109.53,83.66,112Z"/><path class="cls-55" d="M35.11,215l-.75-17.93v0c2.76-.43,5.45-2.09,8.32-.42,2,6,2.72,12,.41,18Z"/><path class="cls-12" d="M43.08,214.65q-.37-9-.76-17.92c1.93-1.81,4-1.7,6.2-.5,1.91,5.92,3,11.91,1.54,18.12l-2,.19Z"/><path class="cls-56" d="M41,141.78l35.4-14.38c2.91-1.18,5.83-2.32,8.74-3.48a2.77,2.77,0,0,1,1,1.21,38.57,38.57,0,0,1,1.51,7.67,3.54,3.54,0,0,1-.84,2.15,13.72,13.72,0,0,0-9,1.12c-10.17,4.49-20.63,8.23-30.91,12.44-2.06.85-4.28,2.13-6.54.3-.06-1.33-.11-2.66-.17-4l-.09-3Z"/><path class="cls-42" d="M37.14,168l.2,5.92a2.47,2.47,0,0,1-1.55.63c-7.06.07-14.1.66-21.15.7A10,10,0,0,1,13,175.1c-3.38-.56-4.43-3.39-5.75-6L6,166.28c8.89-.39,17.78-.76,26.67-1.16C34.89,165,37.22,164.62,37.14,168Z"/><path class="cls-48" d="M64.68,229.79l-10,.42c2.76-5,2.75-10.78,4.31-16.13a3.84,3.84,0,0,1,2.83-1.41,13,13,0,0,1,5.64.32,2.15,2.15,0,0,1,1.09,1.15c.51,4-.61,7.91-1,11.87C67.42,227.88,66.09,228.87,64.68,229.79Z"/><path class="cls-44" d="M62,213.84l-3,.24-3,0c-4.43-5.59-3.36-11.79-2-18a5.58,5.58,0,0,1,6.36-.44C62.89,201.51,62.62,207.66,62,213.84Z"/><path class="cls-17" d="M54.28,196.23c.59,6-.36,12.06,1.75,17.87l-6,.25a99.3,99.3,0,0,1-1.76-17.87A4.22,4.22,0,0,1,54.28,196.23Z"/><path class="cls-50" d="M36.4,174l.94-.09c1.88,2,3.71.46,5.43-.21,13.91-5.49,27.78-11.07,41.68-16.57,1.93-.76,3.92-2,6-.43a.63.63,0,0,1,.3.64c0,.24-.11.35-.19.36l1.14,5c-6,.09-11,3.49-16.32,5.53C62.14,173.24,49,178.7,35.8,184c-1.21-1-1.19-2.42-1.08-3.83C35.42,178.15,34.68,175.74,36.4,174Z"/><path class="cls-28" d="M88.08,145.79l-1.17-4.95c4.77-2.59,10-3.88,15-5.92,3.18-1.3,6.35-2.63,9.46-4.11l2.11,2.91,2.25,5.91c-1,1.92-2.93,2.6-4.74,3.33-5.65,2.3-11.38,4.38-17.08,6.54-1.49.57-3.06,1.42-4.68.24Z"/><path class="cls-31" d="M90.61,157.7c0-.34-.07-.67-.11-1-.38-1.65-.75-3.3-1.13-4.95,10.15-.69,19.06-4.79,27.48-10.17,5.31,7,5.31,7-2.66,10-6.16,2.33-12.36,4.53-18.44,7C93.62,159.51,92,159.6,90.61,157.7Z"/><path class="cls-57" d="M116.85,141.58c-.14,2.54-1.79,3.58-4,4.38-6,2.18-12,4.41-17.89,6.85-2.3,1-4,.94-5.62-1.06,0-.67-.07-1.34-.1-2l26.5-10.11A2,2,0,0,1,116.85,141.58Z"/><path class="cls-43" d="M42.07,119.73c0,1.1.26,2.27-.86,3-.05-1-.1-2-.14-3a5.87,5.87,0,0,1-1.53-4c-.23-2-.24-4-.32-6,0-3.46-2.06-4.43-5.17-4.23a66.34,66.34,0,0,1-7.85.23c-4.62-.22-5.37-1.21-4.94-6.14l-.75-18c2.08,2.38.78,5.32,1.32,8-.55,4.92,1.78,6.36,6.4,5.8,3.9-.48,7.86-.4,11.79-.56,3.27,2.25,2.54,5.81,2.86,9a55.87,55.87,0,0,1,.21,5.93C43.12,113.11,44.23,116.59,42.07,119.73Z"/><path class="cls-51" d="M40.9,115.78c.06,1.33.11,2.66.17,4-5.75.24-11.49.47-17.24.73-2.22.1-4.42.22-4.8-2.81-.07-1.66-.13-3.32-.2-5l1,0c3,2.18,6.39,2.27,10,2.2S37.36,113.46,40.9,115.78Z"/><path class="cls-58" d="M8.7,204.15l-6-4.77c-.09-1-.18-2-.28-3,1.21-4.66-.78-9.42.41-14.08l5.12,3.9A5.32,5.32,0,0,1,11.45,191c-1.71,2.63.16,5.3-.06,7.94a5.81,5.81,0,0,1-.35,1.3c-.64,1.13-1.17,2.33-1.84,3.45Z"/><path class="cls-49" d="M11.1,191.05l-3.18-4.82-.66-17.1c2.24,1.08,2.64,4.09,5.11,4.93,3,5.4,2,11.18,1.67,16.9a2.6,2.6,0,0,1-1.14,1.35C11.92,192.45,11.12,192.31,11.1,191.05Z"/><path class="cls-30" d="M2.8,182.33c-.32,4.69,1.48,9.44-.41,14.08q-.21-7-.41-13.92c0-.09.21-.24.34-.26A1.42,1.42,0,0,1,2.8,182.33Z"/><path class="cls-42" d="M27.77,207.41l-1,0a11.1,11.1,0,0,0-4.11-3.91,3.6,3.6,0,0,1-1.36-2.25c-.45-5.54-1.25-11.08-.33-16.65,2.36-2.59,3.23.39,4.68,1.25a9.39,9.39,0,0,1,2.62,4.54C28.22,196,30.34,201.8,27.77,207.41Z"/><path class="cls-59" d="M17,211.8A10.32,10.32,0,0,1,12.85,208c.89-4.57-.63-9.32,1-13.83,4-.71,4.44,2.64,5.73,5a31.9,31.9,0,0,1,.51,8.44C20,209.58,19.83,211.75,17,211.8Z"/><path class="cls-7" d="M17,211.8c3.2-2,1.46-5.06,1.64-7.68a49.41,49.41,0,0,0-.17-5.43c2.55-.67,3,1.55,4,3l.21,1.81a24.77,24.77,0,0,0-.82,6.83c.13,1.55,1.07,3.94-.48,4.56C19.27,215.7,18.21,213.26,17,211.8Z"/><path class="cls-60" d="M14.26,193.9c.13,3.12.24,6.25.4,9.38.09,1.85.21,3.68-1.81,4.7a10.42,10.42,0,0,1-4.15-3.83h0c1.25-1.06.81-2.9,1.82-4.07h0c1.75-2.43-.55-5.69,1.66-8l1-.07C14.07,192.31,14.69,192.8,14.26,193.9Z"/><path class="cls-25" d="M33.26,196.1c.07.35.13.7.2,1,.17,4.58.19,9.17.54,13.73.27,3.55-1.19,2.44-2.84,1.29-.08-.31-.15-.63-.21-.95-2.13-4.5-1.81-9.33-1.79-14.11,0-1.13.18-2.49,1.5-2.81S32.72,195,33.26,196.1Z"/><path class="cls-61" d="M121.68,185.35c1.13,4.63.33,9.34.61,14-1.38,2.52-4,4.26-4.7,7.19l-1,0c-2.44-2.94-1.39-6.43-1.54-9.73-.07-1.4,1-2.81,0-4.21h0c-.64-.9-.06-1.62.36-2.36a8.19,8.19,0,0,1,3.43-2.79Z"/><path class="cls-62" d="M33.26,196.1c-1.61-.95-3.23-2.28-2.93,1.36.38,4.57.43,9.17.62,13.75a1.85,1.85,0,0,1-1.15-1.8c-2-4.66-1-9.64-1.47-14.46-.18-1.94.06-3.93-1.29-5.58l-2.12-2.91c2.84-3.7,6.28-3.23,9.91-1.42.06,1.33.13,2.66.2,4Z"/><path class="cls-63" d="M27,189.37a4.28,4.28,0,0,1,2.52,4.32c0,5.24.15,10.48.24,15.72l-2-2Q27.41,198.4,27,189.37Z"/><path class="cls-64" d="M83.66,112l-.34-8c-2.32-2.89-1.64-6.28-1.61-9.56.29-1.17.43-2.48,2.1-2.48.16,3.81.41,7.62.46,11.43,0,2.59.65,3.74,3.49,2.5,3.47-1.52,7.11-2.65,10.58-4.18,1.55-.68,3.61-1.13,3.71-3.5.31-.46.64-.49,1,0,.8,3.94-.24,8.12,1.51,11.94a5.11,5.11,0,0,1-3.53,3.17c-5.39,1.51-10,5.54-16.11,4.66Z"/><path class="cls-65" d="M84.91,117.93c6.64-2.38,13.37-4.51,19.64-7.83.32,0,.65,0,1,0-1.43,2.06,1.74,3.91.27,6,1.23,2.18.54,4-1.5,5a88.94,88.94,0,0,1-14.82,5.62,3.44,3.44,0,0,1-4.23-1.72c0-.33-.07-.67-.11-1C85.06,121.92,85,119.92,84.91,117.93Z"/><path class="cls-65" d="M101.67,89.21c.34-4-1.41-8.08.48-12C101.82,81.19,103.57,85.28,101.67,89.21Z"/><path class="cls-65" d="M103,98.16l-1,0q-.18-4-.34-8C103.8,92.59,102.5,95.53,103,98.16Z"/><path class="cls-66" d="M115,192.66c1.39.11,2.24.79,1.8,2.23-1.2,3.89-.11,7.81-.23,11.71a10.28,10.28,0,0,1-3.82,4.16c.09-2.75-.68-5.51.25-8.27.67-2-.33-3.44-1.8-4.67Z"/><path class="cls-26" d="M111.41,130.81c-.06.86-.26,1.74-1.13,2.07-7.72,2.86-15,7.12-23.37,8l-.12-2c-1-1.29-1.36-2.61-.19-4l0-2c3.71-2.64,8.19-3.47,12.3-5.17a41.06,41.06,0,0,0,9.23-4.73c1.89,1.9,1.13,5.08,3.28,6.86C111.38,130.14,111.39,130.48,111.41,130.81Z"/><path class="cls-30" d="M108.08,123a3,3,0,0,1-2,3.12c-6.45,2.43-12.55,5.84-19.52,6.79-.2-2.69-1.72-5.16-1.31-7.94a5.74,5.74,0,0,0,5.19.23c4.08-1.72,8.21-3.36,12.41-4.75,2.3-.77,3.24-2,3-4.35C107.85,117.92,107.23,120.68,108.08,123Z"/><path class="cls-30" d="M64.68,229.79c3.18-4.93,1.66-10.83,3.29-16.08a3.35,3.35,0,0,1,5-.2c-2.08,5.15,1.08,11.07-2.34,16Z"/><path class="cls-50" d="M21.26,99.61c-.33,4,1.68,5.25,5.42,4.81,2.61-.31,5.31,0,7.88-.43,4.84-.84,6.69,1.1,6.09,5.8C35,112.89,29,112,23,111.44c-2.45-.22-3.44-2.26-2.45-4.8-.1-2.33-.19-4.66-.29-7Z"/><path class="cls-29" d="M20.56,106.64c-.08,3,1.5,4,4.35,3.84,5.24-.32,10.49-.47,15.74-.69.09,2,.17,4,.25,6-5.3.22-10.6.5-15.91.65-2.6.07-5.14-.18-5.18-3.76C20.05,110.66,18.83,108.46,20.56,106.64Z"/><path class="cls-53" d="M95.51,179.48v1q-18.8,7.59-37.63,15.08c-6.53,0-13,1.14-19.58.33,2.41-4.56,7.45-4.53,11.37-6.19,13.93-5.91,28-11.38,42.09-17a5.44,5.44,0,0,1,1.47-.14,2.18,2.18,0,0,1,1.08,2C95.56,176,96.75,177.43,95.51,179.48Z"/><path class="cls-40" d="M38.3,195.89,59.22,195a13.68,13.68,0,0,1,10.08-1.33,5.44,5.44,0,0,1,4.5,5.69c0,4.68,1.76,9.48-.85,14l0,.14-5,.2,0-.12c-3.76-2.22-2.64-6.06-2.73-9.27-.11-3.92-.81-7.07-5-8.35l-6,.26-6,.25-6,.25-8,.33C35.34,195.56,36.93,196.1,38.3,195.89Z"/><path class="cls-33" d="M34.83,185c-3.31.43-6.81-.48-9.91,1.42l-3.15-2.84c-3.07-.81-5.71-1.86-3.17-5.78,4.45-1.34,9-1.1,13.59-1,1.73,0,4.33-.07,3.45,3.18,0,1.32.11,2.65.16,4Z"/><path class="cls-67" d="M95.51,179.48l-1.2-4.95c6.46-2.29,13-4.52,19.38-6.92a17.09,17.09,0,0,1,6.22-1.15c-.64,1.86-3,2.79-2.8,5.09-1.07,1.31-1.17,3.81-3.84,3.2-1.54-1.86-3-.25-4.41.18C104.36,176.28,100.23,178.76,95.51,179.48Z"/><path class="cls-68" d="M113.27,174.75l3.84-3.2c.78,5.3-.66,10.83,1.69,16a6.47,6.47,0,0,1-2.87,3.13c-2.5-2.8-1.4-6.31-1.84-9.5q-.39-2.71-.79-5.41C113.28,175.4,113.27,175.07,113.27,174.75Z"/><path class="cls-53" d="M83.17,195c.74,5.94-.56,12.08,1.74,17.86l-5,.34,0-.12C76.18,210,74.5,199.76,77.24,196,78.83,193.83,80.86,193.32,83.17,195Z"/><path class="cls-35" d="M83.17,195c-4.67-.48-6.15,1.9-5.75,6.22.37,4.07-.3,8.33,2.53,11.86l-7,.28c-.18-4.48-.59-9-.47-13.44a5.09,5.09,0,0,0-3.3-5.33c1.91-2,4.44-1.53,6.8-1.77,3.24.27,6.55-.91,9.73.53a1.1,1.1,0,0,1,.45,1.52Z"/><path class="cls-53" d="M86.16,194.88c0-.33,0-.66,0-1a11.35,11.35,0,0,1,11.94-.51c0,.35,0,.69,0,1l-4.91.18-6,.25Z"/><path class="cls-21" d="M86.6,134.85c.06,1.33.13,2.66.19,4C72.86,144.35,59,149.91,45,155.28c-1.59.61-3.39,2.64-5.38.53-.08-2-.15-4-.23-6l.93-1c4.6-.08,8.5-2.43,12.61-4,9.65-3.72,19.24-7.65,28.77-11.68C84.12,132.06,85.5,132.7,86.6,134.85Z"/><path class="cls-32" d="M76.16,194.3l-7,.3-10,.41a4.48,4.48,0,0,1,2.89-2.57c10.17-4,20.37-8,30.53-12a3.54,3.54,0,0,1,2.87,0c.4,1.65.8,3.31,1.19,5C90.22,189.25,82.72,190.67,76.16,194.3Z"/><path class="cls-69" d="M76.16,194.3c5.78-5.44,13.19-7.08,20.54-8.86.23,2.68,1.75,5.14,1.36,7.93l-11.94.51Z"/><path class="cls-58" d="M113.3,175.73c2.41.23,2.06,2.11,2.14,3.67.19,3.75.33,7.5.49,11.24-.31.68-.61,1.35-.92,2-2.77-.36-1.94-2.59-2.16-4.24-.43-3.23.44-6.65-1.44-9.66A3.11,3.11,0,0,1,113.3,175.73Z"/><path class="cls-1" d="M83.81,92a2.16,2.16,0,0,0-.9,2.06A5.06,5.06,0,0,1,80,96.49c-10.92,4.27-21.74,8.79-32.68,13-1.81.7-3.68,1.72-5.62.25-.47-5,.23-10.1-1.65-14.92-.38-3.44,2.08-3.08,4.2-3.17L83.69,90Z"/><path class="cls-19" d="M41.67,109.74c11.12-2.95,21.32-8.34,32.1-12.22,3.07-1.11,6.09-2.34,9.14-3.51q.2,5,.41,10L42.07,119.73C41.94,116.4,41.8,113.07,41.67,109.74Z"/><path class="cls-32" d="M17.58,178.77c1.42,1.6,2.16,3.78,4.19,4.85q.36,9,.71,18l-4-3c-1.41-1.59-2.17-3.76-4.21-4.79L13.16,192q-.39-9-.79-17.92l1-.1C15,175.41,17,176.49,17.58,178.77Z"/><path class="cls-70" d="M17.58,178.77c-1.89-1.17-3.77-2.36-4.2-4.81,6.11-.26,12.22-.56,18.34-.77,1.59-.05,3.33-.68,4.68.81-.24,2,.89,4.2-.76,6-.43-2.39-2.27-1.91-3.85-1.85C27.05,178.36,22.32,178.57,17.58,178.77Z"/><path class="cls-71" d="M60.26,196c4.58-1,6.44.64,6.35,5.55-.07,4-.73,8.25,1.38,12.08l-6,.24C59.9,208,60.85,201.93,60.26,196Z"/><path class="cls-30" d="M12.18,192.05c0,2.79.85,5.75-1.66,8a16.12,16.12,0,0,0-.91-4.74c-.5-1.58-1.23-3.65,1.49-4.28Z"/><path class="cls-30" d="M10.52,200.07c-.12,1.57.84,3.64-1.82,4.07C8.53,202.44,8.74,200.9,10.52,200.07Z"/></g></g></svg>