<svg xmlns="http://www.w3.org/2000/svg" viewBox="0 0 130.82 231.68"><defs><style>.cls-1{fill:#b6b1c5;}.cls-2{fill:#bbbad0;}.cls-3{fill:#e3e6f3;}.cls-4{fill:#dfe1f1;}.cls-5{fill:#dbdcee;}.cls-6{fill:#e8ebf5;}.cls-7{fill:#acb2c7;}.cls-8{fill:#e0e0ec;}.cls-9{fill:#a79dad;}.cls-10{fill:#f9f9fc;}.cls-11{fill:#d2d1e2;}.cls-12{fill:#999eb4;}.cls-13{fill:#bfbed3;}.cls-14{fill:#d6d4e4;}.cls-15{fill:#e4e3ee;}.cls-16{fill:#d8d8e6;}.cls-17{fill:#9ca1b7;}.cls-18{fill:#b4afc2;}.cls-19{fill:#cfcedf;}.cls-20{fill:#c1bfd4;}.cls-21{fill:#d4d5e9;}.cls-22{fill:#b1b6c7;}.cls-23{fill:#f5f5fa;}.cls-24{fill:#bbc1cf;}.cls-25{fill:#9c9fb4;}.cls-26{fill:#e7e9f4;}.cls-27{fill:#b6bccb;}.cls-28{fill:#f6f6f9;}.cls-29{fill:#aea5b7;}.cls-30{fill:#999bb0;}.cls-31{fill:#b0a9bb;}.cls-32{fill:#a7acc2;}.cls-33{fill:#cac9db;}.cls-34{fill:#aca3b4;}.cls-35{fill:#b3adc0;}.cls-36{fill:#d3d2e1;}.cls-37{fill:#eff0f3;}.cls-38{fill:#d5d9e1;}.cls-39{fill:#e5e7ee;}.cls-40{fill:#cdcce1;}.cls-41{fill:#cacadf;}.cls-42{fill:#b7b3c8;}.cls-43{fill:#b1aec5;}.cls-44{fill:#a79dac;}.cls-45{fill:#d8d9ec;}.cls-46{fill:#d1d2e7;}.cls-47{fill:#cccde2;}.cls-48{fill:#e6e8f4;}.cls-49{fill:#c8c8dd;}.cls-50{fill:#f0f0f6;}.cls-51{fill:#fbfbfd;}.cls-52{fill:#e5e7f4;}.cls-53{fill:#fafafd;}.cls-54{fill:#a4a9bf;}.cls-55{fill:#d4d4e8;}.cls-56{fill:#d6d7eb;}.cls-57{fill:#d1d2e6;}.cls-58{fill:#c4c4da;}.cls-59{fill:#c2c1d7;}.cls-60{fill:#dbdae8;}.cls-61{fill:#dedeea;}.cls-62{fill:#9594a8;}.cls-63{fill:#a99fb0;}.cls-64{fill:#c2c1d5;}.cls-65{fill:#c4c3d7;}.cls-66{fill:#e7e7f0;}.cls-67{fill:#dfdeeb;}.cls-68{fill:#c8c7da;}.cls-69{fill:#cccbdd;}.cls-70{fill:#eeeef5;}.cls-71{fill:#d1d0e1;}.cls-72{fill:#e4e4ee;}.cls-73{fill:#d7d6e4;}.cls-74{fill:#bbb9cf;}.cls-75{fill:#b8b6cc;}.cls-76{fill:#bcbbd1;}.cls-77{fill:#bebdd3;}.cls-78{fill:#bdbcd2;}.cls-79{fill:#9fa3ba;}.cls-80{fill:#c3c2d8;}.cls-81{fill:#c0bfd5;}.cls-82{fill:#c7c7dd;}.cls-83{fill:#b2abbd;}.cls-84{fill:#c5c4d8;}.cls-85{fill:#a1a6bb;}.cls-86{fill:#a3a7bd;}.cls-87{fill:#a9aec1;}.cls-88{fill:#adb2c4;}.cls-89{fill:#a5aabe;}.cls-90{fill:#f6f7fb;}.cls-91{fill:#9698ac;}.cls-92{fill:#f4f4f9;}.cls-93{fill:#ededf4;}.cls-94{fill:#a99eaf;}.cls-95{fill:#aaa0b1;}.cls-96{fill:#9596a9;}.cls-97{fill:#a2a7bd;}.cls-98{fill:#cfcfe4;}.cls-99{fill:#c8c8de;}.cls-100{fill:#b9b7cc;}.cls-101{fill:#ada5b7;}.cls-102{fill:#cccce1;}.cls-103{fill:#bfbed4;}.cls-104{fill:#d3d3e8;}.cls-105{fill:#aba2b3;}.cls-106{fill:#b4b2c8;}.cls-107{fill:#b6b4cb;}.cls-108{fill:#d3d2e2;}.cls-109{fill:#ecebf3;}.cls-110{fill:#c5c5db;}</style></defs><g id="Layer_2" data-name="Layer 2"><g id="Layer_1-2" data-name="Layer 1"><path class="cls-1" d="M129.91,191.84c-.29,1.35.3,2.94-1.07,4-2.19-2.53-.94-5.6-1.33-8.42-.25-1.82.71-3.79-.69-5.41-1.53.77-2.67,3.52-4.81.93-1.16-4.69-.14-9.55-1.21-14.23-.16-2.21,1-4,2.56-6.4-8.64,2.63-16.35,5.37-24.13,7.9-2,.65-4,1.77-6.21,1a3,3,0,0,1-1-1.1c-.71-1.68-1.4-3.35-.46-5.17,7.68-3,15.54-5.45,23.41-7.85,4.07-1.25,7.16-2.93,8-7.42l7.91,9.18v2c-1.06,1.72-.27,3.62-.52,5.42v7.27c.27,2.09-.57,4.27.52,6.3v3C129.47,185.72,131.06,188.92,129.91,191.84Z"/><path class="cls-2" d="M84,6.86c9.47,3.5,16.33,15.06,16.93,26.8.32,6.17-1.66,12-1.89,18.1-.42,3.51-3,5.81-4.78,8.56-5.74,5.45-11.59,10.75-19.57,12.76Q51.86,78.33,36,61.06c-1.1-1.92-2.94-3.43-3.23-5.8l.39-.64a3.24,3.24,0,0,1,1.38-.5c2.7.2,5.07,1.69,7.75,2a20.32,20.32,0,0,0,5.82.48c1.47,0,3,0,4.42,0a13.85,13.85,0,0,0,4.2-.44,30.1,30.1,0,0,0,3.95-1c2.14-.72,3.89-2.16,5.91-3.1a20.06,20.06,0,0,0,7-5A30.62,30.62,0,0,0,83.71,26.6c.26-2.87,1.46-5.7.35-8.63-.41-1.73-.43-3.53-1.12-5.19C83,10.75,80.28,8.23,84,6.86Z"/><path class="cls-3" d="M42,57c-3,.49-5.23-1.57-7.91-2.1,1.46-4.69,5.11-8.31,6.37-13.11,2.79-2.83,3.25-6.81,5-10.17,6.08-8.27,9.68-17.95,15-26.65.76-1.26,1.16-2.75,2.55-3.55C65,.69,67,1.1,69,1a9.71,9.71,0,0,1,6,2c-3.32,1.49-5.2,4.15-6.87,7.36C60.47,25,52.52,39.57,45,54.36,44.41,55.56,44.15,57.41,42,57Z"/><path class="cls-4" d="M42,57c5.26-9.85,10.55-19.68,15.77-29.55,3.79-7.15,7.66-14.26,11.15-21.55,1.41-2.94,3.51-3,6-2.9,2.32.36,5,0,6,3-3.87.22-6,2.34-7.76,5.79C66.06,25.92,58.55,39.94,51,53.93a13.21,13.21,0,0,1-2.93,4C46,57.66,43.81,58.65,42,57Z"/><path class="cls-5" d="M48,57.91C51.52,51,54.94,44,58.49,37.16c4.77-9.22,9.7-18.36,14.43-27.6C74.72,6,76.77,3.69,81,5.94L82,6a.94.94,0,0,1,.27.87c-.06.29-.13.44-.21.44-5.89,4.88-7.79,12.21-11.12,18.6-5.21,10-10.65,19.9-15.77,30A5.37,5.37,0,0,1,53,57.89Z"/><path class="cls-6" d="M39.06,11C42.45,8.71,45,5.2,49,4c2.2.87,2.07,3,2.5,4.75A5.92,5.92,0,0,1,50.69,12c-1.4,1.37-1.76,3.48-3.34,4.73-7.37,2.51-12,9.85-11.75,18.69a11,11,0,0,1,0,3.44c-1.86,2.56-3.32,5.15-2.57,8.59a4.87,4.87,0,0,1-1.61,4.47,1.28,1.28,0,0,1-1.36,0c1.29-8.42-2.08-16.85,0-25.26C31.28,21.82,33,17.23,37,14A13.89,13.89,0,0,0,39.06,11Z"/><path class="cls-7" d="M98.91,229.79c-1.46,1.64-3.5,1.86-5.44,1.86-14.43.06-28.87,0-43.3,0a7.93,7.93,0,0,1-2.31-.73c1.64-1.87,3.89-1.36,6-1.47,5.21-.29,10.46.52,15.64-.54a21,21,0,0,1,5.17-.51c.33,0,.65,0,1,0,8.47.07,8.47.07,9.86-8.2.38-2.26.57-4.57,2.07-6.47a4.34,4.34,0,0,1,2.26-1.08,23.87,23.87,0,0,1,4.31-.14,4.85,4.85,0,0,1,3.18,1.28c1.73,3.25.75,6.77,1,10.16A24.41,24.41,0,0,0,98.91,229.79Z"/><path class="cls-8" d="M2.15,156.82c2.35-4.32,3.47-9.29,7-13l.55.63a4,4,0,0,1-.17,3.23c-1.87,3.37.46,3.65,2.82,3.69,7.12.11,14.25,0,21.38.08,2.6.05,5.51-.24,6.5,3.23.29,2.09.48,4.17-.81,6a2.18,2.18,0,0,1-1.72.45c-9.65-1.72-19.38-.32-29-.89C6.05,160.15,2.65,161,2.15,156.82Z"/><path class="cls-9" d="M98.91,229.79c-2.41-.33-2-2.2-2-3.77,0-4.08,0-8.17,0-12.25-2.76-5.43-1.23-11.13-1.11-16.74a22.15,22.15,0,0,1,10.81-11.87c2.57.62,2.52,2.78,2.63,4.73.17,3,.08,6,.43,8.9.13,3.52-2.19,5.74-4.41,7.92-4.59,4.51-7.07,9.7-6.17,16.33.21,1.53.56,2.45,2.08,2.77a1.28,1.28,0,0,1-.16,1.25A3.78,3.78,0,0,1,98.91,229.79Z"/><path class="cls-10" d="M22.12,71.91c-1.17-3.8-2.55-7.62,1-11,1.55-.24,2-2.62,4-2.05,1.36,1.25,1.32,3,1.23,4.53a11.36,11.36,0,0,0,4,9.5c1.45,1.76,2.57,3.79,4.28,5.34a40.38,40.38,0,0,1,4.25,5.15c1.54,1.92,3.28,3.48,6,3.23,1-.05,2-.05,3-.09,3-.06,6-.09,9,0,1.4,0,2.79-.05,4.19,0,1.68,0,3.36,0,5,0,1.94-.05,3.89-.05,5.83,0,2.12,0,4.25,0,6.38,0,1.9,0,3.84.34,5.64-.62s2.75-3.45,5.26-3.45a1.79,1.79,0,0,1,1.3,1.72c-1.19,3.28-3.16,5.8-6.61,6.92-13.17.41-26.35.11-39.52.17a8.72,8.72,0,0,1-6.71-2.53c-4.83-6.39-10.32-12.22-15.69-18.1C22.6,70.06,22.9,71.76,22.12,71.91Z"/><path class="cls-11" d="M14.16,131.87q2-5.49,4-11c4.22,2.65,8.91,2.59,13.68,2.58,3.73,0,7.6-.8,11.2,1a4.07,4.07,0,0,1,1.21,2.43c.21,2.27.23,4.47-2.14,5.79-8.5,1.44-17.07.35-25.61.69A2.38,2.38,0,0,1,14.16,131.87Z"/><path class="cls-12" d="M34,229.81l-1.83-.21c-2.42-5.51-2.83-11,.32-16.36,2.67-1.28,5.5-.9,8.3-.86,1.85,0,3.71-.07,5.33,1.07,2.37,5.48,0,10.39-2.64,14.75C41.46,231.57,37.42,230.41,34,229.81Z"/><path class="cls-13" d="M93.89,60A20.46,20.46,0,0,1,99,51.77c2.81,4.21,6.93,7.65,7.77,13C103.66,70.19,99.91,75,94.65,78.49a3.88,3.88,0,0,1-4-1.58,4,4,0,0,1,1.09-3.14c2.48-3.38,3.6-6.94,1.81-11A2.42,2.42,0,0,1,93.89,60Z"/><path class="cls-14" d="M14.16,131.87H42.08c2,2.76,1.68,5.66.52,8.61a1.52,1.52,0,0,1-1.49.66,13,13,0,0,0-7.53-1.88c-4.45.1-8.91,0-13.36,0-2.83,0-5.62-.1-7.42,2.82-.81,1.32-1.91,1-2.71-.26Q12.13,136.84,14.16,131.87Z"/><path class="cls-15" d="M2.15,156.82c1,2.3,3.11,2,5.08,2,8.86,0,17.72,0,26.58,0,1.66,0,3.83-.73,4.28,2,1.48,2.32,2,4.51-.89,6.19a17,17,0,0,0-8.13-1.78c-7.12,0-14.24.26-21.35-.14-2.55-.07-4.56-3.39-7.49-1.27C.07,161.31-.09,158.73,2.15,156.82Z"/><path class="cls-16" d="M10.09,141.84l1.42.29c1-5.46,5.21-4.23,8.79-4.26,5.63,0,11.27,0,16.91,0,2.19,0,4.1.08,3.87,3a2.44,2.44,0,0,1-.16,3.41c-2.57,1.53-5.42,1-8.18,1.07-6.25.1-12.49,0-18.74.08-1.77,0-3.69.4-4.83-1.58l-.06,0A2.17,2.17,0,0,1,10.09,141.84Z"/><path class="cls-17" d="M34,229.81c10.11.73,9.66-2,12-16a3.31,3.31,0,0,1,2.14-1.21,30.9,30.9,0,0,1,5.85-.13,5,5,0,0,1,3.14,1.06c.15,6.13-.32,12.07-5.26,16.58-3.26.5-6.6-.43-9.83.53C39.4,230.45,36.55,231.66,34,229.81Z"/><path class="cls-18" d="M122.91,149.67c1.68,4.86-.91,6.56-5.13,7.8-7.11,2.06-14.06,4.65-21.1,7-1.51.49-3.05,1.43-4.72.41a3,3,0,0,1-1-1.09c-.69-1.61-1.34-3.24-.23-4.94,4.25.81,8-1.06,11.82-2.32s7.48-2.48,11.22-3.73c6.64-2.22,6.63-2.23,3.52-8.33-.42-.83-.82-1.68-1.23-2.52-.8-2-2.21-3.74-1.9-6a2.23,2.23,0,0,1,.8-1.17Z"/><path class="cls-13" d="M24.08,69c5,6,10.86,11.2,15.11,17.79-.1,2.3-2,2.38-3.48,2.5-3.37.24-6.79.64-10.09-.62-2.72-2.25-.89-5.45-1.68-8.1-.69-1.46.22-3.21-.81-4.62L23,73C22.8,71.5,21.44,69.71,24.08,69Z"/><path class="cls-19" d="M43,124.88c-6,0-12.11-.24-18.14.08-3.45.19-5.48-1.06-6.73-4.07,0-.34,0-.68.05-1,1.94-.67.12-4.79,3.66-4,2.79,1.82,5.95,1.41,9,1.57,4,.21,8.18-.82,12.09,1a4.31,4.31,0,0,1,1.29,3.2A4,4,0,0,1,43,124.88Z"/><path class="cls-20" d="M.23,163.88c1.23-.8.65-2.36,1.44-3.63l4.43,3.61a6,6,0,0,1,2.23,3.6c.27,5.1.73,10.2-.25,15.28C5,186.14,4,181.75,2,181.06c1,4.05.37,8.16.51,12.23a6.06,6.06,0,0,1-.78,3l-.6.53c-1.74-2.39-.85-5.13-.88-7.69C.1,180.73.2,172.31.23,163.88Z"/><path class="cls-21" d="M81.93,7c0-.34,0-.67,0-1a2,2,0,0,1,2,.91c-2.33,2,.66,4.05,0,6.08a2.44,2.44,0,0,1-.33,2.35C75.13,28.31,69.9,43.15,61,55.93c-1,1.43-2.61.88-4,1-.89-3.55,1.75-5.94,3.12-8.61Q70.87,27.57,81.93,7Z"/><path class="cls-22" d="M21,217.84c-7-6.64-14.41-13-20-21l.26,0c3.16-.06,4.22,2.89,6.29,4.4,1.36,1.42,2.75,2.8,4.18,4.16s2.82,2.84,4.29,4.2c1.63,1.6,2.72,1.9,2.83-1,.09-2.56-.22-5.32,2.42-7,2.84.42,4.16,2.31,4.77,4.9a41.82,41.82,0,0,1-.9,8.28C24.85,216.8,24.12,219.05,21,217.84Z"/><path class="cls-23" d="M32.09,73.91c-3.75-2.24-5.32-5.52-5-9.89.11-1.7.68-3.65-.94-5.09-.29-.23-.38-.45-.29-.67s.19-.34.29-.34l4-6h1c1.48.47,2.52,1.24,2,3l0,0c0,5,1.14,9.95.41,15C33.31,71.35,33.32,72.85,32.09,73.91Z"/><path class="cls-24" d="M33.08,213.78c-2,5.17-.55,10.55-.88,15.82-3.56-1.51-4.73-5.24-7.2-7.76a22.44,22.44,0,0,0,1.85-7.55c0-1.59.17-3.34,2.16-3.95,2.19.55,1.68-.88,1.77-2.21.28-4.16-1.24-8.53,1.35-12.44a1.65,1.65,0,0,1,1.51.73C35,202.26,35.68,208.07,33.08,213.78Z"/><path class="cls-25" d="M126.86,179.85c1.14-1.71,2-2.09,2,.51,0,5.16,0,10.32,0,15.48-3.29,5.65-8.49,9.55-12.91,14.18a2.23,2.23,0,0,1-.67-1.26c.25-3.53,3.12-5.34,5-7.77,3-3.35,5.64-6.68,4.43-11.78C124,185.93,127.26,183.24,126.86,179.85Z"/><path class="cls-26" d="M51,9c-1.59-1.29-.74-3.57-2-5,3.65-2.39,7.94-2.86,12-4a8,8,0,0,0,5.88,0A2,2,0,0,1,69,1c-1.74,1.84-4,.69-6,1-2.53,2-4.41,4.71-7,6.61C54.35,9.13,52.75,9.8,51,9Z"/><path class="cls-27" d="M29.26,210.77c-2,1.62-.93,3.88-1.14,5.86-.23,2.27-.17,4.61-3.12,5.21a12.71,12.71,0,0,1-4-4c1.95-.18,3.19-1.22,3-3.21-.28-3,.82-5.88,1.06-8.83a1.06,1.06,0,0,1,1.1-.33,5.94,5.94,0,0,1,2.27,2,9.37,9.37,0,0,1,1,2.17A1.4,1.4,0,0,1,29.26,210.77Z"/><path class="cls-28" d="M94.83,77.89c4.2-4.16,7.39-9.26,12-13.07-.18.93,2.24.74.94,2.16-.78,1.09-.8,2.57-1.77,3.57-3.16,3.86-7,7.09-10,11.12C95,83,94,84.43,92,84l-1-1.09C90.38,79.79,93.17,79.29,94.83,77.89Z"/><path class="cls-29" d="M107.06,74c-.34,12-.43,23.89.87,35.8A2.07,2.07,0,0,1,108,112a1.5,1.5,0,0,1-1.5-.13c-3.15-3.59-.88-8.07-2-12a43.7,43.7,0,0,0-.35-7.75,6.35,6.35,0,0,1,0-1.57,54.39,54.39,0,0,0,.21-10.9c-.39-2.11-1-4.27,1.14-5.88A1.43,1.43,0,0,1,107.06,74Z"/><path class="cls-30" d="M115.85,208.8c0,.41.06.81.08,1.21A114.88,114.88,0,0,1,101,227.06l-.09-1.28c-1.38-1.93.12-3.19,1.22-4.26,2.88-2.78,5.09-6.12,7.86-9,1.54-1.33,2.8-3,4.63-4A1.23,1.23,0,0,1,115.85,208.8Z"/><path class="cls-31" d="M107.86,111.89c0-.71,0-1.42.07-2.13q2.52,9.94,5,19.9a2.3,2.3,0,0,1,.12,2.19c-3.9-.5-2.58-4.22-3.9-6.31-.81-2.43-1.06-5-1.78-7.45C107.89,116.05,105.12,113.77,107.86,111.89Z"/><path class="cls-32" d="M42.09,230.68c3.18-1.8,6.64-.49,9.94-.89,3-2,6.31-1.39,9.55-1.48,2,.22,4.1-.09,6.13.25A3.57,3.57,0,0,1,70,229.79c-4.42,2.11-9.11.56-13.66,1-2.81.24-5.64.11-8.47.14Z"/><path class="cls-33" d="M23.13,75.91c1.44,1.06.84,2.62,1,4,.06,5.79,2.38,11.47.74,17.33a1.55,1.55,0,0,1-1.46.91c-1.19-1-.87-2.13-.31-3.29Z"/><path class="cls-19" d="M23.09,94.85l0,3.05c1.65,1.91,1.36,4.14,1,6.38-.76,2-.51,4.28-1.48,6.25a1.37,1.37,0,0,1-1.4.61.75.75,0,0,1-.17-1.3A63.7,63.7,0,0,1,23.09,94.85Z"/><path class="cls-11" d="M21.1,109.84l0,1c1.26,1.67,1.5,3.33,0,5-1.68.81-.18,3.94-2.91,4C19.16,116.53,19.35,113,21.1,109.84Z"/><path class="cls-34" d="M107.06,74l-1.17,0c-1.24-1.33-1-2.67,0-4A3.14,3.14,0,0,1,107.74,67C107.73,69.33,108.43,71.75,107.06,74Z"/><path class="cls-35" d="M112.86,131.87c0-.74.07-1.47.1-2.21a7.78,7.78,0,0,1,2,5l-.09,1.18c-2.08.21-1.94-1.54-2.43-2.74A1.54,1.54,0,0,1,112.86,131.87Z"/><path class="cls-36" d="M24.08,69c-1.48,1.05-.74,2.68-1,4l-.92-1.09c0-.94,0-1.88,0-2.82,0-.59-.09-1.46.74-1.39C23.3,67.74,23.68,68.52,24.08,69Z"/><path class="cls-37" d="M26.11,57.92v1c-.89.82-.89,3-3,2A6.29,6.29,0,0,1,26.11,57.92Z"/><path class="cls-38" d="M66.93,0a4.48,4.48,0,0,1-5.88,0Z"/><path class="cls-39" d="M39.06,11c1,2.15-1.15,2.14-2,3A3.16,3.16,0,0,1,39.06,11Z"/><path class="cls-40" d="M33.09,195.83c-.3,0-.6,0-.89,0a2.15,2.15,0,0,1-.74-1.38c.21-2.66.16-5.41,2.62-7.26,17.19-6.17,34.48-12.08,51.7-18.19,2.37-.84,5.07-2.42,7.1.8l.08,1a2.64,2.64,0,0,1,.36,3c-2.28,2.08-5.23,2.76-8,3.72q-21.07,7.25-42.06,14.76A16.24,16.24,0,0,0,38,195a7.08,7.08,0,0,1-4.2.94Z"/><path class="cls-41" d="M92.88,169.83c-5.06-1.76-9.15,1.41-13.49,2.89-14.16,4.83-28.22,10-42.34,14.92a11,11,0,0,1-2.95.18c-1.16-1.1-1.09-2.43-.69-3.83a5.44,5.44,0,0,1,1.42-2c5-3.1,10.75-4.34,16.19-6.3q17.34-6.21,34.77-12.21c2.07-.71,4.15-1.38,6.09.34,0,.33.05.66.08,1C92.27,166.5,92.57,168.16,92.88,169.83Z"/><path class="cls-42" d="M93,173.82c0-1,0-2,0-3l32.24-10.45c-.54,3.42-3.18,4.84-3.36,7.46a3.8,3.8,0,0,1-2.31,2c-6.85,1.08-13.2,3.95-19.88,5.65-1.74.44-3.39,1.33-5.28.9A2.36,2.36,0,0,1,93,173.82Z"/><path class="cls-31" d="M119.86,168.84l2-1c1.75,5.24.73,10.66,1,16,.57,2-.91,3.26-1.79,4.74-1.2,1.17-2.42,2.29-4.27,1.28-2.55-4.89-.84-10.12-1.23-15.19C115.64,171.73,117.43,170.05,119.86,168.84Z"/><path class="cls-30" d="M120.83,187.79c-.13-1.72,1.46-2.57,2-3.95a11.3,11.3,0,0,0,4-4,3.38,3.38,0,0,1,.49,4.51c-1.94,2.9-1.42,5.73-.95,8.9.6,4.11-3.65,5.71-5.55,8.55C118.79,197.14,119.54,192.47,120.83,187.79Z"/><path class="cls-43" d="M36.14,59.94C42.47,65.6,49,70.82,57.76,72.35A47.62,47.62,0,0,0,75,71.91c.21,3.72-2.83,4.88-5.22,6.41-4.75,3.06-10.19,4.47-15.5,6.17-1.74.4-3.38-.18-5-.54a17.83,17.83,0,0,1-3.29-1.29A60.76,60.76,0,0,1,39.3,78.8a15.94,15.94,0,0,1-3.37-3c-3.4-3.51-2.52-8-2.6-12.19A3.7,3.7,0,0,1,36.14,59.94Z"/><path class="cls-44" d="M54.06,83.81c4.08-2.87,9.29-2.92,13.53-5.59,2.82-1.78,5.59-3.41,7.38-6.31,6.23-2.38,12-5.51,16.3-10.77A3.17,3.17,0,0,1,93.89,60c3.72,6.47,1.66,11.92-3,16.93-.86,2.92-3.73,3.36-5.84,4.75-1.51.73-3,1.52-4.53,2.19-2.78,1.28-5.88,1.13-8.76,2a18.32,18.32,0,0,1-3.9.41c-1.61.05-3.21,0-4.81,0-1.37,0-2.73,0-4.1,0C57,86.07,54.94,86.16,54.06,83.81Z"/><path class="cls-45" d="M81.93,7a9.09,9.09,0,0,1-1.06,4.72C72.83,26.72,65,41.85,57,57c-1.07,1.4-2.6.86-4,.94,3.38-7.57,7.49-14.77,11.39-22.08C68.8,27.62,72.83,19.24,77,10.92,78,8.8,78.9,6.55,81.93,7Z"/><path class="cls-46" d="M61,55.93c.24-1.12.16-2.44.75-3.33C70.09,39.9,74.93,25.25,84,13c1.62,1.41.76,3.31,1,5a2.47,2.47,0,0,1-.37,2.34c-6.5,10.54-11.2,22-17.59,32.63C65.06,54,63.46,55.83,61,55.93Z"/><path class="cls-47" d="M67,52.92c-.68-3.15,1.48-5.34,2.85-7.65C75.16,36.32,78.42,26.22,85,18c2.53,3-.21,6,0,9-2.91,7.38-7.84,13.71-11,21A11.71,11.71,0,0,1,67,52.92Z"/><path class="cls-48" d="M33.13,55l-2-3c.45-2.39,1.49-4.62.47-7.25-1.2-3.1,1.63-4.24,3.51-5.74,2,1.1,4.26,1.48,6,3-.69,5.19-3.43,9.27-7,12.91C33.78,54.91,33.46,54.94,33.13,55Z"/><path class="cls-49" d="M74,47.94c1.14-8.31,6.45-14.45,11-21C84,35.36,80.84,42.62,74,47.94Z"/><path class="cls-50" d="M36.14,59.94c-3.73,5.55-2.33,10.77,1,15.87a2.4,2.4,0,0,1-1.06,3.1c-2.18-1-3-3-4-5,1.32-6.27-1.49-12.77,1-19C33.86,56.76,36.11,57.67,36.14,59.94Z"/><path class="cls-51" d="M41.07,42c-2.43-.15-5.17.34-6-3-1.76-8.49.93-15.49,7-21.49,1.81-1.8,3.92-1.42,6-1.5,4.05.68,4.44,3.47,3.26,6.52a46.63,46.63,0,0,1-5.24,9.47C44.92,35.54,45.14,39.82,41.07,42Z"/><path class="cls-52" d="M46.07,31.94c.42-2.67,2-4.75,3.31-7,1.77-3.21,2.55-6.49-1.33-8.95-1.25-2.28.5-3.07,2-4,3.76,1.33,5.48-.41,6-4a11,11,0,0,1,7-6c-4.7,9.09-9.36,18.19-14.15,27.23C48.27,30.3,47,31,46.07,31.94Z"/><path class="cls-53" d="M56,8c1.41,2.16,1.13,4.07-1.11,5.37-2,1.16-3.74.78-4.88-1.39.33-1,.67-2,1-3A8.08,8.08,0,0,1,56,8Z"/><path class="cls-32" d="M87.92,213.86c-.66,4.22-1.43,8.43-2,12.67-.29,2.25-1.36,3.25-3.54,3.24l-7.45,0a40.75,40.75,0,0,1,3-16.21c1.49-1.17,3.28-1.1,5-1.19S86.58,212.34,87.92,213.86Z"/><path class="cls-54" d="M77.94,213.87a39.48,39.48,0,0,1-3,15.92H68c.68-5.15,0-10.48,2-15.46a3.69,3.69,0,0,1,1.16-1.1,7.63,7.63,0,0,1,6.24,0Z"/><path class="cls-55" d="M93.9,213.74h-4c-4.24,0-5.76-2.37-5.48-6.31s-.84-8,1.18-11.71a5.5,5.5,0,0,1,6.26-.36c1.44,1.4,1.51,3.27,1.47,5.07C93.25,204.88,93.69,209.31,93.9,213.74Z"/><path class="cls-56" d="M93.9,213.74c-2.1-1.38-2-3.48-2-5.65.08-4.09,0-8.18,0-12.27,1.34-1.36,2.88-1.27,4.49-.6l.59.56-.12,18Z"/><path class="cls-57" d="M85.94,195.82c0,3.81.26,7.64-.08,11.42-.3,3.41.73,5.56,4,6.5l-2,.12-5-.12a4.28,4.28,0,0,1-2.32-4.1c-.06-4.44-.75-8.93.61-13.32a3,3,0,0,1,3.16-1.38A2.92,2.92,0,0,1,85.94,195.82Z"/><path class="cls-58" d="M37.1,166.89c1.72-1.78.69-4,1-6,.32,0,.65,0,1-.06,2.87.7,5.57.06,8.27-.93,11.7-4.28,23.5-8.29,35.25-12.43,2-.71,4-1.78,6.26-1a5.89,5.89,0,0,1,2.2,4.07,18.2,18.2,0,0,1,.23,2.33c-.19,1.74,1,3.6-.38,5.25-11.54,2.37-22.23,7.33-33.34,11-5,1.67-10,3.5-15,5.06-2.36.73-4.93,1.54-6.41-1.61C35.68,170.53,35.47,168.55,37.1,166.89Z"/><path class="cls-59" d="M88.93,146.86C74.18,151.93,59.45,157,44.68,162.05c-2,.68-4.43,2.28-5.62-1.23,0-2,0-4,0-5.95a2.56,2.56,0,0,1,1.36-.63c12.32-2.67,23.75-8,35.7-11.81,3.86-1.23,7.42-3.76,11.81-2.88a4.2,4.2,0,0,1,1.2,2C89.48,143.34,90.45,145.15,88.93,146.86Z"/><path class="cls-60" d="M9.17,143.86H41c1.25,1.32,1.14,2.77.43,4.29a4.31,4.31,0,0,1-2.23,1.71c-8.88,1.1-17.79.56-26.68.33-1.7-.05-4.42-.05-3.41-3.34Z"/><path class="cls-61" d="M9.15,146.85c.47,2.75,2.66,2,4.3,2,8.87.06,17.75,0,26.62,0a4.23,4.23,0,0,1,0,6l-1,.05c-.47-2.77-2.66-2-4.32-2-7.77-.07-15.54,0-23.31-.08-1.68,0-4.14,1-4.88-1.1C5.89,149.75,7.27,147.94,9.15,146.85Z"/><path class="cls-62" d="M110.87,212.8c-2.54,4.93-7.78,7.78-10,13l-2.37,3c-2-9.9-.75-18,7-24.11a12.06,12.06,0,0,0,3.36-4.84,1.74,1.74,0,0,1,1.59-.37C114.89,203.77,112.2,208.31,110.87,212.8Z"/><path class="cls-2" d="M105.9,185.83,97,195.78l-.17.06a8.13,8.13,0,0,1-.81-1.28c-.56-2.46-1-4.95-1.44-7.43-.23-1.77-1-3.5-.51-5.34a3.21,3.21,0,0,1,.76-1.36c4.56-2.41,9.59-3.51,14.42-5.16a3.49,3.49,0,0,1,3.72.55,2.43,2.43,0,0,1,.45,1.4c-.2,1.48-1.19,2.57-1.93,3.79A16.25,16.25,0,0,1,105.9,185.83Z"/><path class="cls-63" d="M105.9,185.83a16.09,16.09,0,0,1,4.94-5.05c2.32,1,2.15,3.09,2.31,5,.21,2.62-.27,5.3.63,7.86a3.86,3.86,0,0,1,.46,1.44c-.45,2.49-2.17,3.82-4.37,4.7h-1c-1.73-3.08-.71-6.45-1-9.68C107.71,188.5,108.65,186.31,105.9,185.83Z"/><path class="cls-9" d="M105.88,69.9c0,1.34,0,2.67,0,4a4.13,4.13,0,0,0,0,5c-1.38,3.91.35,8.07-1,12v1c1,2.54.23,5.2.48,7.79a3.79,3.79,0,0,1-2.27,4,60.2,60.2,0,0,1-13.46,4.69c-2.87.69-3.81-1.24-4-3.68-.21-3.61-.09-7.24-.07-10.86a6.71,6.71,0,0,1,.4-2.51A6.25,6.25,0,0,1,87,90l5-6c3.75-4.06,7.52-8.1,11.25-12.19C104,71,104.56,69.94,105.88,69.9Z"/><path class="cls-64" d="M87,90c0,.3,0,.61-.07.91-2.06,1.86-4.62,1.56-7.07,1.57q-14.35.07-28.72,0c-2.86,0-5.6.24-8,2.08-4.69,1.59-9.52,1.1-14.27.67-4-.37-4.61-1.87-3.77-7.29,4.68-.57,9.55,1.26,14.08-1.14C41.55,89.4,44.44,90.09,48,90,61,89.83,74,90,87,90Z"/><path class="cls-65" d="M84.94,80.9l6-4,3.9,1-3.89,5-4.09,3.93C83.59,85.7,84.84,83.12,84.94,80.9Z"/><path class="cls-66" d="M40.05,78.05l6,3.79a4.52,4.52,0,0,1,0,6c-3.07.3-4.54-1.82-6-4C39.42,82,38.27,80,40.05,78.05Z"/><path class="cls-67" d="M54.06,83.81c1.46,1.23,3.23,1,4.95,1.11a2.12,2.12,0,0,1,0,3h-10c-1.24-1.66-1.53-3.31,0-5Z"/><path class="cls-68" d="M84.94,80.9c2.09,1.51-.06,4.39,1.91,5.94-1.67,2-3.92.74-5.89,1a3.74,3.74,0,0,1,0-5.07A6.24,6.24,0,0,1,84.94,80.9Z"/><path class="cls-69" d="M80.92,82.8c0,1.69,0,3.38,0,5.07H74a6.72,6.72,0,0,1-2.07-3C74.73,83.38,78,83.64,80.92,82.8Z"/><path class="cls-70" d="M40.05,78.05c0,2,0,3.9,0,5.85l-4-5c.35-1,.7-2.07,1.06-3.1Z"/><path class="cls-71" d="M71.91,84.86c2,.11,2.11,1.5,2.07,3H68A2.09,2.09,0,0,1,68,85Z"/><path class="cls-72" d="M49,82.92c0,1.66,0,3.31,0,5h-3l0-6Z"/><path class="cls-14" d="M68,85c0,1,0,2,0,2.93H63A2.1,2.1,0,0,1,63,85Z"/><path class="cls-73" d="M63,85v2.93H59c0-1,0-2,0-3Z"/><path class="cls-74" d="M42.05,140.86l0-9c1.61-1.41.72-3.33,1-5,2.86-2.16,6.36-2.83,9.61-4,9.08-3.19,18.13-6.5,27.26-9.56,2-.67,4-1.82,6.21-.63,1.39,1.84,1.64,4.05,2,6.22a11.16,11.16,0,0,1-.62,5.72c-1.2,1.76-3.09,2.52-5,3.14-12.45,4.12-24.7,8.84-37.18,12.88C44.32,141,43.21,141.46,42.05,140.86Z"/><path class="cls-75" d="M85.94,112.88q-17.84,6.18-35.66,12.36c-2.34.81-4.62,1.89-7.2,1.63,0-.67,0-1.33,0-2l0-3c1-1,.08-2.59,1.1-3.58a12.05,12.05,0,0,1,4.9-2.32c10.45-3.26,20.6-7.36,31-10.66,2-.62,4.25-2.47,6.29.1C86.14,107.91,88.36,110.53,85.94,112.88Z"/><path class="cls-76" d="M33.08,213.78q0-9,0-17.95v0c2.77-.31,5.53-1.86,8.32-.07,1.76,6,2.22,12-.34,18Z"/><path class="cls-77" d="M41.07,213.75q0-9,0-17.93c2-1.73,4.09-1.53,6.21-.24,1.67,6,2.53,12,.78,18.17l-2,.1Z"/><path class="cls-78" d="M42.05,140.86,78,128c3-1,5.91-2.07,8.87-3.1a2.73,2.73,0,0,1,.93,1.24A39.69,39.69,0,0,1,89,133.86a3.57,3.57,0,0,1-.93,2.1,13.74,13.74,0,0,0-9.1.75c-10.34,4-20.95,7.35-31.4,11.12-2.1.76-4.36,1.95-6.54,0,0-1.33,0-2.66,0-4,0-1,0-2,0-3Z"/><path class="cls-66" d="M37.1,166.89l-.05,5.91a2.48,2.48,0,0,1-1.58.58c-7-.24-14.11.06-21.16-.2a10,10,0,0,1-1.62-.2c-3.35-.71-4.29-3.58-5.49-6.22-.37-1-.73-1.93-1.1-2.9q13.35,0,26.69,0C35,163.83,37.32,163.52,37.1,166.89Z"/><path class="cls-79" d="M62,229.79H52c3-4.9,3.2-10.66,5-15.93a3.81,3.81,0,0,1,2.89-1.29,13.06,13.06,0,0,1,5.62.55,2.12,2.12,0,0,1,1,1.2c.35,4-.93,7.88-1.47,11.81C64.83,228,63.46,228.93,62,229.79Z"/><path class="cls-80" d="M60,213.75l-3,.11-3-.11c-4.2-5.77-2.86-11.93-1.28-18.11a5.57,5.57,0,0,1,6.37-.17C61.41,201.46,60.88,207.6,60,213.75Z"/><path class="cls-81" d="M53,195.82c.34,6-.86,12,1,17.93h-6a99.58,99.58,0,0,1-1-17.93A4.21,4.21,0,0,1,53,195.82Z"/><path class="cls-82" d="M36.1,172.86c.32,0,.64,0,.95-.06,1.8,2.08,3.69.62,5.43,0,14.13-4.89,28.22-9.88,42.35-14.79,2-.68,4-1.83,6.06-.18a.64.64,0,0,1,.27.66c-.06.23-.13.34-.2.34.31,1.67.61,3.33.92,5-6-.17-11.1,3-16.53,4.84-13.49,4.5-26.85,9.4-40.26,14.14-1.17-1.09-1.1-2.47-.92-3.88C35,177,34.32,174.53,36.1,172.86Z"/><path class="cls-31" d="M88.93,146.86l-1-5c4.87-2.38,10.2-3.45,15.27-5.28,3.24-1.16,6.46-2.36,9.63-3.7l2,3,2,6c-1.1,1.87-3,2.47-4.88,3.13-5.74,2.06-11.55,3.9-17.34,5.81-1.52.51-3.12,1.3-4.69,0Z"/><path class="cls-35" d="M91,158.85c0-.33,0-.66-.07-1l-.93-5c10.18-.26,19.25-4,27.89-9,5,7.2,5,7.2-3.08,9.89-6.25,2.07-12.54,4-18.72,6.25C93.88,160.79,92.31,160.82,91,158.85Z"/><path class="cls-83" d="M117.85,143.86c-.24,2.53-1.94,3.5-4.15,4.2-6.09,1.94-12.17,3.9-18.16,6.1-2.34.85-4.09.77-5.58-1.3,0-.67,0-1.34,0-2l26.91-9A2.06,2.06,0,0,1,117.85,143.86Z"/><path class="cls-84" d="M44.06,118.88c0,1.09.17,2.27-1,3,0-1,0-2,0-3a5.86,5.86,0,0,1-1.35-4.08c-.15-2-.07-4-.07-6,.09-3.47-1.87-4.52-5-4.45a66.33,66.33,0,0,1-7.85-.1c-4.6-.42-5.32-1.43-4.68-6.35q0-9,0-18c2,2.46.55,5.35,1,8-.77,4.89,1.51,6.43,6.15,6.06,3.91-.31,7.86-.06,11.8-.06,3.17,2.39,2.29,5.91,2.47,9.11a53.14,53.14,0,0,1,0,5.92C45.39,112.3,46.35,115.83,44.06,118.88Z"/><path class="cls-69" d="M43.06,114.88c0,1.33,0,2.67,0,4-5.75,0-11.5,0-17.25,0-2.23,0-4.42,0-4.68-3,0-1.66,0-3.33,0-5h1c2.9,2.3,6.28,2.54,9.84,2.62C35.68,113.57,39.62,112.41,43.06,114.88Z"/><path class="cls-85" d="M7.16,201.81l-5.82-5c-.05-1-.1-2-.16-3,1.41-4.6-.38-9.43,1-14l4.95,4.11a5.3,5.3,0,0,1,3.33,5c-1.82,2.55-.06,5.29-.4,7.93a5.68,5.68,0,0,1-.4,1.27c-.69,1.11-1.27,2.28-2,3.38Z"/><path class="cls-65" d="M10.11,188.82l-3-4.94.06-17.11c2.19,1.17,2.46,4.19,4.9,5.14,2.73,5.51,1.54,11.25,1,17a2.69,2.69,0,0,1-1.19,1.3C10.87,190.26,10.07,190.09,10.11,188.82Z"/><path class="cls-86" d="M2.18,179.77c-.51,4.67,1.08,9.49-1,14,.06-4.64.11-9.28.18-13.92,0-.09.22-.23.35-.25A1.45,1.45,0,0,1,2.18,179.77Z"/><path class="cls-66" d="M26.08,205.88l-1-.08a11.17,11.17,0,0,0-3.94-4.08,3.64,3.64,0,0,1-1.27-2.32c-.21-5.55-.78-11.11.37-16.64,2.47-2.48,3.22.52,4.63,1.45a9.37,9.37,0,0,1,2.42,4.65C27,194.54,28.88,200.38,26.08,205.88Z"/><path class="cls-87" d="M15.14,209.81a10.26,10.26,0,0,1-4-4c1.09-4.52-.23-9.33,1.62-13.77,4-.54,4.32,2.82,5.51,5.27a32.32,32.32,0,0,1,.16,8.45C18.2,207.72,18,209.88,15.14,209.81Z"/><path class="cls-88" d="M15.14,209.81c3.27-1.85,1.66-5,1.95-7.6a49.31,49.31,0,0,0,.06-5.44c2.58-.56,2.92,1.67,3.88,3.13,0,.61.09,1.21.14,1.82a24.54,24.54,0,0,0-1.11,6.78c.07,1.55.9,4-.68,4.54C17.23,213.8,16.28,211.31,15.14,209.81Z"/><path class="cls-89" d="M13.15,191.81c0,3.12,0,6.25,0,9.38,0,1.86.06,3.69-2,4.62a10.34,10.34,0,0,1-4-4h0c1.3-1,.93-2.86,2-4h0c1.85-2.35-.31-5.7,2-7.94l1,0C13,190.21,13.62,190.73,13.15,191.81Z"/><path class="cls-90" d="M32,194.81l.15,1.05c0,4.58-.19,9.16,0,13.74.12,3.56-1.28,2.38-2.89,1.17-.06-.32-.12-.64-.16-1-2-4.59-1.42-9.4-1.2-14.17.05-1.13.29-2.48,1.62-2.76S31.54,193.7,32,194.81Z"/><path class="cls-91" d="M120.83,187.79c.94,4.68-.06,9.35,0,14-1.49,2.46-4.12,4.09-5,7h-1c-2.31-3-1.11-6.48-1.13-9.79,0-1.4,1.09-2.77.15-4.2h0c-.6-.94,0-1.63.46-2.35a8.2,8.2,0,0,1,3.54-2.64Z"/><path class="cls-92" d="M32,194.81c-1.58-1-3.13-2.42-3,1.23.19,4.58.05,9.18.05,13.77A1.85,1.85,0,0,1,28,208c-1.8-4.75-.61-9.67-.86-14.51-.1-1.95.23-3.92-1.05-5.63l-2-3c3-3.58,6.41-3,10-1l0,4C33.41,190.15,32.73,192.48,32,194.81Z"/><path class="cls-93" d="M26.11,187.82a4.28,4.28,0,0,1,2.34,4.42c-.25,5.24-.3,10.48-.43,15.72l-1.94-2.08Z"/><path class="cls-94" d="M85.94,112.88v-8c-2.19-3-1.37-6.34-1.21-9.62.35-1.16.54-2.47,2.21-2.39,0,3.81.09,7.63,0,11.43-.07,2.59.49,3.77,3.38,2.65,3.53-1.37,7.22-2.34,10.74-3.73,1.58-.61,3.66-1,3.86-3.34.33-.44.66-.46,1,0,.64,4-.58,8.1,1,12a5.07,5.07,0,0,1-3.66,3c-5.44,1.29-10.27,5.11-16.29,4Z"/><path class="cls-95" d="M86.93,118.88c6.74-2.1,13.56-3.94,19.95-7h1c-1.52,2,1.57,4,0,6,1.13,2.23.36,4-1.72,4.9a87.14,87.14,0,0,1-15,5A3.43,3.43,0,0,1,87,125.88c0-.34,0-.67-.07-1Z"/><path class="cls-95" d="M104.89,90.89c.5-4-1.07-8.13,1-12C105.38,82.89,107,87,104.89,90.89Z"/><path class="cls-95" d="M105.88,99.89h-1v-8C106.88,94.36,105.45,97.24,105.88,99.89Z"/><path class="cls-96" d="M113.88,194.82c1.38.16,2.21.87,1.7,2.3-1.36,3.84-.43,7.8-.72,11.69a10.27,10.27,0,0,1-4,4c.21-2.74-.45-5.53.6-8.24.75-1.95-.19-3.46-1.6-4.75Z"/><path class="cls-29" d="M112.87,132.87c-.1.85-.33,1.73-1.21,2-7.84,2.54-15.26,6.49-23.69,7l0-2c-1-1.33-1.26-2.66,0-4l0-2c3.82-2.48,8.33-3.13,12.5-4.65a41.14,41.14,0,0,0,9.43-4.34c1.8,2,.9,5.13,3,7C112.86,132.2,112.87,132.53,112.87,132.87Z"/><path class="cls-34" d="M109.88,124.87a3,3,0,0,1-2.15,3c-6.54,2.16-12.79,5.32-19.78,6-.09-2.69-1.51-5.22-1-8a5.74,5.74,0,0,0,5.17.45c4.15-1.55,8.35-3,12.6-4.23,2.34-.66,3.33-1.89,3.14-4.22C109.86,119.83,109.12,122.57,109.88,124.87Z"/><path class="cls-97" d="M62,229.79C65.4,225,64.13,219,66,213.86a3.37,3.37,0,0,1,5,0c-2.29,5.06.61,11.11-3,15.92Z"/><path class="cls-68" d="M24.11,97.89c-.49,4,1.46,5.32,5.21,5,2.62-.2,5.31.23,7.9-.1,4.87-.63,6.63,1.38,5.84,6-5.76,2.86-11.79,1.67-17.69.91-2.45-.32-3.35-2.41-2.26-4.9q0-3.49,0-7Z"/><path class="cls-33" d="M23.11,104.89c-.19,3,1.33,4.07,4.19,4,5.25-.09,10.51,0,15.76,0v6c-5.31,0-10.62.05-15.93,0-2.6,0-5.13-.39-5-4C22.44,108.88,21.31,106.64,23.11,104.89Z"/><path class="cls-98" d="M94.93,180.83c0,.33,0,.66,0,1q-19.1,6.8-38.23,13.49c-6.53-.3-13.08.58-19.58-.5,2.6-4.45,7.63-4.21,11.62-5.71,14.17-5.31,28.5-10.18,42.77-15.2a5.55,5.55,0,0,1,1.48-.08,2.21,2.21,0,0,1,1,2C95.13,177.32,96.25,178.83,94.93,180.83Z"/><path class="cls-99" d="M37.08,194.81H58a13.7,13.7,0,0,1,10.13-.9,5.45,5.45,0,0,1,4.26,5.87c-.21,4.67,1.35,9.55-1.45,13.95l0,.14H66l0-.11c-3.66-2.38-2.38-6.17-2.34-9.38.06-3.92-.51-7.1-4.65-8.55H33.09C34.14,194.35,35.7,195,37.08,194.81Z"/><path class="cls-50" d="M34.07,183.82c-3.32.29-6.78-.76-10,1l-3-3c-3-.94-5.63-2.1-2.93-5.9,4.51-1.16,9.08-.72,13.62-.42,1.72.11,4.33.12,3.31,3.32v4Z"/><path class="cls-100" d="M94.93,180.83l-1-5c6.56-2,13.13-4,19.66-6.1a17.16,17.16,0,0,1,6.26-.89c-.71,1.83-3.09,2.66-3,5-1.13,1.26-1.33,3.75-4,3-1.46-1.91-3-.37-4.41,0C103.9,178,99.68,180.3,94.93,180.83Z"/><path class="cls-101" d="M112.87,176.84l4-3c.55,5.32-1.12,10.78,1,16a6.49,6.49,0,0,1-3,3c-2.37-2.91-1.13-6.36-1.44-9.58-.17-1.81-.37-3.62-.56-5.43C112.86,177.5,112.87,177.17,112.87,176.84Z"/><path class="cls-98" d="M82,195.82c.49,6-1.07,12,1,17.92l-5,.13,0-.12c-3.64-3.24-4.89-13.55-2-17.19C77.66,194.46,79.71,194,82,195.82Z"/><path class="cls-102" d="M82,195.82c-4.64-.68-6.22,1.64-6,6,.2,4.08-.65,8.31,2,12l-7,0c0-4.48-.2-9,.1-13.45A5.08,5.08,0,0,0,68,194.82c2-1.88,4.5-1.34,6.87-1.48,3.22.41,6.58-.64,9.69.94a1.09,1.09,0,0,1,.39,1.53Z"/><path class="cls-98" d="M84.94,195.81v-1a11.34,11.34,0,0,1,12,0c0,.35,0,.69,0,1l-4.91,0h-7Z"/><path class="cls-103" d="M87.91,135.85l0,4c-14.16,4.91-28.29,9.88-42.49,14.66-1.62.54-3.5,2.49-5.4.3,0-2,0-4,0-6l1-1c4.59.11,8.59-2.07,12.76-3.48,9.8-3.32,19.54-6.84,29.24-10.46C85.55,133,86.9,133.66,87.91,135.85Z"/><path class="cls-57" d="M75,194.81H58a4.48,4.48,0,0,1,3-2.45c10.34-3.58,20.69-7.1,31-10.7a3.55,3.55,0,0,1,2.86.16c.33,1.67.66,3.34,1,5C89.24,190.36,81.68,191.47,75,194.81Z"/><path class="cls-104" d="M75,194.81c6-5.18,13.48-6.52,20.9-8,.12,2.69,1.53,5.21,1,8H75Z"/><path class="cls-105" d="M112.86,177.83c2.4.33,2,2.19,2,3.76,0,3.75,0,7.5,0,11.25l-1,2c-2.76-.48-1.83-2.68-2-4.33-.3-3.24.72-6.63-1-9.71A3.09,3.09,0,0,1,112.86,177.83Z"/><path class="cls-106" d="M86.93,92.88a2.17,2.17,0,0,0-1,2,5.11,5.11,0,0,1-3,2.37c-11.09,3.8-22.09,7.86-33.2,11.61-1.83.61-3.75,1.56-5.63,0-.26-5,.67-10.08-1-15-.24-3.45,2.21-3,4.33-3l39.51,0Z"/><path class="cls-107" d="M44.07,108.88C55.31,106.4,65.73,101.45,76.66,98c3.11-1,6.19-2.08,9.28-3.13,0,3.34,0,6.67,0,10l-41.87,14Q44.08,113.87,44.07,108.88Z"/><path class="cls-108" d="M17.1,176.84c1.36,1.65,2,3.86,4,5L21,199.9l-3.88-3.13c-1.34-1.65-2-3.84-4-5l-1-2,0-17.93,1-.06C14.62,173.36,16.57,174.53,17.1,176.84Z"/><path class="cls-109" d="M17.1,176.84c-1.84-1.26-3.66-2.52-4-5,6.11,0,12.23,0,18.35,0,1.59,0,3.36-.54,4.64,1-.31,2,.72,4.23-1,6-.33-2.4-2.19-2-3.77-2C26.58,176.82,21.84,176.83,17.1,176.84Z"/><path class="cls-110" d="M59,195.82c4.63-.79,6.41.9,6.12,5.8-.24,4-1.07,8.22.87,12.13H60C58.15,207.86,59.35,201.79,59,195.82Z"/><path class="cls-86" d="M11.14,189.87c-.09,2.79.61,5.79-2,7.94A16.22,16.22,0,0,0,8.44,193c-.43-1.6-1.07-3.7,1.67-4.22Z"/><path class="cls-86" d="M9.15,197.81c-.19,1.57.69,3.68-2,4C7.06,200.09,7.34,198.57,9.15,197.81Z"/></g></g></svg>