<svg xmlns="http://www.w3.org/2000/svg" xmlns:xlink="http://www.w3.org/1999/xlink" viewBox="0 0 2651 1630"><defs><style>.cls-1{fill:#bdbcbf;}.cls-2{fill:#7d89a0;}.cls-3{fill:url(#linear-gradient);}.cls-4{fill:url(#linear-gradient-2);}.cls-5{fill:url(#linear-gradient-3);}.cls-6{fill:url(#linear-gradient-4);}.cls-7{fill:url(#linear-gradient-5);}.cls-8{fill:url(#linear-gradient-6);}.cls-9{fill:url(#linear-gradient-7);}</style><linearGradient id="linear-gradient" x1="1326" y1="88" x2="1340" y2="88" gradientUnits="userSpaceOnUse"><stop offset="0" stop-color="#293653"/><stop offset="1" stop-color="#66768f"/></linearGradient><linearGradient id="linear-gradient-2" y1="1151" x2="1326" y2="1151" gradientUnits="userSpaceOnUse"><stop offset="0" stop-color="#424f6a"/><stop offset="1" stop-color="#293653"/></linearGradient><linearGradient id="linear-gradient-3" x1="1326" y1="1151" x2="2651" y2="1151" gradientUnits="userSpaceOnUse"><stop offset="0" stop-color="#293653"/><stop offset="1" stop-color="#45526d"/></linearGradient><linearGradient id="linear-gradient-4" x1="1325" y1="384" x2="2651" y2="384" gradientUnits="userSpaceOnUse"><stop offset="0" stop-color="#65748e"/><stop offset="1" stop-color="#43506b"/></linearGradient><linearGradient id="linear-gradient-5" y1="384" x2="1326" y2="384" gradientUnits="userSpaceOnUse"><stop offset="0" stop-color="#414e69"/><stop offset="1" stop-color="#65748e"/></linearGradient><linearGradient id="linear-gradient-6" x1="1324" y1="1199.5" x2="2649" y2="1199.5" gradientUnits="userSpaceOnUse"><stop offset="0" stop-color="#283653"/><stop offset="1" stop-color="#67768f"/></linearGradient><linearGradient id="linear-gradient-7" x1="0" y1="1198.5" x2="1326" y2="1198.5" xlink:href="#linear-gradient"/></defs><g id="Layer_2" data-name="Layer 2"><g id="Layer_1-2" data-name="Layer 1"><polygon class="cls-1" points="1326 33.4 59 766.7 1326 1500 2593 766.7 1326 33.4"/><polygon class="cls-1" points="1326 1316.68 1484.38 1225.56 1642.75 1316.68 1484.38 1408.88 1326 1316.68"/><polygon class="cls-1" points="1009.25 1316.68 1167.63 1225.56 1326 1316.68 1167.63 1408.88 1009.25 1316.68"/><polygon class="cls-1" points="1009.25 1133.35 1167.63 1042.23 1326 1133.35 1167.63 1225.56 1009.25 1133.35"/><polygon class="cls-1" points="1326 1133.35 1484.38 1042.23 1642.75 1133.35 1484.38 1225.56 1326 1133.35"/><polygon class="cls-1" points="1642.75 583.38 1801.13 492.26 1959.5 583.38 1801.13 675.58 1642.75 583.38"/><polygon class="cls-1" points="1642.75 766.7 1801.13 675.58 1959.5 766.7 1801.13 858.91 1642.75 766.7"/><polygon class="cls-1" points="1959.5 766.7 2117.88 675.58 2276.25 766.7 2117.88 858.91 1959.5 766.7"/><polygon class="cls-1" points="2276.25 766.7 2434.63 675.58 2593 766.7 2434.63 858.91 2276.25 766.7"/><polygon class="cls-1" points="1959.5 583.38 2117.88 492.26 2276.25 583.38 2117.88 675.58 1959.5 583.38"/><polygon class="cls-1" points="1326 950.03 1484.38 858.91 1642.75 950.03 1484.38 1042.23 1326 950.03"/><polygon class="cls-1" points="1642.75 950.03 1801.13 858.91 1959.5 950.03 1801.13 1042.23 1642.75 950.03"/><polygon class="cls-1" points="1642.75 1133.35 1801.13 1042.23 1959.5 1133.35 1801.13 1225.56 1642.75 1133.35"/><polygon class="cls-1" points="1959.5 950.03 2117.88 858.91 2276.25 950.03 2117.88 1042.23 1959.5 950.03"/><polygon class="cls-1" points="1009.25 950.03 1167.63 858.91 1326 950.03 1167.63 1042.23 1009.25 950.03"/><polygon class="cls-1" points="1009.25 766.7 1167.63 675.58 1326 766.7 1167.63 858.91 1009.25 766.7"/><polygon class="cls-1" points="1326 766.7 1484.38 675.58 1642.75 766.7 1484.38 858.91 1326 766.7"/><polygon class="cls-1" points="1009.25 583.38 1167.63 492.26 1326 583.38 1167.63 675.58 1009.25 583.38"/><polygon class="cls-1" points="692.5 583.38 850.88 492.26 1009.25 583.38 850.88 675.58 692.5 583.38"/><polygon class="cls-1" points="375.75 583.38 534.13 492.26 692.5 583.38 534.13 675.58 375.75 583.38"/><polygon class="cls-1" points="692.5 766.7 850.88 675.58 1009.25 766.7 850.88 858.91 692.5 766.7"/><polygon class="cls-1" points="692.5 950.03 850.88 858.91 1009.25 950.03 850.88 1042.23 692.5 950.03"/><polygon class="cls-1" points="375.75 950.03 534.13 858.91 692.5 950.03 534.13 1042.23 375.75 950.03"/><polygon class="cls-1" points="692.5 1133.35 850.88 1042.23 1009.25 1133.35 850.88 1225.56 692.5 1133.35"/><polygon class="cls-1" points="375.75 766.7 534.13 675.58 692.5 766.7 534.13 858.91 375.75 766.7"/><polygon class="cls-1" points="59 766.7 217.38 675.58 375.75 766.7 217.38 858.91 59 766.7"/><polygon class="cls-1" points="1326 583.38 1484.38 492.26 1642.75 583.38 1484.38 675.58 1326 583.38"/><polygon class="cls-1" points="1326 400.05 1484.38 308.93 1642.75 400.05 1484.38 492.26 1326 400.05"/><polygon class="cls-1" points="1642.75 400.05 1801.13 308.93 1959.5 400.05 1801.13 492.26 1642.75 400.05"/><polygon class="cls-1" points="1009.25 400.05 1167.63 308.93 1326 400.05 1167.63 492.26 1009.25 400.05"/><polygon class="cls-1" points="692.5 400.05 850.88 308.93 1009.25 400.05 850.88 492.26 692.5 400.05"/><polygon class="cls-1" points="1009.25 216.73 1167.63 125.61 1326 216.73 1167.63 308.93 1009.25 216.73"/><polygon class="cls-1" points="1326 216.73 1484.38 125.61 1642.75 216.73 1484.38 308.93 1326 216.73"/><polygon class="cls-1" points="1326 89 158 765 1326 1441 2494 765 1326 89"/><polygon class="cls-2" points="1326 1272 1472 1188 1618 1272 1472 1357 1326 1272"/><polygon class="cls-2" points="1034 1272 1180 1188 1326 1272 1180 1357 1034 1272"/><polygon class="cls-2" points="1034 1103 1180 1019 1326 1103 1180 1188 1034 1103"/><polygon class="cls-2" points="1326 1103 1472 1019 1618 1103 1472 1188 1326 1103"/><polygon class="cls-2" points="1618 596 1764 512 1910 596 1764 681 1618 596"/><polygon class="cls-2" points="1618 765 1764 681 1910 765 1764 850 1618 765"/><polygon class="cls-2" points="1910 765 2056 681 2202 765 2056 850 1910 765"/><polygon class="cls-2" points="2202 765 2348 681 2494 765 2348 850 2202 765"/><polygon class="cls-2" points="1910 596 2056 512 2202 596 2056 681 1910 596"/><polygon class="cls-2" points="1326 934 1472 850 1618 934 1472 1019 1326 934"/><polygon class="cls-2" points="1618 934 1764 850 1910 934 1764 1019 1618 934"/><polygon class="cls-2" points="1618 1103 1764 1019 1910 1103 1764 1188 1618 1103"/><polygon class="cls-2" points="1910 934 2056 850 2202 934 2056 1019 1910 934"/><polygon class="cls-2" points="1034 934 1180 850 1326 934 1180 1019 1034 934"/><polygon class="cls-2" points="1034 765 1180 681 1326 765 1180 850 1034 765"/><polygon class="cls-2" points="1326 765 1472 681 1618 765 1472 850 1326 765"/><polygon class="cls-2" points="1034 596 1180 512 1326 596 1180 681 1034 596"/><polygon class="cls-2" points="742 596 888 512 1034 596 888 681 742 596"/><polygon class="cls-2" points="450 596 596 512 742 596 596 681 450 596"/><polygon class="cls-2" points="742 765 888 681 1034 765 888 850 742 765"/><polygon class="cls-2" points="742 934 888 850 1034 934 888 1019 742 934"/><polygon class="cls-2" points="450 934 596 850 742 934 596 1019 450 934"/><polygon class="cls-2" points="742 1103 888 1019 1034 1103 888 1188 742 1103"/><polygon class="cls-2" points="450 765 596 681 742 765 596 850 450 765"/><polygon class="cls-2" points="158 765 304 681 450 765 304 850 158 765"/><polygon class="cls-2" points="1326 596 1472 512 1618 596 1472 681 1326 596"/><polygon class="cls-2" points="1326 427 1472 343 1618 427 1472 512 1326 427"/><polygon class="cls-2" points="1618 427 1764 343 1910 427 1764 512 1618 427"/><polygon class="cls-2" points="1034 427 1180 343 1326 427 1180 512 1034 427"/><polygon class="cls-2" points="742 427 888 343 1034 427 888 512 742 427"/><polygon class="cls-2" points="1034 258 1180 174 1326 258 1180 343 1034 258"/><polygon class="cls-2" points="1326 258 1472 174 1618 258 1472 343 1326 258"/><line class="cls-3" x1="1326" y1="88" x2="1340" y2="88"/><polygon class="cls-4" points="1326 1500 59 767 0 768 1326 1535 1326 1500"/><polygon class="cls-5" points="1326 1500 1326 1535 2651 768 2593 767 1326 1500"/><polygon class="cls-6" points="2651 768 2593 767 1326 33 1325 0 2651 768"/><polygon class="cls-7" points="1326 33 1325 0 0 768 59 767 1326 33"/><polyline class="cls-8" points="1324 1536 1324 1630 2649 863 2649 769 1324 1536"/><polygon class="cls-9" points="0 862 0 768 1326 1535 1326 1629 0 862"/></g></g></svg>