<svg xmlns="http://www.w3.org/2000/svg" viewBox="0 0 2623 3307"><defs><style>.cls-1{fill:#4b4d5a;}.cls-2,.cls-29{fill:#4d4e5b;}.cls-3{fill:#5c5d6f;}.cls-4{fill:#505261;}.cls-5{fill:#535562;}.cls-6{fill:#58a848;}.cls-7{fill:#8890a3;}.cls-8{fill:#76768a;}.cls-9{fill:#349625;}.cls-10{fill:#b6bbc9;}.cls-11{fill:#b6bac8;}.cls-12,.cls-30{fill:#b9becb;}.cls-13{fill:#8890a1;}.cls-14{fill:#bbbfcc;}.cls-15{fill:#8b92a4;}.cls-16{fill:#696e7c;}.cls-17{fill:#969ab5;}.cls-18{fill:#777a89;}.cls-19{fill:#757886;}.cls-20{fill:#b3b1d6;}.cls-21{fill:#979ab5;}.cls-22{fill:#68697e;}.cls-23{fill:#539421;}.cls-24{fill:#53a852;}.cls-25{fill:#2c9930;}.cls-26{fill:#b5b3d7;}.cls-27{fill:#979ab6;}.cls-28{fill:#616375;}.cls-29{stroke:#76768a;stroke-miterlimit:10;stroke-width:8px;}.cls-30{font-size:226.77px;font-family:Roboto-Black, Roboto;font-weight:800;}.cls-31{letter-spacing:-0.01em;}.cls-32{letter-spacing:-0.02em;}</style></defs><g id="Layer_2" data-name="Layer 2"><g id="Layer_1-2" data-name="Layer 1"><path class="cls-1" d="M2318.06,985.45c6-27.12,15.59-68.77,29.47-119.38,18.77-68.46,27.69-89.17,36.08-131.91,7.58-38.58,17.19-87.57,10.93-142-7.67-66.69-40.42-118.2-105.61-218.51-22.95-35.3-54.78-81.59-96-134l29.27-11.25c24.92,59.79,69.3,109.36,106.86,162.5,45,63.68,86,128.9,90.62,209.12,2.34,40.58-4.24,75.81-20.35,146.5-22.49,98.65-51.59,145.62-48.47,187.92.49,6.68,3.24,32.93-10.93,58.27a84,84,0,0,1-7.28,10.92c-3.91,4.05-6.5,3.79-7.29,3.65C2320.79,1006.44,2317.26,997.83,2318.06,985.45Z"/><path class="cls-1" d="M2261.71,1833.92c-14.27-23.82-36.66-60.23-65.91-103.8-39.57-58.94-54.62-75.73-76.17-113.58-19.45-34.17-44.15-77.56-55.53-131.18-13.94-65.66.73-124.92,30.63-240.75,10.52-40.76,26-94.77,48.42-157.54l-31.33-1.36c-4.61,64.61-30.92,125.73-49.63,188-22.42,74.7-40.52,149.56-19.39,227.09,10.68,39.22,28.13,70.52,65.89,132.41,52.69,86.38,95.23,121.65,105.73,162.75,1.65,6.48,7.4,32.25,28.89,51.77a84.22,84.22,0,0,0,10.38,8c5,2.58,7.37,1.52,8.06,1.13C2265.8,1854.69,2266.41,1845.41,2261.71,1833.92Z"/><path class="cls-2" d="M2445.35,2600.59c6.09-3.53,10.86-7.85,9.54-15.84-2.29-12.76-10.22-22.87-16.12-33.9-24.54-45.87-33.15-93.73-18.94-144.65a34.26,34.26,0,0,0,1.34-12.52,7.57,7.57,0,0,0-2.81-5l-13.75-2.85c-25.17,61.07-15.08,119.34,14.82,175.6C2426.74,2575.2,2436.64,2587.58,2445.35,2600.59Z"/><path class="cls-3" d="M2470.05,1825.76c-5.13,6.25-4.24,13.18-3,20.53q38.14,227.49,75.86,455.07c1.34,8.1,5.4,14.57,8.48,21.69-2.28,6.2-7.49,8.43-13.31,9.87-31.1,2.58-61.21,12.28-92.58,13.17a11.7,11.7,0,0,1-4.79-3.27c-10.22-38.07-15.31-77.13-21.59-115.94-19-117.25-39.88-234.17-58.22-351.52-.65-4.19-1.45-8.37-1.28-12.63,9-14.37,26.62-20.13,37.49-12.23,18.2,13.23,18.68,13.18,35-3.11a23.09,23.09,0,0,0,4.45-5.64c.74-3.09-.13-5.82-1.49-8.57-8-16.09-1.31-41.33,13.39-50.91,2.75-1.8,5.64-1.4,8.4.22,6.31,7.8,6.11,17.89,9.45,26.73C2467.26,1814.79,2468.69,1820.27,2470.05,1825.76Z"/><path class="cls-4" d="M2362.37,1859.7c9.89,58.12,19.89,116.22,29.62,174.36,12.44,74.24,25,148.45,36.8,222.8,4.51,28.49,12.74,56.43,13.36,85.53-14.29,13.13-31.72,9.83-48.62,9.28-11.18.61-11.75-7.34-13.1-15.45q-29.34-177-58.91-353.86c-5.14-30.94-9.64-62-14.43-93,3.63-9.15,11.72-6.92,18.22-6.11,11.4,1.42,17.83-1.81,20.27-13.82C2347.24,1861.28,2350.52,1852.06,2362.37,1859.7Z"/><path class="cls-3" d="M2562.53,2619.29q-2.46,67.11-4.94,134.22c-17.91,4.23-35.91,1-53.79,0-11.44-.61-14.6-10.7-14.38-19.92.71-30.69-.37-61.51,4.9-92,2.16-3.5,5.74-4.34,9.38-4.31,18.15.12,34.32-5.43,48.88-16.18C2555.39,2619.07,2558.68,2617,2562.53,2619.29Z"/><path class="cls-5" d="M2497.08,2639.88c-1.2,28.74-2.29,57.48-3.64,86.2-.88,18.75,2.89,23.16,21.32,23.53,14.38.29,28.92-1.44,42.83,3.9l.91-.11c0,5.44-1,10.59-4.39,15-3.34,2.93-7,5.13-11.65,5.18-6.16-2-12.91-2.43-18.43-6.38l-37-1.76c-5.76,1.28-11.09,4.66-17.34,3.65-3.46-.12-6.94.07-10.36-.65-5-1.11-7.34-4.5-8.15-9.27q2.46-53.6,4.9-107.19c.12-13.7,2.44-25.37,20.65-22.43C2484.15,2631.71,2492.57,2631.94,2497.08,2639.88Z"/><path class="cls-6" d="M2563.86,2541.27c10.06,19.27,20.72,38.36,15.23,61.53-3.09,13.08-7.13,25.54-18.63,34-13.58,4.18-25.32,12.83-40.56,13.31-41.62,1.32-83.45-33.31-70.09-85.9,7.66-32.47,44.35-53.84,78.38-45.51,5.84,1.43,11.57,3.32,17.33,5a20.45,20.45,0,0,1,4.91,2.27A72.23,72.23,0,0,1,2563.86,2541.27Z"/><path class="cls-7" d="M2393.53,2351.67l48.62-9.28,3.73,1.16c7.48,28.55,11.19,57.8,15.37,86.91,2.38,16.56,9.27,32.6,6.54,49.82-7.39,10.12-20.06,8.09-29.77,12.89-16.13-3.09-18.2-15.62-20.25-28.9-4.94-32.12-10.35-64.18-15.92-96.2C2400.79,2362,2402,2354.2,2393.53,2351.67Z"/><path class="cls-8" d="M2438,2493.17c4.72-14.25,18.91-6.64,27.52-11.9,24-10.27,48.69-15.73,74.89-10.55,8.78,18.22,13.77,37,8.17,57.29-14.77.39-27.67-9.29-43.63-5.64-24.88,5.69-44.47,16.25-53.34,41.57-.92,1.14-1.73,1.45-2.43.94s-1-1-1-1.39c.28-2.31.86-9.35-1.59-11.51a2.72,2.72,0,0,0-1.12-.58,42,42,0,0,1-3.47-11c-1.32-7.75,1.36-13.78.46-16.8C2439.62,2513.87,2439.42,2503.34,2438,2493.17Z"/><path class="cls-2" d="M2563.86,2541.27c-6.76-1.95-12.44-5-13.09-13.07-.87-12.93,4.38-24.66,7.43-36.79,12.7-50.44,9.47-99-16.65-144.93a34.46,34.46,0,0,1-4.33-11.82,7.55,7.55,0,0,1,1.52-5.51l12.65-6.1c39.21,53.16,43.53,112.14,28.14,174C2575.77,2512.13,2569.16,2526.54,2563.86,2541.27Z"/><path class="cls-9" d="M2448.23,2563.49c1.13.18,2.26.33,3.4.45-6.52,29,2.75,52.42,26.59,69.26,22.56,16,46.77,16.13,71.32,3.59,3.23-1.65,7.31-5.44,10.92,0-25.8,27.07-55.4,23.35-86.11,10.62-17.34-17.14-32-35.56-29.08-62.15Q2446.74,2574.36,2448.23,2563.49Z"/><path class="cls-10" d="M2468.79,2764.48l18.21,1c-9,13.45-17.7,27.11-27.1,40.27-8.14,11.39-3.09,23.1-2.09,34.77.77,8.92,1.61,17.83,2.43,26.75-9.5,5.72-13.87.3-17-7.81C2431.17,2814.67,2438.6,2787.15,2468.79,2764.48Z"/><path class="cls-11" d="M2550.62,2766.78c8-1.29,4.83-9.17,7.88-13.38-1.41,21.93,10.4,40,18,59.13,3.43,8.64,3.76,16.1.42,24.25q-9.9,24.15-19.81,48.29c-14.77-1.43-7.63-11.62-7.61-19,2.22-8.69,4.24-17.49,7-26,4.06-12.59,2.81-24.07-2-36.58C2550.16,2792.13,2539.71,2780.2,2550.62,2766.78Z"/><path class="cls-12" d="M2524,2767.23c6.53-.69,13.44-3,18,4.36,10.13,15.27,17.24,33,19.32,50,2.24,18.38-7.1,36.92-16.34,53.8-4.41,1.08-8.09.13-10.67-3.86C2552.06,2834.69,2543.26,2800.44,2524,2767.23Z"/><path class="cls-13" d="M2534.36,2871.56l10.29,2.38c5.87.2,1-12.08,9.84-8.45.56,6.57-8.22,14.39,2.62,19.58l-19,55.71-4.13.19-9.3-34c1.1-12.38,3.59-24.38,9.64-35.41Z"/><path class="cls-14" d="M2451.15,2759.2l8.52,6.86c.32,9.75-5.54,17.37-10.79,24.1-10.86,13.92-13.75,27.85-9.43,45.17a231.61,231.61,0,0,1,5.72,33.52c-1,6.13-2.11,12.16-8.53,15.21-4.43-21.83-8.73-43.69-13.38-65.48-1.53-7.17,1-12.65,4.62-18.6C2436.06,2786.65,2443.45,2772.83,2451.15,2759.2Z"/><path class="cls-15" d="M2436.64,2884.06q2.61-9,5.21-17.95c2.48-1.42,2-5.39,5.29-6.1,2.25,6.23,7.29,7.44,13.1,7.25l3.72,27.57c-3.57,11.57-12.84,21.07-12.37,34.11-4.67,11-6,2.7-6.85-1.45C2441.78,2913.07,2439.3,2898.55,2436.64,2884.06Z"/><path class="cls-16" d="M2451.59,2928.94c-5-14.69,5.77-23.64,12.37-34.11C2464.68,2908,2456.2,2917.75,2451.59,2928.94Z"/><path class="cls-12" d="M2534.36,2871.56q-4.82,17.7-9.64,35.41C2522.89,2893.79,2526.46,2882.09,2534.36,2871.56Z"/><path class="cls-17" d="M2538.74,2329.15a24.76,24.76,0,0,1,.22,3.34c.9,31,9,61,13.27,91.48,1.44,10.19,3.42,20.31,4.61,30.54,1.51,12.87-2.67,20.29-17.14,17.75-25.21-1-49.23,7.73-74.16,9-6.58-39.4-13-78.82-19.91-118.16-1.19-6.73-.59-13.06.25-19.57C2476.77,2338.33,2507.28,2330.68,2538.74,2329.15Z"/><path class="cls-18" d="M2447.14,2860c-.89,2.79-1.88,5.49-5.29,6.1-2.65-14.79-4.9-29.66-8.09-44.32-2-9.26,1.51-16.2,6.27-23.47,6.89-10.53,13.12-21.49,19.64-32.26l9.12-1.58a55.14,55.14,0,0,1-3.89,6C2442.39,2797.05,2435.5,2826.68,2447.14,2860Z"/><path class="cls-19" d="M2554.49,2865.49c-5.87.63-2.86,9.35-8.9,9.75-.28,0-.63-.85-.94-1.3,4.37-12.45,6.09-25.77,12.76-37.5,3.8-6.68,2.92-13.34,0-20.68-5.81-14.44-10.3-29.41-15.33-44.17l8.57-4.81c-4.48,9,.49,17.31,4.42,24C2570,2816.14,2563.69,2840.67,2554.49,2865.49Z"/><path class="cls-20" d="M2507.77,2633.65c-25.46-3-43-24.19-40.34-48.61,2.82-25.47,25.35-44.15,50.22-41.63,24.41,2.47,43,26.3,40.16,51.54C2555.12,2619.07,2532.48,2636.57,2507.77,2633.65Z"/><path class="cls-21" d="M2497.21,2613.37c-9.63-6.32-12.89-15.49-11.69-26.52,1.78-16.33,15-27.16,31.31-25.74,13.23,1.16,23.79,14.63,23.13,29.5-.75,17.14-10.64,25.77-28.6,24.82-3.61-.19-7.2-.84-10.8-1.28,2-17.05,16.29-28.91,19.68-45.38.32-2.48-2.8.21-.39-.06.72-.08.85.52.31,1.76A343.58,343.58,0,0,1,2497.21,2613.37Z"/><path class="cls-22" d="M2497.21,2613.37c3.68-17.89,14.28-31.88,25.21-45.73-3.21,17.53-13.27,31.66-21.86,46.51A11.43,11.43,0,0,1,2497.21,2613.37Z"/><path class="cls-3" d="M2371,996c-7.86,9.57-6.49,20.19-4.6,31.44q58.44,348.48,116.21,697.06c2,12.41,8.27,22.32,13,33.23-3.49,9.49-11.48,12.91-20.38,15.11-47.64,4-93.76,18.81-141.81,20.17a18,18,0,0,1-7.34-5c-15.65-58.33-23.45-118.16-33.07-177.61-29.08-179.59-61.09-358.69-89.17-538.44-1-6.41-2.23-12.82-2-19.33,13.74-22,40.78-30.84,57.43-18.74,27.88,20.26,28.62,20.19,53.61-4.77a34.88,34.88,0,0,0,6.82-8.64c1.13-4.72-.2-8.91-2.28-13.12-12.17-24.64-2-63.31,20.51-78,4.21-2.75,8.63-2.13,12.87.34,9.66,12,9.35,27.4,14.47,41C2366.75,979.23,2368.94,987.62,2371,996Z"/><path class="cls-4" d="M2206.09,1048c15.13,89,30.45,178,45.37,267.08,19.05,113.71,38.34,227.39,56.36,341.26,6.91,43.65,19.52,86.44,20.47,131-21.89,20.11-48.58,15-74.47,14.22-17.14.92-18-11.25-20.07-23.68q-44.94-271-90.25-542c-7.86-47.4-14.75-95-22.09-142.44,5.56-14,18-10.6,27.9-9.36,17.47,2.17,27.31-2.77,31.06-21.18C2182.91,1050.44,2187.92,1036.32,2206.09,1048Z"/><path class="cls-3" d="M2225.34,173c-7.85,9.56-6.48,20.18-4.59,31.43Q2279.17,552.91,2337,901.49c2.05,12.41,8.27,22.32,13,33.23-3.49,9.5-11.48,12.91-20.38,15.11-47.64,3.95-93.76,18.81-141.81,20.17a17.75,17.75,0,0,1-7.34-5c-15.65-58.33-23.45-118.16-33.07-177.61-29.08-179.58-61.09-358.69-89.18-538.44-1-6.41-2.22-12.81-2-19.33,13.74-22,40.78-30.84,57.43-18.74,27.88,20.26,28.62,20.19,53.61-4.76a35.11,35.11,0,0,0,6.82-8.65c1.13-4.72-.2-8.91-2.28-13.12-12.17-24.64-2-63.31,20.51-78,4.21-2.74,8.63-2.13,12.87.34,9.66,12,9.35,27.41,14.47,41C2221.08,156.19,2223.27,164.58,2225.34,173Z"/><path class="cls-4" d="M2060.41,225c15.14,89,30.46,178,45.38,267.08,19.05,113.71,38.34,227.39,56.36,341.26,6.91,43.66,19.52,86.44,20.47,131-21.89,20.12-48.59,15-74.47,14.22-17.14.92-18-11.25-20.07-23.68q-44.94-271-90.25-542c-7.86-47.4-14.75-94.95-22.09-142.44,5.56-14,18-10.6,27.9-9.36,17.47,2.18,27.31-2.77,31.06-21.17C2037.24,227.41,2042.25,213.28,2060.41,225Z"/><path class="cls-23" d="M2395.15,1954.39c-10.72-2.17-12.6,4.91-12.46,12.77.3,15.95-7.44,19.45-21.75,16.32-6.73-1.47-14.22-4.41-21.07.58l-9.27-8.68c3.24-29.32,2-31.13-24.8-43.2-5.53-2.49-9.37-1.61-12.92,2.1-11.56,12.07-21.06,11.23-29.86-3.36-1.87-3.11-6.93-4.3-10.52-6.38-2.57-4.1-6.85-7-8.41-11.84-1.23-6,1-11.32,5.73-14.36,13.27-8.62,11.77-19.56,6.12-31.55-1.67-7.8-5.78-13-14.12-14.58-5.9-1.11-12.12-2.15-15.09-8.64-1.72-4.42-1.13-8.84-.11-13.28,1.62-3.14,4.59-6.27,4.62-9.43.18-17.76,4.72-26.61,26.28-23.57,15.22,2.14,13.65-18.3,21.6-27.2,6.68-7.47.17-12.89-5.27-17.77-7.48-2.81-11.65-9.21-6.89-15.23,9-11.33,18.2-23.94,35.73-22.26,5.58,6.83,1.11,13.82,0,20.58a163.16,163.16,0,0,0-1.8,37.58c-.08,9.45-4.66,17.39-8.44,25.65-15.38,33.65-14,66.21,8.8,96,22.66,29.65,53.39,40.56,90,34.3,10.82-1.85,21.51-3.6,32.5-1.76,17,3.25,35.51-.64,50.49,11.34-4.92,5.19-9.34,11-14.86,15.42-9.73,7.79-18.79,13.68-29-1.56C2419.06,1935.5,2406.89,1951.59,2395.15,1954.39Z"/><path class="cls-24" d="M2519,1866.29a30.91,30.91,0,0,1-8.62,17.86c-7.5.24-15.05.69-20.73-5.69-19.77,8.24-27.69,31.52-16.58,48.35,2.35,3.56,7.86,7.14,1.17,11.73l-54.26-6.68c-4.09-12.18,6.91-15.5,13-21,38.39-34.75,44-87,13.26-127.71-26-34.47-78.08-45.25-116.51-25.18-10.82,5.65-18.9,17.71-33.37,15.67-3-16.74-.63-33.12,3.81-49.23,1-3.66,2.48-6.64-1-9.5,6.56-9.09,11.14-1.6,15.69,2.17,17.79,14.74,36.66,9.65,44.12-12.88,3.23-9.77,8.62-14,18.6-13.08,7.25.64,14.44,1.78,21.68,2.45,12.66,1.15,19.38,6.25,19.56,20.58.24,18.91,21.16,31,37.19,21.51,13.1-7.77,21.37-4.19,29.22,6.63,3.21,4.41,6.51,8.77,10.08,12.88,9.12,10.49,9.43,19.24-1.75,29.43-11.87,10.82-6.46,32.94,8.11,38.65,22.71,8.9,22.67,8.89,17.58,32.34C2518.54,1859.05,2517.71,1862.68,2519,1866.29Z"/><path class="cls-25" d="M2296.43,1773.6c17.28-9.38,31.85-22.89,52.15-27.75,45-10.78,94.34,10.51,114.14,54.56,18.12,40.28,6.24,87.28-31.6,117.91-4.6,3.73-10.44,6.54-11.1,13.54-13.51-4.73-26.17,2.36-39.25,3.37-38.43,3-67.22-12.62-87.83-43.28-21.07-31.35-20.36-64.89-3.73-98.15C2292.49,1787.24,2296.21,1781.13,2296.43,1773.6Z"/><path class="cls-26" d="M2449.05,1850c-5.47,43.2-43.22,72.6-86.16,67.08-42.18-5.41-71.6-44.13-66.2-87.12,5.36-42.66,43.58-72.34,86.54-67.21C2425.3,1767.76,2454.55,1806.53,2449.05,1850Z"/><path class="cls-17" d="M2344.4,1801.77c27.35-15.17,51.47-10,68.77,14.67,13.67,19.51,9.19,43-11.84,62C2381.84,1853.29,2359.26,1830.39,2344.4,1801.77Z"/><path class="cls-27" d="M2396.8,1881.28c-25.64,12.89-43.41,9.37-60-11.88-16.83-21.54-15.7-42.29,3.53-64.64C2359.27,1830.17,2382.15,1852.69,2396.8,1881.28Z"/><path class="cls-28" d="M2396.8,1881.28c-20.09-24.58-43.37-46.8-56.48-76.52l4.08-3c20.63,24.35,43.79,46.82,56.93,76.73Z"/><path class="cls-23" d="M2269.15,1167.53c-13.13-2.65-15.44,6-15.26,15.64.37,19.53-9.11,23.83-26.64,20-8.24-1.81-17.41-5.4-25.81.71l-11.34-10.63c4-35.91,2.38-38.13-30.39-52.91-6.76-3-11.47-2-15.82,2.57-14.16,14.79-25.79,13.75-36.56-4.11-2.3-3.81-8.49-5.28-12.89-7.82-3.15-5-8.4-8.57-10.3-14.5-1.51-7.4,1.28-13.87,7-17.59,16.26-10.56,14.42-24,7.5-38.64-2.05-9.56-7.08-16-17.29-17.86-7.23-1.35-14.85-2.63-18.49-10.58-2.1-5.41-1.38-10.83-.13-16.26,2-3.85,5.62-7.69,5.66-11.56.21-21.75,5.77-32.58,32.18-28.87,18.64,2.63,16.72-22.41,26.46-33.3,8.19-9.15.21-15.8-6.46-21.77-9.15-3.44-14.26-11.29-8.43-18.66,11-13.87,22.29-29.32,43.75-27.26,6.84,8.37,1.37,16.92,0,25.21a200.51,200.51,0,0,0-2.21,46c-.09,11.57-5.71,21.29-10.33,31.41-18.84,41.21-17.14,81.1,10.77,117.6,27.76,36.32,65.39,49.68,110.29,42,13.25-2.26,26.34-4.41,39.79-2.15,20.78,4,43.51-.79,61.85,13.89-6,6.35-11.44,13.47-18.21,18.89-11.91,9.53-23,16.74-35.53-1.92C2298.44,1144.4,2283.53,1164.1,2269.15,1167.53Z"/><path class="cls-24" d="M2420.89,1059.63a37.88,37.88,0,0,1-10.56,21.87c-9.18.3-18.43.84-25.39-7-24.21,10.1-33.91,38.6-20.31,59.22,2.88,4.36,9.64,8.74,1.43,14.37l-66.45-8.19c-5-14.91,8.47-19,16-25.76,47-42.56,53.89-106.58,16.24-156.43-31.87-42.21-95.62-55.41-142.7-30.84-13.25,6.93-23.14,21.7-40.87,19.2-3.71-20.5-.77-40.56,4.67-60.29,1.23-4.49,3-8.14-1.25-11.64,8-11.13,13.65-2,19.22,2.65,21.79,18.06,44.9,11.83,54-15.77,4-12,10.56-17.1,22.78-16,8.88.78,17.69,2.19,26.55,3,15.51,1.42,23.75,7.66,24,25.21.29,23.15,25.91,38,45.55,26.35,16-9.52,26.16-5.13,35.79,8.11,3.92,5.4,8,10.75,12.34,15.78,11.16,12.85,11.54,23.57-2.15,36-14.53,13.25-7.91,40.34,9.94,47.33,27.82,10.91,27.76,10.9,21.53,39.61C2420.28,1050.76,2419.26,1055.21,2420.89,1059.63Z"/><path class="cls-25" d="M2148.24,946.1c21.16-11.49,39-28,63.87-34,55.14-13.2,115.55,12.87,139.81,66.82,22.18,49.35,7.64,106.9-38.71,144.43-5.64,4.56-12.79,8-13.6,16.58-16.55-5.8-32.05,2.89-48.07,4.12-47.07,3.62-82.33-15.46-107.57-53-25.82-38.4-24.94-79.48-4.57-120.22C2143.42,962.8,2148,955.32,2148.24,946.1Z"/><path class="cls-26" d="M2335.16,1039.64c-6.69,52.92-52.92,88.92-105.52,82.17-51.66-6.63-87.69-54-81.08-106.71,6.56-52.25,53.37-88.6,106-82.31C2306.07,939,2341.9,986.44,2335.16,1039.64Z"/><path class="cls-17" d="M2207,980.6c33.5-18.58,63-12.28,84.23,18,16.73,23.89,11.25,52.64-14.51,76C2252.85,1043.71,2225.2,1015.66,2207,980.6Z"/><path class="cls-27" d="M2271.17,1078c-31.41,15.78-53.16,11.47-73.49-14.56-20.62-26.38-19.23-51.79,4.32-79.16C2225.21,1015.39,2253.23,1043,2271.17,1078Z"/><path class="cls-28" d="M2271.17,1078c-24.6-30.1-53.11-57.32-69.17-93.72l5-3.67c25.27,29.82,53.63,57.34,69.72,94Z"/><path class="cls-23" d="M2105.27,322.64c-13.13-2.65-15.44,6-15.25,15.64.36,19.53-9.12,23.83-26.65,20-8.24-1.81-17.41-5.4-25.81.72l-11.34-10.64c4-35.91,2.38-38.13-30.39-52.91-6.76-3.05-11.47-2-15.82,2.57-14.16,14.79-25.79,13.75-36.56-4.11-2.3-3.81-8.49-5.28-12.89-7.82-3.15-5-8.4-8.57-10.3-14.5-1.5-7.4,1.28-13.87,7-17.59,16.25-10.56,14.41-24,7.49-38.64-2-9.56-7.08-15.95-17.29-17.86-7.23-1.35-14.85-2.63-18.49-10.58-2.1-5.41-1.38-10.83-.13-16.26,2-3.85,5.62-7.68,5.66-11.55.21-21.76,5.77-32.59,32.18-28.87,18.64,2.62,16.72-22.42,26.47-33.31,8.18-9.15.2-15.8-6.47-21.77-9.15-3.44-14.26-11.29-8.43-18.66,11-13.86,22.29-29.32,43.75-27.26,6.84,8.37,1.37,16.93,0,25.21a200.51,200.51,0,0,0-2.21,46c-.09,11.57-5.71,21.29-10.33,31.41-18.84,41.22-17.13,81.1,10.77,117.6,27.76,36.32,65.39,49.68,110.29,42,13.25-2.26,26.34-4.4,39.8-2.15,20.77,4,43.5-.79,61.84,13.89-6,6.35-11.44,13.47-18.21,18.89-11.91,9.53-23,16.75-35.53-1.91C2134.56,299.51,2119.65,319.21,2105.27,322.64Z"/><path class="cls-24" d="M2257,214.74a37.88,37.88,0,0,1-10.56,21.87c-9.18.3-18.43.84-25.39-7-24.21,10.1-33.91,38.6-20.31,59.22,2.88,4.36,9.64,8.74,1.43,14.37l-66.45-8.18c-5-14.92,8.47-19,16-25.77,47-42.56,53.89-106.57,16.25-156.43-31.88-42.21-95.63-55.41-142.71-30.83-13.25,6.92-23.14,21.7-40.87,19.19-3.71-20.5-.77-40.56,4.67-60.29,1.23-4.49,3-8.14-1.25-11.64,8-11.13,13.65-2,19.22,2.66,21.79,18.06,44.9,11.82,54-15.78,3.95-12,10.56-17.1,22.78-16,8.88.79,17.69,2.19,26.55,3,15.52,1.42,23.75,7.66,24,25.22.29,23.15,25.92,38,45.55,26.34,16-9.52,26.17-5.13,35.79,8.11,3.92,5.4,8,10.75,12.34,15.78,11.16,12.85,11.54,23.57-2.15,36.05C2211.33,127.89,2218,155,2235.8,162c27.82,10.91,27.76,10.9,21.53,39.61C2256.4,205.87,2255.38,210.32,2257,214.74Z"/><path class="cls-25" d="M1984.36,101.21c21.16-11.49,39-28,63.87-34C2103.37,54,2163.78,80.09,2188,134c22.18,49.35,7.64,106.91-38.71,144.43-5.64,4.56-12.79,8-13.6,16.58-16.55-5.8-32.05,2.89-48.07,4.12-47.07,3.62-82.33-15.46-107.57-53-25.81-38.4-24.94-79.48-4.57-120.21C1979.54,117.91,1984.09,110.43,1984.36,101.21Z"/><path class="cls-26" d="M2171.29,194.76c-6.7,52.92-52.93,88.92-105.52,82.17-51.67-6.64-87.7-54.06-81.09-106.72,6.56-52.24,53.37-88.6,106-82.31C2142.19,94.06,2178,141.55,2171.29,194.76Z"/><path class="cls-17" d="M2043.12,135.71c33.5-18.58,63-12.27,84.23,18,16.74,23.89,11.25,52.64-14.5,76C2089,198.82,2061.32,170.77,2043.12,135.71Z"/><path class="cls-27" d="M2107.29,233.1c-31.4,15.78-53.16,11.48-73.49-14.55-20.61-26.39-19.23-51.79,4.32-79.17C2061.33,170.5,2089.35,198.09,2107.29,233.1Z"/><path class="cls-28" d="M2107.29,233.1c-24.6-30.1-53.11-57.32-69.17-93.72l5-3.67c25.27,29.82,53.63,57.34,69.72,94Z"/><path class="cls-1" d="M281.26,985.45c-5.95-27.12-15.59-68.77-29.47-119.38C233,797.61,224.1,776.9,215.71,734.16c-7.58-38.58-17.19-87.57-10.93-142,7.67-66.69,40.43-118.2,105.61-218.51,22.95-35.3,54.79-81.59,96-134l-29.26-11.25c-24.93,59.79-69.31,109.36-106.87,162.5-45,63.68-86,128.9-90.62,209.12-2.34,40.58,4.24,75.81,20.36,146.5,22.48,98.65,51.58,145.62,48.46,187.92-.49,6.68-3.24,32.93,10.93,58.27a84,84,0,0,0,7.28,10.92c3.92,4.05,6.51,3.79,7.29,3.65C278.54,1006.44,282.06,997.83,281.26,985.45Z"/><path class="cls-1" d="M337.61,1833.92c14.27-23.82,36.66-60.23,65.91-103.8,39.57-58.94,54.62-75.73,76.17-113.58,19.45-34.17,44.15-77.56,55.53-131.18,13.94-65.66-.73-124.92-30.62-240.75-10.53-40.76-26-94.77-48.43-157.54l31.33-1.36c4.61,64.61,30.92,125.73,49.63,188,22.42,74.7,40.52,149.56,19.39,227.09-10.68,39.22-28.13,70.52-65.89,132.41-52.69,86.38-95.23,121.65-105.72,162.75-1.66,6.48-7.41,32.25-28.9,51.77a84.22,84.22,0,0,1-10.38,8c-5,2.58-7.37,1.52-8.06,1.13C333.52,1854.69,332.91,1845.41,337.61,1833.92Z"/><path class="cls-2" d="M154,2600.59c-6.09-3.53-10.86-7.85-9.54-15.84,2.29-12.76,10.22-22.87,16.12-33.9,24.54-45.87,33.15-93.73,18.94-144.65a34.26,34.26,0,0,1-1.34-12.52,7.57,7.57,0,0,1,2.81-5l13.75-2.85c25.17,61.07,15.08,119.34-14.82,175.6C172.58,2575.2,162.68,2587.58,154,2600.59Z"/><path class="cls-3" d="M129.27,1825.76c5.13,6.25,4.24,13.18,3,20.53q-38.16,227.49-75.87,455.07c-1.34,8.1-5.4,14.57-8.48,21.69,2.28,6.2,7.5,8.43,13.31,9.87,31.1,2.58,61.21,12.28,92.58,13.17a11.64,11.64,0,0,0,4.79-3.27c10.22-38.07,15.31-77.13,21.59-115.94,19-117.25,39.88-234.17,58.22-351.52.65-4.19,1.45-8.37,1.29-12.63-9-14.37-26.62-20.13-37.5-12.23-18.2,13.23-18.68,13.18-35-3.11a22.89,22.89,0,0,1-4.46-5.64c-.74-3.09.13-5.82,1.49-8.57,7.95-16.09,1.31-41.33-13.39-50.91-2.75-1.8-5.63-1.4-8.4.22-6.3,7.8-6.11,17.89-9.45,26.73C132.06,1814.79,130.63,1820.27,129.27,1825.76Z"/><path class="cls-4" d="M237,1859.7c-9.88,58.12-19.88,116.22-29.62,174.36-12.44,74.24-25,148.45-36.8,222.8-4.51,28.49-12.74,56.43-13.36,85.53,14.29,13.13,31.72,9.83,48.62,9.28,11.19.61,11.75-7.34,13.1-15.45q29.34-177,58.92-353.86c5.13-30.94,9.63-62,14.42-93-3.63-9.15-11.72-6.92-18.21-6.11-11.41,1.42-17.84-1.81-20.28-13.82C252.08,1861.28,248.81,1852.06,237,1859.7Z"/><path class="cls-3" d="M36.79,2619.29q2.46,67.11,4.94,134.22c17.91,4.23,35.91,1,53.8,0,11.43-.61,14.59-10.7,14.38-19.92-.72-30.69.36-61.51-4.91-92-2.15-3.5-5.73-4.34-9.38-4.31-18.15.12-34.32-5.43-48.88-16.18C43.93,2619.07,40.64,2617,36.79,2619.29Z"/><path class="cls-5" d="M102.24,2639.88c1.2,28.74,2.29,57.48,3.64,86.2.88,18.75-2.89,23.16-21.32,23.53-14.38.29-28.92-1.44-42.83,3.9l-.91-.11c0,5.44,1,10.59,4.39,15,3.34,2.93,7,5.13,11.65,5.18,6.16-2,12.91-2.43,18.43-6.38l37-1.76c5.77,1.28,11.09,4.66,17.34,3.65,3.46-.12,6.94.07,10.37-.65,5-1.11,7.33-4.5,8.14-9.27q-2.46-53.6-4.9-107.19c-.12-13.7-2.44-25.37-20.65-22.43C115.17,2631.71,106.75,2631.94,102.24,2639.88Z"/><path class="cls-6" d="M35.46,2541.27c-10.06,19.27-20.72,38.36-15.23,61.53,3.1,13.08,7.13,25.54,18.63,34,13.58,4.18,25.32,12.83,40.56,13.31,41.62,1.32,83.45-33.31,70.09-85.9-7.66-32.47-44.35-53.84-78.38-45.51-5.83,1.43-11.57,3.32-17.33,5a20.45,20.45,0,0,0-4.91,2.27A72.23,72.23,0,0,0,35.46,2541.27Z"/><path class="cls-7" d="M205.79,2351.67l-48.62-9.28-3.73,1.16c-7.48,28.55-11.19,57.8-15.37,86.91-2.38,16.56-9.26,32.6-6.54,49.82,7.39,10.12,20.06,8.09,29.77,12.89,16.13-3.09,18.21-15.62,20.25-28.9,4.94-32.12,10.36-64.18,15.92-96.2C198.53,2362,197.29,2354.2,205.79,2351.67Z"/><path class="cls-8" d="M161.3,2493.17c-4.72-14.25-18.9-6.64-27.52-11.9-24-10.27-48.69-15.73-74.88-10.55-8.79,18.22-13.78,37-8.18,57.29,14.77.39,27.68-9.29,43.63-5.64,24.88,5.69,44.47,16.25,53.34,41.57.92,1.14,1.73,1.45,2.43.94s1-1,1-1.39c-.28-2.31-.86-9.35,1.59-11.51a2.72,2.72,0,0,1,1.12-.58,42.33,42.33,0,0,0,3.48-11c1.31-7.75-1.37-13.78-.47-16.8C159.7,2513.87,159.9,2503.34,161.3,2493.17Z"/><path class="cls-2" d="M35.46,2541.27c6.77-1.95,12.44-5,13.09-13.07.87-12.93-4.38-24.66-7.43-36.79-12.7-50.44-9.47-99,16.65-144.93a34.46,34.46,0,0,0,4.33-11.82,7.55,7.55,0,0,0-1.52-5.51l-12.65-6.1C8.72,2376.21,4.4,2435.19,19.79,2497,23.55,2512.13,30.16,2526.54,35.46,2541.27Z"/><path class="cls-9" d="M151.09,2563.49c-1.13.18-2.26.33-3.4.45,6.52,29-2.75,52.42-26.59,69.26-22.56,16-46.77,16.13-71.32,3.59-3.23-1.65-7.31-5.44-10.92,0,25.8,27.07,55.4,23.35,86.11,10.62,17.34-17.14,32-35.56,29.09-62.15Z"/><path class="cls-10" d="M130.53,2764.48l-18.21,1c9,13.45,17.7,27.11,27.1,40.27,8.14,11.39,3.09,23.1,2.09,34.77-.76,8.92-1.61,17.83-2.43,26.75,9.5,5.72,13.87.3,17-7.81C168.15,2814.67,160.72,2787.15,130.53,2764.48Z"/><path class="cls-11" d="M48.7,2766.78c-8-1.29-4.83-9.17-7.88-13.38,1.41,21.93-10.4,40-18,59.13-3.43,8.64-3.76,16.1-.42,24.25q9.9,24.15,19.81,48.29c14.78-1.43,7.64-11.62,7.61-19-2.22-8.69-4.24-17.49-7-26-4.06-12.59-2.82-24.07,2-36.58C49.17,2792.13,59.61,2780.2,48.7,2766.78Z"/><path class="cls-12" d="M75.29,2767.23c-6.53-.69-13.44-3-18,4.36-10.13,15.27-17.24,33-19.32,50-2.24,18.38,7.1,36.92,16.34,53.8,4.42,1.08,8.09.13,10.67-3.86C47.26,2834.69,56.06,2800.44,75.29,2767.23Z"/><path class="cls-13" d="M65,2871.56l-10.29,2.38c-5.87.2-1-12.08-9.84-8.45-.56,6.57,8.22,14.39-2.62,19.58l19,55.71,4.13.19,9.3-34c-1.1-12.38-3.59-24.38-9.64-35.41Z"/><path class="cls-14" d="M148.17,2759.2l-8.52,6.86c-.32,9.75,5.54,17.37,10.79,24.1,10.86,13.92,13.75,27.85,9.43,45.17a231.61,231.61,0,0,0-5.72,33.52c1,6.13,2.11,12.16,8.53,15.21,4.43-21.83,8.73-43.69,13.38-65.48,1.53-7.17-1-12.65-4.62-18.6C163.26,2786.65,155.88,2772.83,148.17,2759.2Z"/><path class="cls-15" d="M162.68,2884.06q-2.61-9-5.21-17.95c-2.47-1.42-2-5.39-5.29-6.1-2.25,6.23-7.29,7.44-13.1,7.25l-3.72,27.57c3.57,11.57,12.84,21.07,12.37,34.11,4.67,11,6,2.7,6.85-1.45C157.54,2913.07,160,2898.55,162.68,2884.06Z"/><path class="cls-16" d="M147.73,2928.94c5-14.69-5.77-23.64-12.37-34.11C134.64,2908,143.12,2917.75,147.73,2928.94Z"/><path class="cls-12" d="M65,2871.56,74.6,2907C76.44,2893.79,72.86,2882.09,65,2871.56Z"/><path class="cls-17" d="M60.58,2329.15a24.76,24.76,0,0,0-.22,3.34c-.9,31-9,61-13.27,91.48-1.44,10.19-3.41,20.31-4.61,30.54-1.51,12.87,2.67,20.29,17.14,17.75,25.21-1,49.23,7.73,74.16,9,6.58-39.4,13-78.82,19.92-118.16,1.18-6.73.58-13.06-.26-19.57C122.55,2338.33,92,2330.68,60.58,2329.15Z"/><path class="cls-18" d="M152.18,2860c.89,2.79,1.88,5.49,5.29,6.1,2.65-14.79,4.9-29.66,8.09-44.32,2-9.26-1.51-16.2-6.27-23.47-6.89-10.53-13.12-21.49-19.64-32.26l-9.12-1.58a55.14,55.14,0,0,0,3.89,6C156.93,2797.05,163.82,2826.68,152.18,2860Z"/><path class="cls-19" d="M44.83,2865.49c5.88.63,2.86,9.35,8.9,9.75.28,0,.63-.85.94-1.3-4.37-12.45-6.08-25.77-12.76-37.5-3.8-6.68-2.91-13.34,0-20.68,5.81-14.44,10.3-29.41,15.33-44.17l-8.57-4.81c4.48,9-.49,17.31-4.42,24C29.29,2816.14,35.63,2840.67,44.83,2865.49Z"/><path class="cls-20" d="M91.55,2633.65c25.46-3,43-24.19,40.34-48.61-2.82-25.47-25.34-44.15-50.22-41.63-24.41,2.47-43,26.3-40.16,51.54C44.2,2619.07,66.84,2636.57,91.55,2633.65Z"/><path class="cls-21" d="M102.11,2613.37c9.63-6.32,12.89-15.49,11.69-26.52-1.78-16.33-15-27.16-31.31-25.74-13.23,1.16-23.79,14.63-23.13,29.5.75,17.14,10.64,25.77,28.6,24.82,3.61-.19,7.2-.84,10.8-1.28-2-17.05-16.29-28.91-19.68-45.38-.32-2.48,2.81.21.39-.06-.72-.08-.85.52-.31,1.76A343.58,343.58,0,0,0,102.11,2613.37Z"/><path class="cls-22" d="M102.11,2613.37c-3.68-17.89-14.27-31.88-25.21-45.73,3.21,17.53,13.27,31.66,21.86,46.51A11.43,11.43,0,0,0,102.11,2613.37Z"/><path class="cls-3" d="M228.31,996c7.85,9.57,6.48,20.19,4.59,31.44q-58.43,348.48-116.21,697.06c-2,12.41-8.27,22.32-13,33.23,3.49,9.49,11.48,12.91,20.38,15.11,47.64,4,93.76,18.81,141.81,20.17a17.84,17.84,0,0,0,7.34-5c15.66-58.33,23.45-118.16,33.07-177.61,29.08-179.59,61.09-358.69,89.18-538.44,1-6.41,2.22-12.82,2-19.33-13.74-22-40.78-30.84-57.43-18.74-27.88,20.26-28.62,20.19-53.61-4.77a34.88,34.88,0,0,1-6.82-8.64c-1.13-4.72.2-8.91,2.28-13.12,12.17-24.64,2-63.31-20.51-78-4.21-2.75-8.63-2.13-12.87.34-9.65,12-9.35,27.4-14.47,41C232.57,979.23,230.38,987.62,228.31,996Z"/><path class="cls-4" d="M393.24,1048c-15.14,89-30.46,178-45.38,267.08-19.05,113.71-38.34,227.39-56.36,341.26-6.91,43.65-19.52,86.44-20.47,131,21.89,20.11,48.59,15,74.48,14.22,17.13.92,18-11.25,20.06-23.68q44.94-271,90.25-542c7.86-47.4,14.76-95,22.09-142.44-5.56-14-18-10.6-27.9-9.36-17.47,2.17-27.31-2.77-31.06-21.18C416.41,1050.44,411.4,1036.32,393.24,1048Z"/><path class="cls-3" d="M374,173c7.85,9.56,6.48,20.18,4.59,31.43Q320.15,552.91,262.36,901.49c-2.05,12.41-8.27,22.32-13,33.23,3.5,9.5,11.48,12.91,20.38,15.11,47.65,3.95,93.76,18.81,141.81,20.17a17.75,17.75,0,0,0,7.34-5C434.57,906.68,442.36,846.85,452,787.4,481.06,607.82,513.07,428.71,541.16,249c1-6.41,2.22-12.81,2-19.33-13.74-22-40.78-30.84-57.43-18.74-27.88,20.26-28.61,20.19-53.61-4.76a35.11,35.11,0,0,1-6.82-8.65c-1.13-4.72.2-8.91,2.28-13.12,12.17-24.64,2-63.31-20.51-78-4.21-2.74-8.63-2.13-12.87.34-9.65,12-9.35,27.41-14.46,41C378.24,156.19,376.05,164.58,374,173Z"/><path class="cls-4" d="M538.91,225c-15.14,89-30.46,178-45.38,267.08-19,113.71-38.33,227.39-56.36,341.26-6.91,43.66-19.52,86.44-20.47,131,21.89,20.12,48.59,15,74.48,14.22,17.13.92,18-11.25,20.06-23.68q44.94-271,90.25-542c7.86-47.4,14.76-94.95,22.1-142.44-5.57-14-18-10.6-27.91-9.36-17.47,2.18-27.31-2.77-31.06-21.17C562.08,227.41,557.07,213.28,538.91,225Z"/><path class="cls-23" d="M204.17,1954.39c10.72-2.17,12.61,4.91,12.46,12.77-.3,15.95,7.44,19.45,21.75,16.32,6.73-1.47,14.22-4.41,21.07.58l9.27-8.68c-3.23-29.32-2-31.13,24.8-43.2,5.53-2.49,9.37-1.61,12.92,2.1,11.56,12.07,21.06,11.23,29.86-3.36,1.87-3.11,6.93-4.3,10.52-6.38,2.57-4.1,6.85-7,8.41-11.84,1.23-6-1.05-11.32-5.73-14.36-13.27-8.62-11.77-19.56-6.12-31.55,1.67-7.8,5.78-13,14.12-14.58,5.9-1.11,12.12-2.15,15.09-8.64,1.72-4.42,1.13-8.84.11-13.28-1.62-3.14-4.59-6.27-4.62-9.43-.17-17.76-4.71-26.61-26.28-23.57-15.22,2.14-13.65-18.3-21.6-27.2-6.68-7.47-.17-12.89,5.27-17.77,7.48-2.81,11.65-9.21,6.89-15.23-8.95-11.33-18.2-23.94-35.72-22.26-5.59,6.83-1.12,13.82,0,20.58a163.16,163.16,0,0,1,1.8,37.58c.08,9.45,4.66,17.39,8.44,25.65,15.38,33.65,14,66.21-8.8,96-22.66,29.65-53.39,40.56-90,34.3-10.82-1.85-21.51-3.6-32.49-1.76-17,3.25-35.52-.64-50.5,11.34,4.92,5.19,9.34,11,14.87,15.42,9.72,7.79,18.78,13.68,29-1.56C180.26,1935.5,192.43,1951.59,204.17,1954.39Z"/><path class="cls-24" d="M80.28,1866.29a30.91,30.91,0,0,0,8.62,17.86c7.5.24,15,.69,20.73-5.69,19.77,8.24,27.69,31.52,16.59,48.35-2.35,3.56-7.87,7.14-1.17,11.73l54.25-6.68c4.09-12.18-6.91-15.5-13-21-38.39-34.75-44-87-13.26-127.71,26-34.47,78.08-45.25,116.51-25.18,10.82,5.65,18.9,17.71,33.37,15.67,3-16.74.63-33.12-3.81-49.23-1-3.66-2.48-6.64,1-9.5-6.56-9.09-11.14-1.6-15.69,2.17-17.79,14.74-36.66,9.65-44.11-12.88-3.23-9.77-8.63-14-18.61-13.08-7.25.64-14.44,1.78-21.68,2.45-12.66,1.15-19.38,6.25-19.56,20.58-.24,18.91-21.16,31-37.19,21.51-13.1-7.77-21.37-4.19-29.22,6.63-3.2,4.41-6.51,8.77-10.08,12.88-9.12,10.49-9.42,19.24,1.75,29.43,11.87,10.82,6.46,32.94-8.11,38.65-22.71,8.9-22.66,8.89-17.58,32.34C80.78,1859.05,81.61,1862.68,80.28,1866.29Z"/><path class="cls-25" d="M302.89,1773.6c-17.27-9.38-31.85-22.89-52.15-27.75-45-10.78-94.34,10.51-114.14,54.56-18.11,40.28-6.24,87.28,31.6,117.91,4.61,3.73,10.44,6.54,11.1,13.54,13.52-4.73,26.17,2.36,39.25,3.37,38.43,3,67.22-12.62,87.83-43.28,21.08-31.35,20.36-64.89,3.73-98.15C306.83,1787.24,303.11,1781.13,302.89,1773.6Z"/><path class="cls-26" d="M150.27,1850c5.47,43.2,43.22,72.6,86.16,67.08,42.18-5.41,71.6-44.13,66.2-87.12-5.36-42.66-43.58-72.34-86.54-67.21C174,1767.76,144.77,1806.53,150.27,1850Z"/><path class="cls-17" d="M254.92,1801.77c-27.35-15.17-51.47-10-68.77,14.67-13.67,19.51-9.19,43,11.84,62C217.48,1853.29,240.06,1830.39,254.92,1801.77Z"/><path class="cls-27" d="M202.52,1881.28c25.65,12.89,43.41,9.37,60-11.88,16.83-21.54,15.7-42.29-3.53-64.64C240.05,1830.17,217.17,1852.69,202.52,1881.28Z"/><path class="cls-28" d="M202.52,1881.28c20.09-24.58,43.37-46.8,56.48-76.52l-4.08-3c-20.63,24.35-43.79,46.82-56.93,76.73Z"/><path class="cls-23" d="M330.17,1167.53c13.13-2.65,15.44,6,15.26,15.64-.37,19.53,9.11,23.83,26.64,20,8.24-1.81,17.41-5.4,25.81.71l11.34-10.63c-4-35.91-2.37-38.13,30.39-52.91,6.76-3,11.47-2,15.82,2.57,14.16,14.79,25.79,13.75,36.57-4.11,2.29-3.81,8.48-5.28,12.88-7.82,3.15-5,8.4-8.57,10.3-14.5,1.51-7.4-1.28-13.87-7-17.59-16.25-10.56-14.41-24-7.5-38.64,2.05-9.56,7.08-16,17.3-17.86,7.23-1.35,14.84-2.63,18.48-10.58,2.1-5.41,1.38-10.83.13-16.26-2-3.85-5.62-7.69-5.66-11.56-.21-21.75-5.77-32.58-32.18-28.87-18.64,2.63-16.72-22.41-26.46-33.3-8.19-9.15-.21-15.8,6.46-21.77,9.15-3.44,14.26-11.29,8.43-18.66-11-13.87-22.29-29.32-43.75-27.26-6.84,8.37-1.36,16.92,0,25.21a200,200,0,0,1,2.21,46c.09,11.57,5.71,21.29,10.33,31.41,18.84,41.21,17.14,81.1-10.77,117.6-27.76,36.32-65.39,49.68-110.29,42-13.25-2.26-26.34-4.41-39.79-2.15-20.78,4-43.51-.79-61.84,13.89,6,6.35,11.43,13.47,18.2,18.89,11.91,9.53,23,16.74,35.53-1.92C300.88,1144.4,315.79,1164.1,330.17,1167.53Z"/><path class="cls-24" d="M178.43,1059.63A37.88,37.88,0,0,0,189,1081.5c9.18.3,18.43.84,25.39-7,24.21,10.1,33.91,38.6,20.31,59.22-2.88,4.36-9.64,8.74-1.43,14.37l66.45-8.19c5-14.91-8.47-19-16-25.76-47-42.56-53.89-106.58-16.24-156.43,31.87-42.21,95.62-55.41,142.7-30.84,13.26,6.93,23.15,21.7,40.87,19.2,3.71-20.5.77-40.56-4.67-60.29-1.23-4.49-3-8.14,1.25-11.64-8-11.13-13.65-2-19.22,2.65-21.79,18.06-44.9,11.83-54-15.77-4-12-10.56-17.1-22.78-16-8.88.78-17.69,2.19-26.55,3-15.51,1.42-23.75,7.66-24,25.21-.29,23.15-25.91,38-45.55,26.35-16-9.52-26.16-5.13-35.78,8.11-3.93,5.4-8,10.75-12.35,15.78-11.16,12.85-11.54,23.57,2.15,36,14.53,13.25,7.91,40.34-9.94,47.33-27.81,10.91-27.76,10.9-21.53,39.61C179,1050.76,180.06,1055.21,178.43,1059.63Z"/><path class="cls-25" d="M451.08,946.1c-21.16-11.49-39-28-63.87-34-55.14-13.2-115.55,12.87-139.8,66.82-22.19,49.35-7.65,106.9,38.7,144.43,5.64,4.56,12.79,8,13.6,16.58,16.55-5.8,32.05,2.89,48.08,4.12,47.06,3.62,82.33-15.46,107.57-53,25.81-38.4,24.93-79.48,4.56-120.22C455.9,962.8,451.35,955.32,451.08,946.1Z"/><path class="cls-26" d="M264.16,1039.64c6.69,52.92,52.93,88.92,105.52,82.17,51.66-6.63,87.69-54,81.08-106.71-6.56-52.25-53.37-88.6-106-82.31C293.25,939,257.42,986.44,264.16,1039.64Z"/><path class="cls-17" d="M392.32,980.6c-33.49-18.58-63-12.28-84.22,18-16.74,23.89-11.26,52.64,14.5,76C346.47,1043.71,374.12,1015.66,392.32,980.6Z"/><path class="cls-27" d="M328.15,1078c31.41,15.78,53.16,11.47,73.5-14.56,20.61-26.38,19.22-51.79-4.32-79.16C374.11,1015.39,346.09,1043,328.15,1078Z"/><path class="cls-28" d="M328.15,1078c24.6-30.1,53.11-57.32,69.18-93.72l-5-3.67c-25.26,29.82-53.63,57.34-69.72,94Z"/><path class="cls-23" d="M494.05,322.64c13.13-2.65,15.44,6,15.26,15.64-.37,19.53,9.11,23.83,26.64,20,8.24-1.81,17.41-5.4,25.81.72l11.34-10.64c-4-35.91-2.38-38.13,30.39-52.91,6.76-3.05,11.47-2,15.82,2.57,14.16,14.79,25.79,13.75,36.57-4.11,2.29-3.81,8.48-5.28,12.88-7.82,3.15-5,8.4-8.57,10.3-14.5,1.51-7.4-1.28-13.87-7-17.59-16.25-10.56-14.42-24-7.5-38.64,2.05-9.56,7.08-15.95,17.3-17.86,7.22-1.35,14.84-2.63,18.48-10.58,2.1-5.41,1.38-10.83.13-16.26-2-3.85-5.62-7.68-5.66-11.55-.21-21.76-5.77-32.59-32.18-28.87-18.64,2.62-16.72-22.42-26.46-33.31-8.19-9.15-.21-15.8,6.46-21.77,9.15-3.44,14.26-11.29,8.43-18.66-11-13.86-22.29-29.32-43.75-27.26-6.84,8.37-1.37,16.93,0,25.21a200.51,200.51,0,0,1,2.21,46c.09,11.57,5.71,21.29,10.33,31.41C638.67,173.1,637,213,609.06,249.48c-27.76,36.32-65.39,49.68-110.29,42-13.25-2.26-26.34-4.4-39.79-2.15-20.78,4-43.51-.79-61.85,13.89,6,6.35,11.44,13.47,18.21,18.89,11.91,9.53,23,16.75,35.53-1.91C464.76,299.51,479.67,319.21,494.05,322.64Z"/><path class="cls-24" d="M342.31,214.74a37.88,37.88,0,0,0,10.56,21.87c9.18.3,18.43.84,25.39-7,24.21,10.1,33.91,38.6,20.31,59.22-2.88,4.36-9.64,8.74-1.43,14.37l66.45-8.18c5-14.92-8.47-19-16-25.77-47-42.56-53.89-106.57-16.24-156.43C463.26,70.64,527,57.44,574.09,82c13.25,6.92,23.15,21.7,40.87,19.19,3.71-20.5.77-40.56-4.67-60.29-1.23-4.49-3-8.14,1.25-11.64-8-11.13-13.65-2-19.22,2.66-21.79,18.06-44.9,11.82-54-15.78-3.95-12-10.56-17.1-22.78-16-8.88.79-17.69,2.19-26.55,3-15.51,1.42-23.75,7.66-24,25.22-.29,23.15-25.91,38-45.55,26.34-16-9.52-26.16-5.13-35.79,8.11-3.92,5.4-8,10.75-12.34,15.78-11.16,12.85-11.54,23.57,2.15,36.05C388,127.89,381.37,155,363.52,162c-27.82,10.91-27.76,10.9-21.53,39.61C342.92,205.87,343.94,210.32,342.31,214.74Z"/><path class="cls-25" d="M615,101.21c-21.16-11.49-39-28-63.87-34C496,54,435.54,80.09,411.28,134,389.1,183.39,403.64,241,450,278.47c5.64,4.56,12.79,8,13.6,16.58,16.55-5.8,32.05,2.89,48.08,4.12,47.06,3.62,82.33-15.46,107.56-53,25.82-38.4,24.94-79.48,4.57-120.21C619.78,117.91,615.23,110.43,615,101.21Z"/><path class="cls-26" d="M428,194.76c6.69,52.92,52.92,88.92,105.52,82.17,51.66-6.64,87.69-54.06,81.08-106.72-6.56-52.24-53.37-88.6-106-82.31C457.13,94.06,421.3,141.55,428,194.76Z"/><path class="cls-17" d="M556.2,135.71c-33.5-18.58-63-12.27-84.22,18-16.74,23.89-11.26,52.64,14.5,76C510.35,198.82,538,170.77,556.2,135.71Z"/><path class="cls-27" d="M492,233.1c31.41,15.78,53.16,11.48,73.49-14.55,20.62-26.39,19.23-51.79-4.32-79.17C538,170.5,510,198.09,492,233.1Z"/><path class="cls-28" d="M492,233.1c24.6-30.1,53.11-57.32,69.18-93.72l-5-3.67c-25.27,29.82-53.63,57.34-69.72,94Z"/><rect class="cls-29" x="4" y="2875" width="2615" height="428" rx="119.54"/><path class="cls-11" d="M48.66,2767c-8-1.29-4.83-9.17-7.89-13.38,1.42,21.93-10.39,40-18,59.13-3.44,8.64-3.77,16.1-.43,24.24q9.9,24.16,19.81,48.3c14.78-1.43,7.64-11.62,7.62-19-2.23-8.69-4.25-17.49-7-26-4.06-12.59-2.81-24.07,2-36.59C49.12,2792.35,59.56,2780.42,48.66,2767Z"/><path class="cls-12" d="M75.24,2767.45c-6.52-.69-13.43-3-18,4.36-10.13,15.27-17.23,33-19.32,50-2.24,18.38,7.1,36.92,16.34,53.8,4.42,1.08,8.1.13,10.67-3.86C47.21,2834.91,56,2800.66,75.24,2767.45Z"/><path class="cls-13" d="M64.91,2871.78l-10.28,2.37c-5.88.21-1-12.08-9.85-8.44-.56,6.57,8.23,14.39-2.62,19.58l19,55.71,4.12.19,9.3-34c-1.1-12.38-3.59-24.38-9.64-35.41Z"/><path class="cls-12" d="M64.91,2871.78q4.83,17.7,9.64,35.41C76.39,2894,72.82,2882.31,64.91,2871.78Z"/><path class="cls-19" d="M44.78,2865.71c5.88.63,2.86,9.35,8.91,9.75.28,0,.62-.85.94-1.3-4.38-12.46-6.09-25.77-12.76-37.5-3.8-6.68-2.92-13.35,0-20.68,5.8-14.44,10.29-29.41,15.33-44.17L48.66,2767c4.47,9.05-.49,17.31-4.43,24C29.25,2816.36,35.59,2840.89,44.78,2865.71Z"/><path class="cls-11" d="M2550.8,2766.7c8-1.3,4.82-9.17,7.87-13.39-1.44,21.93,10.29,40,17.84,59.09,3.4,8.64,3.72,16.09.39,24.24q-9.89,24.17-19.78,48.31c-14.7-1.42-7.58-11.61-7.55-19,2.22-8.69,4.24-17.49,7-26,4.06-12.59,2.83-24.07-1.93-36.57C2550.31,2792,2539.93,2780.13,2550.8,2766.7Z"/><path class="cls-12" d="M2524.34,2767.18c6.5-.7,13.38-3,17.93,4.34,10.06,15.25,17.12,32.94,19.17,50,2.21,18.37-7.11,36.92-16.33,53.8-4.4,1.09-8.06.14-10.61-3.84C2552.16,2834.59,2543.43,2800.36,2524.34,2767.18Z"/><path class="cls-13" d="M2534.5,2871.47l10.23,2.36c5.85.2,1-12.08,9.81-8.46.55,6.57-8.2,14.4,2.58,19.58l-18.94,55.71-4.11.2-9.21-34c1.11-12.37,3.6-24.37,9.63-35.4Z"/><path class="cls-12" d="M2534.49,2871.47l-9.63,35.4C2523,2893.7,2526.62,2882,2534.49,2871.47Z"/><path class="cls-19" d="M2554.54,2865.37c-5.85.64-2.86,9.35-8.87,9.76-.29,0-.63-.84-.94-1.3,4.37-12.45,6.09-25.77,12.75-37.5,3.79-6.68,2.92-13.34,0-20.67-5.76-14.43-10.21-29.39-15.2-44.14l8.53-4.82c-4.46,9.05.47,17.31,4.38,24C2570.06,2816,2563.72,2840.55,2554.54,2865.37Z"/><text class="cls-30" transform="translate(695.68 3171.54)">L<tspan class="cls-31" x="122.91" y="0">o</tspan><tspan x="248.58" y="0">v</tspan><tspan class="cls-32" x="365.74" y="0">r</tspan><tspan x="447.67" y="0">o Grivić</tspan></text></g></g></svg>