<svg xmlns="http://www.w3.org/2000/svg" viewBox="0 0 690.14 2940.97"><defs><style>.cls-1{fill:#4b4d5a;}.cls-2{fill:#4d4e5b;}.cls-3{fill:#5c5d6f;}.cls-4{fill:#505261;}.cls-5{fill:#535562;}.cls-6{fill:#a84848;}.cls-7{fill:#8890a3;}.cls-8{fill:#76768a;}.cls-9{fill:#962525;}.cls-10{fill:#b6bbc9;}.cls-11{fill:#b6bac8;}.cls-12{fill:#b9becb;}.cls-13{fill:#8890a1;}.cls-14{fill:#bbbfcc;}.cls-15{fill:#8b92a4;}.cls-16{fill:#696e7c;}.cls-17{fill:#969ab5;}.cls-18{fill:#777a89;}.cls-19{fill:#757886;}.cls-20{fill:#b3b1d6;}.cls-21{fill:#979ab5;}.cls-22{fill:#68697e;}.cls-23{fill:#942121;}.cls-24{fill:#a85252;}.cls-25{fill:#992c2c;}.cls-26{fill:#b5b3d7;}.cls-27{fill:#979ab6;}.cls-28{fill:#616375;}</style></defs><g id="Layer_2" data-name="Layer 2"><g id="Layer_1-2" data-name="Layer 1"><path class="cls-1" d="M420.4,985.45c6-27.12,15.59-68.77,29.47-119.38,18.77-68.46,27.69-89.17,36.08-131.91,7.58-38.58,17.19-87.57,10.93-142-7.67-66.69-40.43-118.2-105.61-218.51-22.95-35.3-54.79-81.59-96-134l29.27-11.25c24.92,59.79,69.3,109.36,106.86,162.5,45,63.68,86,128.9,90.62,209.12,2.34,40.58-4.24,75.81-20.35,146.5-22.49,98.65-51.59,145.62-48.47,187.92.49,6.68,3.24,32.93-10.93,58.27a84,84,0,0,1-7.28,10.92c-3.91,4.05-6.51,3.79-7.29,3.65C423.13,1006.44,419.6,997.83,420.4,985.45Z"/><path class="cls-1" d="M364.05,1833.92c-14.27-23.82-36.66-60.23-65.91-103.8-39.57-58.94-54.62-75.73-76.17-113.58-19.45-34.17-44.15-77.56-55.53-131.18-13.94-65.66.73-124.92,30.62-240.75,10.53-40.76,26-94.77,48.43-157.54l-31.33-1.36c-4.61,64.61-30.92,125.73-49.63,188-22.42,74.7-40.52,149.56-19.39,227.09,10.68,39.22,28.13,70.52,65.89,132.41,52.69,86.38,95.23,121.65,105.73,162.75,1.65,6.48,7.4,32.25,28.89,51.77a84.22,84.22,0,0,0,10.38,8c5,2.58,7.37,1.52,8.06,1.13C368.14,1854.69,368.75,1845.41,364.05,1833.92Z"/><path class="cls-2" d="M547.69,2600.59c6.09-3.53,10.86-7.85,9.54-15.84-2.29-12.76-10.22-22.87-16.12-33.9C516.57,2505,508,2457.12,522.17,2406.2a34.26,34.26,0,0,0,1.34-12.52,7.57,7.57,0,0,0-2.81-5L507,2385.85c-25.17,61.07-15.08,119.34,14.82,175.6C529.08,2575.2,539,2587.58,547.69,2600.59Z"/><path class="cls-3" d="M572.39,1825.76c-5.13,6.25-4.24,13.18-3,20.53q38.15,227.49,75.86,455.07c1.34,8.1,5.4,14.57,8.48,21.69-2.28,6.2-7.49,8.43-13.31,9.87-31.1,2.58-61.21,12.28-92.58,13.17a11.64,11.64,0,0,1-4.79-3.27c-10.22-38.07-15.31-77.13-21.59-115.94-19-117.25-39.88-234.17-58.22-351.52-.65-4.19-1.45-8.37-1.29-12.63,9-14.37,26.62-20.13,37.5-12.23,18.2,13.23,18.68,13.18,35-3.11a22.89,22.89,0,0,0,4.46-5.64c.74-3.09-.13-5.82-1.49-8.57-7.95-16.09-1.31-41.33,13.39-50.91,2.75-1.8,5.63-1.4,8.4.22,6.3,7.8,6.11,17.89,9.45,26.73C569.6,1814.79,571,1820.27,572.39,1825.76Z"/><path class="cls-4" d="M464.71,1859.7c9.89,58.12,19.88,116.22,29.62,174.36,12.44,74.24,25,148.45,36.8,222.8,4.51,28.49,12.74,56.43,13.36,85.53-14.29,13.13-31.72,9.83-48.62,9.28-11.19.61-11.75-7.34-13.1-15.45q-29.34-177-58.92-353.86c-5.13-30.94-9.63-62-14.42-93,3.63-9.15,11.72-6.92,18.22-6.11,11.4,1.42,17.83-1.81,20.27-13.82C449.58,1861.28,452.86,1852.06,464.71,1859.7Z"/><path class="cls-3" d="M664.87,2619.29q-2.46,67.11-4.94,134.22c-17.91,4.23-35.91,1-53.79,0-11.44-.61-14.6-10.7-14.38-19.92.71-30.69-.37-61.51,4.9-92,2.16-3.5,5.73-4.34,9.38-4.31,18.15.12,34.32-5.43,48.88-16.18C657.73,2619.07,661,2617,664.87,2619.29Z"/><path class="cls-5" d="M599.42,2639.88c-1.2,28.74-2.29,57.48-3.64,86.2-.88,18.75,2.89,23.16,21.32,23.53,14.38.29,28.92-1.44,42.83,3.9l.91-.11c0,5.44-1,10.59-4.39,15-3.34,2.93-7,5.13-11.65,5.18-6.16-2-12.91-2.43-18.43-6.38l-37-1.76c-5.77,1.28-11.09,4.66-17.34,3.65-3.46-.12-6.94.07-10.36-.65-5-1.11-7.34-4.5-8.15-9.27q2.46-53.6,4.9-107.19c.12-13.7,2.44-25.37,20.65-22.43C586.49,2631.71,594.91,2631.94,599.42,2639.88Z"/><path class="cls-6" d="M666.2,2541.27c10.06,19.27,20.72,38.36,15.23,61.53-3.1,13.08-7.13,25.54-18.63,34-13.58,4.18-25.32,12.83-40.56,13.31-41.62,1.32-83.45-33.31-70.09-85.9,7.66-32.47,44.35-53.84,78.38-45.51,5.83,1.43,11.57,3.32,17.33,5a20.45,20.45,0,0,1,4.91,2.27A72.23,72.23,0,0,1,666.2,2541.27Z"/><path class="cls-7" d="M495.87,2351.67l48.62-9.28,3.73,1.16c7.48,28.55,11.19,57.8,15.37,86.91,2.38,16.56,9.27,32.6,6.54,49.82-7.39,10.12-20.06,8.09-29.77,12.89-16.13-3.09-18.2-15.62-20.25-28.9-4.94-32.12-10.35-64.18-15.92-96.2C503.13,2362,504.37,2354.2,495.87,2351.67Z"/><path class="cls-8" d="M540.36,2493.17c4.72-14.25,18.9-6.64,27.52-11.9,24-10.27,48.69-15.73,74.88-10.55,8.79,18.22,13.78,37,8.18,57.29-14.77.39-27.68-9.29-43.63-5.64-24.88,5.69-44.47,16.25-53.34,41.57-.92,1.14-1.73,1.45-2.43.94s-1-1-1-1.39c.28-2.31.86-9.35-1.59-11.51a2.72,2.72,0,0,0-1.12-.58,42.33,42.33,0,0,1-3.48-11c-1.31-7.75,1.37-13.78.47-16.8C542,2513.87,541.76,2503.34,540.36,2493.17Z"/><path class="cls-2" d="M666.2,2541.27c-6.76-1.95-12.44-5-13.09-13.07-.87-12.93,4.38-24.66,7.43-36.79,12.7-50.44,9.47-99-16.65-144.93a34.46,34.46,0,0,1-4.33-11.82,7.55,7.55,0,0,1,1.52-5.51l12.65-6.1c39.21,53.16,43.53,112.14,28.14,174C678.11,2512.13,671.5,2526.54,666.2,2541.27Z"/><path class="cls-9" d="M550.57,2563.49c1.13.18,2.26.33,3.4.45-6.52,29,2.75,52.42,26.59,69.26,22.56,16,46.77,16.13,71.32,3.59,3.23-1.65,7.31-5.44,10.92,0-25.8,27.07-55.4,23.35-86.11,10.62-17.34-17.14-32-35.56-29.08-62.15Q549.08,2574.36,550.57,2563.49Z"/><path class="cls-10" d="M571.13,2764.48l18.21,1c-9,13.45-17.7,27.11-27.1,40.27-8.14,11.39-3.09,23.1-2.09,34.77.77,8.92,1.61,17.83,2.43,26.75-9.5,5.72-13.87.3-17.05-7.81C533.51,2814.67,540.94,2787.15,571.13,2764.48Z"/><path class="cls-11" d="M653,2766.78c8-1.29,4.83-9.17,7.88-13.38-1.41,21.93,10.4,40,18,59.13,3.43,8.64,3.76,16.1.42,24.25q-9.9,24.15-19.81,48.29c-14.78-1.43-7.64-11.62-7.61-19,2.22-8.69,4.24-17.49,7-26,4.07-12.59,2.82-24.07-2-36.58C652.49,2792.13,642.05,2780.2,653,2766.78Z"/><path class="cls-12" d="M626.37,2767.23c6.53-.69,13.44-3,18,4.36,10.13,15.27,17.24,33,19.32,50,2.24,18.38-7.1,36.92-16.34,53.8-4.42,1.08-8.09.13-10.67-3.86C654.4,2834.69,645.6,2800.44,626.37,2767.23Z"/><path class="cls-13" d="M636.7,2871.56l10.29,2.38c5.87.2,1-12.08,9.84-8.45.56,6.57-8.22,14.39,2.62,19.58l-19,55.71-4.13.19-9.3-34c1.1-12.38,3.59-24.38,9.64-35.41Z"/><path class="cls-14" d="M553.49,2759.2l8.52,6.86c.32,9.75-5.54,17.37-10.79,24.1-10.86,13.92-13.75,27.85-9.43,45.17a231.61,231.61,0,0,1,5.72,33.52c-1,6.13-2.11,12.16-8.53,15.21-4.43-21.83-8.73-43.69-13.38-65.48-1.53-7.17,1-12.65,4.62-18.6C538.4,2786.65,545.78,2772.83,553.49,2759.2Z"/><path class="cls-15" d="M539,2884.06q2.61-9,5.21-17.95c2.48-1.42,2-5.39,5.29-6.1,2.25,6.23,7.29,7.44,13.1,7.25l3.72,27.57c-3.57,11.57-12.84,21.07-12.37,34.11-4.67,11-6,2.7-6.85-1.45C544.12,2913.07,541.64,2898.55,539,2884.06Z"/><path class="cls-16" d="M553.93,2928.94c-5-14.69,5.77-23.64,12.37-34.11C567,2908,558.54,2917.75,553.93,2928.94Z"/><path class="cls-12" d="M636.7,2871.56q-4.82,17.7-9.64,35.41C625.22,2893.79,628.8,2882.09,636.7,2871.56Z"/><path class="cls-17" d="M641.08,2329.15a24.76,24.76,0,0,1,.22,3.34c.9,31,9,61,13.27,91.48,1.44,10.19,3.42,20.31,4.61,30.54,1.51,12.87-2.67,20.29-17.14,17.75-25.21-1-49.23,7.73-74.16,9-6.58-39.4-13-78.82-19.92-118.16-1.18-6.73-.58-13.06.26-19.57C579.11,2338.33,609.62,2330.68,641.08,2329.15Z"/><path class="cls-18" d="M549.48,2860c-.89,2.79-1.88,5.49-5.29,6.1-2.65-14.79-4.9-29.66-8.09-44.32-2-9.26,1.51-16.2,6.27-23.47,6.89-10.53,13.12-21.49,19.64-32.26l9.12-1.58a55.14,55.14,0,0,1-3.89,6C544.73,2797.05,537.84,2826.68,549.48,2860Z"/><path class="cls-19" d="M656.83,2865.49c-5.88.63-2.86,9.35-8.9,9.75-.28,0-.63-.85-.94-1.3,4.37-12.45,6.08-25.77,12.76-37.5,3.8-6.68,2.91-13.34,0-20.68-5.81-14.44-10.3-29.41-15.33-44.17l8.57-4.81c-4.48,9,.49,17.31,4.42,24C672.37,2816.14,666,2840.67,656.83,2865.49Z"/><path class="cls-20" d="M610.11,2633.65c-25.46-3-43-24.19-40.34-48.61,2.82-25.47,25.34-44.15,50.22-41.63,24.41,2.47,43,26.3,40.16,51.54C657.46,2619.07,634.82,2636.57,610.11,2633.65Z"/><path class="cls-21" d="M599.55,2613.37c-9.63-6.32-12.89-15.49-11.69-26.52,1.78-16.33,15-27.16,31.31-25.74,13.23,1.16,23.79,14.63,23.13,29.5-.75,17.14-10.64,25.77-28.6,24.82-3.61-.19-7.2-.84-10.8-1.28,2-17.05,16.29-28.91,19.68-45.38.32-2.48-2.8.21-.39-.06.72-.08.85.52.31,1.76A343.58,343.58,0,0,1,599.55,2613.37Z"/><path class="cls-22" d="M599.55,2613.37c3.68-17.89,14.28-31.88,25.21-45.73-3.21,17.53-13.27,31.66-21.86,46.51A11.43,11.43,0,0,1,599.55,2613.37Z"/><path class="cls-3" d="M473.35,996c-7.85,9.57-6.48,20.19-4.59,31.44Q527.18,1375.95,585,1724.53c2,12.41,8.27,22.32,13,33.23-3.49,9.49-11.48,12.91-20.38,15.11-47.64,4-93.76,18.81-141.81,20.17a17.84,17.84,0,0,1-7.34-5c-15.65-58.33-23.45-118.16-33.07-177.61-29.08-179.59-61.09-358.69-89.18-538.44-1-6.41-2.22-12.82-2-19.33,13.74-22,40.78-30.84,57.43-18.74,27.88,20.26,28.62,20.19,53.61-4.77a34.88,34.88,0,0,0,6.82-8.64c1.13-4.72-.2-8.91-2.28-13.12-12.17-24.64-2-63.31,20.51-78,4.21-2.75,8.63-2.13,12.87.34,9.66,12,9.35,27.4,14.47,41C469.09,979.23,471.28,987.62,473.35,996Z"/><path class="cls-4" d="M308.42,1048c15.14,89,30.46,178,45.38,267.08,19.05,113.71,38.34,227.39,56.36,341.26,6.91,43.65,19.52,86.44,20.47,131-21.89,20.11-48.59,15-74.48,14.22-17.13.92-18-11.25-20.06-23.68q-44.94-271-90.25-542c-7.86-47.4-14.75-95-22.09-142.44,5.56-14,17.95-10.6,27.9-9.36,17.47,2.17,27.31-2.77,31.06-21.18C285.25,1050.44,290.26,1036.32,308.42,1048Z"/><path class="cls-3" d="M327.68,173c-7.85,9.56-6.48,20.18-4.59,31.43Q381.52,552.91,439.3,901.49c2.05,12.41,8.27,22.32,13,33.23-3.49,9.5-11.48,12.91-20.38,15.11-47.64,3.95-93.76,18.81-141.81,20.17a17.75,17.75,0,0,1-7.34-5C267.1,906.68,259.3,846.85,249.68,787.4,220.6,607.82,188.59,428.71,160.5,249c-1-6.41-2.22-12.81-2-19.33,13.74-22,40.78-30.84,57.43-18.74,27.88,20.26,28.62,20.19,53.61-4.76a35.11,35.11,0,0,0,6.82-8.65c1.13-4.72-.2-8.91-2.28-13.12-12.17-24.64-2-63.31,20.51-78,4.21-2.74,8.63-2.13,12.87.34,9.65,12,9.35,27.41,14.47,41C323.42,156.19,325.61,164.58,327.68,173Z"/><path class="cls-4" d="M162.75,225c15.14,89,30.46,178,45.38,267.08,19.05,113.71,38.34,227.39,56.36,341.26C271.4,877,284,919.76,285,964.34c-21.89,20.12-48.59,15-74.48,14.22-17.13.92-18-11.25-20.06-23.68q-44.94-271-90.25-542c-7.86-47.4-14.76-94.95-22.09-142.44,5.56-14,18-10.6,27.9-9.36,17.47,2.18,27.31-2.77,31.06-21.17C139.58,227.41,144.59,213.28,162.75,225Z"/><path class="cls-23" d="M497.49,1954.39c-10.72-2.17-12.61,4.91-12.46,12.77.3,15.95-7.44,19.45-21.75,16.32-6.73-1.47-14.22-4.41-21.07.58l-9.27-8.68c3.23-29.32,1.95-31.13-24.8-43.2-5.53-2.49-9.37-1.61-12.92,2.1-11.56,12.07-21.06,11.23-29.86-3.36-1.87-3.11-6.93-4.3-10.52-6.38-2.57-4.1-6.85-7-8.41-11.84-1.23-6,1.05-11.32,5.73-14.36,13.27-8.62,11.77-19.56,6.12-31.55-1.67-7.8-5.78-13-14.12-14.58-5.9-1.11-12.12-2.15-15.09-8.64-1.72-4.42-1.13-8.84-.11-13.28,1.62-3.14,4.59-6.27,4.62-9.43.18-17.76,4.71-26.61,26.28-23.57,15.22,2.14,13.65-18.3,21.6-27.2,6.68-7.47.17-12.89-5.27-17.77-7.48-2.81-11.65-9.21-6.89-15.23,9-11.33,18.2-23.94,35.73-22.26,5.58,6.83,1.11,13.82,0,20.58a163.16,163.16,0,0,0-1.8,37.58c-.08,9.45-4.66,17.39-8.44,25.65-15.38,33.65-14,66.21,8.8,96,22.66,29.65,53.39,40.56,90,34.3,10.82-1.85,21.51-3.6,32.5-1.76,17,3.25,35.51-.64,50.49,11.34-4.92,5.19-9.34,11-14.87,15.42-9.72,7.79-18.78,13.68-29-1.56C521.4,1935.5,509.23,1951.59,497.49,1954.39Z"/><path class="cls-24" d="M621.38,1866.29a30.91,30.91,0,0,1-8.62,17.86c-7.5.24-15,.69-20.73-5.69-19.77,8.24-27.69,31.52-16.58,48.35,2.35,3.56,7.86,7.14,1.17,11.73l-54.26-6.68c-4.09-12.18,6.91-15.5,13-21,38.39-34.75,44-87,13.26-127.71-26-34.47-78.08-45.25-116.51-25.18-10.82,5.65-18.9,17.71-33.37,15.67-3-16.74-.63-33.12,3.81-49.23,1-3.66,2.48-6.64-1-9.5,6.56-9.09,11.14-1.6,15.69,2.17,17.79,14.74,36.66,9.65,44.12-12.88,3.23-9.77,8.62-14,18.6-13.08,7.25.64,14.44,1.78,21.68,2.45,12.66,1.15,19.38,6.25,19.56,20.58.24,18.91,21.16,31,37.19,21.51,13.1-7.77,21.37-4.19,29.22,6.63,3.21,4.41,6.51,8.77,10.08,12.88,9.12,10.49,9.43,19.24-1.75,29.43-11.87,10.82-6.46,32.94,8.11,38.65,22.71,8.9,22.66,8.89,17.58,32.34C620.88,1859.05,620.05,1862.68,621.38,1866.29Z"/><path class="cls-25" d="M398.77,1773.6c17.27-9.38,31.85-22.89,52.15-27.75,45-10.78,94.34,10.51,114.14,54.56,18.12,40.28,6.24,87.28-31.6,117.91-4.6,3.73-10.44,6.54-11.1,13.54-13.51-4.73-26.17,2.36-39.25,3.37-38.43,3-67.22-12.62-87.83-43.28-21.08-31.35-20.36-64.89-3.73-98.15C394.83,1787.24,398.55,1781.13,398.77,1773.6Z"/><path class="cls-26" d="M551.39,1850c-5.47,43.2-43.22,72.6-86.16,67.08-42.18-5.41-71.6-44.13-66.2-87.12,5.36-42.66,43.58-72.34,86.54-67.21C527.63,1767.76,556.89,1806.53,551.39,1850Z"/><path class="cls-17" d="M446.74,1801.77c27.35-15.17,51.47-10,68.77,14.67,13.67,19.51,9.19,43-11.84,62C484.18,1853.29,461.6,1830.39,446.74,1801.77Z"/><path class="cls-27" d="M499.14,1881.28c-25.64,12.89-43.41,9.37-60-11.88-16.83-21.54-15.7-42.29,3.53-64.64C461.61,1830.17,484.49,1852.69,499.14,1881.28Z"/><path class="cls-28" d="M499.14,1881.28c-20.09-24.58-43.37-46.8-56.48-76.52l4.08-3c20.63,24.35,43.79,46.82,56.93,76.73Z"/><path class="cls-23" d="M371.49,1167.53c-13.13-2.65-15.44,6-15.26,15.64.37,19.53-9.11,23.83-26.64,20-8.24-1.81-17.41-5.4-25.81.71l-11.34-10.63c3.95-35.91,2.38-38.13-30.39-52.91-6.76-3-11.47-2-15.82,2.57-14.16,14.79-25.79,13.75-36.57-4.11-2.29-3.81-8.48-5.28-12.88-7.82-3.15-5-8.4-8.57-10.3-14.5-1.51-7.4,1.28-13.87,7-17.59,16.25-10.56,14.41-24,7.5-38.64-2.05-9.56-7.08-16-17.3-17.86-7.22-1.35-14.84-2.63-18.48-10.58-2.1-5.41-1.38-10.83-.13-16.26,2-3.85,5.62-7.69,5.66-11.56.21-21.75,5.77-32.58,32.18-28.87,18.64,2.63,16.72-22.41,26.46-33.3,8.19-9.15.21-15.8-6.46-21.77-9.15-3.44-14.26-11.29-8.43-18.66,11-13.87,22.29-29.32,43.75-27.26,6.84,8.37,1.36,16.92,0,25.21a200.51,200.51,0,0,0-2.21,46c-.09,11.57-5.71,21.29-10.33,31.41-18.84,41.21-17.14,81.1,10.77,117.6,27.76,36.32,65.39,49.68,110.29,42,13.25-2.26,26.34-4.41,39.79-2.15,20.78,4,43.51-.79,61.85,13.89-6,6.35-11.44,13.47-18.21,18.89-11.91,9.53-23,16.74-35.53-1.92C400.78,1144.4,385.87,1164.1,371.49,1167.53Z"/><path class="cls-24" d="M523.23,1059.63a37.88,37.88,0,0,1-10.56,21.87c-9.18.3-18.43.84-25.39-7-24.21,10.1-33.91,38.6-20.31,59.22,2.88,4.36,9.64,8.74,1.43,14.37L402,1139.93c-5-14.91,8.47-19,16-25.76,47-42.56,53.89-106.58,16.24-156.43-31.87-42.21-95.62-55.41-142.7-30.84-13.25,6.93-23.15,21.7-40.87,19.2-3.71-20.5-.77-40.56,4.67-60.29,1.23-4.49,3-8.14-1.25-11.64,8-11.13,13.65-2,19.22,2.65,21.79,18.06,44.9,11.83,54-15.77,3.95-12,10.56-17.1,22.78-16,8.88.78,17.69,2.19,26.55,3,15.51,1.42,23.75,7.66,24,25.21.29,23.15,25.91,38,45.55,26.35,16-9.52,26.16-5.13,35.79,8.11,3.92,5.4,8,10.75,12.34,15.78,11.16,12.85,11.54,23.57-2.15,36-14.53,13.25-7.91,40.34,9.94,47.33,27.82,10.91,27.76,10.9,21.53,39.61C522.62,1050.76,521.6,1055.21,523.23,1059.63Z"/><path class="cls-25" d="M250.58,946.1c21.16-11.49,39-28,63.87-34C369.59,898.91,430,925,454.25,978.93c22.19,49.35,7.65,106.9-38.7,144.43-5.64,4.56-12.79,8-13.6,16.58-16.55-5.8-32.05,2.89-48.08,4.12-47.06,3.62-82.33-15.46-107.56-53-25.82-38.4-24.94-79.48-4.57-120.22C245.76,962.8,250.31,955.32,250.58,946.1Z"/><path class="cls-26" d="M437.5,1039.64c-6.69,52.92-52.92,88.92-105.52,82.17-51.66-6.63-87.69-54-81.08-106.71,6.56-52.25,53.37-88.6,106-82.31C408.41,939,444.24,986.44,437.5,1039.64Z"/><path class="cls-17" d="M309.34,980.6c33.49-18.58,63-12.28,84.22,18,16.74,23.89,11.26,52.64-14.5,76C355.19,1043.71,327.54,1015.66,309.34,980.6Z"/><path class="cls-27" d="M373.51,1078c-31.41,15.78-53.16,11.47-73.49-14.56-20.62-26.38-19.23-51.79,4.31-79.16C327.55,1015.39,355.57,1043,373.51,1078Z"/><path class="cls-28" d="M373.51,1078c-24.6-30.1-53.11-57.32-69.18-93.72l5-3.67c25.27,29.82,53.63,57.34,69.72,94Z"/><path class="cls-23" d="M207.61,322.64c-13.13-2.65-15.44,6-15.26,15.64.37,19.53-9.11,23.83-26.64,20-8.24-1.81-17.41-5.4-25.81.72l-11.34-10.64c4-35.91,2.38-38.13-30.39-52.91-6.76-3.05-11.47-2-15.82,2.57-14.16,14.79-25.79,13.75-36.56-4.11-2.3-3.81-8.49-5.28-12.89-7.82-3.15-5-8.4-8.57-10.3-14.5-1.51-7.4,1.28-13.87,7-17.59,16.26-10.56,14.42-24,7.5-38.64-2-9.56-7.08-15.95-17.29-17.86C12.59,196.14,5,194.86,1.33,186.91-.77,181.5,0,176.08,1.2,170.65c2-3.85,5.62-7.68,5.66-11.55.21-21.76,5.77-32.59,32.18-28.87,18.64,2.62,16.72-22.42,26.46-33.31,8.19-9.15.21-15.8-6.46-21.77-9.15-3.44-14.26-11.29-8.43-18.66,11-13.86,22.29-29.32,43.75-27.26,6.84,8.37,1.37,16.93,0,25.21a200.51,200.51,0,0,0-2.21,46c-.09,11.57-5.71,21.29-10.33,31.41C63,173.1,64.69,213,92.6,249.48c27.76,36.32,65.39,49.68,110.29,42,13.25-2.26,26.34-4.4,39.79-2.15,20.78,4,43.51-.79,61.85,13.89-6,6.35-11.44,13.47-18.21,18.89-11.91,9.53-23,16.75-35.53-1.91C236.9,299.51,222,319.21,207.61,322.64Z"/><path class="cls-24" d="M359.35,214.74a37.88,37.88,0,0,1-10.56,21.87c-9.18.3-18.43.84-25.39-7-24.21,10.1-33.91,38.6-20.31,59.22,2.88,4.36,9.64,8.74,1.43,14.37l-66.45-8.18c-5-14.92,8.47-19,16-25.77,47-42.56,53.89-106.57,16.24-156.43C238.4,70.64,174.65,57.44,127.57,82c-13.25,6.92-23.14,21.7-40.87,19.19-3.71-20.5-.77-40.56,4.67-60.29,1.23-4.49,3-8.14-1.25-11.64,8-11.13,13.65-2,19.22,2.66,21.79,18.06,44.9,11.82,54-15.78,3.95-12,10.56-17.1,22.78-16,8.88.79,17.69,2.19,26.55,3,15.51,1.42,23.75,7.66,24,25.22.29,23.15,25.91,38,45.55,26.34,16-9.52,26.17-5.13,35.79,8.11,3.92,5.4,8,10.75,12.34,15.78,11.16,12.85,11.54,23.57-2.15,36.05-14.53,13.25-7.91,40.34,9.94,47.33,27.82,10.91,27.76,10.9,21.53,39.61C358.74,205.87,357.72,210.32,359.35,214.74Z"/><path class="cls-25" d="M86.7,101.21c21.16-11.49,39-28,63.87-34C205.71,54,266.12,80.09,290.38,134,312.56,183.39,298,241,251.67,278.47c-5.64,4.56-12.79,8-13.6,16.58-16.55-5.8-32,2.89-48.07,4.12-47.07,3.62-82.33-15.46-107.57-53C56.61,207.77,57.49,166.69,77.86,126,81.88,117.91,86.43,110.43,86.7,101.21Z"/><path class="cls-26" d="M273.63,194.76c-6.7,52.92-52.93,88.92-105.53,82.17C116.44,270.29,80.41,222.87,87,170.21,93.58,118,140.39,81.61,193,87.9,244.53,94.06,280.36,141.55,273.63,194.76Z"/><path class="cls-17" d="M145.46,135.71c33.5-18.58,63-12.27,84.23,18,16.73,23.89,11.25,52.64-14.51,76C191.31,198.82,163.66,170.77,145.46,135.71Z"/><path class="cls-27" d="M209.63,233.1c-31.41,15.78-53.16,11.48-73.49-14.55-20.62-26.39-19.23-51.79,4.32-79.17C163.67,170.5,191.69,198.09,209.63,233.1Z"/><path class="cls-28" d="M209.63,233.1c-24.6-30.1-53.11-57.32-69.17-93.72l5-3.67c25.27,29.82,53.63,57.34,69.72,94Z"/></g></g></svg>