<svg xmlns="http://www.w3.org/2000/svg" xmlns:xlink="http://www.w3.org/1999/xlink" viewBox="0 0 2809.26 3777.47"><defs><style>.cls-1{fill:url(#linear-gradient);}.cls-2{fill:url(#linear-gradient-2);}.cls-3{fill:url(#linear-gradient-3);}.cls-4{fill:url(#linear-gradient-4);}.cls-5{fill:url(#linear-gradient-5);}.cls-6{fill:url(#linear-gradient-6);}.cls-7{fill:url(#linear-gradient-7);}.cls-8{fill:url(#linear-gradient-8);}.cls-9{fill:url(#linear-gradient-9);}.cls-10{fill:url(#linear-gradient-10);}.cls-11{fill:url(#linear-gradient-11);}.cls-12{fill:url(#linear-gradient-12);}.cls-13{fill:url(#linear-gradient-13);}.cls-14{fill:url(#linear-gradient-14);}.cls-15{fill:url(#linear-gradient-15);}.cls-16{fill:url(#linear-gradient-16);}.cls-17{fill:url(#linear-gradient-17);}.cls-18{fill:url(#linear-gradient-18);}.cls-19{fill:url(#linear-gradient-19);}.cls-20{fill:url(#linear-gradient-20);}.cls-21{fill:url(#linear-gradient-21);}.cls-22{fill:url(#linear-gradient-22);}.cls-23{fill:url(#linear-gradient-23);}.cls-24{fill:url(#linear-gradient-24);}.cls-25{fill:url(#linear-gradient-25);}.cls-26{fill:url(#linear-gradient-26);}.cls-27{fill:url(#linear-gradient-27);}.cls-28{fill:url(#linear-gradient-28);}.cls-29{fill:url(#linear-gradient-29);}.cls-30{fill:url(#linear-gradient-30);}.cls-31{fill:url(#linear-gradient-31);}.cls-32{fill:url(#linear-gradient-32);}.cls-33{fill:url(#linear-gradient-33);}.cls-34{fill:url(#linear-gradient-34);}.cls-35{fill:url(#linear-gradient-35);}.cls-36{fill:url(#linear-gradient-36);}.cls-37{fill:url(#linear-gradient-37);}.cls-38{fill:url(#linear-gradient-38);}.cls-39{fill:url(#linear-gradient-39);}.cls-40{fill:url(#linear-gradient-40);}.cls-41{fill:url(#linear-gradient-41);}.cls-42{fill:url(#linear-gradient-42);}.cls-43{fill:url(#linear-gradient-43);}.cls-44{fill:url(#linear-gradient-44);}.cls-45{fill:url(#linear-gradient-45);}.cls-46{fill:url(#linear-gradient-46);}.cls-47{fill:url(#linear-gradient-47);}.cls-48{fill:url(#linear-gradient-48);}.cls-49{fill:url(#linear-gradient-49);}.cls-50{fill:url(#linear-gradient-50);}.cls-51{fill:url(#linear-gradient-51);}.cls-52{fill:url(#linear-gradient-52);}.cls-53{fill:url(#linear-gradient-53);}.cls-54{fill:url(#linear-gradient-54);}.cls-55{fill:url(#linear-gradient-55);}.cls-56{fill:url(#linear-gradient-56);}.cls-57{fill:url(#linear-gradient-57);}.cls-58{fill:url(#linear-gradient-58);}.cls-59{fill:url(#linear-gradient-59);}.cls-60{fill:url(#linear-gradient-60);}.cls-61{fill:url(#linear-gradient-61);}.cls-62{fill:url(#linear-gradient-62);}.cls-63{fill:url(#linear-gradient-63);}.cls-64{fill:url(#linear-gradient-64);}.cls-65{fill:url(#linear-gradient-65);}.cls-66{fill:url(#linear-gradient-66);}.cls-67{fill:url(#linear-gradient-67);}.cls-68{fill:url(#linear-gradient-68);}.cls-69{fill:url(#linear-gradient-69);}.cls-70{fill:url(#linear-gradient-70);}.cls-71{fill:url(#linear-gradient-71);}.cls-72{fill:url(#linear-gradient-72);}.cls-73{fill:url(#linear-gradient-73);}.cls-74{fill:url(#linear-gradient-74);}.cls-75{fill:url(#linear-gradient-75);}.cls-76{fill:url(#linear-gradient-76);}.cls-77{fill:url(#linear-gradient-77);}.cls-78{fill:url(#linear-gradient-78);}.cls-79{fill:url(#linear-gradient-79);}.cls-80{fill:url(#linear-gradient-80);}.cls-81{fill:url(#linear-gradient-81);}.cls-82{fill:url(#linear-gradient-82);}.cls-83{fill:url(#linear-gradient-83);}.cls-84{fill:url(#linear-gradient-84);}.cls-85{fill:url(#linear-gradient-85);}.cls-86{fill:url(#linear-gradient-86);}.cls-87{fill:url(#linear-gradient-87);}.cls-88{fill:url(#linear-gradient-88);}.cls-89{fill:url(#linear-gradient-89);}.cls-90{fill:url(#linear-gradient-90);}.cls-91{fill:url(#linear-gradient-91);}.cls-92{fill:url(#linear-gradient-92);}.cls-93{fill:url(#linear-gradient-93);}.cls-94{fill:url(#linear-gradient-94);}.cls-95{fill:url(#linear-gradient-95);}.cls-96{fill:url(#linear-gradient-96);}.cls-97{fill:url(#linear-gradient-97);}.cls-98{fill:url(#linear-gradient-98);}.cls-99{fill:url(#linear-gradient-99);}.cls-100{fill:url(#linear-gradient-100);}.cls-101{fill:url(#linear-gradient-101);}.cls-102{fill:url(#linear-gradient-102);}.cls-103{fill:url(#linear-gradient-103);}.cls-104{fill:url(#linear-gradient-104);}.cls-105{fill:url(#linear-gradient-105);}.cls-106{fill:url(#linear-gradient-106);}.cls-107{fill:url(#linear-gradient-107);}.cls-108{fill:url(#linear-gradient-108);}.cls-109{fill:url(#linear-gradient-109);}.cls-110{fill:url(#linear-gradient-110);}.cls-111{fill:url(#linear-gradient-111);}.cls-112{fill:url(#linear-gradient-112);}.cls-113{fill:url(#linear-gradient-113);}.cls-114{fill:url(#linear-gradient-114);}.cls-115{fill:url(#linear-gradient-115);}.cls-116{fill:url(#linear-gradient-116);}.cls-117{fill:url(#linear-gradient-117);}.cls-118{fill:url(#linear-gradient-118);}.cls-119{fill:url(#linear-gradient-119);}.cls-120{fill:url(#linear-gradient-120);}.cls-121{fill:url(#linear-gradient-121);}.cls-122{fill:url(#linear-gradient-122);}.cls-123{fill:url(#linear-gradient-123);}.cls-124{fill:url(#linear-gradient-124);}.cls-125{fill:url(#linear-gradient-125);}.cls-126{fill:url(#linear-gradient-126);}.cls-127{fill:url(#linear-gradient-127);}.cls-128{fill:url(#linear-gradient-128);}.cls-129{fill:url(#linear-gradient-129);}.cls-130{fill:url(#linear-gradient-130);}.cls-131{fill:url(#linear-gradient-131);}.cls-132{fill:url(#linear-gradient-132);}.cls-133{fill:url(#linear-gradient-133);}.cls-134{fill:url(#linear-gradient-134);}.cls-135{fill:url(#linear-gradient-135);}.cls-136{fill:url(#linear-gradient-136);}.cls-137{fill:url(#linear-gradient-137);}.cls-138{fill:url(#linear-gradient-138);}.cls-139{fill:url(#linear-gradient-139);}.cls-140{fill:url(#linear-gradient-140);}.cls-141{fill:url(#linear-gradient-141);}.cls-142{fill:url(#linear-gradient-142);}.cls-143{fill:url(#linear-gradient-143);}.cls-144{stroke-miterlimit:10;fill:url(#linear-gradient-144);stroke:url(#radial-gradient);}.cls-145{fill:url(#linear-gradient-145);}</style><linearGradient id="linear-gradient" x1="1043.76" y1="996.53" x2="1692.17" y2="996.53" gradientUnits="userSpaceOnUse"><stop offset="0" stop-color="#666"/><stop offset="1" stop-color="#1a1a1a"/></linearGradient><linearGradient id="linear-gradient-2" x1="1530.07" y1="7192.64" x2="2178.56" y2="7192.64" xlink:href="#linear-gradient"/><linearGradient id="linear-gradient-3" x1="1477.8" y1="1097.9" x2="1686.73" y2="1097.9" xlink:href="#linear-gradient"/><linearGradient id="linear-gradient-4" x1="1043.76" y1="1073.16" x2="1692.17" y2="1073.16" xlink:href="#linear-gradient"/><linearGradient id="linear-gradient-5" x1="1530.07" y1="7269.27" x2="2178.56" y2="7269.27" xlink:href="#linear-gradient"/><linearGradient id="linear-gradient-6" x1="1477.8" y1="1174.54" x2="1686.73" y2="1174.54" xlink:href="#linear-gradient"/><linearGradient id="linear-gradient-7" x1="1043.76" y1="1134.23" x2="1692.17" y2="1134.23" xlink:href="#linear-gradient"/><linearGradient id="linear-gradient-8" x1="1530.07" y1="7330.33" x2="2178.56" y2="7330.33" xlink:href="#linear-gradient"/><linearGradient id="linear-gradient-9" x1="1477.8" y1="1235.6" x2="1686.73" y2="1235.6" xlink:href="#linear-gradient"/><linearGradient id="linear-gradient-10" x1="1043.76" y1="1203.68" x2="1692.17" y2="1203.68" xlink:href="#linear-gradient"/><linearGradient id="linear-gradient-11" x1="1530.07" y1="7399.78" x2="2178.56" y2="7399.78" xlink:href="#linear-gradient"/><linearGradient id="linear-gradient-12" x1="1477.8" y1="1305.05" x2="1686.73" y2="1305.05" xlink:href="#linear-gradient"/><linearGradient id="linear-gradient-13" x1="1043.76" y1="1280.31" x2="1692.17" y2="1280.31" xlink:href="#linear-gradient"/><linearGradient id="linear-gradient-14" x1="1530.07" y1="7476.41" x2="2178.56" y2="7476.41" xlink:href="#linear-gradient"/><linearGradient id="linear-gradient-15" x1="1477.8" y1="1381.68" x2="1686.73" y2="1381.68" xlink:href="#linear-gradient"/><linearGradient id="linear-gradient-16" x1="1043.76" y1="1341.38" x2="1692.17" y2="1341.38" xlink:href="#linear-gradient"/><linearGradient id="linear-gradient-17" x1="1530.07" y1="7537.48" x2="2178.56" y2="7537.48" xlink:href="#linear-gradient"/><linearGradient id="linear-gradient-18" x1="1477.8" y1="1442.75" x2="1686.73" y2="1442.75" xlink:href="#linear-gradient"/><linearGradient id="linear-gradient-19" x1="1043.76" y1="1439.56" x2="1692.17" y2="1439.56" xlink:href="#linear-gradient"/><linearGradient id="linear-gradient-20" x1="1530.07" y1="7635.66" x2="2178.56" y2="7635.66" xlink:href="#linear-gradient"/><linearGradient id="linear-gradient-21" x1="1477.8" y1="1540.93" x2="1686.73" y2="1540.93" xlink:href="#linear-gradient"/><linearGradient id="linear-gradient-22" x1="1043.76" y1="1516.19" x2="1692.17" y2="1516.19" xlink:href="#linear-gradient"/><linearGradient id="linear-gradient-23" x1="1530.07" y1="7712.3" x2="2178.56" y2="7712.3" xlink:href="#linear-gradient"/><linearGradient id="linear-gradient-24" x1="1477.8" y1="1617.56" x2="1686.73" y2="1617.56" xlink:href="#linear-gradient"/><linearGradient id="linear-gradient-25" x1="1043.76" y1="1577.26" x2="1692.17" y2="1577.26" xlink:href="#linear-gradient"/><linearGradient id="linear-gradient-26" x1="1530.07" y1="7773.36" x2="2178.56" y2="7773.36" xlink:href="#linear-gradient"/><linearGradient id="linear-gradient-27" x1="1477.8" y1="1678.63" x2="1686.73" y2="1678.63" xlink:href="#linear-gradient"/><linearGradient id="linear-gradient-28" x1="1043.76" y1="1646.71" x2="1692.17" y2="1646.71" xlink:href="#linear-gradient"/><linearGradient id="linear-gradient-29" x1="1530.07" y1="7842.81" x2="2178.56" y2="7842.81" xlink:href="#linear-gradient"/><linearGradient id="linear-gradient-30" x1="1477.8" y1="1748.08" x2="1686.73" y2="1748.08" xlink:href="#linear-gradient"/><linearGradient id="linear-gradient-31" x1="1043.76" y1="1723.34" x2="1692.17" y2="1723.34" xlink:href="#linear-gradient"/><linearGradient id="linear-gradient-32" x1="1530.07" y1="7919.44" x2="2178.56" y2="7919.44" xlink:href="#linear-gradient"/><linearGradient id="linear-gradient-33" x1="1477.8" y1="1824.71" x2="1686.73" y2="1824.71" xlink:href="#linear-gradient"/><linearGradient id="linear-gradient-34" x1="1043.76" y1="1784.4" x2="1692.17" y2="1784.4" xlink:href="#linear-gradient"/><linearGradient id="linear-gradient-35" x1="1530.07" y1="7980.51" x2="2178.56" y2="7980.51" xlink:href="#linear-gradient"/><linearGradient id="linear-gradient-36" x1="1477.8" y1="1885.78" x2="1686.73" y2="1885.78" xlink:href="#linear-gradient"/><linearGradient id="linear-gradient-37" x1="1043.76" y1="1698.19" x2="1692.17" y2="1698.19" xlink:href="#linear-gradient"/><linearGradient id="linear-gradient-38" x1="1530.07" y1="7894.3" x2="2178.56" y2="7894.3" xlink:href="#linear-gradient"/><linearGradient id="linear-gradient-39" x1="1477.8" y1="1799.57" x2="1686.73" y2="1799.57" xlink:href="#linear-gradient"/><linearGradient id="linear-gradient-40" x1="1043.76" y1="1774.83" x2="1692.17" y2="1774.83" xlink:href="#linear-gradient"/><linearGradient id="linear-gradient-41" x1="1530.07" y1="7970.93" x2="2178.56" y2="7970.93" xlink:href="#linear-gradient"/><linearGradient id="linear-gradient-42" x1="1477.8" y1="1876.2" x2="1686.73" y2="1876.2" xlink:href="#linear-gradient"/><linearGradient id="linear-gradient-43" x1="1043.76" y1="1835.89" x2="1692.17" y2="1835.89" xlink:href="#linear-gradient"/><linearGradient id="linear-gradient-44" x1="1530.07" y1="8031.99" x2="2178.56" y2="8031.99" xlink:href="#linear-gradient"/><linearGradient id="linear-gradient-45" x1="1477.8" y1="1937.26" x2="1686.73" y2="1937.26" xlink:href="#linear-gradient"/><linearGradient id="linear-gradient-46" x1="1043.76" y1="1905.34" x2="1692.17" y2="1905.34" xlink:href="#linear-gradient"/><linearGradient id="linear-gradient-47" x1="1530.07" y1="8101.44" x2="2178.56" y2="8101.44" xlink:href="#linear-gradient"/><linearGradient id="linear-gradient-48" x1="1477.8" y1="2006.71" x2="1686.73" y2="2006.71" xlink:href="#linear-gradient"/><linearGradient id="linear-gradient-49" x1="1043.76" y1="1981.97" x2="1692.17" y2="1981.97" xlink:href="#linear-gradient"/><linearGradient id="linear-gradient-50" x1="1530.07" y1="8178.07" x2="2178.56" y2="8178.07" xlink:href="#linear-gradient"/><linearGradient id="linear-gradient-51" x1="1477.8" y1="2083.34" x2="1686.73" y2="2083.34" xlink:href="#linear-gradient"/><linearGradient id="linear-gradient-52" x1="1043.76" y1="2043.04" x2="1692.17" y2="2043.04" xlink:href="#linear-gradient"/><linearGradient id="linear-gradient-53" x1="1530.07" y1="8239.14" x2="2178.56" y2="8239.14" xlink:href="#linear-gradient"/><linearGradient id="linear-gradient-54" x1="1477.8" y1="2144.41" x2="1686.73" y2="2144.41" xlink:href="#linear-gradient"/><linearGradient id="linear-gradient-55" x1="1043.76" y1="2141.22" x2="1692.17" y2="2141.22" xlink:href="#linear-gradient"/><linearGradient id="linear-gradient-56" x1="1530.07" y1="8337.32" x2="2178.56" y2="8337.32" xlink:href="#linear-gradient"/><linearGradient id="linear-gradient-57" x1="1477.8" y1="2242.59" x2="1686.73" y2="2242.59" xlink:href="#linear-gradient"/><linearGradient id="linear-gradient-58" x1="1043.76" y1="2217.85" x2="1692.17" y2="2217.85" xlink:href="#linear-gradient"/><linearGradient id="linear-gradient-59" x1="1530.07" y1="8413.96" x2="2178.56" y2="8413.96" xlink:href="#linear-gradient"/><linearGradient id="linear-gradient-60" x1="1477.8" y1="2319.23" x2="1686.73" y2="2319.23" xlink:href="#linear-gradient"/><linearGradient id="linear-gradient-61" x1="1043.76" y1="2278.92" x2="1692.17" y2="2278.92" xlink:href="#linear-gradient"/><linearGradient id="linear-gradient-62" x1="1530.07" y1="8475.02" x2="2178.56" y2="8475.02" xlink:href="#linear-gradient"/><linearGradient id="linear-gradient-63" x1="1477.8" y1="2380.29" x2="1686.73" y2="2380.29" xlink:href="#linear-gradient"/><linearGradient id="linear-gradient-64" x1="1043.76" y1="2348.37" x2="1692.17" y2="2348.37" xlink:href="#linear-gradient"/><linearGradient id="linear-gradient-65" x1="1530.07" y1="8544.47" x2="2178.56" y2="8544.47" xlink:href="#linear-gradient"/><linearGradient id="linear-gradient-66" x1="1477.8" y1="2449.74" x2="1686.73" y2="2449.74" xlink:href="#linear-gradient"/><linearGradient id="linear-gradient-67" x1="1043.76" y1="2425" x2="1692.17" y2="2425" xlink:href="#linear-gradient"/><linearGradient id="linear-gradient-68" x1="1530.07" y1="8614.39" x2="2178.56" y2="8614.39" xlink:href="#linear-gradient"/><linearGradient id="linear-gradient-69" x1="1477.8" y1="2492.95" x2="1686.73" y2="2492.95" xlink:href="#linear-gradient"/><linearGradient id="linear-gradient-70" x1="1043.76" y1="2486.07" x2="1692.17" y2="2486.07" xlink:href="#linear-gradient"/><linearGradient id="linear-gradient-71" x1="1530.07" y1="8644.92" x2="2178.56" y2="8644.92" xlink:href="#linear-gradient"/><linearGradient id="linear-gradient-72" x1="1477.8" y1="2523.48" x2="1686.73" y2="2523.48" xlink:href="#linear-gradient"/><linearGradient id="linear-gradient-73" x1="1043.76" y1="2016.7" x2="1692.17" y2="2016.7" xlink:href="#linear-gradient"/><linearGradient id="linear-gradient-74" x1="1530.07" y1="8212.8" x2="2178.56" y2="8212.8" xlink:href="#linear-gradient"/><linearGradient id="linear-gradient-75" x1="1477.8" y1="2118.07" x2="1686.73" y2="2118.07" xlink:href="#linear-gradient"/><linearGradient id="linear-gradient-76" x1="1043.76" y1="2093.33" x2="1692.17" y2="2093.33" xlink:href="#linear-gradient"/><linearGradient id="linear-gradient-77" x1="1530.07" y1="8289.43" x2="2178.56" y2="8289.43" xlink:href="#linear-gradient"/><linearGradient id="linear-gradient-78" x1="1477.8" y1="2194.7" x2="1686.73" y2="2194.7" xlink:href="#linear-gradient"/><linearGradient id="linear-gradient-79" x1="1043.76" y1="2154.39" x2="1692.17" y2="2154.39" xlink:href="#linear-gradient"/><linearGradient id="linear-gradient-80" x1="1530.07" y1="8350.5" x2="2178.56" y2="8350.5" xlink:href="#linear-gradient"/><linearGradient id="linear-gradient-81" x1="1477.8" y1="2255.77" x2="1686.73" y2="2255.77" xlink:href="#linear-gradient"/><linearGradient id="linear-gradient-82" x1="1043.76" y1="2223.84" x2="1692.17" y2="2223.84" xlink:href="#linear-gradient"/><linearGradient id="linear-gradient-83" x1="1530.07" y1="8419.94" x2="2178.56" y2="8419.94" xlink:href="#linear-gradient"/><linearGradient id="linear-gradient-84" x1="1477.8" y1="2325.21" x2="1686.73" y2="2325.21" xlink:href="#linear-gradient"/><linearGradient id="linear-gradient-85" x1="1043.76" y1="2300.47" x2="1692.17" y2="2300.47" xlink:href="#linear-gradient"/><linearGradient id="linear-gradient-86" x1="1530.07" y1="8496.58" x2="2178.56" y2="8496.58" xlink:href="#linear-gradient"/><linearGradient id="linear-gradient-87" x1="1477.8" y1="2401.84" x2="1686.73" y2="2401.84" xlink:href="#linear-gradient"/><linearGradient id="linear-gradient-88" x1="1043.76" y1="2361.54" x2="1692.17" y2="2361.54" xlink:href="#linear-gradient"/><linearGradient id="linear-gradient-89" x1="1530.07" y1="8557.64" x2="2178.56" y2="8557.64" xlink:href="#linear-gradient"/><linearGradient id="linear-gradient-90" x1="1477.8" y1="2461.22" x2="1686.73" y2="2461.22" xlink:href="#linear-gradient"/><linearGradient id="linear-gradient-91" x1="1043.76" y1="2459.72" x2="1692.17" y2="2459.72" xlink:href="#linear-gradient"/><linearGradient id="linear-gradient-92" x1="1530.07" y1="8631.75" x2="2178.56" y2="8631.75" xlink:href="#linear-gradient"/><linearGradient id="linear-gradient-93" x1="1477.8" y1="2510.31" x2="1686.73" y2="2510.31" xlink:href="#linear-gradient"/><linearGradient id="linear-gradient-94" x1="1043.76" y1="2536.36" x2="1692.17" y2="2536.36" xlink:href="#linear-gradient"/><linearGradient id="linear-gradient-95" x1="1530.07" y1="8670.06" x2="2178.56" y2="8670.06" xlink:href="#linear-gradient"/><linearGradient id="linear-gradient-96" x1="1477.8" y1="2548.63" x2="1686.73" y2="2548.63" xlink:href="#linear-gradient"/><linearGradient id="linear-gradient-97" x1="1043.76" y1="2595.73" x2="1692.17" y2="2595.73" xlink:href="#linear-gradient"/><linearGradient id="linear-gradient-98" x1="1530.07" y1="8700.6" x2="2178.56" y2="8700.6" xlink:href="#linear-gradient"/><linearGradient id="linear-gradient-99" x1="1477.8" y1="2579.16" x2="1686.73" y2="2579.16" xlink:href="#linear-gradient"/><linearGradient id="linear-gradient-100" x1="1043.76" y1="2630.45" x2="1692.17" y2="2630.45" xlink:href="#linear-gradient"/><linearGradient id="linear-gradient-101" x1="1530.07" y1="8735.32" x2="2178.56" y2="8735.32" xlink:href="#linear-gradient"/><linearGradient id="linear-gradient-102" x1="1477.8" y1="2613.88" x2="1686.73" y2="2613.88" xlink:href="#linear-gradient"/><linearGradient id="linear-gradient-103" x1="1043.76" y1="2668.77" x2="1692.17" y2="2668.77" xlink:href="#linear-gradient"/><linearGradient id="linear-gradient-104" x1="1530.07" y1="8773.64" x2="2178.56" y2="8773.64" xlink:href="#linear-gradient"/><linearGradient id="linear-gradient-105" x1="1477.8" y1="2652.2" x2="1686.73" y2="2652.2" xlink:href="#linear-gradient"/><linearGradient id="linear-gradient-106" x1="1043.76" y1="2699.3" x2="1692.17" y2="2699.3" xlink:href="#linear-gradient"/><linearGradient id="linear-gradient-107" x1="1530.07" y1="8804.17" x2="2178.56" y2="8804.17" xlink:href="#linear-gradient"/><linearGradient id="linear-gradient-108" x1="1477.8" y1="2682.73" x2="1686.73" y2="2682.73" xlink:href="#linear-gradient"/><linearGradient id="linear-gradient-109" x1="1043.76" y1="2656.19" x2="1692.17" y2="2656.19" xlink:href="#linear-gradient"/><linearGradient id="linear-gradient-110" x1="1530.07" y1="8761.06" x2="2178.56" y2="8761.06" xlink:href="#linear-gradient"/><linearGradient id="linear-gradient-111" x1="1477.8" y1="2639.63" x2="1686.73" y2="2639.63" xlink:href="#linear-gradient"/><linearGradient id="linear-gradient-112" x1="1043.76" y1="2694.51" x2="1692.17" y2="2694.51" xlink:href="#linear-gradient"/><linearGradient id="linear-gradient-113" x1="1530.07" y1="8799.38" x2="2178.56" y2="8799.38" xlink:href="#linear-gradient"/><linearGradient id="linear-gradient-114" x1="1477.8" y1="2677.94" x2="1686.73" y2="2677.94" xlink:href="#linear-gradient"/><linearGradient id="linear-gradient-115" x1="1043.76" y1="2725.04" x2="1692.17" y2="2725.04" xlink:href="#linear-gradient"/><linearGradient id="linear-gradient-116" x1="1530.07" y1="8829.91" x2="2178.56" y2="8829.91" xlink:href="#linear-gradient"/><linearGradient id="linear-gradient-117" x1="1477.8" y1="2708.47" x2="1686.73" y2="2708.47" xlink:href="#linear-gradient"/><linearGradient id="linear-gradient-118" x1="1043.76" y1="2759.77" x2="1692.17" y2="2759.77" xlink:href="#linear-gradient"/><linearGradient id="linear-gradient-119" x1="1530.07" y1="8864.64" x2="2178.56" y2="8864.64" xlink:href="#linear-gradient"/><linearGradient id="linear-gradient-120" x1="1477.8" y1="2743.2" x2="1686.73" y2="2743.2" xlink:href="#linear-gradient"/><linearGradient id="linear-gradient-121" x1="1043.76" y1="2798.08" x2="1692.17" y2="2798.08" xlink:href="#linear-gradient"/><linearGradient id="linear-gradient-122" x1="1530.07" y1="8902.95" x2="2178.56" y2="8902.95" xlink:href="#linear-gradient"/><linearGradient id="linear-gradient-123" x1="1477.8" y1="2781.51" x2="1686.73" y2="2781.51" xlink:href="#linear-gradient"/><linearGradient id="linear-gradient-124" x1="1043.76" y1="2828.61" x2="1692.17" y2="2828.61" xlink:href="#linear-gradient"/><linearGradient id="linear-gradient-125" x1="1530.07" y1="8933.49" x2="2178.56" y2="8933.49" xlink:href="#linear-gradient"/><linearGradient id="linear-gradient-126" x1="1477.8" y1="2812.05" x2="1686.73" y2="2812.05" xlink:href="#linear-gradient"/><linearGradient id="linear-gradient-127" x1="1043.76" y1="2877.71" x2="1692.17" y2="2877.71" xlink:href="#linear-gradient"/><linearGradient id="linear-gradient-128" x1="1530.07" y1="8982.58" x2="2178.56" y2="8982.58" xlink:href="#linear-gradient"/><linearGradient id="linear-gradient-129" x1="1477.8" y1="2861.14" x2="1686.73" y2="2861.14" xlink:href="#linear-gradient"/><linearGradient id="linear-gradient-130" x1="1043.76" y1="2916.02" x2="1692.17" y2="2916.02" xlink:href="#linear-gradient"/><linearGradient id="linear-gradient-131" x1="1530.07" y1="9020.89" x2="2178.56" y2="9020.89" xlink:href="#linear-gradient"/><linearGradient id="linear-gradient-132" x1="1477.8" y1="2899.46" x2="1686.73" y2="2899.46" xlink:href="#linear-gradient"/><linearGradient id="linear-gradient-133" x1="1043.76" y1="2946.56" x2="1692.17" y2="2946.56" xlink:href="#linear-gradient"/><linearGradient id="linear-gradient-134" x1="1530.07" y1="9051.43" x2="2178.56" y2="9051.43" xlink:href="#linear-gradient"/><linearGradient id="linear-gradient-135" x1="1477.8" y1="2929.99" x2="1686.73" y2="2929.99" xlink:href="#linear-gradient"/><linearGradient id="linear-gradient-136" x1="1043.76" y1="2981.28" x2="1692.17" y2="2981.28" xlink:href="#linear-gradient"/><linearGradient id="linear-gradient-137" x1="1530.07" y1="9086.15" x2="2178.56" y2="9086.15" xlink:href="#linear-gradient"/><linearGradient id="linear-gradient-138" x1="1477.8" y1="2964.71" x2="1686.73" y2="2964.71" xlink:href="#linear-gradient"/><linearGradient id="linear-gradient-139" x1="1043.76" y1="3019.6" x2="1692.17" y2="3019.6" xlink:href="#linear-gradient"/><linearGradient id="linear-gradient-140" x1="1530.07" y1="9124.47" x2="2178.56" y2="9124.47" xlink:href="#linear-gradient"/><linearGradient id="linear-gradient-141" x1="1477.8" y1="3003.03" x2="1686.73" y2="3003.03" xlink:href="#linear-gradient"/><linearGradient id="linear-gradient-142" x1="1043.76" y1="3050.13" x2="1692.17" y2="3050.13" xlink:href="#linear-gradient"/><linearGradient id="linear-gradient-143" x1="1530.07" y1="9155" x2="2178.56" y2="9155" xlink:href="#linear-gradient"/><linearGradient id="linear-gradient-144" x1="289.28" y1="203.31" x2="2519.35" y2="1490.84" gradientUnits="userSpaceOnUse"><stop offset="0" stop-color="#666"/><stop offset="0.1" stop-color="#575757"/><stop offset="0.32" stop-color="#3c3c3c"/><stop offset="0.54" stop-color="#292929"/><stop offset="0.76" stop-color="#1e1e1e"/><stop offset="1" stop-color="#1a1a1a"/></linearGradient><radialGradient id="radial-gradient" cx="1589.27" cy="5676.18" r="1456.38" gradientTransform="translate(-127.93 -2453.56) scale(0.96 0.58)" gradientUnits="userSpaceOnUse"><stop offset="0" stop-color="#fff"/><stop offset="0.37" stop-color="#fdfdfd"/><stop offset="0.51" stop-color="#f6f6f6"/><stop offset="0.6" stop-color="#ebebeb"/><stop offset="0.68" stop-color="#dadada"/><stop offset="0.75" stop-color="#c4c4c4"/><stop offset="0.8" stop-color="#a8a8a8"/><stop offset="0.86" stop-color="#888"/><stop offset="0.91" stop-color="#626262"/><stop offset="0.95" stop-color="#373737"/><stop offset="0.99" stop-color="#090909"/><stop offset="1"/></radialGradient><linearGradient id="linear-gradient-145" x1="486.24" y1="7488.75" x2="3295.5" y2="7488.75" gradientUnits="userSpaceOnUse"><stop offset="0" stop-color="#666"/><stop offset="0.03" stop-color="#5f5f5f"/><stop offset="0.22" stop-color="#3d3d3d"/><stop offset="0.41" stop-color="#222"/><stop offset="0.6" stop-color="#0f0f0f"/><stop offset="0.79" stop-color="#040404"/><stop offset="1"/></linearGradient></defs><g id="Layer_2" data-name="Layer 2"><g id="Layer_1-2" data-name="Layer 1"><ellipse class="cls-1" cx="1367.96" cy="996.53" rx="324.2" ry="182.56"/><path class="cls-2" d="M1530.07,7057v88.79s-1.23,171.58,324.31,182.54c0,0,313.35-8,324.16-182.54V7057s8.95,166.94-324.16,182.54C1854.38,7239.51,1559.72,7243.06,1530.07,7057Z" transform="translate(-486.24 -6060.53)"/><ellipse class="cls-3" cx="1582.27" cy="1097.9" rx="104.46" ry="48.05"/><ellipse class="cls-4" cx="1367.96" cy="1073.16" rx="324.2" ry="182.56"/><path class="cls-5" d="M1530.07,7133.6v88.8s-1.23,171.57,324.31,182.54c0,0,313.35-8,324.16-182.54v-88.8s8.95,166.94-324.16,182.54C1854.38,7316.14,1559.72,7319.69,1530.07,7133.6Z" transform="translate(-486.24 -6060.53)"/><ellipse class="cls-6" cx="1582.27" cy="1174.54" rx="104.46" ry="48.05"/><ellipse class="cls-7" cx="1367.96" cy="1134.23" rx="324.2" ry="182.56"/><path class="cls-8" d="M1530.07,7194.66v88.8S1528.84,7455,1854.38,7466c0,0,313.35-8,324.16-182.54v-88.8s8.95,166.95-324.16,182.54C1854.38,7377.2,1559.72,7380.76,1530.07,7194.66Z" transform="translate(-486.24 -6060.53)"/><ellipse class="cls-9" cx="1582.27" cy="1235.6" rx="104.46" ry="48.05"/><ellipse class="cls-10" cx="1367.96" cy="1203.68" rx="324.2" ry="182.56"/><path class="cls-11" d="M1530.07,7264.11v88.8s-1.23,171.58,324.31,182.54c0,0,313.35-8,324.16-182.54v-88.8s8.95,166.94-324.16,182.54C1854.38,7446.65,1559.72,7450.2,1530.07,7264.11Z" transform="translate(-486.24 -6060.53)"/><ellipse class="cls-12" cx="1582.27" cy="1305.05" rx="104.46" ry="48.05"/><ellipse class="cls-13" cx="1367.96" cy="1280.31" rx="324.2" ry="182.56"/><path class="cls-14" d="M1530.07,7340.74v88.8s-1.23,171.58,324.31,182.54c0,0,313.35-8,324.16-182.54v-88.8s8.95,166.95-324.16,182.54C1854.38,7523.28,1559.72,7526.84,1530.07,7340.74Z" transform="translate(-486.24 -6060.53)"/><ellipse class="cls-15" cx="1582.27" cy="1381.68" rx="104.46" ry="48.05"/><ellipse class="cls-16" cx="1367.96" cy="1341.38" rx="324.2" ry="182.56"/><path class="cls-17" d="M1530.07,7401.81v88.8s-1.23,171.57,324.31,182.54c0,0,313.35-8,324.16-182.54v-88.8s8.95,166.94-324.16,182.54C1854.38,7584.35,1559.72,7587.9,1530.07,7401.81Z" transform="translate(-486.24 -6060.53)"/><ellipse class="cls-18" cx="1582.27" cy="1442.75" rx="104.46" ry="48.05"/><ellipse class="cls-19" cx="1367.96" cy="1439.56" rx="324.2" ry="182.56"/><path class="cls-20" d="M1530.07,7500v88.8s-1.23,171.58,324.31,182.54c0,0,313.35-8,324.16-182.54V7500s8.95,166.95-324.16,182.54C1854.38,7682.53,1559.72,7686.09,1530.07,7500Z" transform="translate(-486.24 -6060.53)"/><ellipse class="cls-21" cx="1582.27" cy="1540.93" rx="104.46" ry="48.05"/><ellipse class="cls-22" cx="1367.96" cy="1516.19" rx="324.2" ry="182.56"/><path class="cls-23" d="M1530.07,7576.63v88.8S1528.84,7837,1854.38,7848c0,0,313.35-8,324.16-182.53v-88.8s8.95,166.94-324.16,182.54C1854.38,7759.17,1559.72,7762.72,1530.07,7576.63Z" transform="translate(-486.24 -6060.53)"/><ellipse class="cls-24" cx="1582.27" cy="1617.56" rx="104.46" ry="48.05"/><ellipse class="cls-25" cx="1367.96" cy="1577.26" rx="324.2" ry="182.56"/><path class="cls-26" d="M1530.07,7637.69v88.8s-1.23,171.58,324.31,182.54c0,0,313.35-8,324.16-182.54v-88.8s8.95,166.94-324.16,182.54C1854.38,7820.23,1559.72,7823.78,1530.07,7637.69Z" transform="translate(-486.24 -6060.53)"/><ellipse class="cls-27" cx="1582.27" cy="1678.63" rx="104.46" ry="48.05"/><ellipse class="cls-28" cx="1367.96" cy="1646.71" rx="324.2" ry="182.56"/><path class="cls-29" d="M1530.07,7707.14v88.8s-1.23,171.57,324.31,182.54c0,0,313.35-8,324.16-182.54v-88.8s8.95,166.94-324.16,182.54C1854.38,7889.68,1559.72,7893.23,1530.07,7707.14Z" transform="translate(-486.24 -6060.53)"/><ellipse class="cls-30" cx="1582.27" cy="1748.08" rx="104.46" ry="48.05"/><ellipse class="cls-31" cx="1367.96" cy="1723.34" rx="324.2" ry="182.56"/><path class="cls-32" d="M1530.07,7783.77v88.8s-1.23,171.58,324.31,182.54c0,0,313.35-8,324.16-182.54v-88.8s8.95,166.94-324.16,182.54C1854.38,7966.31,1559.72,7969.86,1530.07,7783.77Z" transform="translate(-486.24 -6060.53)"/><ellipse class="cls-33" cx="1582.27" cy="1824.71" rx="104.46" ry="48.05"/><ellipse class="cls-34" cx="1367.96" cy="1784.4" rx="324.2" ry="182.56"/><path class="cls-35" d="M1530.07,7844.84v88.8s-1.23,171.57,324.31,182.54c0,0,313.35-8,324.16-182.54v-88.8s8.95,166.94-324.16,182.54C1854.38,8027.38,1559.72,8030.93,1530.07,7844.84Z" transform="translate(-486.24 -6060.53)"/><ellipse class="cls-36" cx="1582.27" cy="1885.78" rx="104.46" ry="48.05"/><ellipse class="cls-37" cx="1367.96" cy="1698.19" rx="324.2" ry="182.56"/><path class="cls-38" d="M1530.07,7758.63v88.8S1528.84,8019,1854.38,8030c0,0,313.35-8,324.16-182.54v-88.8s8.95,166.94-324.16,182.54C1854.38,7941.17,1559.72,7944.72,1530.07,7758.63Z" transform="translate(-486.24 -6060.53)"/><ellipse class="cls-39" cx="1582.27" cy="1799.57" rx="104.46" ry="48.05"/><ellipse class="cls-40" cx="1367.96" cy="1774.83" rx="324.2" ry="182.56"/><path class="cls-41" d="M1530.07,7835.26v88.8s-1.23,171.57,324.31,182.54c0,0,313.35-8,324.16-182.54v-88.8s8.95,166.94-324.16,182.54C1854.38,8017.8,1559.72,8021.35,1530.07,7835.26Z" transform="translate(-486.24 -6060.53)"/><ellipse class="cls-42" cx="1582.27" cy="1876.2" rx="104.46" ry="48.05"/><ellipse class="cls-43" cx="1367.96" cy="1835.89" rx="324.2" ry="182.56"/><path class="cls-44" d="M1530.07,7896.33v88.79s-1.23,171.58,324.31,182.54c0,0,313.35-8,324.16-182.54v-88.79s8.95,166.94-324.16,182.53C1854.38,8078.86,1559.72,8082.42,1530.07,7896.33Z" transform="translate(-486.24 -6060.53)"/><ellipse class="cls-45" cx="1582.27" cy="1937.26" rx="104.46" ry="48.05"/><ellipse class="cls-46" cx="1367.96" cy="1905.34" rx="324.2" ry="182.56"/><path class="cls-47" d="M1530.07,7965.77v88.8s-1.23,171.58,324.31,182.54c0,0,313.35-8,324.16-182.54v-88.8s8.95,166.94-324.16,182.54C1854.38,8148.31,1559.72,8151.86,1530.07,7965.77Z" transform="translate(-486.24 -6060.53)"/><ellipse class="cls-48" cx="1582.27" cy="2006.71" rx="104.46" ry="48.05"/><ellipse class="cls-49" cx="1367.96" cy="1981.97" rx="324.2" ry="182.56"/><path class="cls-50" d="M1530.07,8042.41v88.79s-1.23,171.58,324.31,182.54c0,0,313.35-8,324.16-182.54v-88.79s8.95,166.94-324.16,182.53C1854.38,8224.94,1559.72,8228.5,1530.07,8042.41Z" transform="translate(-486.24 -6060.53)"/><ellipse class="cls-51" cx="1582.27" cy="2083.34" rx="104.46" ry="48.05"/><ellipse class="cls-52" cx="1367.96" cy="2043.04" rx="324.2" ry="182.56"/><path class="cls-53" d="M1530.07,8103.47v88.8s-1.23,171.57,324.31,182.54c0,0,313.35-8,324.16-182.54v-88.8s8.95,166.94-324.16,182.54C1854.38,8286,1559.72,8289.56,1530.07,8103.47Z" transform="translate(-486.24 -6060.53)"/><ellipse class="cls-54" cx="1582.27" cy="2144.41" rx="104.46" ry="48.05"/><ellipse class="cls-55" cx="1367.96" cy="2141.22" rx="324.2" ry="182.56"/><path class="cls-56" d="M1530.07,8201.66v88.79S1528.84,8462,1854.38,8473c0,0,313.35-8,324.16-182.54v-88.79s8.95,166.94-324.16,182.53C1854.38,8384.19,1559.72,8387.75,1530.07,8201.66Z" transform="translate(-486.24 -6060.53)"/><ellipse class="cls-57" cx="1582.27" cy="2242.59" rx="104.46" ry="48.05"/><ellipse class="cls-58" cx="1367.96" cy="2217.85" rx="324.2" ry="182.56"/><path class="cls-59" d="M1530.07,8278.29v88.8s-1.23,171.57,324.31,182.54c0,0,313.35-8,324.16-182.54v-88.8s8.95,166.94-324.16,182.54C1854.38,8460.83,1559.72,8464.38,1530.07,8278.29Z" transform="translate(-486.24 -6060.53)"/><ellipse class="cls-60" cx="1582.27" cy="2319.23" rx="104.46" ry="48.05"/><ellipse class="cls-61" cx="1367.96" cy="2278.92" rx="324.2" ry="182.56"/><path class="cls-62" d="M1530.07,8339.35v88.8s-1.23,171.58,324.31,182.54c0,0,313.35-8,324.16-182.54v-88.8s8.95,166.95-324.16,182.54C1854.38,8521.89,1559.72,8525.44,1530.07,8339.35Z" transform="translate(-486.24 -6060.53)"/><ellipse class="cls-63" cx="1582.27" cy="2380.29" rx="104.46" ry="48.05"/><ellipse class="cls-64" cx="1367.96" cy="2348.37" rx="324.2" ry="182.56"/><path class="cls-65" d="M1530.07,8408.8v88.8s-1.23,171.57,324.31,182.54c0,0,313.35-8,324.16-182.54v-88.8s8.95,166.94-324.16,182.54C1854.38,8591.34,1559.72,8594.89,1530.07,8408.8Z" transform="translate(-486.24 -6060.53)"/><ellipse class="cls-66" cx="1582.27" cy="2449.74" rx="104.46" ry="48.05"/><ellipse class="cls-67" cx="1367.96" cy="2425" rx="324.2" ry="182.56"/><path class="cls-68" d="M1530.07,8485.43v88.8s-1.23,171.58,324.31,182.54c0,0,313.35-8,324.16-182.54v-88.8s8.95,166.94-324.16,182.54C1854.38,8668,1559.72,8671.52,1530.07,8485.43Z" transform="translate(-486.24 -6060.53)"/><ellipse class="cls-69" cx="1582.27" cy="2526.37" rx="104.46" ry="48.05"/><ellipse class="cls-70" cx="1367.96" cy="2486.07" rx="324.2" ry="182.56"/><path class="cls-71" d="M1530.07,8546.5v88.8s-1.23,171.57,324.31,182.54c0,0,313.35-8,324.16-182.54v-88.8s8.95,166.94-324.16,182.54C1854.38,8729,1559.72,8732.59,1530.07,8546.5Z" transform="translate(-486.24 -6060.53)"/><ellipse class="cls-72" cx="1582.27" cy="2587.44" rx="104.46" ry="48.05"/><ellipse class="cls-73" cx="1367.96" cy="2016.7" rx="324.2" ry="182.56"/><path class="cls-74" d="M1530.07,8077.13v88.8s-1.23,171.57,324.31,182.54c0,0,313.35-8,324.16-182.54v-88.8s8.95,166.94-324.16,182.54C1854.38,8259.67,1559.72,8263.22,1530.07,8077.13Z" transform="translate(-486.24 -6060.53)"/><ellipse class="cls-75" cx="1582.27" cy="2118.07" rx="104.46" ry="48.05"/><ellipse class="cls-76" cx="1367.96" cy="2093.33" rx="324.2" ry="182.56"/><path class="cls-77" d="M1530.07,8153.76v88.8s-1.23,171.57,324.31,182.54c0,0,313.35-8,324.16-182.54v-88.8s8.95,166.94-324.16,182.54C1854.38,8336.3,1559.72,8339.85,1530.07,8153.76Z" transform="translate(-486.24 -6060.53)"/><ellipse class="cls-78" cx="1582.27" cy="2194.7" rx="104.46" ry="48.05"/><ellipse class="cls-79" cx="1367.96" cy="2154.39" rx="324.2" ry="182.56"/><path class="cls-80" d="M1530.07,8214.83v88.8s-1.23,171.57,324.31,182.53c0,0,313.35-8,324.16-182.53v-88.8s8.95,166.94-324.16,182.54C1854.38,8397.37,1559.72,8400.92,1530.07,8214.83Z" transform="translate(-486.24 -6060.53)"/><ellipse class="cls-81" cx="1582.27" cy="2255.77" rx="104.46" ry="48.05"/><ellipse class="cls-82" cx="1367.96" cy="2223.84" rx="324.2" ry="182.56"/><path class="cls-83" d="M1530.07,8284.27v88.8s-1.23,171.58,324.31,182.54c0,0,313.35-8,324.16-182.54v-88.8s8.95,166.95-324.16,182.54C1854.38,8466.81,1559.72,8470.37,1530.07,8284.27Z" transform="translate(-486.24 -6060.53)"/><ellipse class="cls-84" cx="1582.27" cy="2325.21" rx="104.46" ry="48.05"/><ellipse class="cls-85" cx="1367.96" cy="2300.47" rx="324.2" ry="182.56"/><path class="cls-86" d="M1530.07,8360.91v88.8s-1.23,171.57,324.31,182.53c0,0,313.35-8,324.16-182.53v-88.8s8.95,166.94-324.16,182.54C1854.38,8543.45,1559.72,8547,1530.07,8360.91Z" transform="translate(-486.24 -6060.53)"/><ellipse class="cls-87" cx="1582.27" cy="2401.84" rx="104.46" ry="48.05"/><ellipse class="cls-88" cx="1367.96" cy="2361.54" rx="324.2" ry="182.56"/><path class="cls-89" d="M1530.07,8422v88.8s-1.23,171.58,324.31,182.54c0,0,313.35-8,324.16-182.54V8422s8.95,166.94-324.16,182.54C1854.38,8604.51,1559.72,8608.06,1530.07,8422Z" transform="translate(-486.24 -6060.53)"/><ellipse class="cls-90" cx="1582.27" cy="2462.91" rx="104.46" ry="48.05"/><ellipse class="cls-91" cx="1367.96" cy="2459.72" rx="324.2" ry="182.56"/><path class="cls-92" d="M1530.07,8520.16V8609s-1.23,171.57,324.31,182.54c0,0,313.35-8,324.16-182.54v-88.8s8.95,166.94-324.16,182.54C1854.38,8702.7,1559.72,8706.25,1530.07,8520.16Z" transform="translate(-486.24 -6060.53)"/><ellipse class="cls-93" cx="1582.27" cy="2561.1" rx="104.46" ry="48.05"/><ellipse class="cls-94" cx="1367.96" cy="2536.36" rx="324.2" ry="182.56"/><path class="cls-95" d="M1530.07,8596.79v88.8s-1.23,171.57,324.31,182.54c0,0,313.35-8,324.16-182.54v-88.8s8.95,166.94-324.16,182.54C1854.38,8779.33,1559.72,8782.88,1530.07,8596.79Z" transform="translate(-486.24 -6060.53)"/><ellipse class="cls-96" cx="1582.27" cy="2637.73" rx="104.46" ry="48.05"/><ellipse class="cls-97" cx="1367.96" cy="2597.42" rx="324.2" ry="182.56"/><path class="cls-98" d="M1530.07,8657.86v88.79s-1.23,171.58,324.31,182.54c0,0,313.35-8,324.16-182.54v-88.79s8.95,166.94-324.16,182.53C1854.38,8840.39,1559.72,8844,1530.07,8657.86Z" transform="translate(-486.24 -6060.53)"/><ellipse class="cls-99" cx="1582.27" cy="2698.79" rx="104.46" ry="48.05"/><ellipse class="cls-100" cx="1367.96" cy="2666.87" rx="324.2" ry="182.56"/><path class="cls-101" d="M1530.07,8727.3v88.8s-1.23,171.58,324.31,182.54c0,0,313.35-8,324.16-182.54v-88.8s8.95,166.94-324.16,182.54C1854.38,8909.84,1559.72,8913.39,1530.07,8727.3Z" transform="translate(-486.24 -6060.53)"/><ellipse class="cls-102" cx="1582.27" cy="2768.24" rx="104.46" ry="48.05"/><ellipse class="cls-103" cx="1367.96" cy="2743.5" rx="324.2" ry="182.56"/><path class="cls-104" d="M1530.07,8803.93v88.8s-1.23,171.58,324.31,182.54c0,0,313.35-8,324.16-182.54v-88.8s8.95,166.95-324.16,182.54C1854.38,8986.47,1559.72,8990,1530.07,8803.93Z" transform="translate(-486.24 -6060.53)"/><ellipse class="cls-105" cx="1582.27" cy="2844.87" rx="104.46" ry="48.05"/><ellipse class="cls-106" cx="1367.96" cy="2804.57" rx="324.2" ry="182.56"/><path class="cls-107" d="M1530.07,8865v88.8s-1.23,171.57,324.31,182.54c0,0,313.35-8,324.16-182.54V8865s8.95,166.94-324.16,182.54C1854.38,9047.54,1559.72,9051.09,1530.07,8865Z" transform="translate(-486.24 -6060.53)"/><ellipse class="cls-108" cx="1582.27" cy="2905.94" rx="104.46" ry="48.05"/><ellipse class="cls-109" cx="1367.96" cy="2718.36" rx="324.2" ry="182.56"/><path class="cls-110" d="M1530.07,8778.79v88.8s-1.23,171.57,324.31,182.54c0,0,313.35-8,324.16-182.54v-88.8s8.95,166.94-324.16,182.54C1854.38,8961.33,1559.72,8964.88,1530.07,8778.79Z" transform="translate(-486.24 -6060.53)"/><ellipse class="cls-111" cx="1582.27" cy="2819.73" rx="104.46" ry="48.05"/><ellipse class="cls-112" cx="1367.96" cy="2794.99" rx="324.2" ry="182.56"/><path class="cls-113" d="M1530.07,8855.42v88.8s-1.23,171.58,324.31,182.54c0,0,313.35-8,324.16-182.54v-88.8s8.95,166.94-324.16,182.54C1854.38,9038,1559.72,9041.51,1530.07,8855.42Z" transform="translate(-486.24 -6060.53)"/><ellipse class="cls-114" cx="1582.27" cy="2896.36" rx="104.46" ry="48.05"/><ellipse class="cls-115" cx="1367.96" cy="2856.05" rx="324.2" ry="182.56"/><path class="cls-116" d="M1530.07,8916.49v88.8s-1.23,171.57,324.31,182.54c0,0,313.35-8,324.16-182.54v-88.8s8.95,166.94-324.16,182.54C1854.38,9099,1559.72,9102.58,1530.07,8916.49Z" transform="translate(-486.24 -6060.53)"/><ellipse class="cls-117" cx="1582.27" cy="2957.43" rx="104.46" ry="48.05"/><ellipse class="cls-118" cx="1367.96" cy="2925.5" rx="324.2" ry="182.56"/><path class="cls-119" d="M1530.07,8985.94v88.79s-1.23,171.58,324.31,182.54c0,0,313.35-8,324.16-182.54v-88.79s8.95,166.94-324.16,182.53C1854.38,9168.47,1559.72,9172,1530.07,8985.94Z" transform="translate(-486.24 -6060.53)"/><ellipse class="cls-120" cx="1582.27" cy="3026.87" rx="104.46" ry="48.05"/><ellipse class="cls-121" cx="1367.96" cy="3002.13" rx="324.2" ry="182.56"/><path class="cls-122" d="M1530.07,9062.57v88.8s-1.23,171.57,324.31,182.54c0,0,313.35-8,324.16-182.54v-88.8s8.95,166.94-324.16,182.54C1854.38,9245.11,1559.72,9248.66,1530.07,9062.57Z" transform="translate(-486.24 -6060.53)"/><ellipse class="cls-123" cx="1582.27" cy="3103.51" rx="104.46" ry="48.05"/><ellipse class="cls-124" cx="1367.96" cy="3063.2" rx="324.2" ry="182.56"/><path class="cls-125" d="M1530.07,9123.63v88.8S1528.84,9384,1854.38,9395c0,0,313.35-8,324.16-182.54v-88.8s8.95,167-324.16,182.54C1854.38,9306.17,1559.72,9309.72,1530.07,9123.63Z" transform="translate(-486.24 -6060.53)"/><ellipse class="cls-126" cx="1582.27" cy="3164.57" rx="104.46" ry="48.05"/><ellipse class="cls-127" cx="1367.96" cy="3161.38" rx="324.2" ry="182.56"/><path class="cls-128" d="M1530.07,9221.82v88.8s-1.23,171.57,324.31,182.54c0,0,313.35-8,324.16-182.54v-88.8s8.95,166.94-324.16,182.54C1854.38,9404.36,1559.72,9407.91,1530.07,9221.82Z" transform="translate(-486.24 -6060.53)"/><ellipse class="cls-129" cx="1582.27" cy="3262.76" rx="104.46" ry="48.05"/><ellipse class="cls-130" cx="1367.96" cy="3238.02" rx="324.2" ry="182.56"/><path class="cls-131" d="M1530.07,9298.45v88.8s-1.23,171.57,324.31,182.54c0,0,313.35-8,324.16-182.54v-88.8s8.95,166.94-324.16,182.54C1854.38,9481,1559.72,9484.54,1530.07,9298.45Z" transform="translate(-486.24 -6060.53)"/><ellipse class="cls-132" cx="1582.27" cy="3339.39" rx="104.46" ry="48.05"/><ellipse class="cls-133" cx="1367.96" cy="3299.08" rx="324.2" ry="182.56"/><path class="cls-134" d="M1530.07,9359.52v88.8s-1.23,171.57,324.31,182.53c0,0,313.35-8,324.16-182.53v-88.8s8.95,166.94-324.16,182.54C1854.38,9542.06,1559.72,9545.61,1530.07,9359.52Z" transform="translate(-486.24 -6060.53)"/><ellipse class="cls-135" cx="1582.27" cy="3400.45" rx="104.46" ry="48.05"/><ellipse class="cls-136" cx="1367.96" cy="3368.53" rx="324.2" ry="182.56"/><path class="cls-137" d="M1530.07,9429v88.8s-1.23,171.58,324.31,182.54c0,0,313.35-8,324.16-182.54V9429s8.95,167-324.16,182.54C1854.38,9611.5,1559.72,9615.06,1530.07,9429Z" transform="translate(-486.24 -6060.53)"/><ellipse class="cls-138" cx="1582.27" cy="3469.9" rx="104.46" ry="48.05"/><ellipse class="cls-139" cx="1367.96" cy="3445.16" rx="324.2" ry="182.56"/><path class="cls-140" d="M1530.07,9505.6v88.79s-1.23,171.58,324.31,182.54c0,0,313.35-8,324.16-182.54V9505.6s8.95,166.94-324.16,182.54C1854.38,9688.14,1559.72,9691.69,1530.07,9505.6Z" transform="translate(-486.24 -6060.53)"/><ellipse class="cls-141" cx="1582.27" cy="3546.53" rx="104.46" ry="48.05"/><ellipse class="cls-142" cx="1367.96" cy="3506.23" rx="324.2" ry="182.56"/><path class="cls-143" d="M1530.07,9566.66v88.8S1528.84,9827,1854.38,9838c0,0,313.35-8,324.16-182.54v-88.8s8.95,166.94-324.16,182.54C1854.38,9749.2,1559.72,9752.75,1530.07,9566.66Z" transform="translate(-486.24 -6060.53)"/><ellipse class="cls-144" cx="1404.31" cy="847.08" rx="1403.64" ry="846.58"/><path class="cls-145" d="M3294.5,6881l1,349.62s-25,808.63-1404,865.88c0,0-1250,3.07-1404-865.88l-1-349.62s-54,793.3,1404,865.88C1890.5,7746.88,3159.5,7780.61,3294.5,6881Z" transform="translate(-486.24 -6060.53)"/></g></g></svg>