<svg xmlns="http://www.w3.org/2000/svg" viewBox="0 0 127.93 231.84"><defs><style>.cls-1{fill:#d1d0e1;}.cls-2{fill:#e8e7f0;}.cls-3{fill:#cac9cf;}.cls-4{fill:#d1cfd8;}.cls-5{fill:#dbdbe7;}.cls-6{fill:#e2e1ec;}.cls-7{fill:#b0a9bb;}.cls-8{fill:#c7c6d9;}.cls-9{fill:#c0bfd3;}.cls-10{fill:#c2c1d7;}.cls-11{fill:#bdbcd2;}.cls-12{fill:#bbb9c5;}.cls-13{fill:#b8b6cc;}.cls-14{fill:#f6f5f9;}.cls-15{fill:#cecedf;}.cls-16{fill:#bbb8cd;}.cls-17{fill:#f6f6fa;}.cls-18{fill:#cecdde;}.cls-19{fill:#bfbdd3;}.cls-20{fill:#f1f1f7;}.cls-21{fill:#cfcedf;}.cls-22{fill:#cbcadc;}.cls-23{fill:#c9c8db;}.cls-24{fill:#ecebf3;}.cls-25{fill:#d5d7e1;}.cls-26{fill:#d0d2de;}.cls-27{fill:#c4c3d7;}.cls-28{fill:#e5e5ea;}.cls-29{fill:#d9dadf;}.cls-30{fill:#d2d2d9;}.cls-31{fill:#cbcad3;}.cls-32{fill:#c8c7d1;}.cls-33{fill:#ceced6;}.cls-34{fill:#bcbbc8;}.cls-35{fill:#c5c4ce;}.cls-36{fill:#c7c8d4;}.cls-37{fill:#b3afba;}.cls-38{fill:#b7b3be;}.cls-39{fill:#b0a8b9;}.cls-40{fill:#d4d3e3;}.cls-41{fill:#c0bfd4;}.cls-42{fill:#aea5b6;}.cls-43{fill:#aca3b4;}.cls-44{fill:#dad9e7;}.cls-45{fill:#dfdfeb;}.cls-46{fill:#e3e3ee;}.cls-47{fill:#c0c0cc;}.cls-48{fill:#c3c2cd;}.cls-49{fill:#c4c4da;}.cls-50{fill:#a89eae;}.cls-51{fill:#b3adbf;}.cls-52{fill:#ada5b7;}.cls-53{fill:#aca4b5;}.cls-54{fill:#b5b0c3;}.cls-55{fill:#c5c4d7;}.cls-56{fill:#b6b1c5;}.cls-57{fill:#c1c0d5;}.cls-58{fill:#c9c8da;}.cls-59{fill:#b9b7cc;}.cls-60{fill:#c2c0d5;}.cls-61{fill:#ededf4;}.cls-62{fill:#bfbed4;}.cls-63{fill:#a89eaf;}.cls-64{fill:#bbb9cf;}.cls-65{fill:#aba2b3;}.cls-66{fill:#b6b3c8;}.cls-67{fill:#b1aabc;}.cls-68{fill:#a79dad;}.cls-69{fill:#f6f6f9;}.cls-70{fill:#bebdd3;}.cls-71{fill:#c3c2d6;}.cls-72{fill:#e7e7f0;}.cls-73{fill:#ebebf3;}.cls-74{fill:#d7d6e5;}.cls-75{fill:#bab9cf;}.cls-76{fill:#aea5b7;}.cls-77{fill:#d1d2e6;}.cls-78{fill:#f9f9fc;}.cls-79{fill:#f5f5fa;}.cls-80{fill:#c2c0d4;}.cls-81{fill:#e5e5ef;}.cls-82{fill:#e9e9f1;}.cls-83{fill:#e0e0ec;}.cls-84{fill:#dcdbe8;}.cls-85{fill:#d9d9e7;}.cls-86{fill:#ececf3;}.cls-87{fill:#b6b6c3;}.cls-88{fill:#cbc9dd;}.cls-89{fill:#d6d5db;}.cls-90{fill:#f0f0f6;}.cls-91{fill:#e4e4ee;}.cls-92{fill:#cac9db;}.cls-93{fill:#b8b8c4;}.cls-94{fill:#babac6;}.cls-95{fill:#bfbdc9;}.cls-96{fill:#d7d8eb;}.cls-97{fill:#d4d5e9;}.cls-98{fill:#c5c5d1;}.cls-99{fill:#c2c2ce;}.cls-100{fill:#b2adb7;}.cls-101{fill:#cccce1;}.cls-102{fill:#b3abbc;}.cls-103{fill:#d9d8e6;}.cls-104{fill:#d6d5e4;}.cls-105{fill:#c5c4d8;}.cls-106{fill:#b6b2c6;}.cls-107{fill:#c7c7dd;}.cls-108{fill:#bebeca;}.cls-109{fill:#cbcbe0;}.cls-110{fill:#cac9dd;}.cls-111{fill:#cfcfe4;}.cls-112{fill:#b6b4cb;}.cls-113{fill:#b7b6cc;}.cls-114{fill:#aaa0b1;}.cls-115{fill:#cacadf;}.cls-116{fill:#b2acbf;}.cls-117{fill:#cac9dc;}.cls-118{fill:#bab5c9;}.cls-119{fill:#c8c8dd;}.cls-120{fill:#cccbe0;}.cls-121{fill:#d3d4e8;}.cls-122{fill:#d8d9ec;}.cls-123{fill:#c6c6dc;}.cls-124{fill:#bbbad0;}.cls-125{fill:#b8b5ca;}.cls-126{fill:#b5b3c9;}.cls-127{fill:#e3e2ed;}.cls-128{fill:#b6b4ca;}.cls-129{fill:#b3adc0;}.cls-130{fill:#b3b1c7;}.cls-131{fill:#a89dae;}.cls-132{fill:#d3d3e8;}.cls-133{fill:#efeff5;}.cls-134{fill:#dedeea;}.cls-135{fill:#c4c1d4;}.cls-136{fill:#c7c4d8;}.cls-137{fill:#d2d2e5;}.cls-138{fill:#cfcee2;}.cls-139{fill:#bcb7c9;}.cls-140{fill:#bfbacc;}.cls-141{fill:#c2bdd0;}.cls-142{fill:#b9b2c4;}.cls-143{fill:#c3c3d9;}.cls-144{fill:#cecee3;}.cls-145{fill:#d1d1e6;}.cls-146{fill:#b6aec0;}.cls-147{fill:#d5d6e9;}.cls-148{fill:#c5c5db;}.cls-149{fill:#b0a8bb;}.cls-150{fill:#d2d2e7;}.cls-151{fill:#aba1b3;}</style></defs><g id="Layer_2" data-name="Layer 2"><g id="Layer_1-2" data-name="Layer 1"><path class="cls-1" d="M0,156.89l2-2.06c2.6,1.38,5.31,1.24,8.18,1.09,8.42-.45,16.81-1.61,25.26-1.47,2.13,0,4.36-.15,6,1.73a4.53,4.53,0,0,1,.15,4.23,1.56,1.56,0,0,1-1.33.84c-3.22-1.71-6.48-1.57-10.06-.93-7.29,1.31-14.8.45-22.15,1.68-1.43.24-3-.11-4.36.59-2,1.46-1.13,3.6-1.29,5.47-.26,2.9.56,5.92-1,8.68a1,1,0,0,1-1.36.14Z"/><path class="cls-2" d="M43.93,1V0h15a1,1,0,0,1-.17,1.41,4.33,4.33,0,0,1-1.45.66,41.73,41.73,0,0,1-6.22.29c-3.69-.62-5.18,1-4.84,4.65A12,12,0,0,1,45.91,11c-1.72,2.38-1.94,6.47-6.45,5.7C37.59,10.47,37.86,4.9,43.93,1Z"/><path class="cls-3" d="M96,230.88c0,.32-.07.64-.1,1H33c0-.32-.05-.64-.09-1,2.54-2.31,5.67-1.28,8.55-1.41,3.46-.17,6.94,0,10.41-.06q9.59,0,19.16,0c6.31,0,12.61.12,18.91-.1C92,229.24,94.25,229.12,96,230.88Z"/><path class="cls-4" d="M0,176.88H1a3.27,3.27,0,0,1,1,1.45,49.67,49.67,0,0,1,0,13.23A3.12,3.12,0,0,1,.93,193a2.89,2.89,0,0,1-.93-.11Z"/><path class="cls-5" d="M84.87,0,85,.94c-2.87,2.48-6.35,1-9.52,1.51-1.76-.16-3.58,0-5.19-.93A1.08,1.08,0,0,1,69.89,0Z"/><path class="cls-6" d="M69.89,0V1c-1.12,1.25-2.63,1.33-4.15,1.41C63.42,2.15,60.88,3,58.91,1V0Z"/><path class="cls-7" d="M108.78,26.16c.41,19.28-.8,38.53-1.06,57.81-.89,3.52-.12,7.12-.45,10.67-.94,2.64.08,5.49-.86,8.14a31.19,31.19,0,0,1-20.91,7c-1-1.49-1-3.19-1-4.88.08-1.94-.12-3.92.69-5.77,3.59-4.17,9-4.51,13.69-6,4.43-1.37,6.35-3.59,5.58-8.13,1.38-8,1.08-16.07.91-24.13.31-6.68-.2-13.37.33-20,1.24-4.08.84-8.25.61-12.4C106.49,27,106.78,25.66,108.78,26.16Z"/><path class="cls-8" d="M92,8c3.82,3.86,8.57,6.87,11,12-4,.23-5.64-2.94-7.88-5.28a18.46,18.46,0,0,0-2.38-2.54c-1.53-1.23-2.37-.69-2.68,1.12-.36,2.13-.24,4.31-.52,6.45a59.22,59.22,0,0,0-.13,12,2.82,2.82,0,0,1-2.28,2.82c-2.86-.2-3.68-2.62-4.95-4.56a6.61,6.61,0,0,1-.44-1.5c-.79-6.33.89-12.83-1.3-19.07.83-2.4.9-5,2-7.32C85.15.52,86.69,2.38,88.34,4A50.54,50.54,0,0,1,92,8Z"/><path class="cls-9" d="M95.86,14A27.49,27.49,0,0,0,103,20a16.71,16.71,0,0,1,4.79,5c-3.07,3-5.2,6.89-8.49,9.73-1.32,1.14-2.32,3-4.56,2.43-3.49-2.71-1.86-6.58-2.25-10,0-1.14-.08-2.27,0-3.41.08-2-.22-4,.24-6C93.12,16,93.35,14,95.86,14Z"/><path class="cls-10" d="M107.71,111.9a14.81,14.81,0,0,1,.11,2.48c-1,8.63.45,16.61,6.07,23.52-1.89.61-2.86-.85-4-1.78-3.29.15-1.52,2.66-1.53,3.88-.15,11.92-.12,23.84-.07,35.76a56.56,56.56,0,0,1-.16,6c-.3,1.56-.87,2.91-2.54,3.46a1.73,1.73,0,0,1-1.47-1c-1-2.39-.59-4.9-.62-7.37-.13-14.39.21-28.8-.21-43.19,3.36-6.25,1.77-13.13,2.42-19.73a4.74,4.74,0,0,1,.6-1.58A1.08,1.08,0,0,1,107.71,111.9Z"/><path class="cls-11" d="M110.83,135.91l3.06,2a13.82,13.82,0,0,1,5,7,1.6,1.6,0,0,1-1.51.25c-1.29-.37-2-1.72-3.82-2.24-1.19,11.47.55,22.92-.94,34.25-.82,1.26-1.6,2.65-3.44,1.38-1.28-1.68-1.37-3.65-1.37-5.65,0-10.55,0-21.1,0-31.65C107.89,139,107.5,136.35,110.83,135.91Z"/><path class="cls-12" d="M127.93,157.75q0,17.13,0,34.25c-.31,2.07.33,4.51-1.8,5.94-4.42,3-7,7.83-11.26,11a2.21,2.21,0,0,1-.73-1.36,3.52,3.52,0,0,1,1.23-2.79c5.7-5.17,8.27-11.46,7.07-19.21-.36-2.27-.78-4.66,1-6.68,2.1-2.27,1.85-5.12,2-7.9.29-4.87-.86-9.83.87-14.62l.62-.56C127.25,156.45,127.59,157.1,127.93,157.75Z"/><path class="cls-13" d="M117.82,144.9l1.11,0a35.79,35.79,0,0,1,8,10.95l-.13.11c-2.45.7-3.17-2-5.32-2.68a36.59,36.59,0,0,0,.25,12.66,5.31,5.31,0,0,1-.21,1.59c-1.35,2.27-2.55,4.81-6,3.17-2.39-7.88-1.21-15.88-.74-23.84C114.87,145.39,115.77,143.89,117.82,144.9Z"/><path class="cls-14" d="M95.76,36.93c4.34-3.66,6.52-9.48,12-12l1,1.2a2.53,2.53,0,0,0-1.9,1.84,4.61,4.61,0,0,1-.72,1.94c-5.24,6.73-11.31,12.73-16.74,19.3a3.2,3.2,0,0,1-2.15,1.08A2.22,2.22,0,0,1,85.6,49.1a3.13,3.13,0,0,1,.79-2.65,64.74,64.74,0,0,0,4.56-6A13.44,13.44,0,0,1,95.76,36.93Z"/><path class="cls-15" d="M92,8c-3.47-1.31-4.54-6.3-9.09-6-2.64,1.16-5,2.66-6.11,5.51A7.87,7.87,0,0,1,71,8a3.7,3.7,0,0,1-1.47-1c-1-4.86-1-4.86,5.38-6L85,.94A11.84,11.84,0,0,1,92,8Z"/><path class="cls-16" d="M107.71,111.9c-.29,0-.58,0-.87,0a5.07,5.07,0,0,1-1.29-5c.88-4,.41-8.05,1.29-12,.47-3.64-1-7.44.88-11Q107.72,97.94,107.71,111.9Z"/><path class="cls-17" d="M28.85,36c2.07-3.2-1.55-4.28-2.64-5.91-4.11-6.16-4.32-6.56,1-11.88C28.4,17.08,29.71,16.07,31,15c2.46,3.44,1.43,7.39,1.27,11-.24,5.6.85,10.48,4.83,14.54,1.17,1.34,2.37,2.64,3.47,4,1.14,1.68,2.39,3.23,4.48,3.8,11.49.35,23,0,34.44.16,2.13,0,4.36-.34,6.26,1.1a1.09,1.09,0,0,1,0,1.63,6.53,6.53,0,0,1-4.27,1c-12.93-.05-25.87.27-38.79-.16-3.58-.64-4.74-4.14-7.2-6.11C33.09,42.84,29.13,40.64,28.85,36Z"/><path class="cls-18" d="M20,88.93c0-19.33-.06-38.67,0-58,0-.64-1.07-3.13.83-2.4a7.26,7.26,0,0,1,1,.53c-.31,1.41.61,2.7.44,4.1.07,5.57,0,11.14.05,16.71a96.35,96.35,0,0,0,1,18.28c-.56,4.2,1.24,5.34,5.17,4.25a78.87,78.87,0,0,1,8.78-1.77c1.74-.28,3.6-1,5.16.59A5.72,5.72,0,0,1,42.33,77c-6.46,2.36-13,4.46-20,3.54-1.2-.66-.48-2.06-1.18-3.08-.12-.49-.77.53-.25.11a17.26,17.26,0,0,1,1.35,8,5.82,5.82,0,0,1-.81,3.08A1,1,0,0,1,20,88.93Z"/><path class="cls-19" d="M21,32c0-1.06-.22-2.21.9-2.93l7,7,7,9.07c-2,3.16-9.92,5.86-13,4.5-1.85-.83-1.34-2.43-1.43-3.84C21.19,41.17,22.08,36.54,21,32Z"/><path class="cls-20" d="M36.94,42c-4.44-3.65-6.73-8.09-6.08-14.1.47-4.25.09-8.59.09-12.88a15.08,15.08,0,0,1,6-7c2.42,3.28,1.2,7,1.28,10.56.15,2.9-3.06,4.85-2.21,8a22.34,22.34,0,0,1,1.85,3.18,7.08,7.08,0,0,1,.35,1.58C38.1,34.87,39.37,38.64,36.94,42Z"/><path class="cls-21" d="M41,156.93c-4.91-2.2-10.13-1.38-15-.68-6.71,1-13.51.05-20.15,1.59-2.16.5-4-.11-3.81-3a3.26,3.26,0,0,1,2-3c11.34,1.37,22.57-.31,33.83-1.29a3.37,3.37,0,0,1,3.57,1.22,7.79,7.79,0,0,1,1.14,2,4.78,4.78,0,0,1,.22,1.46C42.52,156.18,42.34,157.18,41,156.93Z"/><path class="cls-22" d="M39,150.85a4.55,4.55,0,0,1-3.86,2c-9.31-.56-18.5,1.56-27.8,1.1-1.55-.08-3.09,0-3.33-2.07a11.09,11.09,0,0,1,4-6c.77,3.11,2.84,3.89,5.84,3.65,7.56-.62,15.12-1.18,22.71-1.51C38,148.41,39.19,149,39,150.85Z"/><path class="cls-23" d="M37.05,148.87a194.57,194.57,0,0,1-26.41,2c-4.16,0-3.3-2.53-2.65-5a3.06,3.06,0,0,1,2-2.95c1.07,2.53,2.61,3.61,5.66,3.05,5.92-1.09,12.08.21,18-1.53C36.22,144.82,37.43,146.23,37.05,148.87Z"/><path class="cls-8" d="M33.91,145c-2.82,2.15-6.13,1.83-9.39,1.93s-6.51-.34-9.78.51c-5.06,1.31-5.45.82-4.74-4.5.85-2.92,2.86-5,5-7l.45.56a3.12,3.12,0,0,1-.06,2.11c-1.44,4.12-.78,5.21,3.32,4.88s7.8-1.62,11.78-2a3.3,3.3,0,0,1,3.47,2.88C33.93,144.53,33.92,144.76,33.91,145Z"/><path class="cls-24" d="M37,20.14,36.94,8c2.09-2.57,3-6.32,7-7-5.37,4.31-3.86,10.36-4,16C40.28,19.25,39.08,20.1,37,20.14Z"/><path class="cls-25" d="M20,120.89l0-18a1,1,0,0,1,1.41.3,4.55,4.55,0,0,1,.63,1.49,80,80,0,0,1,.27,8.05c-.08,1.6,0,3.2-.07,4.81a6,6,0,0,1-.85,3.09A1,1,0,0,1,20,120.89Z"/><path class="cls-26" d="M21,102.93H20v-14H21c1.21,1.07,1.28,2.54,1.39,4-.14,2.58.18,5.17-.18,7.74A3.51,3.51,0,0,1,21,102.93Z"/><path class="cls-27" d="M15,135.9c.89-3.14,3-5.48,5-8a1.71,1.71,0,0,1,1.4,1.27,2.64,2.64,0,0,1-.26,1.3c-2,1.82-2.38,5.49-6.07,5.41Z"/><path class="cls-28" d="M21,128.94l-1-1c0-2.36,0-4.71.05-7.06.31,0,.63,0,.94,0a4.32,4.32,0,0,1,1.31,3.15C22.24,125.79,22.44,127.6,21,128.94Z"/><path class="cls-29" d="M32,230.76a53.5,53.5,0,0,1-9.13-11.87,1.65,1.65,0,0,1,1.3-.32c1.63.93,2.56,1,2.6-1.42,0-2.84-.87-5.87,1.13-8.47,1.92-.06,1.76-1.42,1.74-2.75a73.2,73.2,0,0,1,.1-8.25c.15-1.49-.38-3.8,2.49-3.51a4.05,4.05,0,0,1,.79,1.42,76.17,76.17,0,0,1,0,16.74c-1.24,5.59-.62,11.23-.41,16.87A3.38,3.38,0,0,1,32,230.76Z"/><path class="cls-30" d="M24,218.85l-1.08,0c-1.73-1.35-3.64-2.57-4-5,1.75-1.39,1.79-3.32,1.86-5.33s-.34-4,1.95-5.14a3.41,3.41,0,0,1,2.87,1.09,5.43,5.43,0,0,1,1.46,3c-.13,2.6,0,5.21-.12,7.81C26.84,217.25,26.53,219,24,218.85Z"/><path class="cls-31" d="M14.88,208.88c-1.72-1.35-3.63-2.55-4-5,1.64-.93,2.63,1.23,4.23.89,1.6-2.73-.64-6.37,2-8.9,2.6.32,3.19,2.42,3.93,4.41.51,2.15-.14,4.27-.12,6.42,0,1.92.53,4.37-1.92,5.1C16.85,212.44,16.13,210.08,14.88,208.88Z"/><path class="cls-32" d="M17,195.87c0,2.48,0,4.95,0,7.43,0,1.29.41,2.88-.91,3.64-1.61.93-2.12-1-3.13-1.65-.69-.44-1.33-.95-2-1.42-1.77-1.31-3.64-2.54-4-5a1.56,1.56,0,0,1,1.27-.3,6.87,6.87,0,0,1,1.74,1.06c1.39,1,2.46,1.08,2.77-1,.22-1.47,0-3,.68-4.41,1.64-1.57,2.47-.15,3.4.92Z"/><path class="cls-33" d="M14.88,208.88c1.66.19,2.26,3.06,4.1,2.07s.9-3,1-4.62c.08-2.15,0-4.32,0-6.48,2.25-.49,2.68,1.28,3.37,2.72a1.46,1.46,0,0,1-.35,1.28c-2,2.41-.82,5.27-1,7.9-.13,2.45-.78,3.35-3.14,2.12C17.13,212.55,15.27,211.31,14.88,208.88Z"/><path class="cls-34" d="M32,230.76a7.08,7.08,0,0,1,0-.92c2.9-2.31,6.3-1.26,9.52-1.42,2.58,0,5.17-.09,7.75.12a5,5,0,0,1,2.41.82,1.06,1.06,0,0,1,.27,1.48l-19.06,0Z"/><path class="cls-35" d="M8,198.86l-1.06,0c-2.51-1.45-5.21-2.7-6-5.9,0-.37,0-.74.08-1.11a1.13,1.13,0,0,1,1.17-.33c1.77,1,3,2.56,4.41,3.88C7.37,196.44,8.6,197.28,8,198.86Z"/><path class="cls-36" d="M96,230.88l-25.06,0c.27-2.59,2.4-2,4-2.35,2-.13,3.94-.1,5.9-.05,4.23.52,5.9-1.2,5.79-5.58-.09-3.39-1.19-6.86.17-10.25a7.57,7.57,0,0,1,5-1.12A6.1,6.1,0,0,1,96,212.74c1.91,2.69,1.07,5.78,1.2,8.71s0,5.65.68,8.42A1.89,1.89,0,0,1,96,230.88Z"/><path class="cls-37" d="M97.88,229.87c-2.07-.93-2-2.77-2-4.62,0-4.13,0-8.26,0-12.38l.72-.25a2,2,0,0,1,1,1c1.13,4.05.07,8.24.67,12.26,1.32-2.37,2.18-5.14,5.63-5.21a.8.8,0,0,1,0,1.28C102.86,225.36,99.55,227,97.88,229.87Z"/><path class="cls-38" d="M103.91,222l-.07-1.14c-.48-4.85,4.16-6.43,6.16-9.69,1.69-1,2.16-3.75,4.82-3.3,0,.35,0,.71,0,1.07A52.43,52.43,0,0,1,103.91,222Z"/><path class="cls-39" d="M40,160.92c.3,0,.61,0,.91-.06,3.93-2.12,8.33-2.88,12.53-4.17A43.41,43.41,0,0,0,60.24,154c4.61-.87,9.24-.48,13.87-.31,1.11,0,2.47.25,2.72,1.64s-.87,2-1.83,2.7a7.91,7.91,0,0,1-2.26,1c-9.22,2.71-18.29,5.92-27.62,8.23-1.92.48-3.86,1.08-5.83.17a2.93,2.93,0,0,1-1.16-3A5.37,5.37,0,0,1,40,160.92Z"/><path class="cls-40" d="M40,160.92c0,1.09.17,2.26-1,3l-.78-.18a12.53,12.53,0,0,0-5.34-.57c-9.19.2-18.33,1.32-27.51,1.68-1.41-.47-2.66-1.09-2.32-2.94,2.1-2.84,5-.1,7.33-1,7.63-3.16,16,.59,23.64-2.63A4.35,4.35,0,0,1,40,160.92Z"/><path class="cls-41" d="M3,161.89l2,2a3.85,3.85,0,0,1,2.13,2.63c.11,5.11,1.41,10.29-.9,15.26-1.8,1.17-3,.22-4.14-1.13-.64-.81-.29-2-1-2.78,0-.33,0-.67,0-1q0-6.49,0-13C1,162.57.72,161,3,161.89Z"/><path class="cls-42" d="M59.91,154.89c-5.73,4-12.3,5.25-19,6l.09-3.93,1-2c3.67-2.52,7.82-1,11.74-1.41C55.85,153.66,58.15,153.1,59.91,154.89Z"/><path class="cls-43" d="M37,20.14A7.59,7.59,0,0,0,39.93,17l5-5.91c.91-1.32,1.33-3.11,3.27-3.44a1.43,1.43,0,0,1,1.14.73c.49,2-.26,3.78-.81,5.61a55.28,55.28,0,0,1-9.38,10.92C38,26,37,27.53,35,27,32.13,23.64,36.75,22.53,37,20.14Z"/><path class="cls-44" d="M58.91,1h7c-1,2.5-3,4.41-4.38,6.66a7.2,7.2,0,0,1-6.69-.33C52.53,3.59,54.2,1.8,57.91,1Z"/><path class="cls-45" d="M57.91,1c-2.81,1.07-3.41,3.25-3,6-2.12,2.14-4.43,1.11-6.73.43C45.31,3.63,47.92,2.23,50.92,1Z"/><path class="cls-46" d="M50.92,1c-2.08,1.49-3.58,3.27-3,6.07.34.21.45.42.35.64s-.2.34-.31.34l-3,3a34.3,34.3,0,0,0-.05-3.93C44.31,2.48,46.07.25,50.92,1Z"/><path class="cls-47" d="M74.89,229.84c-1.38.15-3-.46-4,1h-19v-1c1.38-1.43,3.18-1.37,4.95-1.39,2.25,0,4.51-.11,6.75,0,3.58.37,5-1.21,4.95-4.83s-.64-7.2.12-10.78A3.73,3.73,0,0,1,71,211.75a4.92,4.92,0,0,1,3.49,1C77.46,218.36,77.21,224.08,74.89,229.84Z"/><path class="cls-48" d="M1,177.88a2.06,2.06,0,0,1,1,2c2,4,2.44,8,0,12H1Z"/><path class="cls-40" d="M61.9,7C61,3.46,63.15,2,65.9,1h9c-2.72,1.12-6.2,1.59-5,6A6.25,6.25,0,0,1,61.9,7Z"/><path class="cls-49" d="M85.84,104.92l.06,5a2.39,2.39,0,0,1,.29,2.94c-12.52,4.12-24.59,9.43-37,13.92-2.16.78-4.31,1.88-6.58.29a4.47,4.47,0,0,1-.76-1.47c-.35-2.51-.63-5,.47-7.44a6.26,6.26,0,0,1,3.35-2c10.63-3.85,21-8.28,31.65-12.13C80.22,103,83.38,101.33,85.84,104.92Z"/><path class="cls-10" d="M85.84,104.92c-3.34-2.07-6.39-.4-9.45.78-9.56,3.7-19.09,7.46-28.66,11.11a34.72,34.72,0,0,1-4.79,1.11c-1.64-1.7-1.38-3.65-.77-5.66,1.07-2.13,3.2-2.79,5.19-3.51,10.25-3.74,20.23-8.18,30.51-11.84,2.67-1,5.32-2,8.07-.26a1.81,1.81,0,0,1,0,2.27Z"/><path class="cls-50" d="M106.84,40V61c-1.11,2.26-.08,4.72-.7,7-6.23,3.88-12.86,6.48-20.36,6.26a4,4,0,0,1-.89-1.44,25,25,0,0,1-.25-7.72,4.85,4.85,0,0,1,1-2.33c4.55-2.35,9.52-3.55,14.4-4.93,3.25-.92,4.4-2.68,4.55-6,.18-4-1.4-8.24,1.49-11.89Z"/><path class="cls-51" d="M85.84,112.92l.06-3c6.71-2.15,13.53-4,19.94-7,1.4,8.72,1.13,9.49-7.13,11.94-4.22,1.26-8.23,4.52-13.1,2.2A3.16,3.16,0,0,1,85.84,112.92Z"/><path class="cls-52" d="M85.9,98.92l-.06-2a4.92,4.92,0,0,1-.39-5.79c5.32-3.16,11.35-4.35,17.17-6.1a3.41,3.41,0,0,1,3.22.89c1,5-1,7.25-6,8.27C95.06,95.19,90.53,97.3,85.9,98.92Z"/><path class="cls-53" d="M105.84,85.94c-4.59-.11-8.52,2.3-12.78,3.44-2.37.63-4.59,1.84-7.16,1.55l-.6-.61a5.45,5.45,0,0,1,.37-5.64c4.15-2.12,8.65-3.25,13.12-4.37,3.9-1,6.22-2.78,5.73-7.18A7.22,7.22,0,0,1,105.84,68c.38-2.32-.91-4.88,1-7C106.88,69.3,107.08,77.65,105.84,85.94Z"/><path class="cls-54" d="M85.9,116.92c6.47-.44,12.35-3.13,18.2-5.47,3.48-1.39,1.19-5.62,1.74-8.52.44-2.65-1-5.54,1-8v17c0,.34,0,.67,0,1-1.11,1.29,0,3.08-1,4.4-6.43,3-12.69,6.51-20.18,5.82a4.84,4.84,0,0,1-1-3.15A3.79,3.79,0,0,1,85.9,116.92Z"/><path class="cls-53" d="M106,29.05l.93-1.05a16,16,0,0,1,0,12h0C104.38,36.51,105.63,32.74,106,29.05Z"/><path class="cls-55" d="M91.8,40.94c-1.39,2.21-2.53,4.64-4.93,6-2.13,1.23-2.56-.44-3-1.85-.54-1.71-.24-3.62-1.12-5.27a3.7,3.7,0,0,1-.34-1.42c.66-2.3,2.35-3.57,4.44-4.44a3.36,3.36,0,0,0,2-2.07c-.09-1.24.55-1.24,1.42-.84C93.07,34,91.83,37.57,91.8,40.94Z"/><path class="cls-56" d="M82.88,38v1a5,5,0,0,1-3.56,4.71c-1.14.13-2.21.07-2.82-1.13,0-5.31-.53-10.64.58-15.91a2.23,2.23,0,0,1,2-1.27c2.27.15,2.8,2.15,3.83,3.62,0,.33,0,.65,0,1C84.36,32.64,84.66,35.31,82.88,38Z"/><path class="cls-11" d="M82.86,29a6.35,6.35,0,0,1-3-3c-.57-.46-1.31-.73-1.67-1.44a9.7,9.7,0,0,1-.59-3.66c0-1.22,0-2.44,0-3.66,0-1,0-1.91,0-2.87,0-.7,0-1.4,0-2.1a19.48,19.48,0,0,1,.22-2.75,4.5,4.5,0,0,1,.48-1.28,1.63,1.63,0,0,1,1.17-.59A1.68,1.68,0,0,1,80.88,9c1.44,2,2.59,3.69,2.16,6.61C82.4,20,82.87,24.52,82.86,29Z"/><path class="cls-57" d="M95.86,14c-3.13,2.83-1.66,6.57-2,10-1.39.73-2-.42-2.72-1.17-.76-1.28-2-2.25-2.28-3.84-.15-1-.7-2.11-.37-2.86,1-2.17-1-5.81,2-6.49C93,9,94.38,12.09,95.86,14Z"/><path class="cls-46" d="M88.87,18.94a5.88,5.88,0,0,1,2.88,3.13c-.22,2,.6,3.91.6,5.9a3,3,0,0,1-2.51,3l-1,1A17.79,17.79,0,0,1,88.87,18.94Z"/><path class="cls-58" d="M80.88,9l-1-1c-.81-.89-2.28.18-3-1-1-5.29,2.37-5.29,6-5C82.51,4.42,84,7.36,80.88,9Z"/><path class="cls-59" d="M82.88,38V30l4,4A10.22,10.22,0,0,1,82.88,38Z"/><path class="cls-60" d="M89.84,30.93l1.94-3c0-1.64.91-1.57,2-1.05.81,3.33-1.72,7.3,2,10.07-.65,2-2.69,2.61-4,4C89.87,37.86,91.57,34.06,89.84,30.93Z"/><path class="cls-61" d="M93.81,26.87l-2,1.05a4.59,4.59,0,0,1,0-5.85L93.87,24Z"/><path class="cls-50" d="M104.84,184.85l1,0c2.65,1.25,2.29,3.74,2.41,6,.14,2.46,0,4.94.2,7.4-1.69,5.87-6.22,9.6-10.38,13.59-.73.71-1.51.11-2-.7-.8-5.82-1.16-11.64.29-17.42.71-1.33,1.8-2.39,2.61-3.65a32.61,32.61,0,0,1,3.19-3.46A5.31,5.31,0,0,1,104.84,184.85Z"/><path class="cls-49" d="M104.84,184.85l-2,2c-1.88-1.88-1.46-4.32-1.47-6.6,0-12,0-24,0-36,0-2,.31-4-.5-5.92s-.18-3.28.9-4.7a1.91,1.91,0,0,1,2.1-.8c1.63,1.47,1,3.42,1,5.16C104.86,153.66,104.84,169.26,104.84,184.85Z"/><path class="cls-62" d="M110.83,135.91c-1.86,1.54-2,3.64-2,5.85,0,10.1,0,20.21.06,30.31a49.74,49.74,0,0,0,1,6.82c.54,1,0,1.68-.6,2.39s-1.4,1.16-2.38.63c0-15.22,0-30.43,0-45.65,0-1.33-.86-3.54,1.09-3.78C109.71,132.27,110.67,134.07,110.83,135.91Z"/><path class="cls-16" d="M103.84,132.91l-1,1c-5.77,1.2-10.94,4.83-17.17,4.17a3.66,3.66,0,0,1-.78-2.2,3.81,3.81,0,0,1,.74-2.21C90.08,131,95.18,130,100,128.41c3.12-1,4.89-2.61,4.46-6.06,0-1.93,0-3.86,1.36-5.43.14-1.38-.46-3,1-4,0,3.66-.22,7.33,0,11A10.85,10.85,0,0,1,103.84,132.91Z"/><path class="cls-63" d="M106.86,181.91l2-1.06c2.69.3,2.19,2.54,2.33,4.15.26,3,.12,5.94.48,8.89a6.39,6.39,0,0,1-1.07,3.89c-.7.86-1.48,1.55-2.71,1.08-2-2.43-.72-5.29-1-7.94-.19-2.09.11-4.22-1.08-6.12C106.15,183.84,106.5,182.87,106.86,181.91Z"/><path class="cls-64" d="M117.82,144.9c-.55.31-1.58.61-1.59.93-.22,8.36-1.49,16.75.6,25,.66,1.62-.69,2.48-1.35,3.6-1,1-1.53,3-3.65,2.4,0-11.09,0-22.17,0-33.25,0-1.39-.83-3.41.81-4,1.9-.75,2,1.69,3,2.64A28.11,28.11,0,0,1,117.82,144.9Z"/><path class="cls-65" d="M111.83,176.88l3-3c2.65.35,2.23,2.57,2.36,4.23a68.92,68.92,0,0,1-.08,10.46,6.2,6.2,0,0,1-.33,1.65c-1.42,2.26-2.61,4.83-6,4.65-1.6-2.69-.76-5.67-1-8.53-.17-1.85.71-3.91-1-5.49l1-2Z"/><path class="cls-66" d="M120.82,165.89c-1.95-4.24-.67-8.72-.92-13.09a2.56,2.56,0,0,1,1-2.05c1.21-.61,1.56.64,2.07,1.42a11.6,11.6,0,0,0,3.82,3.75c0,6.1,0,12.19.07,18.29.06,2.56-.65,4.51-3,5.67-2.57-1.74-2-4.5-2.34-7C121.15,170.55,122.57,168.06,120.82,165.89Z"/><path class="cls-38" d="M120.82,165.89c2.15-.89,2,.55,2,1.93.05,4-.44,8.13,1,12.06-1.47,3-.13,6.18.17,9.11.76,7.54-3.39,12.25-8.16,16.87-1.17-5-.35-10,0-15,0-.34,0-.67,0-1,5.27-6.88,4.8-15,5-23Z"/><path class="cls-37" d="M115.81,190.87c2,5,1.12,10,0,15a2.08,2.08,0,0,0-1,2l-4,4c-2.93-4.48-1-9.3-1-14,.33-1,.67-2,1-3Z"/><path class="cls-67" d="M120.82,166.89c1.92,8.44,2.7,16.63-5,23-.53-5.32,1.12-10.77-1-16l2-3A10.41,10.41,0,0,0,120.82,166.89Z"/><path class="cls-68" d="M106,29.05c1.91,3.51.41,7.3.88,10.93-2.09,4.56-.52,9.39-1,14.07-.16,1.59.37,3.49-1.93,4-6.1,1.29-11.68,4.52-18,4.92-1.44-1.29-1.31-3.05-1.42-4.75.12-2-.15-3.93.46-5.84a7.2,7.2,0,0,1,.92-1.4c0-.31.1-.63.17-.93.15-.45.42-.51.8-.25Z"/><path class="cls-69" d="M86.83,49.78A1.79,1.79,0,0,1,86,50c-12.64,0-25.28,0-37.92-.09-1.74,0-3.7.66-5.18-1a3.43,3.43,0,0,1,2.15-1.16,26.17,26.17,0,0,1,4.15-.2c2-.1,3.9,0,5.85,0,2.29-.1,4.57-.07,6.85,0,2.59-.07,5.18-.08,7.77,0,2,0,4-.09,6,0,1.72,0,3.45-.07,5.17,0s3.53,0,4.93,1.37Z"/><path class="cls-8" d="M85.83,49h-5c-1.55-1.79-1.47-3.86-1-6l3-4c2.42.32,1.85,2.21,2,3.76s-.75,3.8,2,4.24C86.52,47.63,86.17,48.29,85.83,49Z"/><path class="cls-70" d="M61.9,7h8l1,0c1.93,1.13,1.35,2.59.15,3.65-6.23,5.53-13.79,9.05-20.71,13.55a1.52,1.52,0,0,1-1.81-.42,3.68,3.68,0,0,1-.15-3.66c5.18-4.64,11.21-8,16.34-11.37a16.2,16.2,0,0,1-4.55.57c-2.44,0-4.87.12-7.3.06a6.23,6.23,0,0,1-4-1.35H48a6.38,6.38,0,0,1,0-1L54.91,7Z"/><path class="cls-10" d="M48.93,24Q59.25,17.3,69.55,10.62C70.86,9.77,72,8.78,70.89,7l6,0c1.1,0,2.28-.17,3,1h-1c-8.91,5.55-17.64,11.36-26,17.65a4,4,0,0,1-3.7-.27A1,1,0,0,1,48.93,24Z"/><path class="cls-27" d="M85.86,51v1C81.49,54.7,76.64,53.11,72,53.49c-9,.1-17.93-.24-26.87.27-2.59.65-1.66,3.54-3.11,4.92C36.62,61.77,30.5,62,24.57,62.89c-2.18.33-3.28-1-3.1-3.32.11-1.46-.09-2.94.14-4.41A32.48,32.48,0,0,1,41,51Z"/><path class="cls-71" d="M41,51,22,55c-1.18-1.5.22-3.51-1-5V32c2.16,4.2.61,8.68.92,13,.2,2.73.23,4.33,3.9,3.31,3.42-1,7.17-.68,10.08-3.23C38.55,46.19,39.25,49,41,51Z"/><path class="cls-72" d="M44.94,49h-2c-1.58-.89-2.9-2-3-4-1.77-3.25-2-6.49,0-9.71a2.46,2.46,0,0,1,1.48-.71c3,.87,4.36,3.09,5,5.92C46.12,43.33,46.94,46.41,44.94,49Z"/><path class="cls-73" d="M41,34.89c-1.79,3.21-.75,6.72-1,10.09a6.38,6.38,0,0,1-3-3q0-6,0-12c1-.54,1.75.08,2.49.63C40.47,31.84,41.63,33,41,34.89Z"/><path class="cls-58" d="M21,50c1.64,1.41.75,3.32,1,5,0,1.48,0,3,0,4.44,0,1.9.93,2.79,2.79,2.39C30.49,60.56,36.2,59.25,41.92,58c2,2.53,1.62,5.2.49,7.92C35.75,67.92,29.28,71.21,22,69A100.5,100.5,0,0,1,21,50Z"/><path class="cls-40" d="M21,85.94v-9c1.63.79.71,2.09,1,3,1.44,3,3.66,3.53,6.9,2.86,4.14-.87,8.25-2.72,12.67-1.5a2.66,2.66,0,0,1,1.13,1.19c.69,2,.78,4-.64,5.79C36.85,90.52,31.24,91,25.78,92,20.58,93,22,88.46,21,85.94Z"/><path class="cls-22" d="M22,69c6.84.27,13.08-3.45,20-3a3.07,3.07,0,0,1,1,2.09,3.29,3.29,0,0,1-1,2.91c-4.78,1-9.67,1.6-14.29,3.08C22.25,75.76,21.31,73.48,22,69Z"/><path class="cls-74" d="M21,85.94c.8,4.88,3.36,5.45,7.89,4.2,4.2-1.16,8.55-2.44,13.06-2.2a3.05,3.05,0,0,1,.93,1.43,4.06,4.06,0,0,1-1,4c-4.82,2-10,2.36-15,3.46-3.21.71-5.61,0-5.86-3.91v-7Z"/><path class="cls-1" d="M41.92,82c-5-.13-9.86,1.31-14.61,2.51S21.5,84.11,22,79.94c6.81.08,13.14-3.07,20-3A3.39,3.39,0,0,1,41.92,82Z"/><path class="cls-75" d="M41.92,82V71l0-3a1,1,0,0,1,1.42.23,6.09,6.09,0,0,1,.86,3.09c.09,2.15.08,4.3,0,6.46a7.37,7.37,0,0,1-.88,4,1,1,0,0,1-1.44.25Z"/><path class="cls-7" d="M38.79,31.05,37,30,36.86,29c1.7-4.57,5.55-7.36,8.84-10.6.68-.67,1.69-1.15,2.62-.15.47,1.49,0,3,0,4.47-1.27,3.14-4.11,5-6.09,7.6A2.4,2.4,0,0,1,38.79,31.05Z"/><path class="cls-76" d="M47.92,18c-4.58,2.77-7,7.77-11.05,11L35,27c5-3.57,8.46-8.8,12.93-13A2.73,2.73,0,0,1,47.92,18Z"/><path class="cls-77" d="M85.84,135.91l.06,2a3.33,3.33,0,0,1,.46,3.82c-7.18,2.91-14.51,5.43-21.65,8.45a68.1,68.1,0,0,0-9,4.11,17.15,17.15,0,0,1-2.48.1c-3.72-.22-7.47.48-11.16-.44l-1.09-1a87.88,87.88,0,0,1-.38-11.7c0-1.71-.05-3.44.89-5a1.37,1.37,0,0,1,1.51-.49,3.67,3.67,0,0,1,1.15,2.2,39.51,39.51,0,0,1,.17,5.65c.14,6.09.3,6.24,5.8,4.05,9.39-3.75,18.83-7.35,28.26-11C80.67,135.72,83.14,134,85.84,135.91Z"/><path class="cls-78" d="M41.89,140.91c-.42,4,1.16,8.14-1,12l-2-2.05-1.91-2c-.93-1.39-1.27-3.25-3.14-3.87l.07-.16C34.36,140.62,36.62,139.5,41.89,140.91Z"/><path class="cls-39" d="M42,153.94l11.88,0c.33.2.44.4.34.61s-.22.31-.33.31H42A3.44,3.44,0,0,1,42,153.94Z"/><path class="cls-79" d="M41.89,140.91c-2.79,1-6.83-.52-7.91,3.93l-3-3c-2-.52-2.68-2.19-3.51-3.77a3,3,0,0,1,0-1.57A17.88,17.88,0,0,1,42,133.63a1.79,1.79,0,0,1,0,2.27Z"/><path class="cls-80" d="M15,135.93c2.79-1.21,3.07-4.91,6-6,1-.53,1.65,0,2.36.56a20.1,20.1,0,0,1,2.28,3.06c1.2,1.22,1.23,3.07,2.35,4.33l-.09.16c.18.44.66.88.28,1.36C25.35,142.94,17.07,142,15,137.9Z"/><path class="cls-27" d="M15,137.9c3.39,2.83,10.1,2.88,12.92.11,1.87.59,2.2,2.43,3.12,3.79-3.84,2.12-8.23,2-12.35,3-2.27.54-5.11.06-6.23-2C11.4,140.93,13.81,139.43,15,137.9Z"/><path class="cls-81" d="M21,117.93v-5c5.83-1.57,11.82-2.39,17.73-3.57,1.27-.25,2.62-.41,3.62.79a25.58,25.58,0,0,1-.16,6.77c-5.46,2.86-11.53,3.17-17.44,4.08C22.52,121.34,21.64,119.68,21,117.93Z"/><path class="cls-82" d="M21,117.93c1.48,1.85,3.25,2.22,5.61,1.7,5.06-1.11,10.05-2.69,15.31-2.7.94,1.6.5,3.29.3,5-5.48,4-12.11,3.62-18.33,4.8-1.94.37-2.21-1.55-2.9-2.78,0-1,0-2,0-3S21,118.92,21,117.93Z"/><path class="cls-83" d="M41.89,109.93c-5.88,1.26-11.78,2.49-17.65,3.78C23,114,22,113.35,21,112.93v-9a.93.93,0,0,1,1.32.08c1.05,2.76,2.85,3.49,5.83,2.93,4.34-.83,8.58-2.7,13.17-1.76a2.65,2.65,0,0,1,1.18,1A3,3,0,0,1,41.89,109.93Z"/><path class="cls-84" d="M22,103.93H21c0-.33,0-.67,0-1,0-.67,0-1.33,0-2,.46-.68.85-1.57,1.66-1.77,6.47-1.6,12.78-4.29,19.7-3.06a4.43,4.43,0,0,1-.1,5C35.66,103.36,29.2,106.43,22,103.93Z"/><path class="cls-85" d="M41.91,95.94c-6.82,2.36-14.19,2.35-20.94,5v-8c1.27,2.44,2.82,3.42,5.9,2.66,4.92-1.23,9.87-2.69,15-2.66A2,2,0,0,1,41.91,95.94Z"/><path class="cls-86" d="M21,123.92c1.19,1,2,2.12,4.17,1.55,5.51-1.47,11.16-2.4,16.76-3.55.92,1.13.41,2.43.44,3.67a2.4,2.4,0,0,1-1,1.16c-6,2.18-12.33,2.79-18.48,4.25L21,129.9c0-.32,0-.64-.05-1C21,127.27,21,125.59,21,123.92Z"/><path class="cls-87" d="M41.94,229.84H32a31.69,31.69,0,0,1,0-17c3.12-2.15,6.51-1.53,9.9-1a3.92,3.92,0,0,1,1.55,1C44.67,218.7,46.05,224.5,41.94,229.84Z"/><path class="cls-11" d="M41.94,212.85l-10,0q0-9,0-18c3.39-2.11,6.82-1.88,10.27-.18C44.1,200.78,44.49,206.84,41.94,212.85Z"/><path class="cls-88" d="M41.93,194.88H32l-.06-1,.61-.58c2.67-1.18,5.5-.64,8.27-.8,8.85,1.27,16.44-3.36,24.58-5.38,9-2.24,17.7-5.59,26.8-7.56,2,1,1.81,2.57,1.16,4.28C88,187.38,81.5,187.91,75.6,190c-5.15,1.81-10.52,3-15.7,4.78-2.36.65-4.88.19-7.21,1.06a24.1,24.1,0,0,1-5.87.42A6.61,6.61,0,0,1,41.93,194.88Z"/><path class="cls-79" d="M31.9,193.84c-2.16,5.53-.18,11.32-1.15,17-1.8.69-1.61-1.68-2.8-2a2.88,2.88,0,0,1-.87-1.53,40,40,0,0,1-.33-12.77c.36-3,1.47-5.94,5.66-4.1a3,3,0,0,1-.47,3.38Z"/><path class="cls-89" d="M27.93,207.91c0,.32,0,.64,0,1v13.31a6.12,6.12,0,0,1-4-3.34c4-3.44,1.08-8,2-12C27.12,206.28,27.42,207.29,27.93,207.91Z"/><path class="cls-90" d="M27.93,207.91l-2-1.06c-.33-.66-.67-1.32-1-2-1.62-2.54-1.26-5.41-1.37-8.21-.15-3.44.64-7-1.07-10.27a3.67,3.67,0,0,1-.07-1.71c3.12-3.25,7.09-2.68,11-2.46,1.48.86,1.2,2.23,1,3.56s-.25,2.51-.51,3.74a3.84,3.84,0,0,1-.65,1.33,1,1,0,0,1-1.32,0c-3.23-.74-3.94,1.26-4,3.78C27.91,199.08,27.94,203.5,27.93,207.91Z"/><path class="cls-81" d="M23,185.86c2.06.95,2,2.79,2,4.64,0,4.79,0,9.58,0,14.37l-2-1c0-.33,0-.66,0-1C21.08,197.19,20.14,191.53,23,185.86Z"/><path class="cls-91" d="M23,185.86v17l-3-3-3-4h0c-2.81-6.07-1-12.53-1.6-18.79.19-.45.32-1.13.81-1.16,6.52-.42,13-2.75,19.57-.56A3.08,3.08,0,0,1,36,179.8c-5.25-.55-10.57,1.12-16.31-.5,1.49,1.84,2.82,3.48,3.24,5.57C23,185.2,23,185.53,23,185.86Z"/><path class="cls-92" d="M16,176.9c2.18,6.22.48,12.65,1,19l-3-2c-1.54-.93-2.41-2.55-3.77-3.67a8.54,8.54,0,0,1-2.11-3,6.46,6.46,0,0,1-.36-1.55c-.1-4.91-.59-9.82.3-14.7a3.17,3.17,0,0,1,.88-1.29c2.15-.44,3.09,1.3,4.38,2.41A12.7,12.7,0,0,1,16,176.9Z"/><path class="cls-35" d="M11,189.87c1.6.88,2.91,2,3,4,0,1.49,0,3,0,4.46s.32,3.3-1.3,4c-2,.84-2.78-1.09-3.68-2.42C10,196.6,8.69,192.87,11,189.87Z"/><path class="cls-48" d="M11,189.87c-.73,3.31,1.81,7.29-2,10l-1-1-2-3c1.06-2.65-.77-6.38,3-8A3.45,3.45,0,0,1,11,189.87Z"/><path class="cls-93" d="M41.94,229.84c1.8-5.57.69-11.32,1-17,1.13-1.22,2.61-1.3,4.13-1.28a5.79,5.79,0,0,1,3.44,1.06c3,5.16,2.7,13.51-.58,17.2Z"/><path class="cls-94" d="M49.92,229.84a31.1,31.1,0,0,0,0-17,4.18,4.18,0,0,1,3.2-1.27,6.09,6.09,0,0,1,4.27,1.14c2.76,5.78,3.42,11.51-.48,17.11h-7Z"/><path class="cls-95" d="M9,187.87c-2.47,2.11.75,6.37-3,8a10.36,10.36,0,0,1-4-4v-12l3,2c2.59.66,2.79,3.22,4,5C9,187.21,9,187.54,9,187.87Z"/><path class="cls-96" d="M95.87,212.87l-4,0c-2.44-3.39-1.31-7.28-1.36-10.94,0-3.87-1.44-5.87-5.45-5.63-1.67,0-3.34.08-5-.08a4.91,4.91,0,0,1-3.16-1.11c-.1-.33-.24-.83-.08-.92,5.81-3.37,11.8-6.08,18.81-4.77,2,2,.78,4.42.7,6.65-.21,5.6.66,11.23-.46,16.8Z"/><path class="cls-97" d="M84.87,194.87c7,0,7,0,7,7.13v10.84l-5,0a1.7,1.7,0,0,1-2.52-.35C83,206.59,82.25,200.68,84.87,194.87Z"/><path class="cls-98" d="M84.87,212.84l2,0c1.63,4.62,1.14,9.44.9,14.14-.27,5.07-4.55,1.94-6.89,2.83-2.76-5.07-.82-10.6-1.55-15.87a2.39,2.39,0,0,1,.74-1.52A4,4,0,0,1,84.87,212.84Z"/><path class="cls-99" d="M79.88,212.87c2.05,5.56.53,11.32,1,17h-6c-.47-5.65,1-11.42-1-17a3,3,0,0,1,1.34-.94C76.91,211.58,78.55,211.47,79.88,212.87Z"/><path class="cls-100" d="M109.83,197.86c2.32,4.52,0,9.37,1,14-2.15,3.14-5.62,5.25-7,9-2.92,1.2-3.22,5-7,6.57V212.79c-.28-.21-.38-.42-.28-.63s.2-.3.3-.3l11-13Z"/><path class="cls-101" d="M96.84,211.86c0,.31,0,.62,0,.93-.32,0-.65.05-1,.05-.47-8,1-16.05-1-24-.06-.3-.13-.59-.2-.89-.51-12.6,0-25.21-.19-37.81,0-2,0-4-.2-6,.68-2.16,1.26-4.51,4.36-2.56,1.09,3.05.6,6.22.61,9.33.07,11.23,0,22.46,0,33.69,0,2.8,0,5.63-1.41,8.19C95.71,199.09,97.22,205.52,96.84,211.86Z"/><path class="cls-102" d="M53.92,154.89c0-.31,0-.61,0-.92l2-.15c4.44-2.5,9.25-1.2,13.92-1.37,3.92.05,7.85-.29,11.77,0,2.3.16,4.73.3,5.12,3.41,0,2.43-1.76,3.54-3.69,4.14-13.94,4.34-27.91,8.6-42,12.44a4.35,4.35,0,0,1-2.93-.16c-1.27-1-1.28-2.39-.93-3.82A2.33,2.33,0,0,1,39,166.88c9.81-1,18.82-5,28.19-7.68,3-.86,6.45-1,10.27-4.31H53.92Z"/><path class="cls-103" d="M39,166.88,38,168a5.7,5.7,0,0,1-2.28.94c-8.59,0-17.11,2.09-25.74,1l-1,0c-2-1.21-3.16-2.63-1.16-4.82,9.38-1.68,18.89-1.65,28.35-2.16a3.85,3.85,0,0,1,2.72,1l.05,0C39,164.89,39,165.89,39,166.88Z"/><path class="cls-104" d="M38.9,163.87,7,165.9c-.32.47-.65.46-1,0l-1-2c10.09-.82,20.18-1.7,30.28-2.39C36.69,161.42,38.74,161.47,38.9,163.87Z"/><path class="cls-105" d="M6,165.89H7l2,4q0,8.5,0,17c-2.05-1.09-2.63-3.35-4-5C7.11,176.66,5.45,171.21,6,165.89Z"/><path class="cls-106" d="M47.92,18c0-1.34,0-2.67,0-4,.32-2,.64-4,1-6l4,0c-.13,3.32-3.87,5.55-2.78,9.25A4.41,4.41,0,0,1,48.93,20v4c0,.32,0,.65,0,1-1.73.05-1.69-.81-1-2Z"/><path class="cls-107" d="M70.9,212.84l-2,0a3.1,3.1,0,0,1-4.41-.07,30,30,0,0,1,.12-18.06,5.48,5.48,0,0,1,6.54-.06C73.08,200.75,73.43,206.82,70.9,212.84Z"/><path class="cls-34" d="M56.91,229.84a32.7,32.7,0,0,0,0-17,3.52,3.52,0,0,1,2.36-1.16,5.61,5.61,0,0,1,4.33,1.1c2.81,5.63,2.65,11.32.3,17Z"/><path class="cls-108" d="M63.9,229.84c-.46-5.65,1.06-11.42-1-17a1.39,1.39,0,0,1,2,0l4,0c2,4.94,1.13,10.11.74,15.1C69.39,231.24,65.9,229.32,63.9,229.84Z"/><path class="cls-109" d="M70.9,212.84q0-9,0-18a3.1,3.1,0,0,1,4.41.08c1.62,6,2.2,12-.41,17.89l-1,0Z"/><path class="cls-107" d="M85.9,116.92l-.06,3c-12.69,3.33-24.48,9.07-36.76,13.5-2.16.78-4.49,2.74-6.72,0-1-2.27-1.18-4.46.58-6.48,8.09-1,15.11-5.2,22.64-7.89,5.1-1.82,10.06-4,15.14-5.89,1.61-.6,3.36-1.59,5.12-.21Z"/><path class="cls-110" d="M42,125.92l-.09-4v-5c0-2.34,0-4.67,0-7,0-1.33,0-2.67.07-4,3.4,1.5,2,3.78,1,6v6c0,2.66,0,5.33,0,8A.55.55,0,0,1,42,125.92Z"/><path class="cls-111" d="M42,125.92c.31,0,.63,0,.94,0,0,.33,0,.66,0,1v7a1.38,1.38,0,0,1,0,2H42c0-.66-.07-1.32-.1-2a6.41,6.41,0,0,1-1.24-4.86,5.14,5.14,0,0,1,1.23-3.15Z"/><path class="cls-62" d="M42.94,111.92c-.32-2,.78-4.23-1-6l-.05,0a3.71,3.71,0,0,1,0-5v-8c0-1.34,0-2.67.05-4a1,1,0,0,1,1.45.31c1.37,2.6.79,5.41.88,8.15.23,1.61-.51,3.3.5,5.1,4.84-1.09,9.35-3.2,14-5,6.67-2.57,13.29-5.27,20-7.69,2.44-.87,5.15-2.08,7.07,1.1h.06l-.06,6c-7.28-.32-13.3,3.64-19.77,6C58.29,105.72,50.64,108.9,42.94,111.92Z"/><path class="cls-75" d="M42.94,97.93v-9c-.84-1.22-.43-2.55-.33-3.86,5.62-3.58,12.15-5,18.19-7.62s12.34-4.79,18.5-7.21c3-1.2,5.51-1,6.55,2.69l.06,1c1.89,2.59,1.56,5.39.77,8.23-2,2.43-5.08,2-7.62,3-10.16,3.93-20.26,8-30.44,11.86C46.79,97.73,45,98.87,42.94,97.93Z"/><path class="cls-112" d="M42.94,78V71c2.05-2.5,5.22-2.76,7.94-3.92,9.18-3.91,18.61-7.21,27.84-11,2.91-1.2,5.51-1.53,7.12,1.92l.06,5-.06,2C74,66.84,63.47,72.67,52.28,76.54,49.31,77.56,46.42,80,42.94,78Z"/><path class="cls-113" d="M42.94,78c10-1.94,18.78-7.21,28.4-10.14,4.71-1.44,8.94-5.66,14.5-2.86v8c-1.7-2.27-3.43-2.69-6.33-1.47C69.33,75.74,59,79.6,48.66,83.52a47.48,47.48,0,0,1-5.73,1.42,2.46,2.46,0,0,1,0-3Z"/><path class="cls-114" d="M85.84,82.94l.06-9c6.87-1.24,13.23-4.22,19.94-6,0,11.4,0,11.45-10.84,14.79-3,.91-5.81,2.53-9.1,2.2A1.38,1.38,0,0,1,85.84,82.94Z"/><path class="cls-11" d="M85.84,82.94l.06,2-.06,6c-2.4-1.77-4.8-.7-7.07.18-9.7,3.74-19.37,7.56-29,11.38-6.81,2.69-6.81,2.71-6.8-4.57,12.42-4.88,24.84-9.78,37.29-14.59C82,82.67,83.86,81.47,85.84,82.94Z"/><path class="cls-115" d="M42.93,135.91c0-.67,0-1.34,0-2,9.23-2.43,17.77-6.73,26.72-9.9,3.87-1.38,7.73-2.78,11.52-4.36a4.71,4.71,0,0,1,4.66.26l.06,3A1.66,1.66,0,0,1,86,125a23.84,23.84,0,0,0-10,2.24c-8.71,3.65-17.57,6.93-26.42,10.25-2.07.77-4.28,2.17-6.57.39Z"/><path class="cls-106" d="M85.84,124.91l.06-2c6.92-1.09,13.16-4.42,19.94-6v6c-6.47,3-12.76,6.73-20.36,5.92A3.09,3.09,0,0,1,85.84,124.91Z"/><path class="cls-116" d="M77.88,26c-.47,5.64,1.07,11.4-1,16.94a2.72,2.72,0,0,1-1.27.92,7.25,7.25,0,0,1-5.46-.48,1.28,1.28,0,0,1-.35-1.47c1.84-2.55,1.65-5.49,1.74-8.42.08-2.7-.64-5.58,1.41-7.95C74.68,24.64,76.35,24.54,77.88,26Z"/><path class="cls-117" d="M75.88,43l1-.08,3,0c1.85,1.74.7,4,1,6h-5A4.35,4.35,0,0,1,75.88,43Z"/><path class="cls-118" d="M77.88,26h-5a2.86,2.86,0,0,1-3.84.16,1.09,1.09,0,0,1,0-1.51c1.5-1.07,3.22-1,4.93-1s3.45.07,4.83,1.34l1,1Z"/><path class="cls-49" d="M52.93,24.94c5.19-6.2,12.75-9.18,19-13.95,2-1.56,3.92-3.69,7-3V9c-1.52,3.2-4.75,4.42-7.38,6.35-4.91,3.59-9.86,7.12-15,10.4C55.17,26.07,53.91,26.08,52.93,24.94Z"/><path class="cls-119" d="M56.92,24.94c5-5.18,11.39-8.37,17-12.59,1.59-1.19,3.27-2.24,4.91-3.35v3c-5.57,5.71-12.59,9.39-19.2,13.66A2.58,2.58,0,0,1,56.92,24.94Z"/><path class="cls-120" d="M59.92,24.93A132,132,0,0,1,78.87,12c0,.66,0,1.33,0,2-4.13,5.24-10.19,7.93-15.4,11.76C62.14,26.07,60.89,26.08,59.92,24.93Z"/><path class="cls-111" d="M63.91,24.94c4.27-4.63,9.91-7.37,15-10.94v3c-2.91,4.08-7.52,5.91-11.43,8.67A3,3,0,0,1,63.91,24.94Z"/><path class="cls-121" d="M67.9,24.94a41.86,41.86,0,0,1,11-7.94c0,1.33,0,2.66,0,4-1.26,1.8-3.28,2.66-4.95,4l-5,.09A.65.65,0,0,1,67.9,24.94Z"/><path class="cls-122" d="M73.9,24.94c.74-2.47,2.72-3.37,4.95-4,0,1.33,0,2.66,0,4Z"/><path class="cls-123" d="M100.84,136.9c2.58,1.21,2,3.58,2,5.66q0,22.17,0,44.33A7.53,7.53,0,0,1,99.9,190c-1.68-1.84-1-4.11-1-6.2-.26-14.62.4-29.25-.37-43.86C98.24,138.11,98.68,136.85,100.84,136.9Z"/><path class="cls-115" d="M98.85,138.91c1.63,1.47,1,3.43,1,5.17.07,15.3.06,30.6.08,45.91a3.22,3.22,0,0,1-2.06,2.86q0-26,0-52C97.37,139.81,98,139.28,98.85,138.91Z"/><path class="cls-124" d="M98.85,138.91l-1,2a6.38,6.38,0,0,0-3,3,6.88,6.88,0,0,1-1.57,2.86,24.56,24.56,0,0,1-4.51,5.3c-4.76,2.57-3.73-1.45-4.24-3.73,0-2.22-.32-4.52,1.31-6.41l.06-4c5.75-.86,10.72-5.08,16.94-4l-2,3A3.46,3.46,0,0,0,98.85,138.91Z"/><path class="cls-111" d="M85.84,135.91c-11.39,2.55-21.67,8.13-32.63,11.87A31.13,31.13,0,0,0,50,149c-8.34,3.89-7.11,1-7-5.13A14,14,0,0,1,48.11,141c10.17-4,20.39-8,30.61-11.91,2.67-1,5.43-2,7.67,1a3.38,3.38,0,0,1-.49,3.85Z"/><path class="cls-125" d="M85.9,133.9l-.06-4c-.3-.25-.4-.48-.28-.69s.23-.31.34-.31c6.77-1.58,13-4.91,19.94-6,.55,3.52-.76,5.46-4.4,6.33C96.19,130.51,91.33,133.15,85.9,133.9Z"/><path class="cls-126" d="M85.84,58c-2.06-1.87-4-1.85-6.71-.77-12,4.7-23.83,10-36.19,13.77V68c-.84-1.2-.42-2.52-.35-3.8,8.35-4,17.16-6.87,25.66-10.5A22.11,22.11,0,0,0,71.86,52l14-.06Z"/><path class="cls-40" d="M69.9,49h-8A5,5,0,0,1,61.49,43,3.73,3.73,0,0,1,63,42c2.41-.43,4.83-.87,6.94.91l-.06.12A4.31,4.31,0,0,1,69.9,49Z"/><path class="cls-44" d="M61.9,43.05c0,2,0,3.93,0,5.9h-7a4.88,4.88,0,0,1-.19-6.25C57.19,41.34,59.59,41.09,61.9,43.05Z"/><path class="cls-15" d="M69.9,49l0-5.91,6,0c0,2,0,4,0,6Z"/><path class="cls-45" d="M54.9,43.08c0,2,0,3.91,0,5.87h-6a4.9,4.9,0,0,1-.22-6.23C50.86,41.45,52.94,41.2,54.9,43.08Z"/><path class="cls-127" d="M48.92,43.06c0,2,0,3.93,0,5.89h-4c.29-2.91-.79-6,1-8.71,1.43-1.09,1.68.49,2.39,1A2.9,2.9,0,0,1,48.92,43.06Z"/><path class="cls-75" d="M48.93,20V17c2.86-4.5,7.75-6.31,12-9h6C60.71,12.86,55.28,17.09,48.93,20Z"/><path class="cls-128" d="M60.9,8c-3.15,4.11-8,5.92-12,9-1.07-4.06,1.65-6.44,4-9Z"/><path class="cls-129" d="M67.9,24.94l1,.09c0,.32,0,.63,0,.95-.19.18-.38.36-.56.55a8.32,8.32,0,0,1-3.84.75c-1.8,0-3.61,0-5.41,0-7.56-1.53-13,1.73-17.17,7.7l-1-.13-2.18-3.84C43,29.72,44,24.7,47.92,23a2,2,0,0,0,1,2l4,0h15Z"/><path class="cls-130" d="M71.86,52c-2.35,3.8-6.64,4.13-10.24,5.51C55.48,59.89,49.77,63.61,42.94,64A29.82,29.82,0,0,1,43,52Z"/><path class="cls-112" d="M43,52q0,6,0,11.94c0,1.33,0,2.66,0,4H42l0-2V58C42.3,56,41.07,53.74,43,52Z"/><path class="cls-131" d="M41.92,35c2.53-8.92,9.26-9.91,17-9,2.68,4.49,1.6,9.3,1.11,14-.18,1.71-1.43,2.54-3.2,2.42-2.94-.21-5.94.52-8.85-.5l-2.06-1.7Z"/><path class="cls-11" d="M42.93,81.94v7H42c0-.33,0-.67,0-1l0-6Z"/><path class="cls-101" d="M85.9,128.91l-.06,1c-1.88-1.44-3.75-.68-5.6,0q-16.53,6.41-33.06,12.86c-1.38.55-2.7,1.24-4.24,1.09v-6c9.74-2,18.53-6.67,27.82-10,3.42-1.2,6.79-2.53,10.13-3.94a4.37,4.37,0,0,1,5,.9Z"/><path class="cls-132" d="M85.84,141.91v7c-5.9-.23-10.84,2.61-15.94,4.94h-14c.16-.46.19-1.23.48-1.34C66.12,148.7,75.15,143,85.84,141.91Z"/><path class="cls-20" d="M41.89,128.92v5c-4.66,1.22-10,0-13.9,3.94-1.92-.64-2.14-2.55-3-4a2.06,2.06,0,0,1,1.17-2.5C31.22,129.46,36.28,127.38,41.89,128.92Z"/><path class="cls-133" d="M41.89,128.92c-5.61,1.71-12.07.53-16.9,4.94-.69-1-1.38-1.91-2.08-2.86,1.73-3.34,5.28-2.05,7.93-2.93,3.53-1.17,7.35-1.49,11-2.17C41.89,126.91,41.89,127.91,41.89,128.92Z"/><path class="cls-134" d="M41.91,100.93v5c-5-.13-9.85,1.3-14.6,2.51s-5.81-.35-5.34-4.52C28.81,104.22,35.16,101.25,41.91,100.93Z"/><path class="cls-70" d="M46.93,212.85h-5q0-9,0-18h5A23,23,0,0,1,46.93,212.85Z"/><path class="cls-135" d="M32,190.89c.3,0,.61-.09.91-.12a126.44,126.44,0,0,0,14.2-4.06c12.85-3.66,25.61-7.61,38.45-11.26,1.73-.5,3.4-1.36,5.29-.81a2.51,2.51,0,0,1,.77,1.38c0,3.35-2.58,3.83-5,4.51-15,4.22-29.62,9.42-44.81,12.82a2.53,2.53,0,0,0-.84.51h-9C32,192.87,32,191.88,32,190.89Z"/><path class="cls-136" d="M40.94,193.86a3.73,3.73,0,0,1,2.63-2C58.28,187.58,73,183.19,87.68,179c1.81-.52,3.07-1.07,3.19-3.09,1.5-.23,1.66.86,1.87,1.9a2.82,2.82,0,0,1-.88,2.1c-6.36,3.6-13.6,4.62-20.41,6.88s-13.67,3.67-20.22,6.42C47.89,194.57,44.36,193.58,40.94,193.86Z"/><path class="cls-57" d="M46.93,212.85v-18l6,0,.63.69c1.13,5.81,1.94,11.62-.64,17.3h-6Z"/><path class="cls-137" d="M74.88,194.87h-10c-1.75,1.52-3.87,1.45-6,1.41s-4.24.11-6-1.41h0c2.1-1.91,4.66-.6,7-1,10.92-2,21.26-6.09,32-8.73,2.32.19,3.85,1,3,3.73h0c-5.74,2.72-12.36,2.83-18,6A1.4,1.4,0,0,1,74.88,194.87Z"/><path class="cls-111" d="M94.86,188.87a2.81,2.81,0,0,0-3-3c-.54-1.1.4-1.46,1-2-.14-1.38.46-2.94-1-4v-2c1.64-1.77.42-3.81.48-5.7.31-8.75-.45-17.53.52-26.27a3.49,3.49,0,0,1,2-2c1.08.82,1,2,1,3.16v38.66C95.85,186.87,95.93,188.05,94.86,188.87Z"/><path class="cls-138" d="M92.86,183.87l-1,2c-10.59,2.91-20.6,8.15-31.95,8C70.6,189.56,81.73,186.74,92.86,183.87Z"/><path class="cls-139" d="M33,185.87l1-3a2.5,2.5,0,0,1,1.37-1.83c9.05-3.09,18.26-5.66,27.43-8.37,8.38-2.46,16.85-4.61,24.9-8.1a2,2,0,0,1,1.89,1.31,4.83,4.83,0,0,1,0,3.27c-1.17,2.35-3.51,3-5.69,3.62-15.2,4.67-30.5,8.95-45.72,13.56C36.43,186.88,34.63,187.31,33,185.87Z"/><path class="cls-140" d="M33,185.87c6.78-.61,13-3.44,19.47-5.17,11-2.93,21.74-6.47,32.59-9.74,1.43-.43,2.86-.82,3.8-2.12,2.1.16,1.8,1.7,1.79,3.08-.58,2.36-2.6,2.74-4.51,3.34-12.63,4-25.48,7.24-38,11.51-3.44.54-6.65,1.92-10,2.75-1.64.4-3.36,1.75-5.17.35Z"/><path class="cls-81" d="M35,181.87c-.33.34-.65.68-1,1-3.73.44-7.53.46-11.07,2l-5-5.75c5.87-.32,11-.63,16.15-.81.27,0,.58,1,.87,1.59A1.36,1.36,0,0,1,35,181.87Z"/><path class="cls-141" d="M33,189.87c5-1.21,9.74-3.54,15-4,.6,1.14-.45,1.44-1,2-4.6,1.37-8.86,4.42-14.06,2.9A6.88,6.88,0,0,1,33,189.87Z"/><path class="cls-142" d="M35,181.87c0-.66,0-1.31,0-2,1.35-1.08.88-2.62,1-4a2.79,2.79,0,0,1,1.39-.62c11.73-2.94,23.26-6.56,34.86-9.95,5.07-1.48,10.12-3,15.14-4.69,1.82,1.21,1.7,2.66.53,4.24-.92,2-2.94,2.75-4.74,3.29-10,3-20.15,5.7-30.15,8.81A181,181,0,0,1,35,181.87Z"/><path class="cls-45" d="M36.88,175.8l-.92.08c-6.72-.62-13.31,1.32-20,1-1.77-.76-2.16-2.55-3-4,3.56-3.21,20.49-4.23,24.39-1.46C37.87,173,38.29,174.47,36.88,175.8Z"/><path class="cls-84" d="M37,171.94c-.39-.3-.79-.87-1.15-.84-7.62.65-15.33.17-22.87,1.79a6.45,6.45,0,0,1-3-3c5.15-1.75,10.59-1.3,15.88-1.91,4-.46,8.09,0,12.14,0,0,1.3-.07,2.6-.11,3.91A.56.56,0,0,1,37,171.94Z"/><path class="cls-143" d="M52.92,194.87h6a23,23,0,0,1,0,18l-2,0h-4Z"/><path class="cls-144" d="M74.88,194.87h5a23,23,0,0,1,0,18v0l-5,0Q74.89,203.86,74.88,194.87Z"/><path class="cls-145" d="M79.88,212.84v-18h5v18Z"/><path class="cls-146" d="M37,171.94c.31,0,.61-.06.92-.07q21.86-6.39,43.7-12.76c1.59-.47,3.23-.8,4.3-2.25,2.53.77,2,2.31,1,4-1.79,2.82-5,3.11-7.71,3.93-12.75,3.85-25.57,7.44-38.35,11.18-1.4.42-2.69,1.58-3.95-.15Z"/><path class="cls-147" d="M86.89,160.84c-.12-1.38.38-2.92-1-4,.2-2.45-1.14-3-3.3-3-4.23.07-8.46,0-12.69,0,3-4.07,12.53-7,15.94-4.94-.06,2.27-.21,4.69,3,2a1.74,1.74,0,0,1,1.83,1.25c1.76,4.08.8,11.47-1.79,13.74l-1-1C87.74,163.48,88.29,161.92,86.89,160.84Z"/><path class="cls-148" d="M58.91,212.84v-18h6v18l-2,0Z"/><path class="cls-149" d="M69.93,42.92l-7,0c-.1-1.45,1-1.72,2-2.17C68,39.85,67.26,37.2,67.49,35c.32-3-.78-6.29,1.4-9h4c0,3.83-.22,7.67.07,11.46A5,5,0,0,1,69.93,42.92Z"/><path class="cls-150" d="M88.89,165.87a23.72,23.72,0,0,0,0-15l4-5c1.78,1.82.92,4.09.94,6.14.11,7.77.08,15.55,0,23.32,0,1.12,1,3.49-1.95,2.51a2.14,2.14,0,0,0-1-2c0-.33,0-.66,0-1-1.2-.72-.28-2.13-1-3,0-1.1.16-2.28-1-3Z"/><path class="cls-151" d="M64.9,42a2.13,2.13,0,0,0-2,.92l-1,.16-7,0-6,0L48,42C58.91,42,58.91,42,58.91,31V26h6A18.77,18.77,0,0,1,64.9,42Z"/><path class="cls-76" d="M64.9,42V26h4c0,4.07-.16,8.15.06,12.21C69.11,41.33,67.73,42.3,64.9,42Z"/><path class="cls-141" d="M89.87,171.87c1.15.73,1,1.91,1,3-14.49,4.86-29.18,9-43.93,13l1-2c12.51-4.79,25.62-7.66,38.32-11.85C87.7,173.54,89.18,173.49,89.87,171.87Z"/><path class="cls-17" d="M23.89,23.91s-3,3-3,5a3.7,3.7,0,0,0,2,3l6,4,1-1-1-3L25.72,29l-1.46-1.91Z"/></g></g></svg>